<?xml version="1.0" encoding="utf-8"?>
<!-- Generator: Adobe Illustrator 18.1.1, SVG Export Plug-In . SVG Version: 6.00 Build 0)  -->
<!DOCTYPE svg PUBLIC "-//W3C//DTD SVG 1.1//EN" "http://www.w3.org/Graphics/SVG/1.1/DTD/svg11.dtd">
<svg version="1.1" id="Validation_x5F_Check" xmlns="http://www.w3.org/2000/svg" xmlns:xlink="http://www.w3.org/1999/xlink"
	 x="0px" y="0px" viewBox="0 0 25 25" enable-background="new 0 0 25 25" xml:space="preserve">
<g>
	<g>
		<path fill="#54C2BD" d="M12.5,24.5c-6.6,0-12.1-5.4-12-12.2C0.6,5.8,6,0.4,12.7,0.5c6.5,0.1,11.8,5.4,11.8,12
			C24.5,19.1,19.1,24.5,12.5,24.5z M23,12.5C22.9,6.7,18.3,2,12.5,2C6.7,2,2,6.7,2,12.5C2,18.3,6.8,23,12.5,23
			C18.3,23,22.9,18.3,23,12.5z"/>
		<path fill="#54C2BD" d="M11.6,14.7c0.5-0.5,0.9-1,1.3-1.5c1.5-1.6,2.9-3.3,4.4-4.9c0.3-0.4,0.7-0.5,1.2-0.3
			c0.4,0.1,0.6,0.4,0.7,0.8c0,0.3-0.1,0.6-0.3,0.8c-1.6,1.8-3.2,3.6-4.8,5.4c-0.5,0.6-1,1.1-1.5,1.7c-0.3,0.3-0.6,0.5-1,0.4
			c-0.2,0-0.3-0.1-0.5-0.2c-1.3-1-2.6-2.1-3.9-3.1c-0.3-0.3-0.5-0.6-0.4-1.1c0.1-0.4,0.4-0.7,0.8-0.8c0.3-0.1,0.6,0,0.9,0.2
			c1,0.8,2.1,1.7,3.1,2.5C11.5,14.6,11.5,14.7,11.6,14.7z"/>
	</g>
</g>
</svg>
