<?xml version="1.0" encoding="utf-8"?>
<!-- Generator: Adobe Illustrator 18.1.1, SVG Export Plug-In . SVG Version: 6.00 Build 0)  -->
<!DOCTYPE svg PUBLIC "-//W3C//DTD SVG 1.1//EN" "http://www.w3.org/Graphics/SVG/1.1/DTD/svg11.dtd">
<svg version="1.1" id="Validation_x5F_Check" xmlns="http://www.w3.org/2000/svg" xmlns:xlink="http://www.w3.org/1999/xlink"
	 x="0px" y="0px" width="135px" height="135px" viewBox="0 0 135 135" enable-background="new 0 0 135 135" xml:space="preserve">
<g>
	<g>
		<path fill="#EE596C" d="M100.4,51c-7.9-6.8-20.7-6.8-28.7,0.1c0,0,0,0,0,0c-2.1,1.8-5.2,1.9-7.5,0.5c-6.5-4-15.3-6.6-22-4.7
			c-8.7,2.5-15.5,9.9-14.1,22.3c0.9,7.9,3,15.5,6,22.8c2.2,5.4,4.7,10.8,8.4,15.4c2.7,3.3,6.7,5.1,11,4.9c3.2-0.2,6.4-0.7,9.5-1.5
			c3.2-0.8,6.5-0.8,9.7,0.1c1.5,0.4,3,0.7,4.5,1c7.2,1.5,13.3-0.2,17.3-6.8c7.1-11.4,11.5-23.7,12.7-37.1
			C107.6,61.3,105.6,55.5,100.4,51z"/>
	</g>
	<g>
		<path fill="#B7D893" d="M68,40.3c0,0,4-18.7,26.8-17.6c0,0-2.8,18-26.8,21.3"/>
	</g>
	<g>
		<path fill="none" d="M68,52.5v-10c0-4-1.3-8-3.8-11.2l-3.2-4.2"/>
	</g>
</g>
</svg>
