<?xml version="1.0" encoding="utf-8"?>
<!-- Generator: Adobe Illustrator 18.1.1, SVG Export Plug-In . SVG Version: 6.00 Build 0)  -->
<!DOCTYPE svg PUBLIC "-//W3C//DTD SVG 1.1//EN" "http://www.w3.org/Graphics/SVG/1.1/DTD/svg11.dtd">
<svg version="1.1" id="Validation_x5F_Check" xmlns="http://www.w3.org/2000/svg" xmlns:xlink="http://www.w3.org/1999/xlink"
	 x="0px" y="0px" width="135px" height="135px" viewBox="0 0 135 135" enable-background="new 0 0 135 135" xml:space="preserve">
<g>
	<g>
		<path fill="#52BDC5" d="M32.2,67.5c0-13.5,0-26.9,0-40.4c0-4.4,2.9-7.2,7.2-7.2c18.7,0,37.4,0,56,0c4.5,0,7.3,2.8,7.3,7.3
			c0,26.9,0,53.7,0,80.6c0,4.4-2.9,7.3-7.3,7.3c-18.7,0-37.4,0-56.1,0c-4.3,0-7.2-2.9-7.2-7.2C32.2,94.4,32.2,81,32.2,67.5z"/>
	</g>
	<g>
		<path fill="#FFF7EC" d="M68.4,92.6c6.3,0,12.5,0,18.8,0c2.1,0,3.4,1.7,2.6,3.5c-0.4,0.9-1.1,1.5-2.1,1.6c-0.4,0-0.8,0-1.3,0
			c-12.1,0-24.2,0-36.2,0c-0.4,0-0.8,0-1.2,0c-1.3-0.1-2.3-1.1-2.3-2.4c0-1.3,0.8-2.4,2.2-2.6c0.4-0.1,0.7,0,1.1,0
			C56.1,92.6,62.2,92.6,68.4,92.6z"/>
	</g>
	<g>
		<g>
			<circle fill="#FBEA75" cx="67.5" cy="57.4" r="19.7"/>
		</g>
		<path fill="#52BDC5" d="M87.2,58.4v-2h-8.4c-0.1-2.4-0.6-4.7-1.4-6.9c2.1-0.9,4.2-2.1,6.1-3.6l-1.2-1.6c-1.7,1.4-3.6,2.5-5.6,3.3
			c-1.8-3.9-4.6-7.5-8.4-10.6l-0.2-0.2l-0.6,0.8h0l-0.6-0.8L66.7,37c-3.8,3-6.6,6.6-8.4,10.6c-2-0.8-3.9-1.9-5.6-3.3l-1.2,1.6
			c1.9,1.5,4,2.7,6.1,3.6c-0.8,2.2-1.2,4.5-1.4,6.9h-8.4v2h8.4c0.1,2.4,0.5,4.7,1.3,6.9c-2.1,0.9-4.1,2.1-6,3.6l1.2,1.6
			c1.7-1.4,3.5-2.4,5.5-3.3c1.7,4,4.5,7.7,8.3,10.7l0.6-0.8h0.8l0.6,0.8c3.8-3.1,6.6-6.7,8.3-10.7c1.9,0.8,3.8,1.9,5.5,3.3l1.2-1.6
			c-1.9-1.5-3.9-2.7-6-3.6c0.7-2.2,1.2-4.5,1.3-6.9H87.2z M76.8,56.4h-8.3v-4.9c2.4-0.1,4.8-0.5,7.1-1.3
			C76.3,52.2,76.7,54.2,76.8,56.4z M74.8,48.3c-2.1,0.7-4.2,1-6.3,1.1v-9.6C71.3,42.4,73.4,45.2,74.8,48.3z M66.5,39.8v9.6
			c-2.1-0.1-4.3-0.5-6.3-1.1C61.6,45.2,63.7,42.4,66.5,39.8z M59.4,50.2c2.3,0.8,4.7,1.2,7.1,1.3v4.9h-8.3
			C58.3,54.2,58.7,52.2,59.4,50.2z M58.2,58.4h8.3v4.8c-2.4,0.1-4.9,0.5-7.2,1.3C58.6,62.5,58.3,60.5,58.2,58.4z M60,66.4
			c2.1-0.7,4.3-1.1,6.5-1.2v10C63.6,72.6,61.4,69.6,60,66.4z M68.5,75.2v-10c2.2,0.1,4.4,0.5,6.5,1.2C73.6,69.6,71.4,72.6,68.5,75.2
			z M75.7,64.5c-2.3-0.8-4.8-1.2-7.2-1.3v-4.8h8.3C76.7,60.5,76.4,62.5,75.7,64.5z"/>
	</g>
</g>
</svg>
