<?xml version="1.0" encoding="utf-8"?>
<!-- Generator: Adobe Illustrator 18.1.1, SVG Export Plug-In . SVG Version: 6.00 Build 0)  -->
<!DOCTYPE svg PUBLIC "-//W3C//DTD SVG 1.1//EN" "http://www.w3.org/Graphics/SVG/1.1/DTD/svg11.dtd">
<svg version="1.1" id="Validation_x5F_Check" xmlns="http://www.w3.org/2000/svg" xmlns:xlink="http://www.w3.org/1999/xlink"
	 x="0px" y="0px" width="566.9px" height="406.3px" viewBox="0 0 566.9 406.3" enable-background="new 0 0 566.9 406.3"
	 xml:space="preserve">
<g opacity="0.7">
	<g>
		<circle fill="#FFFFFF" cx="370.5" cy="157.4" r="4"/>
	</g>
	<g opacity="0.7">
		<g opacity="0.9">
			<path fill="#FFFFFF" d="M88.3,361.8c0-15,12.2-27.2,27.2-27.2s27.2,12.2,27.2,27.2s-12.2,27.2-27.2,27.2S88.3,376.9,88.3,361.8z
				 M89.3,361.8c0,14.5,11.8,26.2,26.2,26.2c14.5,0,26.2-11.8,26.2-26.2c0-14.5-11.8-26.2-26.2-26.2
				C101,335.6,89.3,347.4,89.3,361.8z"/>
		</g>
		<g opacity="0.6">
			<path fill="#FFFFFF" d="M82.7,361.8c0-18.1,14.7-32.8,32.8-32.8c18.1,0,32.8,14.7,32.8,32.8c0,18.1-14.7,32.8-32.8,32.8
				C97.4,394.7,82.7,380,82.7,361.8z M83.7,361.8c0,17.6,14.3,31.8,31.8,31.8s31.8-14.3,31.8-31.8S133,330,115.5,330
				S83.7,344.3,83.7,361.8z"/>
		</g>
		<g opacity="0.4">
			<path fill="#FFFFFF" d="M77,361.8c0-21.2,17.3-38.5,38.5-38.5s38.5,17.3,38.5,38.5s-17.3,38.5-38.5,38.5S77,383.1,77,361.8z
				 M78,361.8c0,20.7,16.8,37.5,37.5,37.5s37.5-16.8,37.5-37.5s-16.8-37.5-37.5-37.5S78,341.2,78,361.8z"/>
		</g>
	</g>
	<g>
		<path fill="#FFFFFF" d="M334,49.4c3.8-1.4,7.6-2.8,11.3-4.2c0.7-0.3,1.3,0,1.6,0.7c0,0.1,0,0.1,0.1,0.2c2.1,5.6,4.2,11.1,6.2,16.7
			c0.1,0.3,0.2,0.6,0.1,0.9c-0.1,0.3-0.3,0.6-0.6,0.7c-0.1,0-0.2,0.1-0.3,0.1c-4.1,1.5-8.1,3-12.2,4.5c-0.2,0.1-0.3,0.2-0.4,0.4
			c-0.6,1.7-1.2,3.4-1.7,5.1c-0.2,0.6-0.7,0.8-1.3,0.5c-1.6-0.9-3.1-1.8-4.7-2.7c-0.2-0.1-0.3-0.1-0.4,0c-0.7,0.3-1.3,0.5-2,0.7
			c-0.6,0.2-1.2,0-1.5-0.6c0-0.1-0.1-0.1-0.1-0.2c-2.1-5.6-4.2-11.1-6.2-16.7c-0.1-0.2-0.1-0.5-0.1-0.7c0-0.5,0.3-0.8,0.8-0.9
			c3.7-1.4,7.5-2.8,11.2-4.2C333.9,49.5,333.9,49.4,334,49.4z M329.5,71.2c0.7-0.3,1.4-0.5,2.1-0.8c0.3-0.1,0.6-0.1,0.9,0.1
			c1.2,0.7,2.4,1.4,3.6,2.1c0.3,0.2,0.5,0.3,0.8,0.5c0-0.1,0.1-0.1,0.1-0.2c0.5-1.5,1.1-3,1.6-4.5c0.1-0.3,0.3-0.6,0.7-0.7
			c4-1.5,8.1-3,12.1-4.5c0.1,0,0.2-0.1,0.3-0.1c-2-5.4-4-10.8-6.1-16.2c-7.4,2.7-14.7,5.5-22,8.2C325.5,60.4,327.5,65.8,329.5,71.2z
			"/>
		<path fill="#FFFFFF" d="M335.6,53.9c2.2-0.8,4.4-1.7,6.7-2.5c0.3-0.1,0.6-0.1,0.8,0.1c0.3,0.3,0.4,0.6,0.3,0.9
			c0,0.2-0.2,0.3-0.3,0.4c-0.1,0.1-0.1,0.1-0.2,0.1c-4.4,1.7-8.8,3.3-13.3,5c-0.6,0.2-1.1-0.1-1.1-0.7c0-0.4,0.1-0.6,0.5-0.7
			C331.2,55.5,333.4,54.7,335.6,53.9z"/>
		<path fill="#FFFFFF" d="M339.5,64.1c-2.2,0.8-4.4,1.7-6.7,2.5c-0.4,0.1-0.6,0.1-0.8-0.2c-0.2-0.3-0.3-0.7-0.2-1
			c0.1-0.1,0.2-0.2,0.3-0.3c0.1-0.1,0.3-0.1,0.4-0.2c4.4-1.6,8.7-3.3,13.1-4.9c0.6-0.2,1.2,0.2,1.1,0.9c0,0.3-0.2,0.5-0.5,0.6
			C344,62.4,341.7,63.3,339.5,64.1z"/>
		<path fill="#FFFFFF" d="M337.3,58.3c2.2-0.8,4.5-1.7,6.7-2.5c0.4-0.1,0.6-0.1,0.8,0.2c0.2,0.3,0.3,0.7,0.1,1
			c-0.1,0.1-0.2,0.2-0.4,0.3c-2.1,0.8-4.2,1.6-6.2,2.3c-2.4,0.9-4.8,1.8-7.2,2.7c-0.4,0.1-0.6,0.1-0.8-0.2c-0.2-0.3-0.3-0.7-0.1-1
			c0.1-0.1,0.2-0.2,0.4-0.3C332.8,59.9,335.1,59.1,337.3,58.3z"/>
	</g>
	<g opacity="0.6">
		
			<rect x="93.6" y="268.7" transform="matrix(-0.4572 0.8894 -0.8894 -0.4572 468.9077 252.2148)" fill="#FFFFFF" width="127.8" height="1"/>
	</g>
	<g opacity="0.25">
		
			<rect x="424.9" y="349.3" transform="matrix(-0.3018 0.9534 -0.9534 -0.3018 922.6498 98.0105)" fill="#FFFFFF" width="1" height="75.1"/>
	</g>
	<g opacity="0.4">
		
			<rect x="279.4" y="187.3" transform="matrix(-0.7623 0.6472 -0.6472 -0.7623 674.558 312.5747)" fill="#FFFFFF" width="1" height="185.7"/>
	</g>
	<g opacity="0.25">
		
			<rect x="434.6" y="111" transform="matrix(-0.2276 0.9738 -0.9738 -0.2276 703.3227 -210.2873)" fill="#FFFFFF" width="1" height="125.6"/>
	</g>
	<g opacity="0.4">
		
			<rect x="242.7" y="163.5" transform="matrix(-0.9963 8.592883e-02 -8.592883e-02 -0.9963 622.5159 301.1502)" fill="#FFFFFF" width="124.2" height="1"/>
	</g>
	<g opacity="0.7">
		<g opacity="0.9">
			<path fill="#FFFFFF" d="M311.3,61.4c0-15,12.2-27.2,27.2-27.2s27.2,12.2,27.2,27.2s-12.2,27.2-27.2,27.2S311.3,76.4,311.3,61.4z
				 M312.3,61.4c0,14.5,11.8,26.2,26.2,26.2c14.5,0,26.2-11.8,26.2-26.2S353,35.2,338.5,35.2C324.1,35.2,312.3,47,312.3,61.4z"/>
		</g>
		<g opacity="0.6">
			<path fill="#FFFFFF" d="M305.7,61.4c0-18.1,14.7-32.8,32.8-32.8c18.1,0,32.8,14.7,32.8,32.8s-14.7,32.8-32.8,32.8
				C320.4,94.3,305.7,79.5,305.7,61.4z M306.7,61.4c0,17.6,14.3,31.8,31.8,31.8s31.8-14.3,31.8-31.8s-14.3-31.8-31.8-31.8
				S306.7,43.9,306.7,61.4z"/>
		</g>
		<g opacity="0.4">
			<path fill="#FFFFFF" d="M300,61.4c0-21.2,17.3-38.5,38.5-38.5s38.5,17.3,38.5,38.5s-17.3,38.5-38.5,38.5S300,82.7,300,61.4z
				 M301,61.4c0,20.7,16.8,37.5,37.5,37.5s37.5-16.8,37.5-37.5s-16.8-37.5-37.5-37.5S301,40.7,301,61.4z"/>
		</g>
	</g>
	<g opacity="0.4">
		
			<rect x="357.6" y="97.3" transform="matrix(-0.9278 0.3731 -0.3731 -0.9278 737.528 110.3823)" fill="#FFFFFF" width="1" height="58.4"/>
	</g>
	<g opacity="0.25">
		<polygon fill="#FFFFFF" points="376.7,61.9 563.6,0 560.5,0 376.4,61 		"/>
	</g>
	<g opacity="0.6">
		<polygon fill="#FFFFFF" points="194.9,153.7 195.7,153.1 69.7,0 68.4,0 		"/>
	</g>
	<g>
		<circle fill="#FFFFFF" cx="69.3" cy="140.8" r="4"/>
	</g>
	<g opacity="0.2">
		<path fill="#FFFFFF" d="M69.3,136.7"/>
	</g>
	<g opacity="0.6">
		<polygon fill="#FFFFFF" points="0,211.7 66.7,143.9 66,143.2 0,210.2 		"/>
	</g>
	<g opacity="0.9">
		<path fill="#FFFFFF" d="M193.2,165.3c-1.7,1.8-2.7,4.1-3,6.7c-0.4,4.3-0.1,8.6,0.8,12.8c1,4.5,2.7,8.9,5.1,12.8
			c0.1,0.1,0.2,0.2,0.2,0.2c9.4,0.9,18.1-1,26-5.7c3-1.8,5-4.9,5.3-8.4c0.4-3.6-1-7-3.6-9.4c-2-1.8-4.2-2.8-6.6-2.9
			c-1.4-0.1-2.9,0.1-4.4,0.5l-0.5,0.1l-0.1-0.3c-0.1-0.2-0.1-0.5-0.2-0.7c-0.1-0.5-0.2-1-0.4-1.4c-1.4-4.2-4.2-6.7-8.3-7.6
			C199.8,161.1,196.2,162.2,193.2,165.3z M191.4,172.4c0.2-2.4,1-4.4,2.5-6.1c2-2.3,5.1-3.6,8.3-3.4c1.5,0.1,2.9,0.6,4.2,1.3
			c3.2,1.9,4.9,4.7,5.1,8.4c0,0.4,0,0.9,0,1.3c0,0,0,0,0,0.1c1.8-1.1,3.9-1.6,6-1.5c2.2,0.2,4.3,1,6,2.5c2.4,2.1,3.6,5.2,3.3,8.5
			c-0.3,3.2-2.1,6-4.8,7.6c-7.4,4.3-15.5,6.2-24.1,5.6c-0.5,0-0.8-0.2-1.1-0.7C192.6,188.7,190.8,180.7,191.4,172.4z"/>
		<polygon fill="#FFFFFF" points="198.7,181.7 201.6,177.2 204.9,179.3 207,176 211.5,178.9 209.4,182.2 212.7,184.3 209.9,188.8 
			206.5,186.7 204.4,190 199.9,187.2 202,183.8 		"/>
	</g>
	<g>
		<path opacity="0.9" fill="#FFFFFF" d="M114.4,350.3c-0.8,0-1.7,0-2.5,0c-1.2,0-2.4,0.1-3.7,0.1c-0.7,0-1.3,0.2-1.7,0.8
			c-0.4,0.6-0.8,1.3-1.1,1.9c-0.7,1.2-1.4,2.4-2,3.7c0,0.1-0.1,0.1-0.1,0.2c0.5-0.1,1-0.2,1.5-0.3c0.9-0.1,1.8-0.1,2.6-0.1
			c1.3,0,2.6,0,3.8,0c1,0,2-0.1,3-0.1c0,0,0.1,0,0.1,0C114.4,354.4,114.4,352.3,114.4,350.3z"/>
		<path opacity="0.9" fill="#FFFFFF" d="M117,375.4c-1.2-1.2-2-2.6-2.9-4c-1-1.8-2.1-3.5-3.1-5.2c0,0-0.1-0.1-0.1-0.1
			c-1.8,1-3.6,2-5.4,3.1c0.1,0.2,0.3,0.5,0.4,0.7c0.7,1.2,1.5,2.4,2.2,3.6c0.2,0.3,0.4,0.6,0.5,0.9c0.4,0.8,1.1,1.2,2,1.2
			c0.9,0,1.9,0,2.8,0c1.1,0,2.2,0,3.3,0C116.8,375.4,116.9,375.4,117,375.4z"/>
		<path opacity="0.9" fill="#FFFFFF" d="M119.1,357.9c0-0.4,0-0.7,0.1-1.1c0.9,0,1.9-0.1,2.8-0.1c0.7,0,1.4,0,2.1,0
			c0.1,0,0.1,0,0.2-0.1c0.4-0.7,0.8-1.4,0.9-2.3c0.3-1.8-0.6-3.3-2.4-3.8c-1-0.3-2-0.3-3-0.2c-0.2,0-0.4,0-0.6,0.1
			c0-0.6-0.1-1.1-0.1-1.7c0,0-0.1,0.1-0.1,0.1c-0.8,1.4-1.6,2.9-2.3,4.3c0,0.1,0,0.2,0,0.3c0.6,1.1,1.3,2.2,1.9,3.3
			C118.7,357.2,118.8,357.6,119.1,357.9z"/>
		<path opacity="0.9" fill="#FFFFFF" d="M103.2,365c-0.5,0.3-0.9,0.6-1.4,1c0,0,0,0,0.1,0c1.6,0,3.3-0.1,4.9-0.1
			c0.1,0,0.2,0,0.2-0.1c0.9-1.4,1.7-2.9,2.5-4.4c-0.3,0.2-0.6,0.3-0.9,0.5c-0.3-0.5-0.7-1-0.9-1.5c-0.5-0.9-1-1.8-1.5-2.7
			c0-0.1-0.1-0.2-0.2-0.2c-0.7,0.1-1.4,0.1-2.1,0.2c-1.3,0.3-2.1,1.1-2.4,2.4c-0.2,0.8,0,1.7,0.3,2.4c0.3,0.8,0.8,1.5,1.3,2.1
			C103.1,364.9,103.1,364.9,103.2,365z"/>
		<path opacity="0.9" fill="#FFFFFF" d="M123.9,371.5c0.5,0.2,1,0.5,1.6,0.7c-0.2-0.3-0.4-0.6-0.5-0.9c-0.7-1.1-1.4-2.2-2.1-3.3
			c-0.1-0.1-0.2-0.2-0.4-0.2c-1.4,0-2.8,0-4.3,0c-0.2,0-0.4,0-0.7,0c0.3,0.2,0.6,0.4,0.9,0.6c-0.4,0.8-0.8,1.6-1.3,2.3
			c-0.4,0.6-0.7,1.2-1.1,1.8c-0.1,0.1-0.1,0.2,0,0.3c0.4,0.5,0.7,1.1,1.1,1.5c0.9,1,2.1,1.4,3.5,1c0.8-0.3,1.5-0.9,2-1.6
			c0.5-0.6,0.8-1.3,1.1-2C123.8,371.7,123.8,371.6,123.9,371.5z"/>
		<path opacity="0.9" fill="#FFFFFF" d="M126,354.6c-0.5,2.1-1.7,3.9-2.8,5.7c-0.7,1.3-1.4,2.5-2.1,3.8c-0.1,0.1-0.1,0.3-0.2,0.4
			c1.8,1,3.6,2.1,5.4,3.1c0.4-0.7,0.7-1.3,1.1-2c0.6-1.2,1.2-2.3,1.9-3.5c0.4-0.8,0.4-1.5,0-2.2c-0.4-0.8-0.9-1.5-1.4-2.3
			c-0.6-1-1.2-2-1.8-3C126.1,354.7,126.1,354.7,126,354.6z"/>
	</g>
	<g>
		<path fill="#FFFFFF" d="M373.4,374c-0.2-0.5-0.4-1-0.8-1.3c0.4-0.6,0.6-1.3,0.5-2c-0.1-0.7-0.4-1.3-0.9-1.8c0.4-0.6,0.6-1.3,0.5-2
			c-0.1-0.7-0.4-1.4-0.9-1.8c0.7-1.1,0.6-2.6-0.3-3.6c-0.8-0.9-2.1-1.2-3.3-0.7l-6.6,2.6c-0.1-2.2-0.6-4.4-1.5-6.5
			c-0.2-0.4-0.5-0.8-0.8-1.1c-1.1-0.8-2.5-0.9-3.6-0.1c-1,0.7-1.4,2.2-0.9,3.4c0.5,1.2,0.7,2.4,0.7,3.6c0,1.8-0.6,3.5-1.8,5.1
			l-0.4-1c-0.3-0.7-0.8-1-1.6-0.7l-6.4,2.5c-0.7,0.3-0.8,0.8-0.8,1.1c0,0.2,0.1,0.4,0.1,0.6l6.1,15.4c0.2,0.5,0.6,0.8,1,0.8
			c0.2,0,0.4,0,0.6-0.1l6.4-2.5c0.7-0.3,0.9-0.8,0.7-1.5l-0.1-0.4c0.9,0.1,1.9-0.1,2.8-0.5c2.3-0.9,4.5-1.8,6.8-2.7l2.8-1.1
			c0.1,0,0.2-0.1,0.3-0.1C373.2,376.9,373.9,375.3,373.4,374z M371.5,376.5c-0.1,0-0.2,0.1-0.3,0.1l-2.8,1.1
			c-2.3,0.9-4.6,1.8-6.8,2.7c-1,0.4-2,0.5-3,0.3c-0.1,0-0.1,0-0.2,0l-0.9-0.1l0.8,2.1c0,0,0,0,0,0.1c0,0,0,0-0.1,0l-6.4,2.5
			c0,0-0.1,0-0.1,0c0,0,0-0.1-0.1-0.1l-6.1-15.4c0-0.1-0.1-0.1-0.1-0.1c0,0,0,0,0,0c0,0,0,0,0.1,0l6.4-2.5c0,0,0.1,0,0.1,0
			c0,0,0,0.1,0,0.1l0.7,1.9l0.4,0.7l0.6-0.6c0.1-0.1,0.1-0.1,0.2-0.2c1.6-1.9,2.4-4,2.4-6.3c0-1.3-0.2-2.7-0.7-4
			c-0.3-0.8-0.1-1.7,0.6-2.1c0.7-0.5,1.6-0.5,2.3,0c0.2,0.2,0.4,0.4,0.5,0.6c0.9,2.1,1.3,4.4,1.4,6.6c0,0.1,0,0.1,0,0.3l0.1,0.8
			l8-3.2c0.8-0.3,1.6-0.1,2.1,0.4c0.7,0.7,0.7,1.8,0,2.5l-0.5,0.6l0.6,0.3c0.5,0.3,0.8,0.8,0.9,1.4c0.1,0.6-0.1,1.1-0.6,1.6
			l-0.5,0.5l0.6,0.4c0.5,0.3,0.8,0.8,0.9,1.3c0.1,0.6-0.1,1.1-0.6,1.6l-0.5,0.5l0.6,0.4c0.4,0.2,0.7,0.6,0.8,1.1
			C372.6,375.2,372.2,376.1,371.5,376.5z"/>
		<path fill="#FFFFFF" d="M355.2,372c-0.1-0.3-0.4-0.4-0.7-0.3c-0.3,0.1-0.4,0.4-0.3,0.7l2.3,5.7c0.1,0.2,0.3,0.3,0.5,0.3
			c0.1,0,0.1,0,0.2,0c0.3-0.1,0.4-0.4,0.3-0.7L355.2,372z"/>
	</g>
</g>
</svg>
