<?xml version="1.0" encoding="utf-8"?>
<!-- Generator: Adobe Illustrator 18.1.1, SVG Export Plug-In . SVG Version: 6.00 Build 0)  -->
<!DOCTYPE svg PUBLIC "-//W3C//DTD SVG 1.1//EN" "http://www.w3.org/Graphics/SVG/1.1/DTD/svg11.dtd">
<svg version="1.1" id="Validation_x5F_Check" xmlns="http://www.w3.org/2000/svg" xmlns:xlink="http://www.w3.org/1999/xlink"
	 x="0px" y="0px" width="23px" height="23px" viewBox="0 0 23 23" enable-background="new 0 0 23 23" xml:space="preserve">
<g>
	<path id="White_2_" fill="#BFE6EE" d="M19.3,1.2H3.8c-1.1,0-2.1,0.9-2.1,2.1v15.5c0,1.1,0.9,2.1,2.1,2.1h8.4v-7.6H9.6v-3h2.6V8
		c0-2.5,1.6-3.9,3.8-3.9c1.1,0,2,0.1,2.3,0.1v2.7l-1.6,0c-1.2,0-1.5,0.6-1.5,1.4v1.9h2.9l-0.4,3h-2.6v7.6h4c1.1,0,2.1-0.9,2.1-2.1
		V3.2C21.3,2.1,20.4,1.2,19.3,1.2z"/>
</g>
</svg>
