<?xml version="1.0" encoding="utf-8"?>
<!-- Generator: Adobe Illustrator 18.1.1, SVG Export Plug-In . SVG Version: 6.00 Build 0)  -->
<!DOCTYPE svg PUBLIC "-//W3C//DTD SVG 1.1//EN" "http://www.w3.org/Graphics/SVG/1.1/DTD/svg11.dtd">
<svg version="1.1" id="Validation_x5F_Check" xmlns="http://www.w3.org/2000/svg" xmlns:xlink="http://www.w3.org/1999/xlink"
	 x="0px" y="0px" width="135px" height="135px" viewBox="0 0 135 135" enable-background="new 0 0 135 135" xml:space="preserve">
<g>
	<g>
		<path fill="#B7D893" d="M66.6,115.3C40.1,114.7,19,92.8,19.8,66.2c0.7-26.6,22.7-46.9,48.6-46.5c26.6,0.5,47.4,22.4,46.9,48.5
			C114.8,94.9,92.9,115.7,66.6,115.3z"/>
	</g>
	<g>
		<path fill="#FFF7EC" d="M71.4,47.8c0-0.7,0-1.5,0-2.3c-0.1-1.6-1.3-2.8-2.9-2.8c-1.6-0.1-2.9,1-3,2.6c-0.1,0.8-0.1,1.6,0,2.4
			c0,0.6-0.2,0.8-0.7,1c-1.2,0.3-2.3,0.7-3.4,1.2c-4.5,2.1-6.8,6.3-6,11.2c0.5,3.3,2.5,5.5,5.3,7c2.2,1.1,4.5,1.9,6.7,2.9
			c1.4,0.7,3,1.4,4.2,2.4c1.9,1.6,1.4,4.4-0.9,5.4c-1.1,0.5-2.4,0.8-3.6,0.8c-3.4,0.1-6.6-0.7-9.6-2.2c-0.9-0.5-1.8-0.4-2.6,0.1
			c-1.2,0.7-1.9,1.8-1.9,3.3c0,1.5,0.6,2.6,1.9,3.4c1.9,1.1,4.1,1.7,6.2,2.1c1.3,0.2,2.7,0.4,4.1,0.6c0,0.9-0.1,1.8,0,2.7
			c0.1,0.6,0.2,1.2,0.5,1.7c0.6,1.1,1.9,1.5,3.2,1.2C70,92,71,91,71,89.8c0.1-1.2,0-2.4,0-3.5c1.3-0.4,2.4-0.7,3.4-1.1
			c6.9-2.7,8.7-9.1,6.8-14.4c-1.1-2.9-3.4-4.7-6.1-5.9c-2.1-1-4.3-1.7-6.4-2.7c-1.2-0.6-2.4-1.3-3.4-2.1c-1.3-1.1-1.1-3.2,0.4-4.1
			c0.8-0.5,1.7-0.8,2.6-1c3.2-0.4,6.3,0.3,9.2,1.5c0.5,0.2,1.1,0.4,1.7,0.3c1.5-0.2,2.7-1.5,2.9-3.1c0.2-1.6-0.5-3.1-2-3.8
			c-0.9-0.4-1.7-0.8-2.6-1C75.5,48.5,73.5,48.2,71.4,47.8z"/>
	</g>
</g>
</svg>
