<?xml version="1.0" encoding="utf-8"?>
<!-- Generator: Adobe Illustrator 18.1.1, SVG Export Plug-In . SVG Version: 6.00 Build 0)  -->
<!DOCTYPE svg PUBLIC "-//W3C//DTD SVG 1.1//EN" "http://www.w3.org/Graphics/SVG/1.1/DTD/svg11.dtd">
<svg version="1.1" id="Validation_x5F_Check" xmlns="http://www.w3.org/2000/svg" xmlns:xlink="http://www.w3.org/1999/xlink"
	 x="0px" y="0px" width="566.9px" height="406.3px" viewBox="0 0 566.9 406.3" enable-background="new 0 0 566.9 406.3"
	 xml:space="preserve">
<g opacity="0.7">
	<g>
		<circle fill="#FFFFFF" cx="196.4" cy="157.4" r="4"/>
	</g>
	<g opacity="0.7">
		<g opacity="0.9">
			<path fill="#FFFFFF" d="M451.4,389.1c-15,0-27.2-12.2-27.2-27.2s12.2-27.2,27.2-27.2s27.2,12.2,27.2,27.2
				S466.4,389.1,451.4,389.1z M451.4,335.6c-14.5,0-26.2,11.8-26.2,26.2c0,14.5,11.8,26.2,26.2,26.2c14.5,0,26.2-11.8,26.2-26.2
				C477.6,347.4,465.9,335.6,451.4,335.6z"/>
		</g>
		<g opacity="0.6">
			<path fill="#FFFFFF" d="M451.4,394.7c-18.1,0-32.8-14.7-32.8-32.8c0-18.1,14.7-32.8,32.8-32.8c18.1,0,32.8,14.7,32.8,32.8
				C484.3,380,469.5,394.7,451.4,394.7z M451.4,330c-17.6,0-31.8,14.3-31.8,31.8s14.3,31.8,31.8,31.8s31.8-14.3,31.8-31.8
				S469,330,451.4,330z"/>
		</g>
		<g opacity="0.4">
			<path fill="#FFFFFF" d="M451.4,400.4c-21.2,0-38.5-17.3-38.5-38.5s17.3-38.5,38.5-38.5s38.5,17.3,38.5,38.5
				S472.7,400.4,451.4,400.4z M451.4,324.3c-20.7,0-37.5,16.8-37.5,37.5s16.8,37.5,37.5,37.5s37.5-16.8,37.5-37.5
				S472.1,324.3,451.4,324.3z"/>
		</g>
	</g>
	<g>
		<g>
			<path fill="#FFFFFF" d="M245.4,69c0.2,0.7,0.5,1.4,0.7,2.1c0,0.1,0.1,0.2,0.1,0.4c0.1,0.4-0.1,0.8-0.5,0.8c-0.8,0-1.5,0-2.3,0
				c-0.5,0-0.7-0.4-0.5-0.9c0.3-0.7,0.5-1.5,0.8-2.2c0,0,0-0.1,0.1-0.2c-0.5-0.3-0.9-0.7-1-1.3c-0.2-0.8,0.2-1.6,0.9-2.1
				c0.1-0.1,0.2-0.2,0.2-0.3c0-2.7,0-5.4,0-8.1c0,0,0-0.1,0-0.2c-0.7,0.2-1.4,0.3-2,0.5c-4.2,1.1-8.5,2.2-12.7,3.3
				c-0.5,0.1-1,0.1-1.6,0c-5.6-1.4-11.1-2.9-16.6-4.6c-0.1,0-0.1,0-0.2-0.1c-0.3-0.1-0.5-0.3-0.5-0.6c0-0.3,0.2-0.5,0.5-0.6
				c0.9-0.2,1.7-0.5,2.6-0.7c4.5-1.2,9-2.3,13.6-3.5c1.2-0.3,2.4-0.2,3.6,0.1c5.2,1.3,10.3,2.7,15.4,4.4c0.1,0,0.2,0,0.2,0.1
				c0.3,0.1,0.4,0.3,0.4,0.6c0,0.3-0.2,0.5-0.4,0.5c-0.3,0.1-0.7,0.2-1,0.3c0,2.9,0,5.7,0,8.6c0.8,0.3,1.3,0.8,1.4,1.7
				C246.5,67.9,246.1,68.5,245.4,69z"/>
		</g>
		<g>
			<path fill="#FFFFFF" d="M240,59.1c0,0.1,0,0.2,0,0.4c0,1.5,0,2.9,0,4.4c0,1-0.4,1.8-1.2,2.3c-1,0.7-2.2,1.1-3.3,1.5
				c-2.5,0.7-5.1,0.9-7.7,0.8c-2.3,0-4.5-0.3-6.7-0.9c-1-0.3-2.1-0.6-3-1.3c-0.3-0.2-0.6-0.5-0.9-0.8c-0.3-0.4-0.5-0.8-0.5-1.3
				c0-1.7,0-3.4,0-5.1c0,0,0-0.1,0-0.1c0.1,0,0.2,0,0.3,0.1c3.1,0.8,6.3,1.6,9.4,2.5c1.5,0.4,3,0.3,4.4-0.1c2.9-0.8,5.9-1.5,8.8-2.3
				C239.8,59.2,239.9,59.1,240,59.1z"/>
		</g>
	</g>
	<g opacity="0.6">
		
			<rect x="345.5" y="268.7" transform="matrix(0.4572 0.8894 -0.8894 0.4572 461.6569 -218.0034)" fill="#FFFFFF" width="127.8" height="1"/>
	</g>
	<g opacity="0.25">
		
			<rect x="141" y="349.3" transform="matrix(0.3018 0.9534 -0.9534 0.3018 467.5735 135.207)" fill="#FFFFFF" width="1" height="75.1"/>
	</g>
	<g opacity="0.4">
		
			<rect x="286.5" y="187.3" transform="matrix(0.7623 0.6472 -0.6472 0.7623 249.5101 -119.1753)" fill="#FFFFFF" width="1" height="185.7"/>
	</g>
	<g opacity="0.25">
		
			<rect x="131.3" y="111" transform="matrix(0.2276 0.9738 -0.9738 0.2276 271.0897 5.871)" fill="#FFFFFF" width="1" height="125.6"/>
	</g>
	<g opacity="0.4">
		
			<rect x="200" y="163.5" transform="matrix(0.9963 8.592878e-02 -8.592878e-02 0.9963 15.0596 -21.9183)" fill="#FFFFFF" width="124.2" height="1"/>
	</g>
	<g opacity="0.7">
		<g opacity="0.9">
			<path fill="#FFFFFF" d="M228.4,88.7c-15,0-27.2-12.2-27.2-27.2s12.2-27.2,27.2-27.2s27.2,12.2,27.2,27.2S243.4,88.7,228.4,88.7z
				 M228.4,35.2c-14.5,0-26.2,11.8-26.2,26.2s11.8,26.2,26.2,26.2c14.5,0,26.2-11.8,26.2-26.2S242.8,35.2,228.4,35.2z"/>
		</g>
		<g opacity="0.6">
			<path fill="#FFFFFF" d="M228.4,94.3c-18.1,0-32.8-14.7-32.8-32.8s14.7-32.8,32.8-32.8c18.1,0,32.8,14.7,32.8,32.8
				S246.5,94.3,228.4,94.3z M228.4,29.6c-17.6,0-31.8,14.3-31.8,31.8s14.3,31.8,31.8,31.8s31.8-14.3,31.8-31.8
				S245.9,29.6,228.4,29.6z"/>
		</g>
		<g opacity="0.4">
			<path fill="#FFFFFF" d="M228.4,99.9c-21.2,0-38.5-17.3-38.5-38.5s17.3-38.5,38.5-38.5s38.5,17.3,38.5,38.5S249.6,99.9,228.4,99.9
				z M228.4,23.9c-20.7,0-37.5,16.8-37.5,37.5s16.8,37.5,37.5,37.5s37.5-16.8,37.5-37.5S249.1,23.9,228.4,23.9z"/>
		</g>
	</g>
	<g opacity="0.4">
		
			<rect x="208.3" y="97.3" transform="matrix(0.9278 0.3731 -0.3731 0.9278 62.2915 -68.7708)" fill="#FFFFFF" width="1" height="58.4"/>
	</g>
	<g opacity="0.25">
		<polygon fill="#FFFFFF" points="190.2,61.9 3.3,0 6.4,0 190.5,61 		"/>
	</g>
	<g opacity="0.6">
		<polygon fill="#FFFFFF" points="372,153.7 371.2,153.1 497.2,0 498.5,0 		"/>
	</g>
	<g>
		<circle fill="#FFFFFF" cx="497.6" cy="140.8" r="4"/>
	</g>
	<g opacity="0.2">
		<path fill="#FFFFFF" d="M497.6,136.7"/>
	</g>
	<g opacity="0.6">
		<polygon fill="#FFFFFF" points="566.9,211.7 500.2,143.9 500.9,143.2 566.9,210.2 		"/>
	</g>
	<g opacity="0.9">
		<g>
			<path fill="#FFFFFF" d="M192.6,362c0.4-0.2,0.7-0.4,0.9-0.5c4.5-2.3,9.1-4.5,13.6-6.8c0.6-0.3,1-0.3,1.6,0
				c4.6,2.3,9.1,4.6,13.7,6.9c0.2,0.1,0.4,0.2,0.8,0.5C213,362,202.9,362,192.6,362z"/>
		</g>
		<g>
			<path fill="#FFFFFF" d="M189.9,387.8c0-0.7,0-1.3,0-2c12,0,24,0,36.1,0c0,0.6,0,1.3,0,2C213.9,387.8,201.9,387.8,189.9,387.8z"/>
		</g>
		<g>
			<path fill="#FFFFFF" d="M192.4,383.2c0-0.7,0-1.3,0-1.9c10.4,0,20.7,0,31.1,0c0,0.6,0,1.3,0,1.9
				C213.1,383.2,202.8,383.2,192.4,383.2z"/>
		</g>
		<g>
			<path fill="#FFFFFF" d="M196,378c-0.7,0-1.3,0-2,0c0-4.3,0-8.6,0-13c0.7,0,1.3,0,2,0C196,369.4,196,373.6,196,378z"/>
		</g>
		<g>
			<path fill="#FFFFFF" d="M201.2,378c-0.7,0-1.3,0-2,0c0-4.3,0-8.6,0-13c0.7,0,1.3,0,2,0C201.2,369.4,201.2,373.7,201.2,378z"/>
		</g>
		<g>
			<path fill="#FFFFFF" d="M214.7,365c0.7,0,1.3,0,2,0c0,4.3,0,8.6,0,13c-0.6,0-1.3,0-2,0C214.7,373.7,214.7,369.4,214.7,365z"/>
		</g>
		<g>
			<path fill="#FFFFFF" d="M221.8,378c-0.7,0-1.3,0-2,0c0-4.3,0-8.6,0-13c0.7,0,1.3,0,2,0C221.8,369.4,221.8,373.7,221.8,378z"/>
		</g>
		<g>
			<path fill="#FFFFFF" d="M204.4,365c0.6,0,1.2,0,1.9,0c0,4.3,0,8.6,0,13c-0.6,0-1.2,0-1.9,0C204.4,373.7,204.4,369.4,204.4,365z"
				/>
		</g>
		<g>
			<path fill="#FFFFFF" d="M209.6,365c0.6,0,1.2,0,1.9,0c0,4.3,0,8.6,0,13c-0.6,0-1.2,0-1.9,0C209.6,373.7,209.6,369.4,209.6,365z"
				/>
		</g>
	</g>
	<g>
		<g>
			<path fill="#FFFFFF" d="M338.9,173.1c1.6-4.9,3.3-9.7,4.9-14.6c0.3-0.9,0.8-1.1,1.6-0.8c5.4,1.7,10.1,4.6,14.1,8.6
				c0.9,0.9,1.7,1.9,2.6,2.9c0.2,0.2,0.3,0.2,0.5,0.2c4.9-1.3,9.8-1.5,14.8-0.6c1.9,0.3,3.8,0.9,5.6,1.5c0.7,0.3,1,0.8,0.7,1.5
				c-3.3,9.8-6.6,19.5-9.8,29.3c-0.3,0.8-0.8,1.1-1.6,0.8c-6.4-2.3-13-2.5-19.6-0.7c-0.8,0.2-1.4,0-1.9-0.6c-2.5-3.3-5.5-6-9-8.1
				c-2.2-1.3-4.5-2.3-6.9-3.1c-0.3-0.1-0.7-0.3-0.9-0.6c-0.3-0.3-0.2-0.7,0-1.1c1.1-3.2,2.2-6.5,3.3-9.7
				C337.8,176.4,338.4,174.8,338.9,173.1z M351.5,198c0.1-0.2,0.1-0.3,0.2-0.5c3-8.8,5.9-17.6,8.9-26.4c0.1-0.3,0.1-0.5-0.1-0.7
				c-3.6-4.5-8.1-7.8-13.5-9.9c-0.5-0.2-0.9-0.3-1.4-0.5c-3.1,9.2-6.2,18.4-9.3,27.6C342.3,189.7,347.3,193.2,351.5,198z
				 M372.2,199.7c3.1-9.3,6.2-18.4,9.3-27.7c-1.2-0.3-2.4-0.6-3.6-0.9c-4.9-1-9.7-0.9-14.6,0.3c-0.3,0.1-0.4,0.2-0.5,0.4
				c-3,8.9-5.9,17.7-8.9,26.6c0,0.1-0.1,0.2-0.1,0.4C360.1,197.4,366.2,197.8,372.2,199.7z"/>
		</g>
		<g>
			<path fill="#FFFFFF" d="M346.7,174.4c2.6,1,4.8,2.6,6.5,4.8c0.5,0.6,0.3,1.4-0.3,1.7c-0.5,0.2-0.9,0.1-1.3-0.4
				c-0.9-1.2-2.1-2.3-3.4-3.1c-0.9-0.5-1.9-0.9-2.9-1.3c-0.7-0.3-0.9-0.8-0.7-1.4c0.2-0.5,0.6-0.7,1.1-0.6c0.1,0,0.2,0,0.3,0.1
				C346.3,174.2,346.5,174.3,346.7,174.4z"/>
		</g>
		<g>
			<path fill="#FFFFFF" d="M348.2,169.6c2.6,1,4.8,2.6,6.6,4.8c0.3,0.4,0.5,0.8,0.2,1.3c-0.4,0.7-1.3,0.8-1.8,0.1
				c-0.7-0.9-1.5-1.7-2.4-2.4c-1.2-0.9-2.4-1.5-3.8-2c-0.7-0.2-1-0.7-0.8-1.3c0.2-0.6,0.7-0.9,1.4-0.7
				C347.8,169.4,348,169.5,348.2,169.6z"/>
		</g>
		<g>
			<path fill="#FFFFFF" d="M345,179.1c2.6,1,4.8,2.5,6.6,4.7c0.3,0.4,0.5,0.8,0.2,1.3c-0.4,0.7-1.3,0.8-1.8,0.1
				c-0.8-1-1.6-1.8-2.6-2.6c-1.1-0.8-2.3-1.4-3.5-1.8c-0.7-0.2-1.1-0.7-0.9-1.4c0.2-0.6,0.7-0.9,1.5-0.6
				C344.6,178.9,344.8,179,345,179.1z"/>
		</g>
		<g>
			<path fill="#FFFFFF" d="M365,189c0.4,0.1,0.7,0.2,1.1,0.3c0.2-0.3,0.4-0.6,0.6-1c0.2,0.2,0.5,0.4,0.7,0.6c0.2,0.2,0.3,0.2,0.5,0
				c0.2-0.2,0.5-0.3,0.8-0.5c0.1,0.2,0.2,0.4,0.2,0.6c0.1,0.4,0.3,0.6,0.7,0.4c0.2-0.1,0.4,0,0.7-0.1c0,0.4,0,0.8-0.1,1.2
				c0.3,0.1,0.7,0.3,1.1,0.4c-0.2,0.3-0.3,0.5-0.4,0.8c-0.1,0.2-0.1,0.3,0.1,0.5c0.2,0.2,0.4,0.4,0.6,0.6c-0.3,0.2-0.6,0.5-1,0.7
				c0.1,0.4,0.2,0.7,0.4,1.1c-0.3,0.1-0.6,0.1-0.9,0.1c-0.2,0-0.3,0.1-0.3,0.3c0,0.3-0.1,0.6-0.1,0.9c-0.3-0.1-0.5-0.2-0.8-0.3
				c-0.3-0.1-0.4,0-0.6,0.2c-0.1,0.2-0.3,0.4-0.4,0.7c-0.3-0.3-0.6-0.5-0.9-0.8c-0.3,0.2-0.7,0.4-1,0.6c-0.2-0.4-0.3-0.7-0.5-1.1
				c-0.4,0-0.8,0.1-1.2,0.1c0-0.4,0-0.8,0.1-1.2c-0.4-0.1-0.7-0.2-1.1-0.4c0.1-0.3,0.3-0.5,0.4-0.7c0.2-0.2,0.2-0.4-0.1-0.6
				c-0.2-0.1-0.3-0.3-0.6-0.6c0.3-0.2,0.6-0.4,1-0.7c-0.1-0.4-0.2-0.7-0.4-1.1c0.3-0.1,0.6-0.1,0.8-0.1c0.3,0,0.4-0.1,0.4-0.4
				C364.9,189.6,365,189.4,365,189z"/>
		</g>
		<g>
			<path fill="#FFFFFF" d="M372,182.9c0.2,0.1,0.5,0.2,0.7,0.2c0.6,0.2,0.9,0.8,0.6,1.4c-0.2,0.5-0.8,0.8-1.4,0.6
				c-2-0.7-4-0.9-6.1-0.6c-0.6,0.1-1.1,0.2-1.7,0.3c-0.5,0.1-1-0.1-1.2-0.6c-0.2-0.5-0.1-1,0.3-1.2c0.2-0.1,0.3-0.2,0.5-0.2
				c2.6-0.7,5.3-0.7,7.9,0.1C371.9,182.8,371.9,182.8,372,182.9C372,182.9,372,182.9,372,182.9z"/>
		</g>
		<g>
			<path fill="#FFFFFF" d="M373.4,178.1c0.4,0.1,0.7,0.2,1.1,0.4c0.5,0.3,0.7,0.8,0.5,1.3c-0.2,0.5-0.7,0.7-1.3,0.5
				c-1.4-0.5-2.9-0.8-4.4-0.7c-1.1,0.1-2.1,0.3-3.2,0.4c-0.8,0.1-1.4-0.2-1.5-0.9c0-0.5,0.3-0.9,0.8-1.1c1.8-0.5,3.6-0.7,5.4-0.5
				C371.6,177.6,372.5,177.8,373.4,178.1C373.4,178,373.4,178,373.4,178.1z"/>
		</g>
	</g>
	<g>
		<path fill="#FFFFFF" d="M454.2,358.4c1-0.1,2-0.1,3-0.2c0,0,0,0.1,0,0.1c-0.6,2.1-1.5,4.2-2.8,5.9c-1.3,1.8-2.8,3.2-4.6,4.5
			c-1.1,0.7-2.1,1.4-3.2,2c-0.3,0.2-0.4,0.3-0.6,0.6c-0.6,1.2-1.3,2.4-1.9,3.6c0,0,0,0.1-0.1,0.2c0.5-0.1,0.9-0.3,1.3-0.4
			c2.1-0.7,4.2-1.5,6.4-2.2c1.7-0.6,3.5-0.9,5.4-1.2c1.8-0.2,3.7-0.2,5.5,0.2c0.2,0.1,0.5,0.1,0.7,0.2c0.1,0,0.2,0.2,0.2,0.3
			c0,0.1-0.1,0.2-0.3,0.2c-0.6,0-1.2-0.1-1.9-0.1c-2.5,0-4.9,0.2-7.4,0.8c-2.4,0.6-4.7,1.4-7,2.2c-0.8,0.3-1.6,0.4-2.4,0.6
			c-0.2,0-0.4,0-0.6,0c-0.3-0.1-0.4-0.2-0.4-0.5c0.2-1.9,0.6-3.8,1.1-5.7c1-3.4,2.5-6.7,4.5-9.7c1.3-2.1,2.9-4,4.8-5.5
			c0.4-0.3,0.7-0.5,1.1-0.8c0.1,0,0.1-0.1,0.2-0.2c0,0-0.1,0-0.1,0.1c-3.6,1.9-6.4,4.8-8.5,8.3c-1.3,2.2-2.2,4.6-2.8,7.1
			c0,0.1,0,0.2-0.1,0.2c-0.1,0.1-0.2,0.2-0.3,0.3c-0.1-0.1-0.2-0.2-0.2-0.3c-0.2-0.5-0.3-1-0.4-1.5c-0.5-1.9-0.3-3.8,0.2-5.7
			c0.9-3.6,2.9-6.3,5.9-8.3c1.5-1.1,3.2-1.8,5-2.4c0.7-0.2,1.4-0.3,2.1-0.4c1-0.1,1.9-0.2,2.9-0.3c0.2,0,0.4,0,0.4,0.2
			c0,0.1,0,0.3-0.1,0.4c-0.7,1.1-1,2.3-1.3,3.6c-0.1,0.4-0.2,0.7-0.3,1.1c-0.1,0.4-0.4,0.7-0.7,1c-0.7,0.6-1.6,1-2.4,1.3
			C454.5,358.2,454.3,358.3,454.2,358.4C454.2,358.4,454.2,358.4,454.2,358.4z"/>
	</g>
</g>
</svg>
