<?xml version="1.0" encoding="utf-8"?>
<!-- Generator: Adobe Illustrator 18.1.1, SVG Export Plug-In . SVG Version: 6.00 Build 0)  -->
<!DOCTYPE svg PUBLIC "-//W3C//DTD SVG 1.1//EN" "http://www.w3.org/Graphics/SVG/1.1/DTD/svg11.dtd">
<svg version="1.1" id="Validation_x5F_Check" xmlns="http://www.w3.org/2000/svg" xmlns:xlink="http://www.w3.org/1999/xlink"
	 x="0px" y="0px" width="300px" height="200px" viewBox="0 0 300 200" enable-background="new 0 0 300 200" xml:space="preserve">
<path fill="#0B3B58" d="M75.8,94.7c-1.8,0-3.3,1.5-3.3,3.3s1.5,3.3,3.3,3.3s3.3-1.5,3.3-3.3S77.6,94.7,75.8,94.7z"/>
<path fill="#0B3B58" d="M162.7,71.7c-1.8,0-3.3,1.5-3.3,3.3s1.5,3.3,3.3,3.3s3.3-1.5,3.3-3.3S164.5,71.7,162.7,71.7z"/>
<path fill="#0B3B58" d="M141.3,103.2c-0.6,0-1.2,0.2-1.7,0.5c-0.8,0.5-1.3,1.2-1.5,2c-0.2,0.9-0.1,1.8,0.4,2.5
	c0.6,1,1.7,1.6,2.9,1.6c0.6,0,1.2-0.2,1.7-0.5c0.8-0.5,1.3-1.2,1.5-2c0.2-0.9,0.1-1.8-0.4-2.5C143.6,103.8,142.5,103.2,141.3,103.2z
	"/>
<circle fill="#0B3B58" cx="114.4" cy="144.8" r="3.3"/>
<path fill="#0B3B58" d="M82.6,44.4c-8.1,0-14.6,6.6-14.6,14.6s6.6,14.6,14.6,14.6S97.2,67.1,97.2,59S90.6,44.4,82.6,44.4z
	 M74.8,66.6l-0.4-0.5c0.1,0,4.4-3.6,6.6-5.4c0.2,0.2,0.5,0.4,0.8,0.7c0.1,0.1,0.2,0.1,0.3,0.2c-2,1.7-6.6,5.4-6.8,5.6L74.8,66.6z
	 M82.6,54.5c-0.9,0-1.7,1-1.7,2.2c0,0,0,0,0,0.1l0,0c0,0-0.1,1.3,2.1,2.9c2.1,1.5,3,4,2.2,5.9c-0.5,1.1-1.6,2.1-3.5,2.1
	c-0.4,0-0.7,0-1.2-0.1h0c-1.1-0.2-2.1-0.7-3-1.4c0.3-0.3,0.7-0.6,1.1-0.9c0.7,0.5,1.4,0.8,2.2,1l0,0c1.5,0.3,2.7-0.2,3.2-1.2
	c0.5-1.1,0.1-2.9-1.8-4.2c-2.8-2.1-2.7-4-2.7-4.2v0c0-1.9,1.4-3.4,3.1-3.4c1.7,0,3.1,1.6,3.1,3.5c0,1.4-0.7,2.4-1.5,3.1
	c-0.2-0.2-0.5-0.4-0.8-0.6c-0.1-0.1-0.2-0.2-0.3-0.2c0.6-0.6,1.2-1.3,1.2-2.2C84.3,55.4,83.5,54.5,82.6,54.5z M88.1,65.2l-0.9-1
	c1.5-1.4,2.4-3.3,2.4-5.4c0-3.9-3.2-7.1-7.1-7.1c-3.9,0-7.1,3.2-7.1,7.1c0,1.6,0.5,3.2,1.2,4.4c-0.4,0.3-0.7,0.6-1.1,0.9
	c-1-1.5-1.5-3.3-1.5-5.3c0-4.7,3.8-8.5,8.4-8.5s8.4,3.8,8.4,8.5C91,61.3,89.9,63.6,88.1,65.2z"/>
<path fill="#0B3B58" d="M237.9,71.5c-0.6,0-1.2,0-1.8,0c0,2.4,0,4.8,0,7.2c0.6,0,1.2,0,1.8,0C237.9,76.4,237.9,74,237.9,71.5z"/>
<path fill="#0B3B58" d="M239,78.8c0.6,0,1.2,0,1.8,0c0-1.8,0-3.6,0-5.4c-0.6,0-1.2,0-1.8,0C239,75.2,239,77,239,78.8z"/>
<path fill="#0B3B58" d="M235,74.8c-0.6,0-1.2,0-1.8,0c0,1.3,0,2.7,0,4c0.6,0,1.2,0,1.8,0C235,77.5,235,76.1,235,74.8z"/>
<path fill="#0B3B58" d="M239.5,124.2c-1.8,0-3.5,0-5.2,0c0-1.8,0-3.5,0-5.3c0.9,0,1.9,0,2.8,0c0-0.4,0-0.9,0-1.3c-1.4,0-2.8,0-4.2,0
	c0,2.6,0,5.3,0,7.9c2.6,0,5.3,0,7.9,0c0-1.2,0-2.5,0-3.7c-0.4,0-0.9,0-1.3,0C239.5,122.6,239.5,123.4,239.5,124.2z"/>
<path fill="#0B3B58" d="M236.9,121.1c-0.3-0.3-0.6-0.6-0.8-0.8c-0.3,0.3-0.6,0.6-0.9,0.9c0.6,0.6,1.2,1.2,1.8,1.8
	c1.4-1.4,2.8-2.8,4.2-4.2c-0.3-0.3-0.6-0.6-0.9-0.9C239.1,118.9,238,120,236.9,121.1z"/>
<path fill="#0B3B58" d="M234.5,56c2.1,1.2,4.6,0.7,6-0.7c0,0-0.1,0-0.1-0.1c-1.2-1.2-2.3-2.3-3.5-3.5c-0.1-0.1-0.1-0.2-0.1-0.3
	c0-1.6,0-3.3,0-4.9c0,0,0-0.1,0-0.1c-1.7,0-3.9,1.2-4.7,3.5C231.4,52.2,232.4,54.8,234.5,56z"/>
<circle fill="#0B3B58" cx="232.2" cy="144.8" r="1"/>
<circle fill="#0B3B58" cx="232.2" cy="140.9" r="1"/>
<circle fill="#0B3B58" cx="232.2" cy="148.6" r="1"/>
<circle fill="#0B3B58" cx="235.5" cy="96.1" r="1"/>
<circle fill="#0B3B58" cx="241.5" cy="94.9" r="1"/>
<circle fill="#0B3B58" cx="232.6" cy="100.2" r="1"/>
<path fill="#0B3B58" d="M118.2,48.5c-1.8,0-3.3,1.5-3.3,3.3s1.5,3.3,3.3,3.3s3.3-1.5,3.3-3.3S120.1,48.5,118.2,48.5z"/>
</svg>
