<?xml version="1.0" encoding="utf-8"?>
<!-- Generator: Adobe Illustrator 18.1.1, SVG Export Plug-In . SVG Version: 6.00 Build 0)  -->
<!DOCTYPE svg PUBLIC "-//W3C//DTD SVG 1.1//EN" "http://www.w3.org/Graphics/SVG/1.1/DTD/svg11.dtd">
<svg version="1.1" id="Validation_x5F_Check" xmlns="http://www.w3.org/2000/svg" xmlns:xlink="http://www.w3.org/1999/xlink"
	 x="0px" y="0px" width="23px" height="23px" viewBox="0 0 23 23" enable-background="new 0 0 23 23" xml:space="preserve">
<g>
	<path fill-rule="evenodd" clip-rule="evenodd" fill="#BFE6EE" d="M19,1.2H4c-1.2,0-2.2,1-2.2,2.2v15c0,1.2,1,2.2,2.2,2.2h15
		c1.2,0,2.2-1,2.2-2.2v-15C21.3,2.3,20.2,1.2,19,1.2z M17.4,8.1c0,0.1,0,0.2,0,0.4c0,3.7-2.8,8-8,8c-1.6,0-3.1-0.5-4.3-1.3
		c0.2,0,0.4,0,0.7,0c1.3,0,2.5-0.4,3.5-1.2c-1.2,0-2.3-0.8-2.6-2c0.2,0,0.3,0.1,0.5,0.1c0.3,0,0.5,0,0.7-0.1
		c-1.3-0.3-2.3-1.4-2.3-2.8c0,0,0,0,0,0C6.1,9.5,6.5,9.6,7,9.6C6.2,9.1,5.7,8.3,5.7,7.3c0-0.5,0.1-1,0.4-1.4
		c1.4,1.7,3.5,2.8,5.8,2.9c0-0.2-0.1-0.4-0.1-0.6c0-1.6,1.3-2.8,2.8-2.8c0.8,0,1.5,0.3,2.1,0.9c0.6-0.1,1.2-0.4,1.8-0.7
		c-0.2,0.7-0.7,1.2-1.2,1.6c0.6-0.1,1.1-0.2,1.6-0.4C18.5,7.2,18,7.7,17.4,8.1z"/>
</g>
</svg>
