<?xml version="1.0" encoding="utf-8"?>
<!-- Generator: Adobe Illustrator 18.1.1, SVG Export Plug-In . SVG Version: 6.00 Build 0)  -->
<!DOCTYPE svg PUBLIC "-//W3C//DTD SVG 1.1//EN" "http://www.w3.org/Graphics/SVG/1.1/DTD/svg11.dtd">
<svg version="1.1" id="Validation_x5F_Check" xmlns="http://www.w3.org/2000/svg" xmlns:xlink="http://www.w3.org/1999/xlink"
	 x="0px" y="0px" width="135px" height="135px" viewBox="0 0 135 135" enable-background="new 0 0 135 135" xml:space="preserve">
<g>
	<g>
		<circle fill="#0D9AB4" cx="67.5" cy="67.5" r="46"/>
	</g>
	<g>
		<path fill="#B7D893" d="M63.9,88.1c-5.4,6.8-13.7,15.3-17.6,7c-3.8-7.9-15.6-20.8-23.8-17.8c0,0.1,0,0.1,0,0.2
			c5.5,24.8,30.1,40.4,54.9,34.9c2.5-0.6,5-1.3,7.3-2.3c-1.8-1.4-7.4-6.7-2.6-13.4C88.7,87.8,74.5,74.5,63.9,88.1z"/>
	</g>
	<g>
		<path fill="#B7D893" d="M112.4,57.5c-0.2-1.1-0.5-2.1-0.8-3.2c-2.2,2.3-9.9,10.8-9.3,18.3c0.6,8,7,11.4,8,11.9
			C113.6,76.2,114.5,66.9,112.4,57.5z"/>
	</g>
	<g>
		<path fill="#B7D893" d="M72.1,21.7c-2.9-0.3-5.7-0.3-8.4-0.1c-2,0.2-4.1,0.5-6.2,0.9c-16.7,3.7-29.2,16.1-33.9,31.3
			c0.7,0.5,9.4,6.3,16.6,1.1c7.5-5.4-0.6-13.4,14.4-14.5s6,15.2,16.1,20.4s24.8-8.5,14.6-16c-9.9-7.2-9.8-21.9-9.8-22.8
			C74.3,22,73.2,21.8,72.1,21.7z"/>
	</g>
</g>
</svg>
