<?xml version="1.0" encoding="utf-8"?>
<!-- Generator: Adobe Illustrator 18.1.1, SVG Export Plug-In . SVG Version: 6.00 Build 0)  -->
<!DOCTYPE svg PUBLIC "-//W3C//DTD SVG 1.1//EN" "http://www.w3.org/Graphics/SVG/1.1/DTD/svg11.dtd">
<svg version="1.1" id="Validation_x5F_Check" xmlns="http://www.w3.org/2000/svg" xmlns:xlink="http://www.w3.org/1999/xlink"
	 x="0px" y="0px" width="300px" height="200px" viewBox="0 0 300 200" enable-background="new 0 0 300 200" xml:space="preserve">
<path fill="#0B3B58" d="M112.1,92.1h20.6c0.4,0,0.8-0.3,0.8-0.8s-0.3-0.8-0.8-0.8h-20.6c-0.4,0-0.8,0.3-0.8,0.8
	S111.7,92.1,112.1,92.1z"/>
<rect x="100.4" y="60.9" fill="#0B3B58" width="49.4" height="2.9"/>
<rect x="100.4" y="66.3" fill="#0B3B58" width="29.1" height="2.9"/>
<path fill="#0B3B58" d="M106.4,105.1h-6.1V99h2.1v-1.5h-2.8c-0.4,0-0.8,0.3-0.8,0.8v7.6c0,0.4,0.3,0.8,0.8,0.8h7.6
	c0.4,0,0.8-0.3,0.8-0.8V103h-1.5V105.1z"/>
<path fill="#0B3B58" d="M106.4,93.6h-6.1v-6.1h2.1V86h-2.8c-0.4,0-0.8,0.3-0.8,0.8v7.6c0,0.4,0.3,0.8,0.8,0.8h7.6
	c0.4,0,0.8-0.3,0.8-0.8v-2.9h-1.5V93.6z"/>
<path fill="#0B3B58" d="M139.9,102.2h-27.8c-0.4,0-0.8,0.3-0.8,0.8s0.3,0.8,0.8,0.8h27.8c0.4,0,0.8-0.3,0.8-0.8
	S140.3,102.2,139.9,102.2z"/>
<path fill="#0B3B58" d="M145.6,78.9h-33.5c-0.4,0-0.8,0.3-0.8,0.8s0.3,0.8,0.8,0.8h33.5c0.4,0,0.8-0.3,0.8-0.8S146,78.9,145.6,78.9z
	"/>
<circle fill="#0B3B58" cx="97.7" cy="54.7" r="1.3"/>
<circle fill="#0B3B58" cx="105.2" cy="54.7" r="1.3"/>
<circle fill="#0B3B58" cx="101.5" cy="54.7" r="1.3"/>
<path fill="#0B3B58" d="M98.8,75.2v7.6c0,0.4,0.3,0.8,0.8,0.8h7.6c0.4,0,0.8-0.3,0.8-0.8V80h-1.5v2.1h-6.1V76h2.1v-1.5h-2.8
	C99.1,74.5,98.8,74.8,98.8,75.2z"/>
<rect x="19.3" y="157" fill="#E5E5EB" width="260.5" height="1.4"/>
<rect x="43.7" y="162.3" fill="#E5E5EB" width="208.1" height="1.4"/>
<path fill="#FFF7EC" d="M232.5,143.9c-0.4,0-0.8-0.3-0.8-0.8V40c0-2.8-2.3-5.2-5.2-5.2H82.5c-2.8,0-5.2,2.3-5.2,5.2v103.1
	c0,0.4-0.3,0.8-0.8,0.8H53.4v2.7c0,2.8,2.3,5.2,5.2,5.2h191.9c2.8,0,5.2-2.3,5.2-5.2v-2.7H232.5z M224,142.3c0.2,0-24.4,0-52.9,0
	c0,1.9-1.5,3.4-3.5,3.4h-26.2c-1.9,0-3.5-1.5-3.5-3.4c-28.4,0-52.9,0-52.9,0V41.9H224V142.3z"/>
<circle fill="#0B3B58" cx="163.3" cy="91.1" r="1.3"/>
<rect x="164.5" y="103.3" fill="#0B3B58" width="38.6" height="2.9"/>
<rect x="159.1" y="97.9" fill="#0B3B58" width="49.4" height="2.9"/>
<circle fill="#0B3B58" cx="159.6" cy="91.1" r="1.3"/>
<circle fill="#0B3B58" cx="155.8" cy="91.1" r="1.3"/>
<path fill="#E5E5EB" d="M54.3,151.7H31.9v1.4h25C55.9,152.8,55,152.3,54.3,151.7z"/>
<path fill="#E5E5EB" d="M254.8,151.7c-0.8,0.6-1.7,1.1-2.6,1.4h18v-1.4H254.8z"/>
<circle fill="#0B3B58" cx="168.6" cy="77.5" r="1.4"/>
<path fill="#FFF7EC" d="M94.1,51.4v60.5h56.6V87.6c0-0.8,0.6-1.4,1.4-1.4h4.8V51.4H94.1z M105.2,53.4c0.7,0,1.3,0.6,1.3,1.3
	s-0.6,1.3-1.3,1.3s-1.3-0.6-1.3-1.3S104.5,53.4,105.2,53.4z M101.5,53.4c0.7,0,1.3,0.6,1.3,1.3s-0.6,1.3-1.3,1.3
	c-0.7,0-1.3-0.6-1.3-1.3S100.7,53.4,101.5,53.4z M100.4,66.3h29.1v2.9h-29.1V66.3z M97.7,56c-0.7,0-1.3-0.6-1.3-1.3s0.6-1.3,1.3-1.3
	S99,54,99,54.7S98.5,56,97.7,56z M108,105.9c0,0.4-0.3,0.8-0.8,0.8h-7.6c-0.4,0-0.8-0.3-0.8-0.8v-7.6c0-0.4,0.3-0.8,0.8-0.8h2.8V99
	h-2.1v6.1h6.1V103h1.5V105.9z M108,94.4c0,0.4-0.3,0.8-0.8,0.8h-7.6c-0.4,0-0.8-0.3-0.8-0.8v-7.6c0-0.4,0.3-0.8,0.8-0.8h2.8v1.5
	h-2.1v6.1h6.1v-2.1h1.5V94.4z M108,82.9c0,0.4-0.3,0.8-0.8,0.8h-7.6c-0.4,0-0.8-0.3-0.8-0.8v-7.6c0-0.4,0.3-0.8,0.8-0.8h2.8V76h-2.1
	v6.1h6.1V80h1.5V82.9z M139.9,103.8h-27.8c-0.4,0-0.8-0.3-0.8-0.8s0.3-0.8,0.8-0.8h27.8c0.4,0,0.8,0.3,0.8,0.8
	S140.3,103.8,139.9,103.8z M111.3,91.3c0-0.4,0.3-0.8,0.8-0.8h20.6c0.4,0,0.8,0.3,0.8,0.8s-0.3,0.8-0.8,0.8h-20.6
	C111.7,92.1,111.3,91.7,111.3,91.3z M145.6,80.4h-33.5c-0.4,0-0.8-0.3-0.8-0.8s0.3-0.8,0.8-0.8h33.5c0.4,0,0.8,0.3,0.8,0.8
	S146,80.4,145.6,80.4z M149.8,63.7h-49.4v-2.9h49.4V63.7z"/>
<path fill="#FFF7EC" d="M152.1,87.7V134h62.8V87.7H152.1z M163.3,89.8c0.7,0,1.3,0.6,1.3,1.3s-0.6,1.3-1.3,1.3s-1.3-0.6-1.3-1.3
	S162.6,89.8,163.3,89.8z M155.8,92.4c-0.7,0-1.3-0.6-1.3-1.3s0.6-1.3,1.3-1.3s1.3,0.6,1.3,1.3S156.5,92.4,155.8,92.4z M158.3,91.1
	c0-0.7,0.6-1.3,1.3-1.3s1.3,0.6,1.3,1.3s-0.6,1.3-1.3,1.3S158.3,91.8,158.3,91.1z M203.1,106.2h-38.6v-2.9h38.6V106.2z M208.5,100.8
	h-49.4v-2.9h49.4V100.8z"/>
<path fill="#FFF7EC" d="M209.9,68.2h-16.6c-0.4,0-0.8-0.3-0.8-0.8V51.2c0-0.4,0.3-0.8,0.8-0.8h16.6c0.4,0,0.8,0.3,0.8,0.8v16.3
	C210.6,67.9,210.3,68.2,209.9,68.2z"/>
<path fill="#FFF7EC" d="M168.6,80.4c-1.6,0-2.9-1.3-2.9-2.9c0-1.6,1.3-2.9,2.9-2.9c1.6,0,2.9,1.3,2.9,2.9
	C171.6,79.1,170.2,80.4,168.6,80.4z M168.6,76c-0.8,0-1.4,0.6-1.4,1.4s0.6,1.4,1.4,1.4s1.4-0.6,1.4-1.4S169.4,76,168.6,76z"/>
<path fill="#0B3B58" d="M127,120.5c-1.4-1.2-3.6-1.3-5-0.3c-0.2,0.1-0.3,0.3-0.5,0.4l-0.3,0.2c-0.3,0.2-0.7,0.2-0.9,0
	c0,0-0.1-0.1-0.1-0.1c-0.9-0.8-1.8-1.2-2.9-1.2c-0.2,0-0.4,0-0.6,0c-0.9,0.1-1.6,0.5-2.3,1.1c-1.2,1.1-1.6,2.4-1.3,4
	c0.2,0.8,0.6,1.6,1.4,2.3l6.3,6.3l6.1-6.1c0.4-0.4,0.7-0.8,1-1.2c0.6-0.9,0.8-1.8,0.7-2.8C128.3,122.2,127.8,121.3,127,120.5z"/>
<path fill="#FFF7EC" d="M120.7,135.1C120.7,135.1,120.7,135.1,120.7,135.1c-0.3,0-0.5-0.1-0.6-0.3c0,0,0-0.1-0.1-0.1l-6.7-6.7
	c-0.9-0.9-1.5-2-1.8-3.1c-0.4-2.1,0.1-3.9,1.7-5.4c0.9-0.8,1.9-1.3,3.1-1.5c1.6-0.2,3,0.2,4.3,1.2c0.1-0.1,0.3-0.2,0.4-0.3
	c2-1.4,5-1.2,6.9,0.4c1.1,1,1.8,2.2,2,3.7c0.2,1.3-0.1,2.6-0.9,3.8c-0.3,0.6-0.8,1-1.2,1.4l-6.5,6.5
	C121.2,135,120.9,135.1,120.7,135.1z M117.2,119.5c-0.2,0-0.4,0-0.6,0c-0.9,0.1-1.6,0.5-2.3,1.1c-1.2,1.1-1.6,2.4-1.3,4
	c0.2,0.8,0.6,1.6,1.4,2.3l6.3,6.3l6.1-6.1c0.4-0.4,0.7-0.8,1-1.2c0.6-0.9,0.8-1.8,0.7-2.8c-0.1-1.1-0.6-2-1.5-2.7
	c-1.4-1.2-3.6-1.3-5-0.3c-0.2,0.1-0.3,0.3-0.5,0.4l-0.3,0.2c-0.3,0.2-0.7,0.2-0.9,0c0,0-0.1-0.1-0.1-0.1
	C119.2,119.9,118.3,119.5,117.2,119.5z"/>
<path fill="#0B3B58" d="M85.1,41.9v100.4c0,0,24.5,0,52.9,0c0,1.9,1.5,3.4,3.5,3.4h26.2c1.9,0,3.5-1.5,3.5-3.4c28.6,0,53.2,0,52.9,0
	V41.9H85.1z M192.5,51.2c0-0.4,0.3-0.8,0.8-0.8h16.6c0.4,0,0.8,0.3,0.8,0.8v16.3c0,0.4-0.3,0.8-0.8,0.8h-16.6
	c-0.4,0-0.8-0.3-0.8-0.8V51.2z M177.9,76.7h31.3v1.5h-31.3V76.7z M168.6,74.5c1.6,0,2.9,1.3,2.9,2.9c0,1.6-1.3,2.9-2.9,2.9
	c-1.6,0-2.9-1.3-2.9-2.9C165.7,75.8,167,74.5,168.6,74.5z M129.1,126.9c-0.3,0.6-0.8,1-1.2,1.4l-6.5,6.5c-0.1,0.1-0.4,0.3-0.6,0.3
	c0,0,0,0,0,0c-0.2,0-0.5-0.1-0.6-0.3c0,0,0-0.1-0.1-0.1l-6.7-6.7c-0.9-0.9-1.5-2-1.8-3.1c-0.4-2.1,0.1-3.9,1.7-5.4
	c0.9-0.8,1.9-1.3,3.1-1.5c1.6-0.2,3,0.2,4.3,1.2c0.1-0.1,0.3-0.2,0.4-0.3c2-1.4,5-1.2,6.9,0.4c1.1,1,1.8,2.2,2,3.7
	C130.1,124.4,129.8,125.7,129.1,126.9z M150.6,87.6v24.3H94.1V51.4h62.8v34.8h-4.8C151.3,86.2,150.6,86.8,150.6,87.6z M214.9,134
	h-62.8V87.7h62.8V134z"/>
<rect x="177.9" y="76.7" fill="#FFF7EC" width="31.3" height="1.5"/>
<path fill="#0B3B58" d="M250.5,153.2H58.6c-3.7,0-6.7-3-6.7-6.7v-3.4c0-0.4,0.3-0.8,0.8-0.8h23.2V40c0-3.7,3-6.7,6.7-6.7h144.1
	c3.7,0,6.7,3,6.7,6.7v102.3h23.2c0.4,0,0.8,0.3,0.8,0.8v3.4C257.2,150.2,254.2,153.2,250.5,153.2z M53.4,143.9v2.7
	c0,2.8,2.3,5.2,5.2,5.2h191.9c2.8,0,5.2-2.3,5.2-5.2v-2.7h-23.2c-0.4,0-0.8-0.3-0.8-0.8V40c0-2.8-2.3-5.2-5.2-5.2H82.5
	c-2.8,0-5.2,2.3-5.2,5.2v103.1c0,0.4-0.3,0.8-0.8,0.8H53.4z"/>
</svg>
