<?xml version="1.0" encoding="utf-8"?>
<!-- Generator: Adobe Illustrator 18.1.1, SVG Export Plug-In . SVG Version: 6.00 Build 0)  -->
<!DOCTYPE svg PUBLIC "-//W3C//DTD SVG 1.1//EN" "http://www.w3.org/Graphics/SVG/1.1/DTD/svg11.dtd">
<svg version="1.1" id="Validation_x5F_Check" xmlns="http://www.w3.org/2000/svg" xmlns:xlink="http://www.w3.org/1999/xlink"
	 x="0px" y="0px" width="135px" height="135px" viewBox="0 0 135 135" enable-background="new 0 0 135 135" xml:space="preserve">
<g>
	<g>
		<path fill="#EE596C" d="M115.2,49c-0.1,6-1.7,11-3.9,15.8c-3.6,7.6-8.6,14.1-14.2,20.2c-8.3,9-17.8,16.7-27.8,23.9
			c-1.2,0.9-2.3,0.9-3.4,0c-10.5-7.6-20.5-15.8-29.2-25.5c-5.3-5.9-10-12.2-13.2-19.5c-2.3-5-3.8-10.2-3.6-15.8
			c0.5-11.8,9.9-21.5,21.6-22.5c11.1-1,20.8,5.2,24.7,15.6c0.3,0.7,0.5,1.4,1.4,1.4c0.9,0,1.2-0.7,1.4-1.4
			c3.8-9.7,12.4-15.7,22.7-15.7c11.2,0,21.2,8.5,23.1,19.6C115,46.5,115.1,48,115.2,49z"/>
	</g>
	<g>
		<path fill="#FFF7EC" d="M67.5,57c6.3,0,12.5,0,18.8,0c2.1,0,3.4,1.7,2.6,3.5c-0.4,0.9-1.1,1.5-2.1,1.6c-0.4,0-0.8,0-1.3,0
			c-12.1,0-24.2,0-36.2,0c-0.4,0-0.8,0-1.2,0c-1.3-0.1-2.3-1.1-2.3-2.4c0-1.3,0.8-2.4,2.2-2.6c0.4-0.1,0.7,0,1.1,0
			C55.2,57,61.4,57,67.5,57z"/>
	</g>
	<g>
		<path fill="#FFF7EC" d="M67.5,72.8c6.3,0,12.5,0,18.8,0c2.1,0,3.4,1.7,2.6,3.5c-0.4,0.9-1.1,1.5-2.1,1.6c-0.4,0-0.8,0-1.3,0
			c-12.1,0-24.2,0-36.2,0c-0.4,0-0.8,0-1.2,0c-1.3-0.1-2.3-1.1-2.3-2.4c0-1.3,0.8-2.4,2.2-2.6c0.4-0.1,0.7,0,1.1,0
			C55.2,72.8,61.4,72.8,67.5,72.8z"/>
	</g>
</g>
</svg>
