<?xml version="1.0" encoding="utf-8"?>
<!-- Generator: Adobe Illustrator 18.1.1, SVG Export Plug-In . SVG Version: 6.00 Build 0)  -->
<!DOCTYPE svg PUBLIC "-//W3C//DTD SVG 1.1//EN" "http://www.w3.org/Graphics/SVG/1.1/DTD/svg11.dtd">
<svg version="1.1" id="Validation_x5F_Check" xmlns="http://www.w3.org/2000/svg" xmlns:xlink="http://www.w3.org/1999/xlink"
	 x="0px" y="0px" width="25px" height="25px" viewBox="0 0 25 25" enable-background="new 0 0 25 25" xml:space="preserve">
<path fill="#0B3B58" d="M12.7,0.5C6,0.4,0.6,5.8,0.5,12.3c-0.1,6.8,5.4,12.2,12,12.2c6.6,0,12-5.4,12-12C24.5,5.9,19.2,0.6,12.7,0.5
	z M12.5,23C6.8,23,2,18.3,2,12.5C2,6.7,6.7,2,12.5,2C18.3,2,22.9,6.7,23,12.5C22.9,18.3,18.3,23,12.5,23z"/>
<path fill="#0B3B58" d="M18.4,7.9c-0.4-0.1-0.8,0-1.2,0.3c-1.5,1.6-2.9,3.3-4.4,4.9c-0.4,0.5-0.9,1-1.3,1.5c-0.1,0-0.1-0.1-0.1-0.1
	c-1-0.8-2.1-1.7-3.1-2.5c-0.3-0.2-0.5-0.3-0.9-0.2c-0.4,0.1-0.7,0.4-0.8,0.8c-0.1,0.4,0.1,0.8,0.4,1.1c1.3,1,2.6,2.1,3.9,3.1
	c0.1,0.1,0.3,0.2,0.5,0.2c0.4,0.1,0.8-0.1,1-0.4c0.5-0.6,1-1.1,1.5-1.7c1.6-1.8,3.2-3.6,4.8-5.4c0.2-0.2,0.3-0.5,0.3-0.8
	C19.1,8.3,18.8,8.1,18.4,7.9z"/>
</svg>
