<?xml version="1.0" encoding="utf-8"?>
<!-- Generator: Adobe Illustrator 18.1.1, SVG Export Plug-In . SVG Version: 6.00 Build 0)  -->
<!DOCTYPE svg PUBLIC "-//W3C//DTD SVG 1.1//EN" "http://www.w3.org/Graphics/SVG/1.1/DTD/svg11.dtd">
<svg version="1.1" id="Validation_x5F_Check" xmlns="http://www.w3.org/2000/svg" xmlns:xlink="http://www.w3.org/1999/xlink"
	 x="0px" y="0px" width="509.3px" height="767.5px" viewBox="0 0 509.3 767.5" enable-background="new 0 0 509.3 767.5"
	 xml:space="preserve">
<g opacity="0.9">
	<circle opacity="0.7" fill="#FFFFFF" cx="204.1" cy="132.5" r="3.3"/>
	<path opacity="0.9" fill="#FFFFFF" d="M414.4,323.7c-12.5,0-22.6-10.1-22.6-22.6c0-12.5,10.1-22.6,22.6-22.6
		c12.5,0,22.6,10.1,22.6,22.6C437,313.6,426.9,323.7,414.4,323.7z M414.4,279.6c-11.8,0-21.5,9.6-21.5,21.5s9.6,21.5,21.5,21.5
		s21.5-9.6,21.5-21.5S426.3,279.6,414.4,279.6z"/>
	<path opacity="0.6" fill="#FFFFFF" d="M414.4,328.4c-15,0-27.2-12.2-27.2-27.2c0-15,12.2-27.2,27.2-27.2s27.2,12.2,27.2,27.2
		C441.7,316.1,429.4,328.4,414.4,328.4z M414.4,275c-14.4,0-26.1,11.7-26.1,26.1s11.7,26.1,26.1,26.1s26.1-11.7,26.1-26.1
		S428.8,275,414.4,275z"/>
	<path opacity="0.2" fill="#FFFFFF" d="M414.4,333c-17.6,0-31.9-14.3-31.9-31.9s14.3-31.9,31.9-31.9s31.9,14.3,31.9,31.9
		S432,333,414.4,333z M414.4,270.3c-17,0-30.8,13.8-30.8,30.8c0,17,13.8,30.8,30.8,30.8s30.8-13.8,30.8-30.8
		C445.2,284.1,431.4,270.3,414.4,270.3z"/>
	<path opacity="0.7" fill="#FFFFFF" d="M244.5,59.6c0.2,0.6,0.4,1.2,0.6,1.7c0,0.1,0.1,0.2,0.1,0.3c0.1,0.3-0.1,0.6-0.4,0.6
		c-0.6,0-1.2,0-1.9,0c-0.4,0-0.6-0.3-0.4-0.7c0.2-0.6,0.4-1.2,0.6-1.8c0,0,0-0.1,0-0.1c-0.4-0.3-0.7-0.6-0.8-1.1
		c-0.1-0.7,0.1-1.3,0.7-1.7c0.1,0,0.2-0.2,0.2-0.2c0-2.2,0-4.4,0-6.6c0,0,0-0.1,0-0.1c-0.6,0.1-1.1,0.3-1.7,0.4
		c-3.5,0.9-7,1.8-10.5,2.7c-0.4,0.1-0.9,0.1-1.3,0c-4.6-1.2-9.2-2.4-13.7-3.8c0,0-0.1,0-0.1,0c-0.2-0.1-0.4-0.2-0.4-0.5
		c0-0.3,0.2-0.4,0.4-0.5c0.7-0.2,1.4-0.4,2.1-0.6c3.7-1,7.5-1.9,11.2-2.9c1-0.3,2-0.1,2.9,0.1c4.3,1.1,8.5,2.2,12.7,3.6
		c0.1,0,0.1,0,0.2,0.1c0.2,0.1,0.3,0.2,0.3,0.5c0,0.2-0.1,0.4-0.4,0.4c-0.3,0.1-0.6,0.1-0.8,0.2c0,2.4,0,4.7,0,7.1
		c0.6,0.2,1.1,0.7,1.1,1.4C245.4,58.7,245.1,59.2,244.5,59.6z"/>
	<path opacity="0.7" fill="#FFFFFF" d="M240.1,51.5c0,0.1,0,0.2,0,0.3c0,1.2,0,2.4,0,3.6c0,0.9-0.3,1.5-1,1.9
		c-0.8,0.6-1.8,0.9-2.8,1.2c-2.1,0.5-4.2,0.7-6.3,0.7c-1.9,0-3.7-0.2-5.5-0.7c-0.9-0.2-1.7-0.5-2.4-1c-0.3-0.2-0.5-0.4-0.8-0.7
		c-0.3-0.3-0.4-0.7-0.4-1.1c0-1.4,0-2.8,0-4.2c0,0,0-0.1,0-0.1c0.1,0,0.2,0,0.3,0.1c2.6,0.7,5.2,1.4,7.7,2.1
		c1.2,0.4,2.4,0.2,3.7-0.1c2.4-0.6,4.9-1.3,7.3-1.9C239.9,51.5,240,51.5,240.1,51.5z"/>
	<circle opacity="0.7" fill="#FFFFFF" cx="437.5" cy="21.6" r="4.7"/>
	
		<rect x="327.1" y="224.2" transform="matrix(0.4572 0.8894 -0.8894 0.4572 406.014 -215.8019)" opacity="0.6" fill="#FFFFFF" width="105.4" height="1.1"/>
	
		<rect x="155.8" y="290.9" transform="matrix(0.3761 0.9266 -0.9266 0.3761 394.1343 54.835)" opacity="0.25" fill="#FFFFFF" width="1.1" height="58.4"/>
	
		<rect x="280.4" y="160.5" transform="matrix(0.758 0.6523 -0.6523 0.758 219.3927 -127.0686)" opacity="0.4" fill="#FFFFFF" width="1.1" height="143.1"/>
	
		<rect x="150.3" y="94.3" transform="matrix(0.228 0.9737 -0.9737 0.228 258.6824 -34.1585)" opacity="0.25" fill="#FFFFFF" width="1.1" height="103.5"/>
	
		<rect x="207.1" y="137.4" transform="matrix(0.9963 8.592750e-02 -8.592750e-02 0.9963 12.8081 -21.6875)" opacity="0.4" fill="#FFFFFF" width="102.4" height="1.1"/>
	<path opacity="0.9" fill="#FFFFFF" d="M230.5,76c-12.5,0-22.6-10.1-22.6-22.6c0-12.5,10.1-22.6,22.6-22.6
		c12.5,0,22.6,10.1,22.6,22.6C253.1,65.8,242.9,76,230.5,76z M230.5,31.9c-11.8,0-21.5,9.6-21.5,21.5s9.6,21.5,21.5,21.5
		S252,65.2,252,53.4S242.3,31.9,230.5,31.9z"/>
	<path opacity="0.6" fill="#FFFFFF" d="M230.5,80.6c-15,0-27.2-12.2-27.2-27.2c0-15,12.2-27.2,27.2-27.2c15,0,27.2,12.2,27.2,27.2
		C257.7,68.4,245.5,80.6,230.5,80.6z M230.5,27.3c-14.4,0-26.1,11.7-26.1,26.1s11.7,26.1,26.1,26.1s26.1-11.7,26.1-26.1
		S244.9,27.3,230.5,27.3z"/>
	<path opacity="0.2" fill="#FFFFFF" d="M230.5,85.3c-17.6,0-31.9-14.3-31.9-31.9s14.3-31.9,31.9-31.9s31.9,14.3,31.9,31.9
		S248.1,85.3,230.5,85.3z M230.5,22.6c-17,0-30.8,13.8-30.8,30.8c0,17,13.8,30.8,30.8,30.8c17,0,30.8-13.8,30.8-30.8
		C261.3,36.4,247.5,22.6,230.5,22.6z"/>
	
		<rect x="213.8" y="83" transform="matrix(0.9277 0.3732 -0.3732 0.9277 55.4523 -72.268)" opacity="0.4" fill="#FFFFFF" width="1.1" height="48.2"/>
	<polygon opacity="0.25" fill="#FFFFFF" points="199,53.9 37.4,0 40.9,0 199.3,52.8 	"/>
	
		<rect x="391.7" y="10.2" transform="matrix(0.7624 0.6471 -0.6471 0.7624 143.5028 -235.3686)" opacity="0.75" fill="#FFFFFF" width="1.1" height="135"/>
	<circle fill="#FFFFFF" cx="452.5" cy="118.8" r="3.3"/>
	<path opacity="0.7" fill="#FFFFFF" d="M452.5,115.5"/>
	<polygon opacity="0.75" fill="#FFFFFF" points="509.3,177.1 454.6,121.5 455.3,120.7 509.3,175.5 	"/>
	<circle opacity="0.7" fill="#FFFFFF" cx="182" cy="628.7" r="3.3"/>
	<path opacity="0.7" fill="#FFFFFF" d="M351.9,583.3c-0.1,0-0.2,0-0.4,0c0,0,0,0-0.1,0h-0.1l-0.1-0.1c-0.2-0.1-0.4-0.2-0.6-0.4
		c-0.1-0.2-0.2-0.3-0.3-0.5c-0.1-0.1-0.2-0.3-0.3-0.4l-0.6,0c-0.3,0-0.5,0-0.7,0c-1,0.2-1.7-0.2-2.1-1.1c0-0.1,0-0.1-0.3-0.1
		c-0.8,0-1.7,0-2.5,0l-0.9,0c-0.3,0-0.5-0.2-0.6-0.5l-0.1-0.4c-0.1-0.4-0.2-0.9-0.3-1.3c0-0.2,0-0.5,0.1-0.7l0.1-0.1
		c0.2-0.4,0.3-0.8,0.3-1.1c0-0.3,0.2-0.6,0.4-0.8c0.8-0.6,1.7-1.1,2.5-1.7c1-0.7,2-1.4,3-2.1c0.6-2.7,1.2-5.4,1.9-8.2
		c-0.5-0.8-1-1.7-1.5-2.5l-0.8-1.4l-1,0.5l-0.2,0c-0.2,0-0.3-0.1-0.4-0.2l-1.8-1.8c-0.1-0.1-0.2-0.4-0.2-0.6c0-0.2,0.2-0.4,0.3-0.5
		l1.6-0.8c1.2-0.6,2.4-1.2,3.5-1.8c0.7-0.4,1.3-0.3,1.8,0.1c0.1,0.1,0.2,0.2,0.3,0.3c0.2,0.2,0.5,0.3,0.7,0.6c0.7,1,1.4,2.1,2.1,3.1
		l0.8,1.2c0-0.1,0.1-0.1,0.1-0.1c0.4-0.4,0.7-0.8,1.1-1.2c0.3-0.3,0.5-0.6,0.8-1c0.1-0.1,0.3-0.3,0.6-0.4c1.5-0.5,3-1.1,4.5-1.6
		l0.9-0.3c0.3-0.1,0.4-0.1,0.6-0.1l-0.6-3.3l-0.7,0.3l-0.2,0c-0.2,0-0.4-0.1-0.5-0.3l-1.4-2c-0.1-0.2-0.1-0.3-0.1-0.5
		c0-0.2,0.2-0.3,0.3-0.4l0.2-0.1c0.4-0.2,0.8-0.4,1.3-0.6c1-0.5,2-1,3-1.6c1-0.5,1.6-0.4,2.3,0.2c0.1,0.1,0.2,0.1,0.2,0.2
		c0.2,0.1,0.4,0.3,0.6,0.5c0.9,1.5,1.7,3,2.6,4.5l1.5,2.6c0.3,0.5,0.6,1,0.9,1.4c0.4,0.5,0.8,0.9,1.3,1.4l0.4,0.4
		c0.4,0,0.8-0.1,1.2-0.1c0.8-0.1,1,0.4,1,0.6c0.2,0.4,0.4,0.8,0.7,1.2c0.3,0.4,0.3,0.7,0.1,1.1l-1.6,2.5c-0.7,1-1.3,2.1-2,3.1
		c-0.1,0.2-0.3,0.4-0.6,0.5c-0.5,0.3-0.9,0.6-1.4,0.8l-2.6,1.6c-2.6,1.6-5.3,3.1-7.9,4.7l-0.6,0.3c-0.6,0.4-1.2,0.7-1.8,1.1
		c-1,0.8-1.9,1.6-2.9,2.3c-0.8,0.7-1.7,1.4-2.5,2c-0.4,0.3-0.4,0.5-0.4,0.8c0.1,0.2,0.1,0.5,0.1,0.9c0,0.3-0.1,0.5-0.3,0.7
		C353.3,582.9,352.7,583.3,351.9,583.3z M351.6,582.3L351.6,582.3c0.6,0.1,1-0.1,1.5-0.5c0-0.3,0-0.5,0-0.6
		c-0.2-0.9,0.3-1.4,0.7-1.8c0.8-0.7,1.7-1.3,2.5-2c1-0.8,1.9-1.6,2.9-2.4c0.6-0.5,1.3-0.8,1.9-1.2l0.6-0.3c2.6-1.6,5.3-3.1,7.9-4.7
		l2.7-1.6c0.5-0.3,0.9-0.5,1.4-0.8c0.1-0.1,0.2-0.1,0.2-0.2c0.7-1,1.3-2.1,2-3.1l1.5-2.4c-0.3-0.4-0.6-0.9-0.8-1.4c0,0,0,0,0,0
		c-0.5,0.1-0.8,0.1-1.2,0.1c0,0,0,0,0,0c-0.3,0-0.6-0.1-0.8-0.3l-0.4-0.4c-0.5-0.5-0.9-0.9-1.3-1.5c-0.4-0.5-0.7-1-1-1.5l-1.5-2.6
		c-0.9-1.5-1.7-3-2.6-4.4c0-0.1-0.2-0.1-0.3-0.2c-0.1-0.1-0.3-0.2-0.4-0.3c-0.2-0.2-0.4-0.3-0.5-0.3c-0.2,0-0.4,0.1-0.6,0.2
		c-1,0.6-2.1,1.1-3.1,1.6c-0.4,0.2-0.7,0.4-1.1,0.6l1,1.4l0.8-0.4l0.2,0c0.3,0,0.6,0.2,0.6,0.5l0.8,4.7c0,0.2,0,0.4-0.1,0.5
		c-0.3,0.3-0.8,0.3-1,0c0-0.1-0.1-0.1-0.1-0.1c0,0-0.1,0-0.2,0.1l-0.9,0.3c-1.5,0.5-3,1.1-4.5,1.6c0,0-0.1,0.1-0.2,0.1
		c-0.3,0.3-0.5,0.6-0.8,0.9c-0.4,0.4-0.7,0.8-1.1,1.3c-0.1,0.1-0.1,0.1-0.1,0.1l0,0.1c0.1,0.2,0,0.4-0.1,0.6c-0.2,0.3-0.8,0.3-1,0
		c-0.1-0.2-0.3-0.4-0.4-0.6l-0.9-1.4c-0.7-1-1.4-2.1-2.1-3.1c-0.1-0.1-0.3-0.2-0.4-0.4c-0.2-0.1-0.3-0.2-0.5-0.3
		c-0.2-0.1-0.2-0.1-0.3-0.1c-0.1,0-0.2,0-0.4,0.1c-1.2,0.6-2.4,1.2-3.5,1.8l-1.1,0.6l1.3,1.2l1.1-0.6l0.2,0c0.2,0,0.4,0.1,0.5,0.3
		l1,1.6c0.5,0.9,1,1.7,1.5,2.6c0.1,0.2,0.2,0.5,0.1,0.7c-0.6,2.7-1.2,5.5-1.9,8.2c-0.1,0.2-0.2,0.4-0.4,0.6c-1,0.7-2,1.4-3,2.1
		c-0.8,0.6-1.7,1.1-2.5,1.7c0,0.6-0.2,1.1-0.4,1.5l-0.1,0.1c0.1,0.5,0.2,0.9,0.3,1.4l0,0.1l0.6,0c0.8,0,1.7,0,2.5,0
		c0.2,0,0.8,0,1.1,0.6c0.2,0.5,0.6,0.6,1.1,0.5c0.3,0,0.5-0.1,0.9-0.1l0.8,0c0.2,0,0.4,0.1,0.5,0.2c0.2,0.2,0.3,0.4,0.4,0.6
		c0.1,0.1,0.2,0.3,0.3,0.4C351.4,582.3,351.5,582.3,351.6,582.3C351.5,582.3,351.6,582.3,351.6,582.3z"/>
	<path opacity="0.7" fill="#FFFFFF" d="M446.8,416.5c-0.7,0-1.5,0-2.2,0c-1.1,0-2.1,0.1-3.2,0.1c-0.6,0-1.1,0.2-1.4,0.7
		c-0.4,0.5-0.7,1.1-1,1.7c-0.6,1.1-1.2,2.1-1.8,3.2c0,0-0.1,0.1-0.1,0.1c0.4-0.1,0.9-0.2,1.3-0.2c0.8-0.1,1.5-0.1,2.3-0.1
		c1.1,0,2.2,0,3.3,0c0.9,0,1.8,0,2.6-0.1c0,0,0.1,0,0.1,0C446.8,420,446.8,418.3,446.8,416.5z"/>
	<path opacity="0.7" fill="#FFFFFF" d="M449,438.3c-1.1-1-1.8-2.2-2.5-3.5c-0.9-1.5-1.8-3-2.7-4.5c0,0-0.1-0.1-0.1-0.1
		c-1.6,0.9-3.1,1.8-4.7,2.7c0.1,0.2,0.2,0.4,0.3,0.6c0.6,1,1.3,2.1,1.9,3.1c0.2,0.2,0.3,0.5,0.4,0.8c0.3,0.7,0.9,1,1.7,1.1
		c0.8,0,1.6,0,2.4,0c1,0,1.9,0,2.9,0C448.9,438.3,448.9,438.3,449,438.3z"/>
	<path opacity="0.7" fill="#FFFFFF" d="M450.8,423.1c0-0.3,0-0.6,0-0.9c0.8,0,1.6,0,2.4-0.1c0.6,0,1.2,0,1.8,0c0,0,0.1,0,0.1-0.1
		c0.3-0.6,0.7-1.3,0.8-2c0.3-1.5-0.5-2.8-2.1-3.3c-0.8-0.2-1.7-0.2-2.6-0.1c-0.2,0-0.3,0-0.5,0.1c0-0.5-0.1-1-0.1-1.5
		c0,0-0.1,0.1-0.1,0.1c-0.7,1.2-1.4,2.5-2,3.8c0,0.1,0,0.2,0,0.3c0.5,1,1.1,1.9,1.6,2.9C450.5,422.5,450.6,422.8,450.8,423.1z"/>
	<path opacity="0.7" fill="#FFFFFF" d="M437.1,429.3c-0.4,0.3-0.8,0.6-1.2,0.8c0,0,0,0,0.1,0c1.4,0,2.9-0.1,4.3-0.1
		c0.1,0,0.2,0,0.2-0.1c0.8-1.3,1.5-2.5,2.2-3.8c-0.2,0.1-0.5,0.3-0.8,0.4c-0.3-0.4-0.6-0.8-0.8-1.3c-0.5-0.8-0.9-1.5-1.3-2.3
		c0-0.1-0.1-0.1-0.2-0.1c-0.6,0.1-1.3,0.1-1.8,0.2c-1.1,0.3-1.8,1-2.1,2.1c-0.2,0.7,0,1.4,0.3,2.1c0.3,0.7,0.7,1.3,1.1,1.8
		C437,429.1,437,429.2,437.1,429.3z"/>
	<path opacity="0.7" fill="#FFFFFF" d="M455,434.9c0.5,0.2,0.9,0.4,1.4,0.6c-0.2-0.3-0.3-0.6-0.5-0.8c-0.6-1-1.2-1.9-1.8-2.9
		c-0.1-0.1-0.2-0.2-0.3-0.2c-1.2,0-2.5,0-3.7,0c-0.2,0-0.4,0-0.6,0c0.3,0.2,0.5,0.3,0.8,0.5c-0.4,0.7-0.7,1.4-1.1,2
		c-0.3,0.5-0.6,1.1-0.9,1.6c-0.1,0.1-0.1,0.2,0,0.3c0.3,0.4,0.6,0.9,1,1.3c0.8,0.9,1.8,1.2,3,0.9c0.7-0.2,1.3-0.7,1.7-1.4
		c0.4-0.5,0.7-1.1,1-1.7C455,435.1,455,435,455,434.9z"/>
	<path opacity="0.7" fill="#FFFFFF" d="M456.9,420.2c-0.5,1.9-1.5,3.4-2.4,5c-0.6,1.1-1.2,2.2-1.8,3.3c-0.1,0.1-0.1,0.2-0.2,0.3
		c1.6,0.9,3.1,1.8,4.7,2.7c0.3-0.6,0.6-1.1,0.9-1.7c0.5-1,1.1-2,1.6-3c0.4-0.7,0.3-1.3,0-1.9c-0.4-0.7-0.8-1.3-1.2-2
		c-0.5-0.9-1-1.7-1.5-2.6C457,420.3,456.9,420.3,456.9,420.2z"/>
	<path opacity="0.9" fill="#FFFFFF" d="M447.7,449.4c-12.5,0-22.6-10.1-22.6-22.6c0-12.5,10.1-22.6,22.6-22.6
		c12.5,0,22.6,10.1,22.6,22.6C470.3,439.3,460.2,449.4,447.7,449.4z M447.7,405.3c-11.8,0-21.5,9.6-21.5,21.5s9.6,21.5,21.5,21.5
		s21.5-9.6,21.5-21.5S459.6,405.3,447.7,405.3z"/>
	<path opacity="0.6" fill="#FFFFFF" d="M447.7,454c-15,0-27.2-12.2-27.2-27.2s12.2-27.2,27.2-27.2s27.2,12.2,27.2,27.2
		S462.7,454,447.7,454z M447.7,400.7c-14.4,0-26.1,11.7-26.1,26.1s11.7,26.1,26.1,26.1s26.1-11.7,26.1-26.1S462.1,400.7,447.7,400.7
		z"/>
	<path opacity="0.2" fill="#FFFFFF" d="M447.7,458.7c-17.6,0-31.9-14.3-31.9-31.9s14.3-31.9,31.9-31.9s31.9,14.3,31.9,31.9
		S465.3,458.7,447.7,458.7z M447.7,396c-17,0-30.8,13.8-30.8,30.8s13.8,30.8,30.8,30.8s30.8-13.8,30.8-30.8S464.7,396,447.7,396z"/>
	
		<rect x="291.3" y="372.1" transform="matrix(0.8966 0.4429 -0.4429 0.8966 202.4762 -121.7505)" opacity="0.75" fill="#FFFFFF" width="141.3" height="1.1"/>
	<circle opacity="0.7" fill="#FFFFFF" cx="437.5" cy="739.6" r="4.7"/>
	
		<rect x="407" y="446.2" transform="matrix(0.7916 0.6111 -0.6111 0.7916 387.2747 -145.9053)" opacity="0.75" fill="#FFFFFF" width="1.1" height="97.1"/>
	
		<rect x="129.1" y="455.7" transform="matrix(0.9958 9.156416e-02 -9.156416e-02 0.9958 42.5041 -13.8605)" opacity="0.25" fill="#FFFFFF" width="86.4" height="1.1"/>
	
		<rect x="259.1" y="506.7" transform="matrix(0.8212 0.5706 -0.5706 0.8212 344.1575 -83.9972)" opacity="0.4" fill="#FFFFFF" width="94.1" height="1.1"/>
	
		<rect x="74.8" y="599" transform="matrix(0.8707 0.4918 -0.4918 0.8707 311.7346 13.3139)" opacity="0.25" fill="#FFFFFF" width="111.6" height="1.1"/>
	
		<rect x="253.1" y="535.3" transform="matrix(0.2897 0.9571 -0.9571 0.2897 761.0886 188.2985)" opacity="0.4" fill="#FFFFFF" width="1.1" height="143.2"/>
	<path opacity="0.9" fill="#FFFFFF" d="M208.3,752.6c-12.5,0-22.6-10.1-22.6-22.6c0-12.5,10.1-22.6,22.6-22.6
		c12.5,0,22.6,10.1,22.6,22.6C230.9,742.5,220.8,752.6,208.3,752.6z M208.3,708.5c-11.8,0-21.5,9.6-21.5,21.5s9.6,21.5,21.5,21.5
		s21.5-9.6,21.5-21.5S220.2,708.5,208.3,708.5z"/>
	<path opacity="0.6" fill="#FFFFFF" d="M208.3,757.2c-15,0-27.2-12.2-27.2-27.2c0-15,12.2-27.2,27.2-27.2s27.2,12.2,27.2,27.2
		C235.5,745,223.3,757.2,208.3,757.2z M208.3,703.9c-14.4,0-26.1,11.7-26.1,26.1s11.7,26.1,26.1,26.1s26.1-11.7,26.1-26.1
		S222.7,703.9,208.3,703.9z"/>
	<path opacity="0.2" fill="#FFFFFF" d="M208.3,761.9c-17.6,0-31.9-14.3-31.9-31.9s14.3-31.9,31.9-31.9s31.9,14.3,31.9,31.9
		S225.9,761.9,208.3,761.9z M208.3,699.2c-17,0-30.8,13.8-30.8,30.8c0,17,13.8,30.8,30.8,30.8s30.8-13.8,30.8-30.8
		C239.1,713,225.3,699.2,208.3,699.2z"/>
	
		<rect x="157.6" y="664.7" transform="matrix(0.2596 0.9657 -0.9657 0.2596 784.7127 306.9417)" opacity="0.4" fill="#FFFFFF" width="69.3" height="1.1"/>
	
		<rect x="108.3" y="675.5" transform="matrix(0.2193 0.9757 -0.9757 0.2193 812.1786 475.7283)" opacity="0.25" fill="#FFFFFF" width="1.1" height="139.6"/>
	
		<rect x="327.9" y="663.6" transform="matrix(0.3995 0.9167 -0.9167 0.3995 852.0732 27.404)" opacity="0.75" fill="#FFFFFF" width="154.5" height="1.1"/>
	<path opacity="0.7" fill="#FFFFFF" d="M230.3,442.4c-1.7,1.7-2.6,3.9-2.8,6.4c-0.3,4.1-0.1,8.2,0.8,12.2c1,4.3,2.6,8.4,4.9,12.2
		c0.1,0.1,0.2,0.2,0.2,0.2c8.9,0.9,17.3-1,24.8-5.4c2.9-1.7,4.8-4.7,5.1-8c0.3-3.4-0.9-6.7-3.4-8.9c-1.9-1.7-4-2.6-6.3-2.8
		c-1.3-0.1-2.7,0.1-4.2,0.5l-0.4,0.1l-0.1-0.3c-0.1-0.2-0.1-0.4-0.2-0.7c-0.1-0.5-0.2-0.9-0.4-1.4c-1.3-4-4-6.4-8-7.3
		C236.5,438.4,233.1,439.5,230.3,442.4z M228.5,449.2c0.2-2.2,1-4.2,2.4-5.9c1.9-2.2,4.9-3.4,7.9-3.2c1.4,0.1,2.8,0.5,4,1.2
		c3,1.8,4.7,4.5,4.8,8c0,0.4,0,0.9,0,1.3c0,0,0,0,0,0.1c1.7-1.1,3.7-1.5,5.7-1.4c2.1,0.2,4.1,1,5.7,2.4c2.3,2,3.4,5,3.1,8.1
		c-0.3,3.1-2,5.7-4.6,7.2c-7,4.1-14.8,5.9-23,5.3c-0.5,0-0.8-0.2-1-0.7C229.6,464.8,228,457.2,228.5,449.2z"/>
	<polygon opacity="0.7" fill="#FFFFFF" points="235.5,458.1 238.2,453.8 241.4,455.8 243.4,452.7 247.7,455.4 245.7,458.6 
		248.8,460.6 246.1,464.8 242.9,462.8 240.9,466 236.6,463.3 238.6,460.1 	"/>
	<circle opacity="0.7" fill="#FFFFFF" cx="452.5" cy="642.4" r="3.3"/>
	<path fill="#FFFFFF" d="M452.5,645.7"/>
	<polygon opacity="0.75" fill="#FFFFFF" points="455.3,640.5 454.6,639.7 509.3,584.1 509.3,585.7 	"/>
	<path opacity="0.7" fill="#FFFFFF" d="M208.6,740.3c-2.4,0-4.5-0.7-6.3-1.9c-0.3-0.2-0.4-0.4-0.1-0.8c0.9-1.4,1.8-2.7,2.7-4.1
		c0.2-0.3,0.4-0.4,0.8-0.1c1.6,1.2,3.9,1.2,5.6,0c0,0,0.1,0,0.1-0.1c0.2-0.2,0.5-0.1,0.6,0.1c0.9,1.4,1.9,2.8,2.8,4.3
		c0.2,0.2,0.1,0.5-0.2,0.7c-1.1,0.8-2.4,1.3-3.7,1.7C210.2,740.2,209.3,740.3,208.6,740.3z"/>
	<path opacity="0.7" fill="#FFFFFF" d="M197.7,729.5c0.2-4.1,2-7.3,5.7-9.4c0.1-0.1,0.2-0.1,0.3-0.2c0.3-0.1,0.5-0.1,0.7,0.2
		c0.5,0.9,1,1.9,1.5,2.8c0.3,0.5,0.6,1.1,0.9,1.6c0.2,0.4,0.1,0.6-0.2,0.8c-1.4,0.7-2.2,1.8-2.6,3.2c-0.1,0.5-0.1,1.1-0.1,1.6
		c0.1,0.4-0.1,0.6-0.5,0.6c-1.6,0.2-3.2,0.3-4.8,0.5c-0.1,0-0.3,0-0.4-0.1c-0.1-0.1-0.2-0.2-0.2-0.3
		C197.7,730.5,197.7,730,197.7,729.5z"/>
	<path opacity="0.7" fill="#FFFFFF" d="M216.2,730.4c-0.9,0-1.8,0-2.7,0c-0.2,0-0.3-0.2-0.3-0.4c0.1-0.5,0-1-0.1-1.5
		c-0.4-1.5-1.3-2.6-2.8-3.3c0,0,0,0-0.1,0c-0.3-0.1-0.4-0.3-0.3-0.7c0.3-0.6,0.6-1.2,0.8-1.8c0.4-0.9,0.9-1.8,1.3-2.7
		c0.1-0.3,0.3-0.4,0.6-0.3c3.1,1.4,5.1,3.6,6.1,6.9c0.3,1.1,0.4,2.3,0.3,3.5c0,0.2-0.1,0.3-0.3,0.3
		C218,730.5,217.1,730.4,216.2,730.4C216.2,730.4,216.2,730.4,216.2,730.4z"/>
	<path opacity="0.7" fill="#FFFFFF" d="M211.5,729.6c0,1.6-1.4,3-3,3c-1.7,0-3-1.3-3-3c0-1.7,1.4-3,3-3
		C210.1,726.6,211.5,727.9,211.5,729.6z"/>
	<path opacity="0.7" fill="#FFFFFF" d="M201,301.2c0.4-0.2,0.6-0.3,0.8-0.4c3.8-1.9,7.5-3.7,11.2-5.6c0.5-0.2,0.8-0.2,1.3,0
		c3.8,1.9,7.5,3.8,11.3,5.7c0.2,0.1,0.4,0.2,0.7,0.4C217.8,301.2,209.5,301.2,201,301.2z"/>
	<path opacity="0.7" fill="#FFFFFF" d="M198.7,322.5c0-0.6,0-1.1,0-1.6c9.9,0,19.8,0,29.8,0c0,0.5,0,1.1,0,1.6
		C218.6,322.5,208.7,322.5,198.7,322.5z"/>
	<path opacity="0.7" fill="#FFFFFF" d="M200.8,318.7c0-0.5,0-1,0-1.6c8.5,0,17,0,25.6,0c0,0.5,0,1,0,1.6
		C217.9,318.7,209.4,318.7,200.8,318.7z"/>
	<path opacity="0.7" fill="#FFFFFF" d="M203.8,314.5c-0.6,0-1.1,0-1.6,0c0-3.6,0-7.1,0-10.7c0.6,0,1.1,0,1.6,0
		C203.8,307.3,203.8,310.8,203.8,314.5z"/>
	<path opacity="0.7" fill="#FFFFFF" d="M208,314.5c-0.6,0-1.1,0-1.6,0c0-3.6,0-7.1,0-10.7c0.6,0,1.1,0,1.6,0
		C208,307.3,208,310.9,208,314.5z"/>
	<path opacity="0.7" fill="#FFFFFF" d="M219.2,303.8c0.5,0,1.1,0,1.6,0c0,3.6,0,7.1,0,10.7c-0.5,0-1,0-1.6,0
		C219.2,310.9,219.2,307.4,219.2,303.8z"/>
	<path opacity="0.7" fill="#FFFFFF" d="M225.1,314.5c-0.6,0-1.1,0-1.6,0c0-3.6,0-7.1,0-10.7c0.6,0,1.1,0,1.6,0
		C225.1,307.3,225.1,310.9,225.1,314.5z"/>
	<path opacity="0.7" fill="#FFFFFF" d="M210.7,303.8c0.5,0,1,0,1.6,0c0,3.5,0,7.1,0,10.7c-0.5,0-1,0-1.6,0
		C210.7,310.9,210.7,307.3,210.7,303.8z"/>
	<path opacity="0.7" fill="#FFFFFF" d="M215,303.7c0.5,0,1,0,1.6,0c0,3.6,0,7.1,0,10.7c-0.5,0-1,0-1.6,0
		C215,310.9,215,307.4,215,303.7z"/>
	<path opacity="0.7" fill="#FFFFFF" d="M321.7,145.5c1.3-4,2.7-8,4-12c0.2-0.7,0.6-0.9,1.3-0.7c4.5,1.4,8.4,3.8,11.7,7.1
		c0.8,0.8,1.4,1.6,2.1,2.4c0.1,0.1,0.2,0.2,0.4,0.1c4-1.1,8.1-1.2,12.2-0.5c1.6,0.3,3.1,0.7,4.7,1.3c0.6,0.2,0.8,0.6,0.6,1.2
		c-2.7,8.1-5.4,16.1-8.1,24.2c-0.2,0.7-0.6,0.9-1.3,0.6c-5.3-1.9-10.7-2.1-16.1-0.6c-0.6,0.2-1.2,0-1.6-0.5
		c-2.1-2.7-4.5-4.9-7.4-6.6c-1.8-1.1-3.7-1.9-5.7-2.6c-0.3-0.1-0.5-0.3-0.7-0.5c-0.2-0.3-0.1-0.6,0-0.9c0.9-2.7,1.8-5.4,2.7-8
		C320.8,148.2,321.2,146.8,321.7,145.5z M332,166c0.1-0.2,0.1-0.3,0.1-0.4c2.4-7.3,4.9-14.5,7.3-21.8c0.1-0.2,0.1-0.4-0.1-0.6
		c-3-3.7-6.7-6.4-11.1-8.2c-0.4-0.1-0.8-0.3-1.1-0.4c-2.6,7.6-5.1,15.2-7.6,22.8C324.4,159.2,328.6,162,332,166z M349.1,167.4
		c2.6-7.6,5.1-15.2,7.7-22.9c-1-0.3-2-0.5-3-0.7c-4-0.9-8-0.8-12,0.3c-0.2,0.1-0.3,0.1-0.4,0.4c-2.4,7.3-4.9,14.6-7.4,21.9
		c0,0.1,0,0.2-0.1,0.3C339.1,165.5,344.2,165.8,349.1,167.4z"/>
	<path opacity="0.7" fill="#FFFFFF" d="M328.1,146.5c2.2,0.8,4,2.1,5.4,4c0.4,0.5,0.3,1.1-0.3,1.4c-0.4,0.2-0.8,0.1-1.1-0.3
		c-0.8-1-1.7-1.9-2.8-2.5c-0.8-0.4-1.6-0.7-2.4-1.1c-0.5-0.2-0.8-0.7-0.6-1.2c0.1-0.4,0.5-0.6,0.9-0.5c0.1,0,0.2,0,0.2,0.1
		C327.7,146.4,327.9,146.4,328.1,146.5z"/>
	<path opacity="0.7" fill="#FFFFFF" d="M329.3,142.6c2.2,0.8,4,2.1,5.4,3.9c0.3,0.3,0.4,0.7,0.2,1.1c-0.3,0.6-1.1,0.6-1.5,0.1
		c-0.6-0.7-1.2-1.4-2-2c-1-0.7-2-1.2-3.1-1.6c-0.6-0.2-0.8-0.6-0.7-1.1c0.2-0.5,0.6-0.7,1.2-0.6C329,142.4,329.1,142.5,329.3,142.6z
		"/>
	<path opacity="0.7" fill="#FFFFFF" d="M326.7,150.4c2.2,0.8,4,2.1,5.4,3.9c0.3,0.3,0.4,0.7,0.2,1.1c-0.3,0.6-1.1,0.6-1.5,0.1
		c-0.6-0.8-1.3-1.5-2.2-2.1c-0.9-0.6-1.9-1.1-2.9-1.5c-0.6-0.2-0.9-0.6-0.7-1.1c0.2-0.5,0.6-0.7,1.2-0.5
		C326.4,150.3,326.5,150.3,326.7,150.4z"/>
	<path opacity="0.7" fill="#FFFFFF" d="M343.2,158.6c0.3,0.1,0.6,0.2,0.9,0.3c0.2-0.2,0.3-0.5,0.5-0.8c0.2,0.2,0.4,0.3,0.5,0.5
		c0.1,0.1,0.2,0.1,0.4,0c0.2-0.1,0.4-0.2,0.6-0.4c0.1,0.2,0.2,0.3,0.2,0.5c0.1,0.3,0.2,0.5,0.6,0.4c0.2,0,0.3,0,0.5-0.1
		c0,0.3,0,0.6,0,1c0.3,0.1,0.6,0.2,0.9,0.4c-0.1,0.2-0.2,0.4-0.4,0.6c-0.1,0.2-0.1,0.3,0.1,0.4c0.2,0.2,0.3,0.3,0.5,0.5
		c-0.3,0.2-0.5,0.4-0.8,0.6c0.1,0.3,0.2,0.6,0.3,0.9c-0.3,0-0.5,0.1-0.7,0.1c-0.2,0-0.3,0.1-0.3,0.3c0,0.2-0.1,0.5-0.1,0.7
		c-0.2-0.1-0.5-0.1-0.6-0.2c-0.2-0.1-0.3,0-0.5,0.2c-0.1,0.2-0.2,0.4-0.4,0.6c-0.3-0.2-0.5-0.4-0.7-0.6c-0.3,0.2-0.5,0.3-0.8,0.5
		c-0.1-0.3-0.2-0.6-0.4-0.9c-0.3,0-0.6,0-1,0.1c0-0.3,0-0.6,0.1-1c-0.3-0.1-0.6-0.2-0.9-0.3c0.1-0.2,0.2-0.4,0.3-0.6
		c0.1-0.2,0.2-0.3-0.1-0.5c-0.2-0.1-0.3-0.3-0.5-0.5c0.3-0.2,0.5-0.4,0.8-0.6c-0.1-0.3-0.2-0.6-0.3-0.9c0.3,0,0.5-0.1,0.7-0.1
		c0.2,0,0.3-0.1,0.3-0.3C343.1,159.1,343.1,158.9,343.2,158.6z"/>
	<path opacity="0.7" fill="#FFFFFF" d="M348.9,153.5c0.2,0.1,0.4,0.1,0.6,0.2c0.5,0.2,0.7,0.7,0.5,1.1c-0.2,0.4-0.7,0.6-1.1,0.5
		c-1.6-0.6-3.3-0.8-5-0.5c-0.5,0.1-0.9,0.2-1.4,0.3c-0.4,0.1-0.8-0.1-1-0.5c-0.2-0.4-0.1-0.8,0.3-1c0.1-0.1,0.3-0.1,0.4-0.2
		c2.2-0.6,4.3-0.6,6.5,0.1C348.8,153.5,348.9,153.5,348.9,153.5C348.9,153.5,348.9,153.5,348.9,153.5z"/>
	<path opacity="0.7" fill="#FFFFFF" d="M350.1,149.6c0.3,0.1,0.6,0.2,0.9,0.3c0.4,0.2,0.6,0.7,0.4,1.1c-0.2,0.4-0.6,0.6-1.1,0.4
		c-1.2-0.4-2.4-0.7-3.7-0.6c-0.9,0.1-1.8,0.2-2.6,0.4c-0.6,0.1-1.2-0.2-1.2-0.8c0-0.4,0.2-0.8,0.7-0.9c1.5-0.4,2.9-0.6,4.4-0.4
		C348.6,149.2,349.4,149.4,350.1,149.6C350.1,149.5,350.1,149.5,350.1,149.6z"/>
	<path opacity="0.7" fill="#FFFFFF" d="M416.7,298.3c0.8,0,1.7-0.1,2.5-0.1c0,0,0,0.1,0,0.1c-0.5,1.7-1.2,3.4-2.3,4.9
		c-1.1,1.4-2.3,2.7-3.8,3.7c-0.9,0.6-1.8,1.1-2.7,1.7c-0.2,0.1-0.4,0.3-0.5,0.5c-0.5,1-1,2-1.6,3c0,0,0,0.1-0.1,0.2
		c0.4-0.1,0.7-0.2,1.1-0.3c1.8-0.6,3.5-1.2,5.3-1.8c1.4-0.5,2.9-0.8,4.4-1c1.5-0.2,3-0.2,4.5,0.1c0.2,0,0.4,0.1,0.6,0.2
		c0.1,0,0.1,0.1,0.1,0.2c0,0.1-0.1,0.2-0.2,0.2c-0.5,0-1-0.1-1.5-0.1c-2.1,0-4.1,0.2-6.1,0.7c-2,0.5-3.9,1.1-5.8,1.8
		c-0.6,0.2-1.3,0.4-1.9,0.5c-0.2,0-0.3,0-0.5,0c-0.3,0-0.3-0.1-0.3-0.4c0.2-1.6,0.5-3.2,0.9-4.7c0.9-2.8,2-5.5,3.7-8
		c1.1-1.7,2.4-3.3,4-4.5c0.3-0.2,0.6-0.4,0.9-0.6c0.1,0,0.1-0.1,0.1-0.2c0,0-0.1,0-0.1,0c-3,1.6-5.3,4-7,6.9
		c-1.1,1.8-1.8,3.8-2.3,5.9c0,0.1,0,0.1-0.1,0.2c-0.1,0.1-0.2,0.2-0.3,0.2c-0.1-0.1-0.1-0.1-0.2-0.2c-0.1-0.4-0.3-0.8-0.4-1.2
		c-0.4-1.6-0.2-3.1,0.1-4.7c0.7-2.9,2.4-5.2,4.9-6.9c1.3-0.9,2.7-1.5,4.1-2c0.6-0.2,1.2-0.3,1.8-0.3c0.8-0.1,1.6-0.2,2.4-0.3
		c0.2,0,0.3,0,0.4,0.2c0,0.1,0,0.3-0.1,0.3c-0.6,0.9-0.8,1.9-1.1,3c-0.1,0.3-0.1,0.6-0.2,0.9c-0.1,0.3-0.3,0.6-0.6,0.8
		c-0.6,0.5-1.3,0.8-2,1.1C417,298.1,416.8,298.2,416.7,298.3C416.7,298.3,416.7,298.3,416.7,298.3z"/>
</g>
</svg>
