<?xml version="1.0" encoding="utf-8"?>
<!-- Generator: Adobe Illustrator 18.1.1, SVG Export Plug-In . SVG Version: 6.00 Build 0)  -->
<!DOCTYPE svg PUBLIC "-//W3C//DTD SVG 1.1//EN" "http://www.w3.org/Graphics/SVG/1.1/DTD/svg11.dtd">
<svg version="1.1" id="Validation_x5F_Check" xmlns="http://www.w3.org/2000/svg" xmlns:xlink="http://www.w3.org/1999/xlink"
	 x="0px" y="0px" width="23px" height="23px" viewBox="0 0 23 23" enable-background="new 0 0 23 23" xml:space="preserve">
<g>
	<path fill-rule="evenodd" clip-rule="evenodd" fill="#BFE6EE" d="M11.5,13.1l9.7-8.3V3.5c0-1.2-1-2.3-2.3-2.3H4
		c-1.2,0-2.3,1-2.3,2.3v1.3L11.5,13.1z"/>
	<polygon fill-rule="evenodd" clip-rule="evenodd" fill="#BFE6EE" points="21.3,14.3 21.3,7.4 17.2,10.9 	"/>
	<polygon fill-rule="evenodd" clip-rule="evenodd" fill="#BFE6EE" points="5.9,10.9 1.8,7.3 1.8,14.4 	"/>
	<path fill-rule="evenodd" clip-rule="evenodd" fill="#BFE6EE" d="M15.7,12.1l-4.2,3.6l-4.1-3.6L1.8,17v1.5c0,1.2,1,2.3,2.3,2.3h15
		c1.2,0,2.3-1,2.3-2.3v-1.6L15.7,12.1z"/>
</g>
</svg>
