<?xml version="1.0" encoding="utf-8"?>
<!-- Generator: Adobe Illustrator 18.1.1, SVG Export Plug-In . SVG Version: 6.00 Build 0)  -->
<!DOCTYPE svg PUBLIC "-//W3C//DTD SVG 1.1//EN" "http://www.w3.org/Graphics/SVG/1.1/DTD/svg11.dtd">
<svg version="1.1" id="Validation_x5F_Check" xmlns="http://www.w3.org/2000/svg" xmlns:xlink="http://www.w3.org/1999/xlink"
	 x="0px" y="0px" width="300px" height="200px" viewBox="0 0 300 200" enable-background="new 0 0 300 200" xml:space="preserve">
<path fill="#0B3B58" d="M194,52v14.7h15.1V52H194z M205.3,63.3h-7.4c-0.4,0-0.8-0.3-0.8-0.8s0.3-0.8,0.8-0.8h7.4
	c0.4,0,0.8,0.3,0.8,0.8S205.7,63.3,205.3,63.3z M205.3,59.8h-7.4c-0.4,0-0.8-0.3-0.8-0.8s0.3-0.8,0.8-0.8h7.4c0.4,0,0.8,0.3,0.8,0.8
	S205.7,59.8,205.3,59.8z M205.3,56.4h-7.4c-0.4,0-0.8-0.3-0.8-0.8s0.3-0.8,0.8-0.8h7.4c0.4,0,0.8,0.3,0.8,0.8S205.7,56.4,205.3,56.4
	z"/>
<path fill="#0B3B58" d="M128.4,123.2c-0.1-1.1-0.6-2-1.5-2.7c-1.4-1.2-3.6-1.3-5-0.3c-0.2,0.1-0.3,0.3-0.5,0.4l-0.3,0.2
	c-0.3,0.2-0.7,0.2-0.9,0c0,0-0.1-0.1-0.1-0.1c-0.9-0.8-1.8-1.2-2.9-1.2c-0.2,0-0.4,0-0.6,0c-0.9,0.1-1.6,0.5-2.3,1.1
	c-1.2,1.1-1.6,2.4-1.3,4c0.2,0.8,0.6,1.6,1.4,2.3l6.3,6.3l6.1-6.1c0.4-0.4,0.7-0.8,1-1.2C128.3,125.1,128.6,124.2,128.4,123.2z"/>
<path fill="#0B3B58" d="M105.5,76.6l-1.9,1.9l-0.3-0.3c-0.3-0.3-0.8-0.3-1.1,0c-0.3,0.3-0.3,0.8,0,1.1l1.4,1.4l3-3
	c0.3-0.3,0.3-0.8,0-1.1C106.3,76.3,105.8,76.3,105.5,76.6z"/>
<path fill="#0B3B58" d="M105.5,88.1l-1.9,1.9l-0.3-0.3c-0.3-0.3-0.8-0.3-1.1,0c-0.3,0.3-0.3,0.8,0,1.1l1.4,1.4l3-3
	c0.3-0.3,0.3-0.8,0-1.1C106.3,87.8,105.8,87.8,105.5,88.1z"/>
<path fill="#0B3B58" d="M105.5,99.6l-1.9,1.9l-0.3-0.3c-0.3-0.3-0.8-0.3-1.1,0c-0.3,0.3-0.3,0.8,0,1.1l1.4,1.4l3-3
	c0.3-0.3,0.3-0.8,0-1.1C106.3,99.3,105.8,99.3,105.5,99.6z"/>
<path fill="#0B3B58" d="M209.2,127.6h-50.4c-0.4,0-0.8,0.3-0.8,0.8c0,0.4,0.3,0.8,0.8,0.8h50.4c0.4,0,0.8-0.3,0.8-0.8
	C209.9,128,209.6,127.6,209.2,127.6z"/>
<path fill="#0B3B58" d="M173.8,123.2c0.2,0,0.4-0.1,0.5-0.2c0.1-0.1,2.6-2.5,4.6-4.9c-0.4,1.2-0.8,2.6-1.2,3.9
	c-0.1,0.3,0,0.6,0.2,0.8c0.2,0.2,0.6,0.2,0.8,0.1l1.8-0.9c0.1,0.2,0.3,0.4,0.5,0.5c0.5,0.4,1.2,0.5,2.1,0.3c1.6-0.4,2.5-1.1,3.1-1.6
	c0.1-0.1,0.2-0.2,0.3-0.2c0.2,0.3,0.5,1.1,0.7,1.8c0.1,0.2,0.2,0.4,0.4,0.5c0.2,0.1,0.5,0.1,0.7,0l2.5-1.4c1,0.6,3,0.7,6.2,0.3
	c0.4,0,0.7-0.4,0.7-0.8c0-0.4-0.4-0.7-0.8-0.7c-4,0.4-5,0-5.2-0.1c-0.1-0.1-0.2-0.2-0.3-0.3c-0.2-0.1-0.5-0.1-0.7,0l-2.2,1.2
	c-0.3-0.8-0.8-1.8-1.5-2c-0.3-0.1-0.7-0.1-1,0.1c-0.2,0.1-0.4,0.3-0.7,0.5c-0.6,0.5-1.3,1-2.6,1.4c-0.4,0.1-0.6,0.1-0.8,0
	c-0.1-0.1-0.2-0.4-0.2-0.4c0-0.3-0.2-0.5-0.4-0.6c-0.2-0.1-0.5-0.1-0.7,0l-0.9,0.5c2.1-6.7,1.9-6.8,1.2-7.1
	c-0.7-0.3-1.1,0.5-1.3,0.9c-1.3,2.7-6.4,7.5-6.4,7.5c-0.3,0.3-0.3,0.8,0,1.1C173.4,123.1,173.6,123.2,173.8,123.2z"/>
<path fill="#0B3B58" d="M159.1,123.4c0.1,0.1,0.2,0.1,0.3,0.1c0.1,0,0.2,0,0.3-0.1l1.1-1.1l1.1,1.1c0.1,0.1,0.2,0.1,0.3,0.1
	s0.2,0,0.3-0.1c0.1-0.1,0.1-0.4,0-0.5l-1.1-1.1l1.1-1.1c0.1-0.1,0.1-0.4,0-0.5s-0.4-0.1-0.5,0l-1.1,1.1l-1.1-1.1
	c-0.1-0.1-0.4-0.1-0.5,0s-0.1,0.4,0,0.5l1.1,1.1l-1.1,1.1C159,123,159,123.3,159.1,123.4z"/>
</svg>
