<?xml version="1.0" encoding="utf-8"?>
<!-- Generator: Adobe Illustrator 18.1.1, SVG Export Plug-In . SVG Version: 6.00 Build 0)  -->
<!DOCTYPE svg PUBLIC "-//W3C//DTD SVG 1.1//EN" "http://www.w3.org/Graphics/SVG/1.1/DTD/svg11.dtd">
<svg version="1.1" id="Validation_x5F_Check" xmlns="http://www.w3.org/2000/svg" xmlns:xlink="http://www.w3.org/1999/xlink"
	 x="0px" y="0px" width="300px" height="200px" viewBox="0 0 300 200" enable-background="new 0 0 300 200" xml:space="preserve">
<path fill="#0B3B58" d="M161.2,104.3c-0.7-9.5,9-20.3,11.8-23.1c-6.5-21.6-24.6-37-45.9-40.6c0.1,3.5,0.9,19.7,12.4,28.2
	c0.1,0.1,0.1,0.1,0.2,0.2c0.1-0.2,0.3-0.3,0.5-0.3l0.2,0.1c0.3,0.1,0.4,0.3,0.4,0.6c0,0.2-0.1,0.3-0.3,0.3
	c10.7,9.6-7.2,25.8-19.5,19.3c-12.7-6.6-1.5-27.1-20.3-25.8c-1.2,0.1-2.3,0.2-3.3,0.4c-1.5,4.8-5.3,8.7-10.1,10.2
	c-0.6,2.6-1.5,5.3-4.8,7.6c-8.4,6.1-18.4,0.2-20.5-1.2c-3,9.4-3.6,19.7-1.4,30c10.3-4.4,26.2,3.7,30.9,13.7
	c3.2,6.8,8.5,8.3,13.7,6.1c0-0.2,0.1-0.4,0.3-0.5c0.2-0.1,0.4-0.1,0.6,0.1c2.4-1.2,4.7-3.2,6.7-5.8c13.5-17.1,31.4-0.3,23.2,10.9
	c-6.1,8.4,0.9,15.1,3.2,16.9c15-6.1,26.4-17.9,32.1-32.4C169.9,118.6,161.9,114.4,161.2,104.3z M75.1,85c0-0.3,0.2-0.5,0.5-0.5
	c0.3,0,0.5,0.2,0.5,0.5l0,0.2c0,0.3-0.2,0.5-0.5,0.5c0,0,0,0,0,0c-0.3,0-0.5-0.2-0.5-0.5L75.1,85z M74.9,88.2c0-0.3,0.3-0.5,0.5-0.5
	c0.3,0,0.5,0.2,0.5,0.5l0,0.2c0,0.3-0.2,0.5-0.5,0.5c0,0,0,0,0,0c-0.3,0-0.5-0.2-0.5-0.5L74.9,88.2z M75.4,90.9
	c0.3,0,0.5,0.2,0.5,0.5l0,0.3c0,0.3-0.2,0.5-0.5,0.5c0,0,0,0,0,0c-0.3,0-0.5-0.2-0.5-0.5l0-0.2C74.9,91.1,75.1,90.9,75.4,90.9z
	 M75.8,102.3c-2.3,0-4.2-1.9-4.2-4.2s1.9-4.2,4.2-4.2s4.2,1.9,4.2,4.2S78.1,102.3,75.8,102.3z M96.9,73.6c0.2-0.2,0.5-0.2,0.7,0
	l0.2,0.2c0.2,0.2,0.2,0.5,0,0.7c-0.1,0.1-0.2,0.2-0.4,0.2c-0.1,0-0.2,0-0.3-0.1l-0.2-0.2C96.7,74.1,96.7,73.8,96.9,73.6z M94.7,71.3
	c0.2-0.2,0.5-0.2,0.7,0l0.2,0.2c0.2,0.2,0.2,0.5,0,0.7c-0.1,0.1-0.2,0.1-0.3,0.1c-0.1,0-0.3,0-0.4-0.1L94.7,72
	C94.5,71.8,94.5,71.5,94.7,71.3z M86.9,79.6c0,0-0.1,0-0.1,0c-0.2,0-0.4-0.2-0.5-0.4L86.2,79c-0.1-0.3,0.1-0.5,0.4-0.6
	c0.3-0.1,0.5,0.1,0.6,0.4l0.1,0.2C87.3,79.2,87.1,79.5,86.9,79.6z M87.6,82.7c-0.2,0-0.4-0.1-0.5-0.4L87,82.1
	c-0.1-0.3,0.1-0.5,0.4-0.6c0.3-0.1,0.5,0.1,0.6,0.4l0.1,0.2c0.1,0.3-0.1,0.5-0.3,0.6C87.6,82.7,87.6,82.7,87.6,82.7z M88.5,85.8
	c0,0-0.1,0-0.1,0c-0.2,0-0.4-0.1-0.5-0.4l-0.1-0.2c-0.1-0.3,0.1-0.5,0.3-0.6c0.3-0.1,0.5,0.1,0.6,0.3l0.1,0.2
	C88.9,85.4,88.8,85.7,88.5,85.8z M89.4,88.9c0,0-0.1,0-0.1,0c-0.2,0-0.4-0.1-0.5-0.4l-0.1-0.2c-0.1-0.3,0.1-0.5,0.3-0.6
	c0.3-0.1,0.5,0.1,0.6,0.3l0.1,0.2C89.8,88.5,89.7,88.8,89.4,88.9z M90.3,92c0,0-0.1,0-0.1,0c-0.2,0-0.4-0.1-0.5-0.3l-0.1-0.2
	c-0.1-0.3,0.1-0.5,0.3-0.6c0.3-0.1,0.5,0.1,0.6,0.3l0.1,0.2C90.7,91.6,90.6,91.9,90.3,92z M91.3,95c-0.1,0-0.1,0-0.2,0
	c-0.2,0-0.4-0.1-0.5-0.3l-0.1-0.2c-0.1-0.3,0.1-0.5,0.3-0.6c0.3-0.1,0.5,0.1,0.6,0.3l0.1,0.2C91.7,94.7,91.5,94.9,91.3,95z
	 M92.3,98.1c-0.1,0-0.1,0-0.2,0c-0.2,0-0.4-0.1-0.5-0.3l-0.1-0.2c-0.1-0.3,0.1-0.5,0.3-0.6c0.3-0.1,0.5,0.1,0.6,0.3l0.1,0.2
	C92.7,97.7,92.5,98,92.3,98.1z M93.3,101.1c-0.1,0-0.1,0-0.2,0c-0.2,0-0.4-0.1-0.5-0.3l-0.1-0.2c-0.1-0.3,0.1-0.5,0.3-0.6
	c0.3-0.1,0.5,0.1,0.6,0.3l0.1,0.2C93.7,100.7,93.6,101,93.3,101.1z M94.4,104.1c-0.1,0-0.1,0-0.2,0c-0.2,0-0.4-0.1-0.5-0.3l-0.1-0.2
	c-0.1-0.3,0-0.5,0.3-0.6c0.3-0.1,0.5,0,0.6,0.3l0.1,0.2C94.8,103.8,94.6,104.1,94.4,104.1z M95.5,107.2c-0.1,0-0.1,0-0.2,0
	c-0.2,0-0.4-0.1-0.5-0.3l-0.1-0.2c-0.1-0.3,0-0.5,0.3-0.6c0.3-0.1,0.5,0,0.6,0.3l0.1,0.2C95.9,106.8,95.7,107.1,95.5,107.2z
	 M96.6,110.2c-0.1,0-0.1,0-0.2,0c-0.2,0-0.4-0.1-0.5-0.3l-0.1-0.2c-0.1-0.3,0-0.5,0.3-0.6c0.3-0.1,0.5,0,0.6,0.3l0.1,0.2
	C97,109.8,96.9,110.1,96.6,110.2z M97.8,113.1c-0.1,0-0.1,0-0.2,0c-0.2,0-0.4-0.1-0.5-0.3l-0.1-0.2c-0.1-0.3,0-0.5,0.3-0.6
	c0.3-0.1,0.5,0,0.6,0.3l0.1,0.2C98.2,112.7,98.1,113,97.8,113.1z M99.1,116.1c-0.1,0-0.1,0-0.2,0c-0.2,0-0.4-0.1-0.5-0.3l-0.1-0.2
	c-0.1-0.3,0-0.5,0.3-0.6c0.2-0.1,0.5,0,0.6,0.3l0.1,0.2C99.5,115.7,99.3,116,99.1,116.1z M99.3,76.6c-0.2-0.2-0.2-0.5,0-0.7
	c0.2-0.2,0.5-0.2,0.7,0l0.2,0.2c0.2,0.2,0.2,0.5,0,0.7c-0.1,0.1-0.2,0.2-0.4,0.2c-0.1,0-0.2,0-0.3-0.1L99.3,76.6z M100.4,119
	c-0.1,0-0.1,0-0.2,0c-0.2,0-0.4-0.1-0.5-0.3l-0.1-0.2c-0.1-0.2,0-0.5,0.3-0.7c0.2-0.1,0.5,0,0.7,0.3l0.1,0.2
	C100.7,118.6,100.6,118.9,100.4,119z M101.7,122c-0.1,0-0.1,0-0.2,0c-0.2,0-0.4-0.1-0.5-0.3l-0.1-0.2c-0.1-0.2,0-0.5,0.2-0.7
	c0.2-0.1,0.5,0,0.7,0.2l0.1,0.2C102.1,121.5,102,121.8,101.7,122z M101.8,78.9l-0.2-0.2c-0.2-0.2-0.2-0.5,0-0.7
	c0.2-0.2,0.5-0.2,0.7,0l0.2,0.2c0.2,0.2,0.2,0.5,0,0.7c-0.1,0.1-0.2,0.2-0.4,0.2C102,79,101.9,79,101.8,78.9z M103.1,124.8
	c-0.1,0-0.1,0-0.2,0c-0.2,0-0.4-0.1-0.4-0.3l-0.1-0.2c-0.1-0.2,0-0.5,0.2-0.7c0.2-0.1,0.5,0,0.7,0.2l0.1,0.2
	C103.5,124.4,103.4,124.7,103.1,124.8z M104.5,127.7c-0.1,0-0.1,0.1-0.2,0.1c-0.2,0-0.4-0.1-0.4-0.3l-0.1-0.2
	c-0.1-0.2,0-0.5,0.2-0.7c0.2-0.1,0.5,0,0.7,0.2l0.1,0.2C104.9,127.3,104.8,127.6,104.5,127.7z M104.9,81c-0.1,0.1-0.2,0.2-0.4,0.2
	c-0.1,0-0.2,0-0.3-0.1l-0.2-0.2c-0.2-0.2-0.2-0.5,0-0.7c0.2-0.2,0.5-0.2,0.7,0l0.2,0.2C105.1,80.5,105.1,80.8,104.9,81z M107.4,83.1
	c-0.1,0.1-0.2,0.2-0.4,0.2c-0.1,0-0.2,0-0.3-0.1l-0.2-0.2c-0.2-0.2-0.2-0.5-0.1-0.7c0.2-0.2,0.5-0.2,0.7-0.1l0.2,0.2
	C107.5,82.6,107.5,82.9,107.4,83.1z M109.9,85.1c-0.1,0.1-0.2,0.2-0.4,0.2c-0.1,0-0.2,0-0.3-0.1L109,85c-0.2-0.2-0.2-0.5-0.1-0.7
	c0.2-0.2,0.5-0.2,0.7-0.1l0.2,0.2C110,84.6,110,84.9,109.9,85.1z M112.4,87.1c-0.1,0.1-0.2,0.2-0.4,0.2c-0.1,0-0.2,0-0.3-0.1
	l-0.2-0.2c-0.2-0.2-0.2-0.5-0.1-0.7c0.2-0.2,0.5-0.2,0.7-0.1l0.2,0.1C112.5,86.6,112.5,86.9,112.4,87.1z M114.9,89.1
	c-0.1,0.1-0.2,0.2-0.4,0.2c-0.1,0-0.2,0-0.3-0.1L114,89c-0.2-0.2-0.3-0.5-0.1-0.7c0.2-0.2,0.5-0.3,0.7-0.1l0.2,0.1
	C115,88.6,115.1,88.9,114.9,89.1z M117.5,91c-0.1,0.1-0.2,0.2-0.4,0.2c-0.1,0-0.2,0-0.3-0.1l-0.2-0.1c-0.2-0.2-0.3-0.5-0.1-0.7
	c0.2-0.2,0.5-0.3,0.7-0.1l0.2,0.1C117.6,90.5,117.7,90.8,117.5,91z M120.1,92.9c-0.1,0.1-0.2,0.2-0.4,0.2c-0.1,0-0.2,0-0.3-0.1
	l-0.2-0.1c-0.2-0.2-0.3-0.5-0.1-0.7s0.5-0.3,0.7-0.1l0.2,0.1C120.2,92.4,120.3,92.7,120.1,92.9z M122.7,94.8
	c-0.1,0.1-0.2,0.2-0.4,0.2c-0.1,0-0.2,0-0.3-0.1l-0.2-0.1c-0.2-0.2-0.3-0.5-0.1-0.7c0.2-0.2,0.5-0.3,0.7-0.1l0.2,0.1
	C122.8,94.2,122.9,94.5,122.7,94.8z M125.4,96.6c-0.1,0.1-0.3,0.2-0.4,0.2c-0.1,0-0.2,0-0.3-0.1l-0.2-0.1c-0.2-0.2-0.3-0.5-0.1-0.7
	c0.2-0.2,0.5-0.3,0.7-0.1l0.2,0.1C125.5,96,125.5,96.4,125.4,96.6z M128.1,98.4c-0.1,0.1-0.3,0.2-0.4,0.2c-0.1,0-0.2,0-0.3-0.1
	l-0.2-0.1c-0.2-0.2-0.3-0.5-0.1-0.7c0.2-0.2,0.5-0.3,0.7-0.1l0.2,0.1C128.2,97.8,128.2,98.1,128.1,98.4z M130.8,100.1
	c-0.1,0.1-0.3,0.2-0.4,0.2c-0.1,0-0.2,0-0.3-0.1l-0.2-0.1c-0.2-0.1-0.3-0.4-0.2-0.7c0.1-0.2,0.5-0.3,0.7-0.2l0.2,0.1
	C130.9,99.6,130.9,99.9,130.8,100.1z M133.5,101.8c-0.1,0.2-0.3,0.2-0.4,0.2c-0.1,0-0.2,0-0.3-0.1l-0.2-0.1
	c-0.2-0.1-0.3-0.4-0.2-0.7c0.1-0.2,0.5-0.3,0.7-0.2l0.2,0.1C133.6,101.3,133.6,101.6,133.5,101.8z M143.5,70.4c0,0-0.1,0-0.1,0
	l-0.2-0.1c-0.3-0.1-0.4-0.3-0.4-0.6c0.1-0.3,0.3-0.4,0.6-0.4l0.2,0.1c0.3,0.1,0.4,0.3,0.4,0.6C143.9,70.2,143.7,70.4,143.5,70.4z
	 M136.2,103.5c-0.1,0.2-0.3,0.2-0.4,0.2c-0.1,0-0.2,0-0.3-0.1l-0.2-0.1c-0.2-0.1-0.3-0.4-0.2-0.7c0.1-0.2,0.4-0.3,0.7-0.2l0.2,0.1
	C136.3,103,136.4,103.3,136.2,103.5z M145.4,107.6c-0.3,1.1-1,2-1.9,2.6c-0.7,0.4-1.4,0.6-2.2,0.6c-1.5,0-2.9-0.8-3.6-2.1
	c-0.6-1-0.7-2.1-0.5-3.2c0.3-1.1,1-2,1.9-2.6c0.7-0.4,1.4-0.6,2.2-0.6c1.5,0,2.9,0.8,3.6,2.1C145.5,105.4,145.7,106.5,145.4,107.6z
	 M147.1,70.7c-0.1,0.2-0.3,0.4-0.5,0.4c0,0-0.1,0-0.1,0l-0.2-0.1c-0.3-0.1-0.4-0.3-0.4-0.6c0.1-0.3,0.3-0.4,0.6-0.4l0.2,0.1
	C147,70.2,147.1,70.5,147.1,70.7z M150.2,71.5c-0.1,0.2-0.3,0.4-0.5,0.4c0,0-0.1,0-0.1,0l-0.2-0.1c-0.3-0.1-0.4-0.3-0.4-0.6
	c0.1-0.3,0.3-0.4,0.6-0.4l0.2,0.1C150.1,71,150.2,71.3,150.2,71.5z M153.3,72.3c-0.1,0.2-0.3,0.4-0.5,0.4c0,0-0.1,0-0.1,0l-0.2-0.1
	c-0.3-0.1-0.4-0.3-0.4-0.6c0.1-0.3,0.3-0.4,0.6-0.4l0.2,0.1C153.2,71.8,153.3,72,153.3,72.3z M156.4,73.1c-0.1,0.2-0.3,0.4-0.5,0.4
	c0,0-0.1,0-0.1,0l-0.2-0.1c-0.3-0.1-0.4-0.3-0.4-0.6s0.3-0.4,0.6-0.4l0.2,0.1C156.3,72.6,156.4,72.9,156.4,73.1z"/>
<path fill="#FFF7EC" d="M82.6,73.6c-5.9,0-10.9-3.5-13.2-8.5c-3.1,4.6-5.6,9.6-7.3,15c2.1,1.4,12.1,7.3,20.6,1.2
	c3.7-2.6,4.4-5.7,5-8.7C86,73.3,84.3,73.6,82.6,73.6z M76.3,82.1c0,0.3-0.2,0.4-0.5,0.4c0,0,0,0,0,0c-0.3,0-0.5-0.3-0.4-0.5l0-0.2
	c0-0.3,0.3-0.5,0.5-0.5c0.3,0,0.5,0.3,0.5,0.5L76.3,82.1z M76.6,78.9c0,0.3-0.2,0.4-0.5,0.4c0,0,0,0-0.1,0c-0.3,0-0.5-0.3-0.4-0.5
	l0-0.2c0-0.3,0.3-0.5,0.5-0.4c0.3,0,0.5,0.3,0.4,0.5L76.6,78.9z M77,75.7c0,0.2-0.2,0.4-0.5,0.4c0,0,0,0-0.1,0
	c-0.3,0-0.5-0.3-0.4-0.6l0-0.2c0-0.3,0.3-0.5,0.6-0.4c0.3,0,0.5,0.3,0.4,0.6L77,75.7z M86.1,76.5c0,0-0.1,0-0.1,0
	c-0.2,0-0.4-0.2-0.5-0.4l-0.1-0.2c-0.1-0.3,0.1-0.5,0.4-0.6c0.3-0.1,0.5,0.1,0.6,0.4l0.1,0.2C86.5,76.1,86.4,76.4,86.1,76.5z"/>
<path fill="#0B3B58" d="M75.8,94.7c-1.8,0-3.3,1.5-3.3,3.3s1.5,3.3,3.3,3.3s3.3-1.5,3.3-3.3S77.6,94.7,75.8,94.7z"/>
<path fill="#FFF7EC" d="M173,81.1c-2.7,2.8-12.5,13.7-11.8,23.2c0.7,10.1,8.8,14.3,10.1,15c2.6-6.6,4.1-13.9,4.1-21.4
	C175.4,92,174.5,86.4,173,81.1z"/>
<path fill="#E5E5EB" d="M242.6,84.9h-11.1c-2.1,0-3.9-1.7-3.9-3.9V69.4c0-2.1,1.7-3.9,3.9-3.9h11.1c2.1,0,3.9,1.7,3.9,3.9V81
	C246.5,83.1,244.7,84.9,242.6,84.9z M231.5,66.8c-1.4,0-2.5,1.1-2.5,2.5V81c0,1.4,1.1,2.5,2.5,2.5h11.1c1.4,0,2.5-1.1,2.5-2.5V69.4
	c0-1.4-1.1-2.5-2.5-2.5H231.5z"/>
<path fill="#E5E5EB" d="M242.6,131.2h-11.1c-2.1,0-3.9-1.7-3.9-3.9v-11.6c0-2.1,1.7-3.9,3.9-3.9h11.1c2.1,0,3.9,1.7,3.9,3.9v11.6
	C246.5,129.5,244.7,131.2,242.6,131.2z M231.5,113.2c-1.4,0-2.5,1.1-2.5,2.5v11.6c0,1.4,1.1,2.5,2.5,2.5h11.1c1.4,0,2.5-1.1,2.5-2.5
	v-11.6c0-1.4-1.1-2.5-2.5-2.5H231.5z"/>
<path fill="#E5E5EB" d="M242.6,61.2h-11.1c-2.1,0-3.9-1.7-3.9-3.9V45.7c0-2.1,1.7-3.9,3.9-3.9h11.1c2.1,0,3.9,1.7,3.9,3.9v11.6
	C246.5,59.4,244.7,61.2,242.6,61.2z M231.5,43.2c-1.4,0-2.5,1.1-2.5,2.5v11.6c0,1.4,1.1,2.5,2.5,2.5h11.1c1.4,0,2.5-1.1,2.5-2.5
	V45.7c0-1.4-1.1-2.5-2.5-2.5H231.5z"/>
<path fill="#16577B" d="M242.2,51.2c-1.7,0-3.3,0-4.9,0c0-1.6,0-3.3,0-4.9c1.1,0.1,2.2,0.4,3.1,1.2
	C241.5,48.5,242.1,49.7,242.2,51.2z"/>
<path fill="#0B3B58" d="M237.6,51.7c1.5,0,3,0,4.6,0c-0.1,1.2-0.5,2.3-1.3,3.2C239.8,53.9,238.7,52.8,237.6,51.7z"/>
<path fill="#E5E5EB" d="M242.6,107.2h-11.1c-2.1,0-3.9-1.7-3.9-3.9V91.7c0-2.1,1.7-3.9,3.9-3.9h11.1c2.1,0,3.9,1.7,3.9,3.9v11.6
	C246.5,105.5,244.7,107.2,242.6,107.2z M231.5,89.2c-1.4,0-2.5,1.1-2.5,2.5v11.6c0,1.4,1.1,2.5,2.5,2.5h11.1c1.4,0,2.5-1.1,2.5-2.5
	V91.7c0-1.4-1.1-2.5-2.5-2.5H231.5z"/>
<path fill="#0B3B58" d="M240.6,95.3l-2.2,2.2l-1.9-1.3c0,0.4-0.2,0.6-0.5,0.8l2.2,1.6c0.2,0.1,0.5,0.1,0.6-0.1l2.6-2.6
	C241,95.8,240.8,95.6,240.6,95.3z"/>
<path fill="#E5E5EB" d="M223,50.6h-45.4c-11.9-15.2-28.8-25.2-47.9-28.4c-20.2-3.3-40.5,1.5-57.1,13.4S45.1,65.2,41.8,85.4
	c-3.3,20.2,1.5,40.5,13.4,57.1l1.1-0.8c-11.7-16.3-16.4-36.2-13.2-56s14-37.2,30.3-48.9c16.3-11.7,36.2-16.4,56-13.2
	s37.2,14,48.9,30.3c24.2,33.7,16.5,80.8-17.2,105l0.8,1.1c5.9-4.2,10.9-9.1,15.2-14.5H223v-1.4h-44.7c5.1-6.7,8.9-14.1,11.5-21.8
	H223v-1.4h-32.7c2.3-7.2,3.5-14.8,3.5-22.4H223v-1.4h-29.1c-0.1-7.3-1.2-14.7-3.4-21.9H223v-1.4h-32.9c-2.4-7.2-5.9-14.2-10.6-20.8
	c-0.3-0.4-0.6-0.7-0.9-1.1H223V50.6z"/>
<path fill="#E5E5EB" d="M185.1,97.4c-0.3-37.1-30.6-67-67.6-67c-0.2,0-0.4,0-0.6,0c-9.3,0.1-18.3,2-26.8,5.8l0.6,1.3
	c8.3-3.7,17.1-5.6,26.2-5.6c0.2,0,0.4,0,0.6,0c36.2,0,65.9,29.3,66.2,65.6c0.3,36.5-29.1,66.5-65.6,66.8c-0.2,0-0.4,0-0.6,0
	c-36.2,0-65.9-29.3-66.2-65.6c-0.1-12.2,3.1-24.1,9.3-34.5l-1.2-0.7C53.2,74,49.9,86.2,50,98.6c0.3,37.1,30.6,67,67.6,67
	c0.2,0,0.4,0,0.6,0C155.4,165.3,185.5,134.7,185.1,97.4z"/>
<path fill="#E5E5EB" d="M242.6,154.5h-11.1c-2.1,0-3.9-1.7-3.9-3.9v-11.6c0-2.1,1.7-3.9,3.9-3.9h11.1c2.1,0,3.9,1.7,3.9,3.9v11.6
	C246.5,152.7,244.7,154.5,242.6,154.5z M231.5,136.4c-1.4,0-2.5,1.1-2.5,2.5v11.6c0,1.4,1.1,2.5,2.5,2.5h11.1c1.4,0,2.5-1.1,2.5-2.5
	v-11.6c0-1.4-1.1-2.5-2.5-2.5H231.5z"/>
<path fill="#0B3B58" d="M242.9,145.2h-7.3c-0.2,0-0.4-0.2-0.4-0.4s0.2-0.4,0.4-0.4h7.3c0.2,0,0.4,0.2,0.4,0.4
	S243.2,145.2,242.9,145.2z"/>
<path fill="#0B3B58" d="M242.9,141.4h-7.3c-0.2,0-0.4-0.2-0.4-0.4s0.2-0.4,0.4-0.4h7.3c0.2,0,0.4,0.2,0.4,0.4
	S243.2,141.4,242.9,141.4z"/>
<path fill="#0B3B58" d="M242.9,149h-7.3c-0.2,0-0.4-0.2-0.4-0.4s0.2-0.4,0.4-0.4h7.3c0.2,0,0.4,0.2,0.4,0.4S243.2,149,242.9,149z"/>
<path fill="#FFFFFF" d="M162.7,79.2c-2.3,0-4.2-1.9-4.2-4.2s1.9-4.2,4.2-4.2s4.2,1.9,4.2,4.2S165,79.2,162.7,79.2z M162.7,71.7
	c-1.8,0-3.3,1.5-3.3,3.3s1.5,3.3,3.3,3.3s3.3-1.5,3.3-3.3S164.5,71.7,162.7,71.7z"/>
<path fill="#0B3B58" d="M233.5,99.8l1.9-2.7c-0.3,0-0.6-0.2-0.8-0.5l-1.9,2.7C233,99.2,233.3,99.5,233.5,99.8z"/>
<path fill="#E5E5EB" d="M75.6,84.5c-0.3,0-0.5,0.2-0.5,0.5l0,0.2c0,0.3,0.2,0.5,0.5,0.5c0,0,0,0,0,0c0.3,0,0.5-0.2,0.5-0.5l0-0.2
	C76.1,84.7,75.9,84.5,75.6,84.5z"/>
<path fill="#E5E5EB" d="M75.4,87.7c-0.2,0-0.5,0.2-0.5,0.5l0,0.2c0,0.3,0.2,0.5,0.5,0.5c0,0,0,0,0,0c0.3,0,0.5-0.2,0.5-0.5l0-0.2
	C75.9,87.9,75.7,87.7,75.4,87.7z"/>
<path fill="#E5E5EB" d="M75.4,90.9c-0.3,0-0.5,0.2-0.5,0.5l0,0.2c0,0.3,0.2,0.5,0.5,0.5c0,0,0,0,0,0c0.3,0,0.5-0.2,0.5-0.5l0-0.3
	C75.9,91.1,75.7,90.9,75.4,90.9z"/>
<path fill="#E5E5EB" d="M75.8,81.3c-0.2,0-0.5,0.2-0.5,0.5l0,0.2c0,0.3,0.2,0.5,0.4,0.5c0,0,0,0,0,0c0.3,0,0.5-0.2,0.5-0.4l0-0.3
	C76.3,81.6,76.1,81.3,75.8,81.3z"/>
<path fill="#E5E5EB" d="M76.6,74.9c-0.3,0-0.5,0.1-0.6,0.4l0,0.2c0,0.3,0.1,0.5,0.4,0.6c0,0,0,0,0.1,0c0.2,0,0.5-0.2,0.5-0.4l0-0.2
	C77.1,75.2,76.9,75,76.6,74.9z"/>
<path fill="#E5E5EB" d="M76.2,78.1c-0.3,0-0.5,0.2-0.5,0.4l0,0.2c0,0.3,0.2,0.5,0.4,0.5c0,0,0,0,0.1,0c0.2,0,0.5-0.2,0.5-0.4l0-0.2
	C76.7,78.4,76.5,78.1,76.2,78.1z"/>
<path fill="#E5E5EB" d="M86.5,75.9l-0.1-0.2c-0.1-0.3-0.3-0.4-0.6-0.4c-0.3,0.1-0.4,0.3-0.4,0.6l0.1,0.2c0.1,0.2,0.3,0.4,0.5,0.4
	c0,0,0.1,0,0.1,0C86.4,76.4,86.5,76.1,86.5,75.9z"/>
<path fill="#E5E5EB" d="M87.2,79l-0.1-0.2c-0.1-0.3-0.3-0.4-0.6-0.4c-0.3,0.1-0.4,0.3-0.4,0.6l0.1,0.2c0.1,0.2,0.3,0.4,0.5,0.4
	c0,0,0.1,0,0.1,0C87.1,79.5,87.3,79.2,87.2,79z"/>
<path fill="#E5E5EB" d="M88,82.1L88,81.9c-0.1-0.3-0.3-0.4-0.6-0.4c-0.3,0.1-0.4,0.3-0.4,0.6l0.1,0.2c0.1,0.2,0.3,0.4,0.5,0.4
	c0,0,0.1,0,0.1,0C88,82.6,88.1,82.3,88,82.1z"/>
<path fill="#E5E5EB" d="M88.9,85.2l-0.1-0.2c-0.1-0.3-0.3-0.4-0.6-0.3c-0.3,0.1-0.4,0.3-0.3,0.6l0.1,0.2c0.1,0.2,0.3,0.4,0.5,0.4
	c0,0,0.1,0,0.1,0C88.8,85.7,88.9,85.4,88.9,85.2z"/>
<path fill="#E5E5EB" d="M89.7,88.3L89.7,88c-0.1-0.3-0.3-0.4-0.6-0.3c-0.3,0.1-0.4,0.3-0.3,0.6l0.1,0.2c0.1,0.2,0.3,0.4,0.5,0.4
	c0,0,0.1,0,0.1,0C89.7,88.8,89.8,88.5,89.7,88.3z"/>
<path fill="#E5E5EB" d="M90.6,91.3l-0.1-0.2c-0.1-0.3-0.3-0.4-0.6-0.3c-0.3,0.1-0.4,0.4-0.3,0.6l0.1,0.2c0.1,0.2,0.3,0.3,0.5,0.3
	c0,0,0.1,0,0.1,0C90.6,91.9,90.7,91.6,90.6,91.3z"/>
<path fill="#E5E5EB" d="M91.6,94.4l-0.1-0.2c-0.1-0.3-0.4-0.4-0.6-0.3c-0.3,0.1-0.4,0.4-0.3,0.6l0.1,0.2c0.1,0.2,0.3,0.3,0.5,0.3
	c0,0,0.1,0,0.2,0C91.5,94.9,91.7,94.7,91.6,94.4z"/>
<path fill="#E5E5EB" d="M92.6,97.5l-0.1-0.2c-0.1-0.3-0.4-0.4-0.6-0.3c-0.3,0.1-0.4,0.4-0.3,0.6l0.1,0.2c0.1,0.2,0.3,0.3,0.5,0.3
	c0.1,0,0.1,0,0.2,0C92.5,98,92.7,97.7,92.6,97.5z"/>
<path fill="#E5E5EB" d="M93.6,100.5l-0.1-0.2c-0.1-0.3-0.4-0.4-0.6-0.3c-0.3,0.1-0.4,0.4-0.3,0.6l0.1,0.2c0.1,0.2,0.3,0.3,0.5,0.3
	c0.1,0,0.1,0,0.2,0C93.6,101,93.7,100.7,93.6,100.5z"/>
<path fill="#E5E5EB" d="M94.6,103.3c-0.1-0.3-0.4-0.4-0.6-0.3c-0.3,0.1-0.4,0.4-0.3,0.6l0.1,0.2c0.1,0.2,0.3,0.3,0.5,0.3
	c0.1,0,0.1,0,0.2,0c0.3-0.1,0.4-0.4,0.3-0.6L94.6,103.3z"/>
<path fill="#E5E5EB" d="M95.7,106.3c-0.1-0.3-0.4-0.4-0.6-0.3c-0.3,0.1-0.4,0.4-0.3,0.6l0.1,0.2c0.1,0.2,0.3,0.3,0.5,0.3
	c0.1,0,0.1,0,0.2,0c0.3-0.1,0.4-0.4,0.3-0.6L95.7,106.3z"/>
<path fill="#E5E5EB" d="M96.8,109.3c-0.1-0.3-0.4-0.4-0.6-0.3c-0.3,0.1-0.4,0.4-0.3,0.6l0.1,0.2c0.1,0.2,0.3,0.3,0.5,0.3
	c0.1,0,0.1,0,0.2,0c0.3-0.1,0.4-0.4,0.3-0.6L96.8,109.3z"/>
<path fill="#E5E5EB" d="M98,112.3c-0.1-0.3-0.4-0.4-0.6-0.3c-0.3,0.1-0.4,0.4-0.3,0.6l0.1,0.2c0.1,0.2,0.3,0.3,0.5,0.3
	c0.1,0,0.1,0,0.2,0c0.3-0.1,0.4-0.4,0.3-0.6L98,112.3z"/>
<path fill="#E5E5EB" d="M99.3,115.2c-0.1-0.3-0.4-0.4-0.6-0.3c-0.3,0.1-0.4,0.4-0.3,0.6l0.1,0.2c0.1,0.2,0.3,0.3,0.5,0.3
	c0.1,0,0.1,0,0.2,0c0.3-0.1,0.4-0.4,0.3-0.6L99.3,115.2z"/>
<path fill="#E5E5EB" d="M100.5,118.2c-0.1-0.3-0.4-0.4-0.7-0.3c-0.2,0.1-0.4,0.4-0.3,0.7l0.1,0.2c0.1,0.2,0.3,0.3,0.5,0.3
	c0.1,0,0.1,0,0.2,0c0.2-0.1,0.4-0.4,0.2-0.7L100.5,118.2z"/>
<path fill="#E5E5EB" d="M101.9,121.1c-0.1-0.2-0.4-0.4-0.7-0.2c-0.2,0.1-0.4,0.4-0.2,0.7l0.1,0.2c0.1,0.2,0.3,0.3,0.5,0.3
	c0.1,0,0.1,0,0.2,0c0.2-0.1,0.4-0.4,0.2-0.7L101.9,121.1z"/>
<path fill="#E5E5EB" d="M103.2,124c-0.1-0.2-0.4-0.3-0.7-0.2c-0.2,0.1-0.3,0.4-0.2,0.7l0.1,0.2c0.1,0.2,0.3,0.3,0.4,0.3
	c0.1,0,0.1,0,0.2,0c0.2-0.1,0.4-0.4,0.2-0.7L103.2,124z"/>
<path fill="#E5E5EB" d="M104.6,126.8c-0.1-0.2-0.4-0.3-0.7-0.2c-0.2,0.1-0.3,0.4-0.2,0.7l0.1,0.2c0.1,0.2,0.3,0.3,0.4,0.3
	c0.1,0,0.2,0,0.2-0.1c0.2-0.1,0.3-0.4,0.2-0.7L104.6,126.8z"/>
<path fill="#E5E5EB" d="M106.1,129.7c-0.1-0.2-0.4-0.3-0.7-0.2c-0.2,0.1-0.3,0.4-0.2,0.7l0.1,0.2c0.1,0.2,0.3,0.3,0.4,0.3
	c0.1,0,0.2,0,0.2-0.1c0.2-0.1,0.3-0.4,0.2-0.7L106.1,129.7z"/>
<path fill="#E5E5EB" d="M107.6,132.5c-0.1-0.2-0.4-0.3-0.7-0.2c-0.2,0.1-0.3,0.4-0.2,0.7l0.1,0.2c0.1,0.2,0.3,0.3,0.4,0.3
	c0.1,0,0.2,0,0.2-0.1c0.2-0.1,0.3-0.4,0.2-0.7L107.6,132.5z"/>
<path fill="#E5E5EB" d="M109.2,135.3c-0.1-0.2-0.4-0.3-0.7-0.2c-0.2,0.1-0.3,0.4-0.2,0.7l0.1,0.2c0.1,0.2,0.3,0.2,0.4,0.2
	c0.1,0,0.2,0,0.2-0.1c0.2-0.1,0.3-0.4,0.2-0.7L109.2,135.3z"/>
<path fill="#E5E5EB" d="M111,138.3l-0.1-0.2c-0.1-0.2-0.4-0.3-0.7-0.2c-0.2,0.1-0.3,0.4-0.2,0.7l0.1,0.2c0.1,0.2,0.3,0.2,0.4,0.2
	c0.1,0,0.2,0,0.3-0.1C111,138.8,111.1,138.5,111,138.3z"/>
<path fill="#FFF7EC" d="M136,134.7c8.2-11.2-9.8-28-23.2-10.9c-2.1,2.6-4.4,4.6-6.7,5.8c0,0,0.1,0.1,0.1,0.1l0.1,0.2
	c0.1,0.2,0,0.5-0.2,0.7c-0.1,0-0.2,0.1-0.2,0.1c-0.2,0-0.4-0.1-0.4-0.3l-0.1-0.2c0,0,0-0.1,0-0.1c-5.1,2.2-10.4,0.7-13.7-6.1
	c-4.7-10-20.6-18.1-30.9-13.7c5.7,26.1,28.9,45.7,56.7,45.7c7.7,0,15.1-1.5,21.9-4.3C136.9,149.8,129.8,143.1,136,134.7z
	 M107.6,133.4c-0.1,0-0.2,0.1-0.2,0.1c-0.2,0-0.3-0.1-0.4-0.3l-0.1-0.2c-0.1-0.2,0-0.5,0.2-0.7c0.2-0.1,0.5,0,0.7,0.2l0.1,0.2
	C107.9,133,107.8,133.3,107.6,133.4z M109.1,136.2c-0.1,0-0.2,0.1-0.2,0.1c-0.2,0-0.3-0.1-0.4-0.2l-0.1-0.2
	c-0.1-0.2-0.1-0.5,0.2-0.7c0.2-0.1,0.5-0.1,0.7,0.2l0.1,0.2C109.5,135.8,109.4,136.1,109.1,136.2z M110,138.6
	c-0.1-0.2-0.1-0.5,0.2-0.7c0.2-0.1,0.5-0.1,0.7,0.2l0.1,0.2c0.1,0.2,0.1,0.5-0.2,0.7c-0.1,0-0.2,0.1-0.3,0.1c-0.2,0-0.3-0.1-0.4-0.2
	L110,138.6z M114.4,149c-2.3,0-4.2-1.9-4.2-4.2s1.9-4.2,4.2-4.2s4.2,1.9,4.2,4.2S116.8,149,114.4,149z"/>
<circle fill="#FFF7EC" cx="114.4" cy="144.8" r="3.3"/>
<path fill="#FFFFFF" d="M75.8,102.3c-2.3,0-4.2-1.9-4.2-4.2s1.9-4.2,4.2-4.2s4.2,1.9,4.2,4.2S78.1,102.3,75.8,102.3z M75.8,94.7
	c-1.8,0-3.3,1.5-3.3,3.3s1.5,3.3,3.3,3.3s3.3-1.5,3.3-3.3S77.6,94.7,75.8,94.7z"/>
<path fill="#FFFFFF" d="M114.4,149c-2.3,0-4.2-1.9-4.2-4.2s1.9-4.2,4.2-4.2s4.2,1.9,4.2,4.2S116.8,149,114.4,149z M114.4,141.4
	c-1.8,0-3.3,1.5-3.3,3.3s1.5,3.3,3.3,3.3s3.3-1.5,3.3-3.3S116.3,141.4,114.4,141.4z"/>
<path fill="#E5E5EB" d="M109.6,84.3c-0.2-0.2-0.5-0.1-0.7,0.1c-0.2,0.2-0.1,0.5,0.1,0.7l0.2,0.2c0.1,0.1,0.2,0.1,0.3,0.1
	c0.1,0,0.3-0.1,0.4-0.2c0.2-0.2,0.1-0.5-0.1-0.7L109.6,84.3z"/>
<path fill="#E5E5EB" d="M102.3,78c-0.2-0.2-0.5-0.2-0.7,0c-0.2,0.2-0.2,0.5,0,0.7l0.2,0.2c0.1,0.1,0.2,0.1,0.3,0.1
	c0.1,0,0.3-0.1,0.4-0.2c0.2-0.2,0.2-0.5,0-0.7L102.3,78z"/>
<path fill="#E5E5EB" d="M104.7,80.1c-0.2-0.2-0.5-0.2-0.7,0c-0.2,0.2-0.2,0.5,0,0.7l0.2,0.2c0.1,0.1,0.2,0.1,0.3,0.1
	c0.1,0,0.3-0.1,0.4-0.2c0.2-0.2,0.2-0.5,0-0.7L104.7,80.1z"/>
<path fill="#E5E5EB" d="M107.1,82.2c-0.2-0.2-0.5-0.1-0.7,0.1c-0.2,0.2-0.1,0.5,0.1,0.7l0.2,0.2c0.1,0.1,0.2,0.1,0.3,0.1
	c0.1,0,0.3-0.1,0.4-0.2c0.2-0.2,0.2-0.5-0.1-0.7L107.1,82.2z"/>
<path fill="#E5E5EB" d="M95.4,71.3c-0.2-0.2-0.5-0.2-0.7,0c-0.2,0.2-0.2,0.5,0,0.7l0.2,0.2c0.1,0.1,0.2,0.1,0.4,0.1
	c0.1,0,0.2,0,0.3-0.1c0.2-0.2,0.2-0.5,0-0.7L95.4,71.3z"/>
<path fill="#E5E5EB" d="M112.1,86.3c-0.2-0.2-0.5-0.1-0.7,0.1c-0.2,0.2-0.1,0.5,0.1,0.7l0.2,0.2c0.1,0.1,0.2,0.1,0.3,0.1
	c0.1,0,0.3-0.1,0.4-0.2c0.2-0.2,0.1-0.5-0.1-0.7L112.1,86.3z"/>
<path fill="#E5E5EB" d="M99.9,75.8c-0.2-0.2-0.5-0.2-0.7,0c-0.2,0.2-0.2,0.5,0,0.7l0.2,0.2c0.1,0.1,0.2,0.1,0.3,0.1
	c0.1,0,0.3-0.1,0.4-0.2c0.2-0.2,0.2-0.5,0-0.7L99.9,75.8z"/>
<path fill="#E5E5EB" d="M97.6,73.6c-0.2-0.2-0.5-0.2-0.7,0c-0.2,0.2-0.2,0.5,0,0.7l0.2,0.2c0.1,0.1,0.2,0.1,0.3,0.1
	c0.1,0,0.3-0.1,0.4-0.2c0.2-0.2,0.2-0.5,0-0.7L97.6,73.6z"/>
<path fill="#E5E5EB" d="M127.9,97.7l-0.2-0.1c-0.2-0.1-0.5-0.1-0.7,0.1c-0.1,0.2-0.1,0.5,0.1,0.7l0.2,0.1c0.1,0.1,0.2,0.1,0.3,0.1
	c0.2,0,0.3-0.1,0.4-0.2C128.2,98.1,128.2,97.8,127.9,97.7z"/>
<path fill="#E5E5EB" d="M133.3,101.1l-0.2-0.1c-0.2-0.1-0.5-0.1-0.7,0.2c-0.1,0.2-0.1,0.5,0.2,0.7l0.2,0.1c0.1,0.1,0.2,0.1,0.3,0.1
	c0.2,0,0.3-0.1,0.4-0.2C133.6,101.6,133.6,101.3,133.3,101.1z"/>
<path fill="#E5E5EB" d="M114.6,88.3c-0.2-0.2-0.5-0.1-0.7,0.1c-0.2,0.2-0.1,0.5,0.1,0.7l0.2,0.2c0.1,0.1,0.2,0.1,0.3,0.1
	c0.1,0,0.3-0.1,0.4-0.2c0.2-0.2,0.1-0.5-0.1-0.7L114.6,88.3z"/>
<path fill="#E5E5EB" d="M130.6,99.4l-0.2-0.1c-0.2-0.1-0.5-0.1-0.7,0.2c-0.1,0.2-0.1,0.5,0.2,0.7l0.2,0.1c0.1,0.1,0.2,0.1,0.3,0.1
	c0.2,0,0.3-0.1,0.4-0.2C130.9,99.9,130.9,99.6,130.6,99.4z"/>
<path fill="#E5E5EB" d="M136.1,102.8l-0.2-0.1c-0.2-0.1-0.5-0.1-0.7,0.2c-0.1,0.2-0.1,0.5,0.2,0.7l0.2,0.1c0.1,0,0.2,0.1,0.3,0.1
	c0.2,0,0.3-0.1,0.4-0.2C136.4,103.3,136.3,103,136.1,102.8z"/>
<path fill="#E5E5EB" d="M125.1,95.8c-0.2-0.2-0.5-0.1-0.7,0.1c-0.2,0.2-0.1,0.5,0.1,0.7l0.2,0.1c0.1,0.1,0.2,0.1,0.3,0.1
	c0.2,0,0.3-0.1,0.4-0.2c0.2-0.2,0.1-0.5-0.1-0.7L125.1,95.8z"/>
<path fill="#E5E5EB" d="M122.4,93.9c-0.2-0.2-0.5-0.1-0.7,0.1c-0.2,0.2-0.1,0.5,0.1,0.7l0.2,0.1c0.1,0.1,0.2,0.1,0.3,0.1
	c0.2,0,0.3-0.1,0.4-0.2c0.2-0.2,0.1-0.5-0.1-0.7L122.4,93.9z"/>
<path fill="#E5E5EB" d="M117.2,90.2c-0.2-0.2-0.5-0.1-0.7,0.1c-0.2,0.2-0.1,0.5,0.1,0.7l0.2,0.1c0.1,0.1,0.2,0.1,0.3,0.1
	c0.2,0,0.3-0.1,0.4-0.2c0.2-0.2,0.1-0.5-0.1-0.7L117.2,90.2z"/>
<path fill="#E5E5EB" d="M119.8,92.1c-0.2-0.2-0.5-0.1-0.7,0.1s-0.1,0.5,0.1,0.7l0.2,0.1c0.1,0.1,0.2,0.1,0.3,0.1
	c0.2,0,0.3-0.1,0.4-0.2c0.2-0.2,0.1-0.5-0.1-0.7L119.8,92.1z"/>
<path fill="#FFFFFF" d="M141.3,110.8c-1.5,0-2.9-0.8-3.6-2.1c-0.6-1-0.7-2.1-0.5-3.2c0.3-1.1,1-2,1.9-2.6c0.7-0.4,1.4-0.6,2.2-0.6
	c1.5,0,2.9,0.8,3.6,2.1c0.6,1,0.7,2.1,0.5,3.2c-0.3,1.1-1,2-1.9,2.6C142.8,110.6,142.1,110.8,141.3,110.8z M141.3,103.2
	c-0.6,0-1.2,0.2-1.7,0.5c-0.8,0.5-1.3,1.2-1.5,2c-0.2,0.9-0.1,1.8,0.4,2.5c0.6,1,1.7,1.6,2.9,1.6c0.6,0,1.2-0.2,1.7-0.5
	c0.8-0.5,1.3-1.2,1.5-2c0.2-0.9,0.1-1.8-0.4-2.5C143.6,103.8,142.5,103.2,141.3,103.2z"/>
<path fill="#0B3B58" d="M141.3,103.2c-0.6,0-1.2,0.2-1.7,0.5c-0.8,0.5-1.3,1.2-1.5,2c-0.2,0.9-0.1,1.8,0.4,2.5
	c0.6,1,1.7,1.6,2.9,1.6c0.6,0,1.2-0.2,1.7-0.5c0.8-0.5,1.3-1.2,1.5-2c0.2-0.9,0.1-1.8-0.4-2.5C143.6,103.8,142.5,103.2,141.3,103.2z
	"/>
<path fill="#FFFFFF" d="M162.7,79.2c-2.3,0-4.2-1.9-4.2-4.2s1.9-4.2,4.2-4.2s4.2,1.9,4.2,4.2S165,79.2,162.7,79.2z M162.7,71.7
	c-1.8,0-3.3,1.5-3.3,3.3s1.5,3.3,3.3,3.3s3.3-1.5,3.3-3.3S164.5,71.7,162.7,71.7z"/>
<path fill="#E5E5EB" d="M112.1,63l-0.2,0c-0.3,0-0.5,0.1-0.6,0.4c0,0.3,0.1,0.5,0.4,0.6l0.2,0c0,0,0.1,0,0.1,0
	c0.2,0,0.4-0.2,0.5-0.4C112.6,63.2,112.4,63,112.1,63z"/>
<path fill="#E5E5EB" d="M115.3,63.5l-0.2,0c-0.3,0-0.5,0.1-0.6,0.4c0,0.3,0.1,0.5,0.4,0.6l0.2,0c0,0,0.1,0,0.1,0
	c0.2,0,0.4-0.2,0.5-0.4C115.7,63.8,115.6,63.5,115.3,63.5z"/>
<path fill="#E5E5EB" d="M121.6,64.6l-0.2,0c-0.3-0.1-0.5,0.1-0.6,0.4s0.1,0.5,0.4,0.6l0.2,0c0,0,0.1,0,0.1,0c0.2,0,0.4-0.2,0.5-0.4
	C122.1,65,121.9,64.7,121.6,64.6z"/>
<path fill="#E5E5EB" d="M124.8,65.3l-0.2,0c-0.3,0-0.5,0.1-0.6,0.4c-0.1,0.3,0.1,0.5,0.4,0.6l0.2,0c0,0,0.1,0,0.1,0
	c0.2,0,0.4-0.2,0.5-0.4C125.2,65.6,125,65.3,124.8,65.3z"/>
<path fill="#E5E5EB" d="M118.5,64.1l-0.2,0c-0.3,0-0.5,0.1-0.6,0.4c0,0.3,0.1,0.5,0.4,0.6l0.2,0c0,0,0.1,0,0.1,0
	c0.2,0,0.4-0.2,0.5-0.4C118.9,64.4,118.7,64.1,118.5,64.1z"/>
<path fill="#E5E5EB" d="M102.6,61.5l-0.2,0c-0.3,0-0.5,0.1-0.6,0.4c0,0.3,0.1,0.5,0.4,0.6l0.2,0c0,0,0,0,0.1,0
	c0.2,0,0.5-0.2,0.5-0.4C103.1,61.8,102.9,61.5,102.6,61.5z"/>
<path fill="#E5E5EB" d="M99.4,61.1l-0.2,0c-0.2,0-0.5,0.2-0.6,0.4c0,0.3,0.2,0.5,0.4,0.6l0.2,0c0,0,0,0,0.1,0c0.2,0,0.5-0.2,0.5-0.4
	C99.9,61.3,99.7,61.1,99.4,61.1z"/>
<path fill="#E5E5EB" d="M105.8,62l-0.2,0c-0.3,0-0.5,0.1-0.6,0.4s0.1,0.5,0.4,0.6l0.2,0c0,0,0.1,0,0.1,0c0.2,0,0.4-0.2,0.5-0.4
	C106.2,62.3,106.1,62,105.8,62z"/>
<path fill="#E5E5EB" d="M109,62.4l-0.2,0c-0.3,0-0.5,0.1-0.6,0.4c0,0.3,0.1,0.5,0.4,0.6l0.2,0c0,0,0.1,0,0.1,0
	c0.2,0,0.4-0.2,0.5-0.4C109.4,62.7,109.2,62.5,109,62.4z"/>
<path fill="#E5E5EB" d="M149.8,70.9l-0.2-0.1c-0.3-0.1-0.5,0.1-0.6,0.4c-0.1,0.3,0.1,0.5,0.4,0.6l0.2,0.1c0,0,0.1,0,0.1,0
	c0.2,0,0.4-0.1,0.5-0.4C150.2,71.3,150.1,71,149.8,70.9z"/>
<path fill="#E5E5EB" d="M146.7,70.1l-0.2-0.1c-0.3-0.1-0.5,0.1-0.6,0.4c-0.1,0.3,0.1,0.5,0.4,0.6l0.2,0.1c0,0,0.1,0,0.1,0
	c0.2,0,0.4-0.2,0.5-0.4C147.1,70.5,147,70.2,146.7,70.1z"/>
<path fill="#E5E5EB" d="M143.6,69.4l-0.2-0.1c-0.3-0.1-0.5,0.1-0.6,0.4c-0.1,0.3,0.1,0.5,0.4,0.6l0.2,0.1c0,0,0.1,0,0.1,0
	c0.2,0,0.4-0.2,0.5-0.4C144,69.7,143.8,69.4,143.6,69.4z"/>
<path fill="#E5E5EB" d="M152.9,71.7l-0.2-0.1c-0.3-0.1-0.5,0.1-0.6,0.4c-0.1,0.3,0.1,0.5,0.4,0.6l0.2,0.1c0,0,0.1,0,0.1,0
	c0.2,0,0.4-0.1,0.5-0.4C153.3,72,153.2,71.8,152.9,71.7z"/>
<path fill="#E5E5EB" d="M156,72.5l-0.2-0.1c-0.3-0.1-0.5,0.1-0.6,0.4s0.1,0.5,0.4,0.6l0.2,0.1c0,0,0.1,0,0.1,0
	c0.2,0,0.4-0.1,0.5-0.4C156.4,72.9,156.3,72.6,156,72.5z"/>
<path fill="#E5E5EB" d="M137.3,67.9l-0.2-0.1c-0.3-0.1-0.5,0.1-0.6,0.4c-0.1,0.3,0.1,0.5,0.4,0.6l0.2,0.1c0,0,0.1,0,0.1,0
	c0.2,0,0.4-0.2,0.5-0.4C137.8,68.3,137.6,68,137.3,67.9z"/>
<path fill="#E5E5EB" d="M134.2,67.2l-0.2-0.1c-0.3-0.1-0.5,0.1-0.6,0.4c-0.1,0.3,0.1,0.5,0.4,0.6l0.2,0.1c0,0,0.1,0,0.1,0
	c0.2,0,0.4-0.2,0.5-0.4C134.6,67.6,134.5,67.3,134.2,67.2z"/>
<path fill="#E5E5EB" d="M140.4,68.6l-0.2-0.1c-0.3-0.1-0.5,0.1-0.6,0.4c-0.1,0.3,0.1,0.5,0.4,0.6l0.2,0.1c0,0,0.1,0,0.1,0
	c0.2,0,0.4-0.2,0.5-0.4C140.9,69,140.7,68.7,140.4,68.6z"/>
<path fill="#E5E5EB" d="M131.1,66.6l-0.2-0.1c-0.3-0.1-0.5,0.1-0.6,0.4c-0.1,0.3,0.1,0.5,0.4,0.6l0.2,0c0,0,0.1,0,0.1,0
	c0.2,0,0.4-0.2,0.5-0.4C131.5,66.9,131.3,66.6,131.1,66.6z"/>
<path fill="#E5E5EB" d="M127.9,65.9l-0.2,0c-0.3-0.1-0.5,0.1-0.6,0.4c-0.1,0.3,0.1,0.5,0.4,0.6l0.2,0.1c0,0,0.1,0,0.1,0
	c0.2,0,0.4-0.2,0.5-0.4C128.3,66.2,128.2,65.9,127.9,65.9z"/>
<path fill="#E5E5EB" d="M98.6,51.2l-0.3,0c-0.3,0-0.5,0.3-0.4,0.5c0,0.3,0.2,0.4,0.5,0.4c0,0,0,0,0.1,0l0.2,0c0.3,0,0.5-0.3,0.4-0.5
	C99.1,51.3,98.8,51.1,98.6,51.2z"/>
<path fill="#E5E5EB" d="M105,50.6l-0.3,0c-0.3,0-0.5,0.2-0.5,0.5c0,0.3,0.2,0.5,0.5,0.5c0,0,0,0,0,0l0.2,0c0.3,0,0.5-0.2,0.5-0.5
	C105.5,50.8,105.3,50.6,105,50.6z"/>
<path fill="#E5E5EB" d="M101.8,50.8l-0.2,0c-0.3,0-0.5,0.3-0.5,0.5c0,0.3,0.2,0.5,0.5,0.5c0,0,0,0,0,0l0.3,0c0.3,0,0.5-0.3,0.4-0.5
	C102.3,51,102,50.8,101.8,50.8z"/>
<path fill="#E5E5EB" d="M108.2,50.5l-0.2,0c-0.3,0-0.5,0.2-0.5,0.5c0,0.3,0.2,0.5,0.5,0.5c0,0,0,0,0,0l0.2,0c0.3,0,0.5-0.2,0.5-0.5
	C108.7,50.7,108.5,50.5,108.2,50.5z"/>
<path fill="#E5E5EB" d="M111.4,50.5l-0.2,0c-0.2,0-0.5,0.2-0.5,0.5s0.2,0.5,0.5,0.5l0.2,0c0,0,0,0,0,0c0.3,0,0.5-0.2,0.5-0.5
	C111.9,50.7,111.7,50.5,111.4,50.5z"/>
<path fill="#FFF7EC" d="M140.5,69.6c-0.1,0-0.1,0-0.2,0c0,0-0.1,0-0.1,0l-0.2-0.1c-0.3-0.1-0.4-0.3-0.4-0.6c0,0,0-0.1,0-0.1
	c-0.1-0.1-0.1-0.1-0.2-0.2C128,60.3,127.1,44,127.1,40.5c-3.2-0.5-6.4-0.8-9.7-0.8c-9.9,0-19.1,2.5-27.3,6.8
	c4.2,2.6,7.1,7.2,7.1,12.5c0,1.6-0.3,3.2-0.8,4.7c1.2-0.2,2.6-0.4,4.3-0.5c18.8-1.4,7.6,19.1,20.3,25.8
	C133.3,95.3,151.2,79.2,140.5,69.6z M98.4,52.2c-0.2,0-0.5-0.2-0.5-0.4c0-0.3,0.2-0.5,0.4-0.5l0.3,0c0.3,0,0.5,0.2,0.5,0.4
	c0,0.3-0.2,0.5-0.4,0.5L98.4,52.2C98.4,52.2,98.4,52.2,98.4,52.2z M99.4,62.1C99.3,62.1,99.3,62.1,99.4,62.1l-0.3,0
	c-0.3,0-0.5-0.3-0.4-0.6c0-0.3,0.3-0.5,0.6-0.4l0.2,0c0.3,0,0.5,0.3,0.4,0.5C99.8,61.9,99.6,62.1,99.4,62.1z M101.6,51.8
	c-0.3,0-0.5-0.2-0.5-0.5c0-0.3,0.2-0.5,0.5-0.5l0.2,0c0.3,0,0.5,0.2,0.5,0.4c0,0.3-0.2,0.5-0.4,0.5L101.6,51.8
	C101.6,51.8,101.6,51.8,101.6,51.8z M102.5,62.5C102.5,62.5,102.5,62.5,102.5,62.5l-0.3,0c-0.3,0-0.5-0.3-0.4-0.6
	c0-0.3,0.3-0.5,0.6-0.4l0.2,0c0.3,0,0.5,0.3,0.4,0.6C103,62.3,102.8,62.5,102.5,62.5z M104.8,51.6c-0.3,0-0.5-0.2-0.5-0.5
	c0-0.3,0.2-0.5,0.5-0.5l0.3,0c0.3,0,0.5,0.2,0.5,0.5c0,0.3-0.2,0.5-0.5,0.5L104.8,51.6C104.8,51.6,104.8,51.6,104.8,51.6z
	 M105.7,62.9C105.7,62.9,105.7,62.9,105.7,62.9l-0.3,0c-0.3,0-0.5-0.3-0.4-0.6s0.3-0.5,0.6-0.4l0.2,0c0.3,0,0.5,0.3,0.4,0.6
	C106.2,62.8,106,62.9,105.7,62.9z M108,51.5c-0.3,0-0.5-0.2-0.5-0.5c0-0.3,0.2-0.5,0.5-0.5l0.2,0c0.3,0,0.5,0.2,0.5,0.5
	c0,0.3-0.2,0.5-0.5,0.5L108,51.5C108,51.5,108,51.5,108,51.5z M108.9,63.4C108.9,63.4,108.8,63.4,108.9,63.4l-0.3,0
	c-0.3,0-0.5-0.3-0.4-0.6c0-0.3,0.3-0.5,0.6-0.4l0.2,0c0.3,0,0.5,0.3,0.4,0.6C109.3,63.2,109.1,63.4,108.9,63.4z M110.7,51
	c0-0.3,0.3-0.5,0.5-0.5l0.2,0c0.3,0,0.5,0.2,0.5,0.5c0,0.3-0.2,0.5-0.5,0.5c0,0,0,0,0,0l-0.2,0C110.9,51.5,110.7,51.2,110.7,51z
	 M112.1,63.9C112,63.9,112,63.9,112.1,63.9l-0.3,0c-0.3,0-0.5-0.3-0.4-0.6c0-0.3,0.3-0.5,0.6-0.4l0.2,0c0.3,0,0.5,0.3,0.4,0.6
	C112.5,63.8,112.3,63.9,112.1,63.9z M115.2,64.5C115.2,64.5,115.2,64.5,115.2,64.5l-0.3,0c-0.3,0-0.5-0.3-0.4-0.6
	c0-0.3,0.3-0.5,0.6-0.4l0.2,0c0.3,0,0.4,0.3,0.4,0.6C115.7,64.3,115.4,64.5,115.2,64.5z M118.4,65C118.3,65,118.3,65,118.4,65
	L118,65c-0.3,0-0.4-0.3-0.4-0.6c0-0.3,0.3-0.4,0.6-0.4l0.2,0c0.3,0,0.4,0.3,0.4,0.6C118.8,64.9,118.6,65,118.4,65z M121.5,65.6
	C121.5,65.6,121.5,65.6,121.5,65.6l-0.3-0.1c-0.3-0.1-0.4-0.3-0.4-0.6s0.3-0.4,0.6-0.4l0.2,0c0.3,0,0.4,0.3,0.4,0.6
	C122,65.5,121.8,65.6,121.5,65.6z M118.2,56.1c-2.3,0-4.2-1.9-4.2-4.2s1.9-4.2,4.2-4.2s4.2,1.9,4.2,4.2S120.5,56.1,118.2,56.1z
	 M125.1,65.8c0,0.2-0.3,0.4-0.5,0.4c0,0-0.1,0-0.1,0l-0.2,0c-0.3-0.1-0.4-0.3-0.4-0.6c0.1-0.3,0.3-0.4,0.6-0.4l0.2,0
	C125,65.3,125.2,65.6,125.1,65.8z M128.3,66.5c0,0.2-0.3,0.4-0.5,0.4c0,0-0.1,0-0.1,0l-0.2-0.1c-0.3-0.1-0.4-0.3-0.4-0.6
	c0.1-0.3,0.3-0.4,0.6-0.4l0.2,0C128.2,65.9,128.3,66.2,128.3,66.5z M131.4,67.1c0,0.2-0.3,0.4-0.5,0.4c0,0-0.1,0-0.1,0l-0.2,0
	c-0.3-0.1-0.4-0.3-0.4-0.6c0.1-0.3,0.3-0.4,0.6-0.4l0.2,0.1C131.3,66.6,131.5,66.9,131.4,67.1z M134.6,67.8
	c-0.1,0.2-0.3,0.4-0.5,0.4c0,0-0.1,0-0.1,0l-0.2-0.1c-0.3-0.1-0.4-0.3-0.4-0.6c0.1-0.3,0.3-0.4,0.6-0.4l0.2,0.1
	C134.5,67.3,134.6,67.6,134.6,67.8z M137.7,68.5c-0.1,0.2-0.3,0.4-0.5,0.4c0,0-0.1,0-0.1,0l-0.2-0.1c-0.3-0.1-0.4-0.3-0.4-0.6
	c0.1-0.3,0.3-0.4,0.6-0.4l0.2,0.1C137.6,68,137.8,68.3,137.7,68.5z"/>
<path fill="#FFF7EC" d="M118.2,48.5c-1.8,0-3.3,1.5-3.3,3.3s1.5,3.3,3.3,3.3s3.3-1.5,3.3-3.3S120.1,48.5,118.2,48.5z"/>
<path fill="#FFFFFF" d="M118.2,56.1c-2.3,0-4.2-1.9-4.2-4.2s1.9-4.2,4.2-4.2s4.2,1.9,4.2,4.2S120.5,56.1,118.2,56.1z M118.2,48.5
	c-1.8,0-3.3,1.5-3.3,3.3s1.5,3.3,3.3,3.3s3.3-1.5,3.3-3.3S120.1,48.5,118.2,48.5z"/>
</svg>
