<?xml version="1.0" encoding="utf-8"?>
<!-- Generator: Adobe Illustrator 18.1.1, SVG Export Plug-In . SVG Version: 6.00 Build 0)  -->
<!DOCTYPE svg PUBLIC "-//W3C//DTD SVG 1.1//EN" "http://www.w3.org/Graphics/SVG/1.1/DTD/svg11.dtd">
<svg version="1.1" id="Validation_x5F_Check" xmlns="http://www.w3.org/2000/svg" xmlns:xlink="http://www.w3.org/1999/xlink"
	 x="0px" y="0px" width="135px" height="135px" viewBox="0 0 135 135" enable-background="new 0 0 135 135" xml:space="preserve">
<g>
	<g>
		<path fill="#F3928F" d="M86.2,81.5c-2.4,0-4.5,0-6.7,0c0-0.4-0.1-0.8-0.1-1.1c0-20,0-30.2,0-50.2c0-3.8,1.3-7.1,4.7-9.2
			c5.9-3.6,13.4-0.1,14.5,6.8c0.1,0.9,0.2,1.8,0.2,2.7c0,23.7,0,34.2,0,77.4c0,0.9-0.1,1.9-0.3,2.8c-0.8,2.9-3.5,4.7-6.6,4.4
			c-3-0.3-5.4-2.6-5.6-5.7c0-0.5,0-1,0-1.4c0-12.8,0-12.3,0-25C86.2,82.6,86.2,82.1,86.2,81.5z"/>
	</g>
	<g>
		<path fill="#F3928F" d="M48.8,48.5c1.4,0,2.6,0,3.9,0c0-0.5,0-0.9,0-1.3c0-8.1,0-16.2,0-24.3c0-0.4,0-0.9,0-1.3
			c0.1-1.2,1-1.9,2-1.9c1,0,1.9,0.6,2.1,1.7c0.1,0.4,0.1,0.8,0.1,1.2c0,8.2,0,16.4,0,24.6c0,0.4,0,0.8,0,1.3c1.3,0,2.5,0,3.9,0
			c0-0.4,0-0.9,0-1.3c0-8.1,0-16.1,0-24.2c0-0.5,0-1,0.1-1.5c0.2-1.2,1-1.8,2.1-1.8c1.1,0,2,0.7,2.2,1.8c0.1,0.4,0.1,0.9,0.1,1.3
			c0,11.6,0,23.3,0,34.9c0,4.7-2.8,8-7.5,8.7c-0.1,0-0.3,0.1-0.6,0.1c0,0.5,0,0.9,0,1.4c0,11.4,0,9.5,0,40.5c0,1.1-0.2,2.3-0.6,3.3
			c-1,2.7-3.7,4.2-6.6,3.8c-2.9-0.4-5.1-2.7-5.4-5.6c-0.1-0.8-0.1-1.5-0.1-2.3c0-30.6,0-28.4,0-39.5c0-0.5,0-1,0-1.5
			c-0.7-0.1-1.3-0.2-1.9-0.3c-3.8-0.9-6.4-4-6.4-8c-0.1-12,0-24.1,0-36.1c0-1.6,0.9-2.5,2.3-2.5c1.4,0,2.2,1,2.2,2.8
			c0,8.2,0,16.4,0,24.6c0,0.5,0,1,0,1.5c1.3,0,2.4,0,3.8,0c0-0.5,0-0.9,0-1.3c0-8.1,0-16.1,0-24.2c0-0.5,0-1,0.1-1.5
			c0.2-1.1,1-1.8,2.1-1.8c1.1,0,1.9,0.8,2.1,1.9c0,0.4,0,0.7,0,1.1c0,8.2,0,16.3,0,24.5C48.8,47.5,48.8,48,48.8,48.5z"/>
	</g>
</g>
</svg>
