<?xml version="1.0" encoding="utf-8"?>
<!-- Generator: Adobe Illustrator 18.1.1, SVG Export Plug-In . SVG Version: 6.00 Build 0)  -->
<!DOCTYPE svg PUBLIC "-//W3C//DTD SVG 1.1//EN" "http://www.w3.org/Graphics/SVG/1.1/DTD/svg11.dtd">
<svg version="1.1" id="Validation_x5F_Check" xmlns="http://www.w3.org/2000/svg" xmlns:xlink="http://www.w3.org/1999/xlink"
	 x="0px" y="0px" width="135px" height="135px" viewBox="0 0 135 135" enable-background="new 0 0 135 135" xml:space="preserve">
<g>
	<g>
		<path fill="#FBEA75" d="M20.6,62.7c6.3,0-1.5,0,4.8,0c2.1,0,3.4,1.7,2.6,3.5c-0.4,0.9-1.1,1.5-2.1,1.6c-0.4,0-0.8,0-1.3,0
			c-12.1,0-0.2,0-12.2,0c-0.4,0-0.8,0-1.2,0c-1.3-0.1-2.3-1.1-2.3-2.4c0-1.3,0.8-2.4,2.2-2.6c0.4-0.1,0.7,0,1.1,0
			C18.3,62.7,14.5,62.7,20.6,62.7z"/>
	</g>
	<g>
		<path fill="#FBEA75" d="M118.4,62.7c6.3,0-1.5,0,4.8,0c2.1,0,3.4,1.7,2.6,3.5c-0.4,0.9-1.1,1.5-2.1,1.6c-0.4,0-0.8,0-1.3,0
			c-12.1,0-0.2,0-12.2,0c-0.4,0-0.8,0-1.2,0c-1.3-0.1-2.3-1.1-2.3-2.4c0-1.3,0.8-2.4,2.2-2.6c0.4-0.1,0.7,0,1.1,0
			C116.1,62.7,112.3,62.7,118.4,62.7z"/>
	</g>
	<g>
		<path fill="#FBEA75" d="M64.9,14.3c0-6.3,0,1.5,0-4.8c0-2.1,1.7-3.4,3.5-2.6c0.9,0.4,1.5,1.1,1.6,2.1c0,0.4,0,0.8,0,1.3
			c0,12.1,0,0.2,0,12.2c0,0.4,0,0.8,0,1.2c-0.1,1.3-1.1,2.3-2.4,2.3c-1.3,0-2.4-0.8-2.6-2.2c-0.1-0.4,0-0.7,0-1.1
			C64.9,16.6,64.9,20.4,64.9,14.3z"/>
	</g>
	<g>
		<path fill="#FBEA75" d="M101.7,27.2c4.4-4.4-1,1,3.4-3.4c1.5-1.5,3.6-1.2,4.4,0.6c0.4,0.9,0.3,1.8-0.4,2.6
			c-0.3,0.3-0.6,0.6-0.9,0.9c-8.5,8.5-0.1,0.1-8.7,8.7c-0.3,0.3-0.6,0.6-0.9,0.8c-1,0.9-2.4,0.8-3.4-0.1c-1-0.9-1.1-2.3-0.3-3.4
			c0.2-0.3,0.5-0.5,0.7-0.8C100.1,28.8,97.3,31.5,101.7,27.2z"/>
	</g>
	<g>
		<path fill="#FBEA75" d="M33.4,27.2c-4.4-4.4,1,1-3.4-3.4c-1.5-1.5-3.6-1.2-4.4,0.6c-0.4,0.9-0.3,1.8,0.4,2.6
			c0.3,0.3,0.6,0.6,0.9,0.9c8.5,8.5,0.1,0.1,8.7,8.7c0.3,0.3,0.6,0.6,0.9,0.8c1,0.9,2.4,0.8,3.4-0.1c1-0.9,1.1-2.3,0.3-3.4
			c-0.2-0.3-0.5-0.5-0.7-0.8C35,28.8,37.7,31.5,33.4,27.2z"/>
	</g>
	<g>
		<path fill="#FBEA75" d="M76.5,99.2c6.3,0-1.5,0,4.8,0c2.1,0,3.4,1.7,2.6,3.5c-0.4,0.9-1.1,1.5-2.1,1.6c-0.4,0-0.8,0-1.3,0
			c-12.1,0-12.2,0-24.2,0c-0.4,0-0.8,0-1.2,0c-1.3-0.1-2.3-1.1-2.3-2.4c0-1.3,0.8-2.4,2.2-2.6c0.4-0.1,0.7,0,1.1,0
			C62.2,99.2,70.3,99.2,76.5,99.2z"/>
	</g>
	<g>
		<path fill="#FBEA75" d="M74.5,108.2c6.3,0-1.5,0,4.8,0c2.1,0,3.4,1.7,2.6,3.5c-0.4,0.9-1.1,1.5-2.1,1.6c-0.4,0-0.8,0-1.3,0
			c-12.1,0-8.2,0-20.2,0c-0.4,0-0.8,0-1.2,0c-1.3-0.1-2.3-1.1-2.3-2.4c0-1.3,0.8-2.4,2.2-2.6c0.4-0.1,0.7,0,1.1,0
			C64.2,108.2,68.3,108.2,74.5,108.2z"/>
	</g>
	<g>
		<path fill="#FBEA75" d="M68.6,95.2c-4.6,0-9.2,0-13.8,0c-1.2,0-1.9-0.4-2.6-1.4C50,90.8,47.7,88,45.7,85c-3.1-4.6-5.7-9.5-6.8-15
			c-1.8-9.2,0.5-17.4,6.5-24.4c6.2-7.3,14.3-10.6,23.9-10.2c14.9,0.6,27.2,13.2,27.8,28c0.2,5.8-1.4,11.1-3.9,16.1
			c-2.5,5-5.4,9.7-8.2,14.5c-0.5,0.9-1.4,1.2-2.4,1.2C77.9,95.1,73.2,95.2,68.6,95.2z"/>
	</g>
	<g>
		<path fill="#FBEA75" d="M68.1,118c1.8,0,3.6,0,5.4,0c1.7,0,2.7,1.1,2.6,2.7c-0.2,4.2-3.7,7.6-8,7.6c-4.2,0-7.8-3.4-7.9-7.6
			c-0.1-1.7,0.9-2.7,2.6-2.7C64.6,118,66.4,118,68.1,118z"/>
	</g>
</g>
</svg>
