<?xml version="1.0" encoding="utf-8"?>
<!-- Generator: Adobe Illustrator 18.1.1, SVG Export Plug-In . SVG Version: 6.00 Build 0)  -->
<!DOCTYPE svg PUBLIC "-//W3C//DTD SVG 1.1//EN" "http://www.w3.org/Graphics/SVG/1.1/DTD/svg11.dtd">
<svg version="1.1" id="Validation_x5F_Check" xmlns="http://www.w3.org/2000/svg" xmlns:xlink="http://www.w3.org/1999/xlink"
	 x="0px" y="0px" width="570px" height="400.7px" viewBox="0 0 570 400.7" enable-background="new 0 0 570 400.7"
	 xml:space="preserve">
<g>
	<g>
		<path fill="#E5D4BE" d="M212.9,139.8H95.6c-3.6,0-6.5-2.9-6.5-6.5v-32.8h1.3v32.8c0,2.9,2.3,5.2,5.2,5.2h117.3V139.8z"/>
	</g>
	<g>
		<path fill="#E5D4BE" d="M478.5,139.8H361.2v-1.3h117.3c2.9,0,5.2-2.3,5.2-5.2v-32.8h1.3v32.8C484.9,136.9,482.1,139.8,478.5,139.8
			z"/>
	</g>
	<g>
		<path fill="#E5D4BE" d="M90.4,309.3h-1.3v-32.8c0-3.6,2.9-6.5,6.5-6.5h117.3v1.3H95.6c-2.9,0-5.2,2.3-5.2,5.2V309.3z"/>
	</g>
	<g>
		<g>
			<rect x="34.3" y="294.8" fill="#B7D893" width="109.4" height="47.9"/>
			<path fill="#0B3B58" d="M143.7,343.7H34.3c-0.6,0-1-0.4-1-1v-47.9c0-0.6,0.4-1,1-1h109.4c0.6,0,1,0.4,1,1v47.9
				C144.7,343.3,144.2,343.7,143.7,343.7z M35.3,341.7h107.4v-45.9H35.3V341.7z"/>
		</g>
		<g>
			<g>
				<path fill="#7DC271" d="M132.2,311.6H78.3c-0.6,0-1-0.4-1-1s0.4-1,1-1h53.9c0.6,0,1,0.4,1,1S132.7,311.6,132.2,311.6z"/>
			</g>
			<g>
				<path fill="#7DC271" d="M132.2,319.4H78.3c-0.6,0-1-0.4-1-1s0.4-1,1-1h53.9c0.6,0,1,0.4,1,1S132.7,319.4,132.2,319.4z"/>
			</g>
			<g>
				<path fill="#7DC271" d="M132.2,326.8H78.3c-0.6,0-1-0.4-1-1s0.4-1,1-1h53.9c0.6,0,1,0.4,1,1S132.7,326.8,132.2,326.8z"/>
			</g>
		</g>
		<g>
			<g>
				<path fill="#7DC271" d="M53,318.3c3.2,3.9,7.1,3.9,10.4-0.1c0.9,0.5,1.8,1,2.7,1.6c1.4,0.9,2.6,2.1,3.5,3.6
					c1.5,2.3,1.1,4.4-1.2,6c-1.8,1.2-3.7,1.9-5.8,2.3c-3.7,0.7-7.4,0.6-11.1-0.6c-1.7-0.5-3.2-1.3-4.5-2.5c-1.2-1.2-1.5-2.6-0.8-4.2
					c0.7-1.7,1.9-2.9,3.3-4C50.5,319.5,51.7,318.8,53,318.3z"/>
			</g>
			<g>
				<path fill="#7DC271" d="M64.9,311.3c-0.3,2.9-1.3,5.4-3.5,7.3c-2,1.8-4.4,1.8-6.4,0c-2.4-2.2-3.7-4.9-3.5-8.2
					c0.2-3.1,2.8-5.7,5.9-6c3.7-0.4,6.8,1.9,7.5,5.6C64.8,310.4,64.8,310.8,64.9,311.3z"/>
			</g>
		</g>
	</g>
	<g>
		<g>
			<rect x="33.8" y="59.9" fill="#F3928F" width="109.4" height="47.9"/>
			<path fill="#0B3B58" d="M143.2,108.8H33.8c-0.6,0-1-0.4-1-1V59.9c0-0.6,0.4-1,1-1h109.4c0.6,0,1,0.4,1,1v47.9
				C144.2,108.3,143.7,108.8,143.2,108.8z M34.8,106.8h107.4V60.9H34.8V106.8z"/>
		</g>
		<g>
			<g>
				<path fill="#EE596C" d="M131.7,76.7H77.8c-0.6,0-1-0.4-1-1s0.4-1,1-1h53.9c0.6,0,1,0.4,1,1S132.2,76.7,131.7,76.7z"/>
			</g>
			<g>
				<path fill="#EE596C" d="M131.7,84.5H77.8c-0.6,0-1-0.4-1-1s0.4-1,1-1h53.9c0.6,0,1,0.4,1,1S132.2,84.5,131.7,84.5z"/>
			</g>
			<g>
				<path fill="#EE596C" d="M131.7,91.8H77.8c-0.6,0-1-0.4-1-1s0.4-1,1-1h53.9c0.6,0,1,0.4,1,1S132.2,91.8,131.7,91.8z"/>
			</g>
		</g>
		<g>
			<g>
				<path fill="#EE596C" d="M52.5,83.3c3.2,3.9,7.1,3.9,10.4-0.1c0.9,0.5,1.8,1,2.7,1.6c1.4,0.9,2.6,2.1,3.5,3.6
					c1.5,2.3,1.1,4.4-1.2,6c-1.8,1.2-3.7,1.9-5.8,2.3c-3.7,0.7-7.4,0.6-11.1-0.6c-1.7-0.5-3.2-1.3-4.5-2.5c-1.2-1.2-1.5-2.6-0.8-4.2
					c0.7-1.7,1.9-2.9,3.3-4C50,84.5,51.2,83.8,52.5,83.3z"/>
			</g>
			<g>
				<path fill="#EE596C" d="M64.4,76.3c-0.3,2.9-1.3,5.4-3.5,7.3c-2,1.8-4.4,1.8-6.4,0c-2.4-2.2-3.7-4.9-3.5-8.2
					c0.2-3.1,2.8-5.7,5.9-6c3.7-0.4,6.8,1.9,7.5,5.6C64.3,75.4,64.3,75.9,64.4,76.3z"/>
			</g>
		</g>
	</g>
	<g>
		<g>
			<rect x="429.2" y="60.6" fill="#FBEA75" width="109.4" height="47.9"/>
			<path fill="#0B3B58" d="M538.6,109.5H429.2c-0.6,0-1-0.4-1-1V60.6c0-0.6,0.4-1,1-1h109.4c0.6,0,1,0.4,1,1v47.9
				C539.6,109.1,539.1,109.5,538.6,109.5z M430.2,107.5h107.4V61.6H430.2V107.5z"/>
		</g>
		<g>
			<g>
				<path fill="#C3CA6B" d="M527.1,77.4h-53.9c-0.6,0-1-0.4-1-1s0.4-1,1-1h53.9c0.6,0,1,0.4,1,1S527.6,77.4,527.1,77.4z"/>
			</g>
			<g>
				<path fill="#C3CA6B" d="M527.1,85.2h-53.9c-0.6,0-1-0.4-1-1s0.4-1,1-1h53.9c0.6,0,1,0.4,1,1S527.6,85.2,527.1,85.2z"/>
			</g>
			<g>
				<path fill="#C3CA6B" d="M527.1,92.6h-53.9c-0.6,0-1-0.4-1-1s0.4-1,1-1h53.9c0.6,0,1,0.4,1,1S527.6,92.6,527.1,92.6z"/>
			</g>
		</g>
		<g>
			<g>
				<path fill="#C3CA6B" d="M447.9,84c3.2,3.9,7.1,3.9,10.4-0.1c0.9,0.5,1.8,1,2.7,1.6c1.4,0.9,2.6,2.1,3.5,3.6
					c1.5,2.3,1.1,4.4-1.2,6c-1.8,1.2-3.7,1.9-5.8,2.3c-3.7,0.7-7.4,0.6-11.1-0.6c-1.7-0.5-3.2-1.3-4.5-2.5c-1.2-1.2-1.5-2.6-0.8-4.2
					c0.7-1.7,1.9-2.9,3.3-4C445.4,85.2,446.6,84.6,447.9,84z"/>
			</g>
			<g>
				<path fill="#C3CA6B" d="M459.8,77.1c-0.3,2.9-1.3,5.4-3.5,7.3c-2,1.8-4.4,1.8-6.4,0c-2.4-2.2-3.7-4.9-3.5-8.2
					c0.2-3.1,2.8-5.7,5.9-6c3.7-0.4,6.8,1.9,7.5,5.6C459.7,76.2,459.7,76.6,459.8,77.1z"/>
			</g>
		</g>
	</g>
	<g>
		<rect x="118.5" y="203.2" fill="#E5D4BE" width="77.4" height="1.3"/>
	</g>
	<g>
		<rect x="376.8" y="201.9" fill="#E5D4BE" width="77.4" height="1.3"/>
	</g>
	<g>
		<g>
			<g>
				<path fill="#FFFFFF" d="M374.6,320.1H197.4c-0.8,0-1.5-0.7-1.5-1.5V85.9c0-0.8,0.7-1.5,1.5-1.5h177.3c0.8,0,1.5,0.7,1.5,1.5
					v232.7C376.1,319.5,375.5,320.1,374.6,320.1z"/>
			</g>
			<g>
				<path fill="#FFFFFF" d="M195.9,100.9V86.1c0-0.9,0.8-1.7,1.9-1.7h176.5c1,0,1.9,0.7,1.9,1.7v14.9"/>
				<path fill="#0B3B58" d="M377.1,100.9h-2V86.1c0-0.4-0.4-0.7-0.9-0.7H197.8c-0.5,0-0.9,0.3-0.9,0.7v14.9h-2V86.1
					c0-1.5,1.3-2.7,2.9-2.7h176.5c1.6,0,2.9,1.2,2.9,2.7V100.9z"/>
			</g>
			<g>
				<circle fill="#FFFFFF" cx="204.9" cy="92.6" r="3.2"/>
				<path fill="#0B3B58" d="M204.9,97.1c-2.5,0-4.5-2-4.5-4.5s2-4.5,4.5-4.5s4.5,2,4.5,4.5S207.4,97.1,204.9,97.1z M204.9,90.7
					c-1,0-1.9,0.8-1.9,1.9s0.8,1.9,1.9,1.9c1,0,1.9-0.8,1.9-1.9S205.9,90.7,204.9,90.7z"/>
			</g>
			<g>
				<circle fill="#FFFFFF" cx="214" cy="92.6" r="3.2"/>
				<path fill="#0B3B58" d="M214,97.1c-2.5,0-4.5-2-4.5-4.5s2-4.5,4.5-4.5s4.5,2,4.5,4.5S216.5,97.1,214,97.1z M214,90.7
					c-1,0-1.9,0.8-1.9,1.9s0.8,1.9,1.9,1.9c1,0,1.9-0.8,1.9-1.9S215,90.7,214,90.7z"/>
			</g>
			<g>
				<circle fill="#FFFFFF" cx="223.1" cy="92.6" r="3.2"/>
				<path fill="#0B3B58" d="M223.1,97.1c-2.5,0-4.5-2-4.5-4.5s2-4.5,4.5-4.5s4.5,2,4.5,4.5S225.6,97.1,223.1,97.1z M223.1,90.7
					c-1,0-1.9,0.8-1.9,1.9s0.8,1.9,1.9,1.9c1,0,1.9-0.8,1.9-1.9S224.1,90.7,223.1,90.7z"/>
			</g>
			<g>
				<line fill="#FFFFFF" x1="195.9" y1="201" x2="376.1" y2="201"/>
				<rect x="195.9" y="199.7" fill="#0B3B58" width="180.2" height="2.6"/>
			</g>
			<g>
				<line fill="#FFFFFF" x1="287.8" y1="101.8" x2="287.8" y2="200.6"/>
				<rect x="286.8" y="101.8" fill="#0B3B58" width="2" height="98.9"/>
			</g>
			<g>
				<path fill="#FFFFFF" d="M374.6,320.1H197.4c-0.8,0-1.5-0.7-1.5-1.5V85.9c0-0.8,0.7-1.5,1.5-1.5h177.3c0.8,0,1.5,0.7,1.5,1.5
					v232.7C376.1,319.5,375.5,320.1,374.6,320.1z"/>
				<path fill="#0B3B58" d="M374.6,321.1H197.4c-1.4,0-2.5-1.1-2.5-2.5V85.9c0-1.4,1.1-2.5,2.5-2.5h177.3c1.4,0,2.5,1.1,2.5,2.5
					v232.7C377.1,320,376,321.1,374.6,321.1z M197.4,85.4c-0.3,0-0.5,0.2-0.5,0.5v232.7c0,0.3,0.2,0.5,0.5,0.5h177.3
					c0.3,0,0.5-0.2,0.5-0.5V85.9c0-0.3-0.2-0.5-0.5-0.5H197.4z"/>
			</g>
		</g>
		<g>
			<line fill="#FFF1DB" x1="195.9" y1="100.9" x2="376.1" y2="100.9"/>
			<path fill="#0B3B58" d="M376.1,101.9H195.9c-0.6,0-1-0.4-1-1s0.4-1,1-1h180.2c0.6,0,1,0.4,1,1S376.7,101.9,376.1,101.9z"/>
		</g>
		<g>
			<line fill="#FFF1DB" x1="195.9" y1="203.4" x2="376.1" y2="203.4"/>
			<path fill="#0B3B58" d="M376.1,204.4H195.9c-0.6,0-1-0.4-1-1s0.4-1,1-1h180.2c0.6,0,1,0.4,1,1S376.7,204.4,376.1,204.4z"/>
		</g>
		<g>
			<rect x="287.8" y="100.9" fill="#52BDC5" width="88.4" height="102.3"/>
			<path fill="#0B3B58" d="M376.1,204.3h-88.4c-0.6,0-1-0.4-1-1V100.9c0-0.6,0.4-1,1-1h88.4c0.6,0,1,0.4,1,1v102.3
				C377.1,203.8,376.7,204.3,376.1,204.3z M288.8,202.3h86.4V101.9h-86.4V202.3z"/>
		</g>
		<g>
			<g>
				<path fill="#0D9AB4" d="M326.3,130.2c3,3.7,6.7,3.6,9.8-0.1c0.8,0.5,1.7,0.9,2.5,1.5c1.3,0.9,2.4,2,3.3,3.4
					c1.4,2.2,1,4.2-1.1,5.7c-1.6,1.2-3.5,1.8-5.5,2.2c-3.5,0.6-7,0.5-10.4-0.5c-1.6-0.5-3.1-1.2-4.2-2.4c-1.1-1.2-1.4-2.5-0.7-4
					c0.7-1.6,1.8-2.8,3.1-3.8C324,131.3,325.1,130.7,326.3,130.2z"/>
			</g>
			<g>
				<path fill="#0D9AB4" d="M337.5,123.6c-0.3,2.7-1.3,5-3.3,6.9c-1.9,1.7-4.1,1.7-6.1,0c-2.3-2-3.5-4.6-3.3-7.8
					c0.2-2.9,2.6-5.3,5.5-5.6c3.5-0.4,6.4,1.8,7,5.3C337.5,122.8,337.5,123.2,337.5,123.6z"/>
			</g>
		</g>
		<g>
			<path fill="#0D9AB4" d="M356.2,156.8h-51.8c-0.6,0-1-0.4-1-1s0.4-1,1-1h51.8c0.6,0,1,0.4,1,1S356.8,156.8,356.2,156.8z"/>
		</g>
		<g>
			<path fill="#0D9AB4" d="M356.2,170.2h-51.8c-0.6,0-1-0.4-1-1s0.4-1,1-1h51.8c0.6,0,1,0.4,1,1S356.8,170.2,356.2,170.2z"/>
		</g>
		<g>
			<path fill="#0D9AB4" d="M356.2,182.2h-51.8c-0.6,0-1-0.4-1-1s0.4-1,1-1h51.8c0.6,0,1,0.4,1,1S356.8,182.2,356.2,182.2z"/>
		</g>
		<g>
			<g>
				<path fill="#0B3B58" d="M240.1,156.1c-0.6-0.5-1.2-0.9-1.7-1.4c-4.5,3.7-13.7,11.3-13.9,11.4l0.9,1.1l-0.1-0.1l1,1.2
					c0.5-0.4,10-8.2,14.3-11.7C240.5,156.4,240.3,156.2,240.1,156.1z"/>
			</g>
			<g>
				<path fill="#0B3B58" d="M242.9,150.9c0.2,0.2,0.4,0.3,0.6,0.5c0.6,0.4,1.1,0.9,1.6,1.3c1.6-1.5,3.1-3.6,3.1-6.5
					c0-4.1-2.9-7.4-6.5-7.4c-3.6,0-6.5,3.3-6.4,7.3l1.4,0.2l-1.4-0.2c-0.1,0.4-0.4,4.4,5.6,8.9c4,2.9,4.7,6.6,3.7,8.9
					c-1,2.2-3.5,3.2-6.6,2.6l-0.3,1.6l0.3-1.6c-1.7-0.3-3.2-1-4.6-2c-0.8,0.7-1.6,1.3-2.3,1.9c1.9,1.4,4,2.5,6.3,3h0l0,0
					c0.9,0.2,1.7,0.2,2.4,0.2c4,0,6.4-2.2,7.4-4.5c1.8-4-0.2-9.1-4.6-12.3c-4.6-3.4-4.5-6.2-4.5-6.2l0,0c0-0.1,0-0.2,0-0.2
					c0-2.5,1.6-4.6,3.6-4.6s3.6,2.1,3.6,4.6C245.4,148.2,244.2,149.7,242.9,150.9z"/>
			</g>
			<g>
				<path fill="#0B3B58" d="M241.8,133c-9.8,0-17.8,8-17.8,17.8c0,4.1,1.2,8,3.2,11.1c0.7-0.6,1.5-1.2,2.2-1.8
					c-1.6-2.6-2.6-5.8-2.6-9.3c0-8.3,6.7-15,14.9-15c8.2,0,14.9,6.7,14.9,15c0,4.3-1.9,8.4-5.1,11.3l1.9,2.2
					c3.9-3.4,6.1-8.3,6.1-13.4C259.6,141,251.6,133,241.8,133z"/>
			</g>
		</g>
		<g>
			<g>
				<circle fill="#CFD8DE" cx="205.7" cy="92.6" r="2.9"/>
			</g>
			<g>
				<circle fill="#CFD8DE" cx="214" cy="92.6" r="2.9"/>
			</g>
			<g>
				<circle fill="#CFD8DE" cx="222.3" cy="92.6" r="2.9"/>
			</g>
		</g>
		<g>
			<path fill="#EE596C" d="M287.7,289.1c-0.1-0.2-0.2-0.3-0.3-0.4c-7.6-7.6-15.1-15.1-22.7-22.7c-2.6-2.6-4.5-5.6-5.3-9.2
				c-1.3-6.3,0.4-11.6,5.1-16c2.6-2.4,5.6-3.8,9.1-4.2c5.2-0.6,9.8,0.8,13.7,4.4c0.1,0.1,0.2,0.2,0.3,0.3c0,0,0.1,0,0,0
				c0.9-0.7,1.8-1.5,2.8-2.1c6.1-4.1,14.6-3.6,20.1,1.3c3.3,2.8,5.3,6.4,5.8,10.7c0.5,4-0.5,7.8-2.6,11.2c-1,1.7-2.4,3-3.7,4.4
				c-7.3,7.3-14.7,14.7-22,22C287.9,288.9,287.9,288.9,287.7,289.1z"/>
			<path fill="#0B3B58" d="M287.7,290.1C287.7,290.1,287.6,290.1,287.7,290.1c-0.4,0-0.6-0.2-0.8-0.4l-0.1-0.2c0,0-0.1-0.1-0.1-0.1
				c-7.6-7.6-15.1-15.1-22.7-22.7c-3-3-4.8-6.1-5.5-9.7c-1.4-6.6,0.4-12.3,5.4-16.9c2.7-2.5,6-4.1,9.7-4.5
				c5.4-0.6,10.2,0.9,14.2,4.4c0.1-0.1,0.1-0.1,0.2-0.2c0.6-0.5,1.3-1,2-1.5c2.8-1.9,6.2-2.9,9.7-2.9c4.3,0,8.4,1.5,11.6,4.3
				c3.5,3.1,5.6,6.9,6.1,11.3c0.5,4.1-0.4,8.1-2.8,11.9c-1.1,1.7-2.5,3.2-3.9,4.6l-22.3,22.3C288.2,290,287.9,290.1,287.7,290.1z
				 M275.9,237.5c-0.7,0-1.4,0-2.2,0.1c-3.3,0.4-6.2,1.7-8.6,4c-4.4,4.1-6,9.2-4.8,15c0.7,3.1,2.3,6,5,8.7
				c7.5,7.4,14.9,14.9,22.3,22.3l21.5-21.5c1.4-1.4,2.6-2.7,3.6-4.2c2.1-3.4,2.9-6.9,2.5-10.6c-0.5-4-2.3-7.3-5.4-10.1
				c-2.8-2.4-6.4-3.8-10.3-3.8c-3.1,0-6.1,0.9-8.6,2.6c-0.6,0.4-1.2,0.9-1.8,1.4c-0.3,0.2-0.5,0.4-0.8,0.6c-0.4,0.3-1,0.3-1.4,0
				l-0.3-0.3C283.6,238.9,279.9,237.5,275.9,237.5z"/>
		</g>
	</g>
	<g>
		<rect x="483.7" y="235.1" fill="#E5D4BE" width="1.3" height="52.6"/>
	</g>
	<g>
		<g>
			<path fill="#FFFFFF" d="M504.9,340.9h-41.1c-4.7,0-8.5-3.8-8.5-8.5v-42.9c0-4.7,3.8-8.5,8.5-8.5h41.1c4.7,0,8.5,3.8,8.5,8.5v42.9
				C513.4,337.1,509.6,340.9,504.9,340.9z"/>
		</g>
		<g>
			<path fill="#CFD8DE" d="M504.9,334.3h-41.1c-4.7,0-8.5-3.8-8.5-8.5v6.6c0,4.7,3.8,8.5,8.5,8.5h41.1c4.7,0,8.5-3.8,8.5-8.5v-6.6
				C513.4,330.5,509.6,334.3,504.9,334.3z"/>
		</g>
		<g>
			<path fill="#0B3B58" d="M504.9,341.9h-41.1c-5.2,0-9.5-4.3-9.5-9.5v-42.9c0-5.2,4.3-9.5,9.5-9.5h41.1c5.2,0,9.5,4.3,9.5,9.5v42.9
				C514.4,337.6,510.2,341.9,504.9,341.9z M463.8,282c-4.1,0-7.5,3.4-7.5,7.5v42.9c0,4.1,3.4,7.5,7.5,7.5h41.1
				c4.1,0,7.5-3.4,7.5-7.5v-42.9c0-4.1-3.4-7.5-7.5-7.5H463.8z"/>
		</g>
		<g>
			<g>
				<path fill="#EE596C" d="M487.1,321.9c-2.1,0-4.3,0-6.4,0c0-8.6,0-17.2,0-25.9c2.1,0,4.3,0,6.4,0
					C487.1,304.7,487.1,313.3,487.1,321.9z"/>
			</g>
			<g>
				<path fill="#EE596C" d="M491,302.5c2.1,0,4.3,0,6.4,0c0,6.5,0,12.9,0,19.4c-2.1,0-4.3,0-6.4,0C491,315.5,491,309,491,302.5z"/>
			</g>
			<g>
				<path fill="#EE596C" d="M476.7,321.9c-2.1,0-4.3,0-6.4,0c0-4.7,0-9.5,0-14.2c2.1,0,4.3,0,6.4,0
					C476.7,312.5,476.7,317.2,476.7,321.9z"/>
			</g>
		</g>
	</g>
	<g>
		<g>
			<path fill="#FFFFFF" d="M504.9,234.2h-41.1c-4.7,0-8.5-3.8-8.5-8.5v-42.9c0-4.7,3.8-8.5,8.5-8.5h41.1c4.7,0,8.5,3.8,8.5,8.5v42.9
				C513.4,230.4,509.6,234.2,504.9,234.2z"/>
		</g>
		<g>
			<g>
				<rect x="470.1" y="188.5" fill="#52BDC5" width="28.6" height="28"/>
				<path fill="#0B3B58" d="M498.7,217.5h-28.6c-0.6,0-1-0.4-1-1v-28c0-0.6,0.4-1,1-1h28.6c0.6,0,1,0.4,1,1v28
					C499.7,217,499.2,217.5,498.7,217.5z M471.1,215.5h26.6v-26h-26.6V215.5z"/>
			</g>
			<g>
				<g>
					<rect x="483.4" y="196.1" fill="#0D9AB4" width="2" height="12.8"/>
				</g>
				<g>
					<rect x="478" y="201.5" fill="#0D9AB4" width="12.8" height="2"/>
				</g>
			</g>
		</g>
		<g>
			<path fill="#CFD8DE" d="M504.9,227.6h-41.1c-4.7,0-8.5-3.8-8.5-8.5v6.6c0,4.7,3.8,8.5,8.5,8.5h41.1c4.7,0,8.5-3.8,8.5-8.5v-6.6
				C513.4,223.8,509.6,227.6,504.9,227.6z"/>
		</g>
		<g>
			<path fill="#0B3B58" d="M504.9,235.2h-41.1c-5.2,0-9.5-4.3-9.5-9.5v-42.9c0-5.2,4.3-9.5,9.5-9.5h41.1c5.2,0,9.5,4.3,9.5,9.5v42.9
				C514.4,230.9,510.2,235.2,504.9,235.2z M463.8,175.3c-4.1,0-7.5,3.4-7.5,7.5v42.9c0,4.1,3.4,7.5,7.5,7.5h41.1
				c4.1,0,7.5-3.4,7.5-7.5v-42.9c0-4.1-3.4-7.5-7.5-7.5H463.8z"/>
		</g>
	</g>
	<g>
		<g>
			<g>
				<path fill="#FFFFFF" d="M109.9,233.9H69c-4.7,0-8.5-3.8-8.5-8.5v-42.7c0-4.7,3.8-8.5,8.5-8.5h40.9c4.7,0,8.5,3.8,8.5,8.5v42.7
					C118.4,230.1,114.6,233.9,109.9,233.9z"/>
			</g>
			<g>
				<path fill="#CFD8DE" d="M110.6,226.9H69.7c-4.7,0-8.5-3.8-8.5-8.5v6.5c0,4.7,3.8,8.5,8.5,8.5h40.9c4.7,0,8.5-3.8,8.5-8.5v-6.5
					C119.1,223.1,115.3,226.9,110.6,226.9z"/>
			</g>
			<g>
				<path fill="#0B3B58" d="M109.9,234.9H69c-5.2,0-9.5-4.2-9.5-9.5v-42.7c0-5.2,4.2-9.5,9.5-9.5h40.9c5.2,0,9.5,4.2,9.5,9.5v42.7
					C119.4,230.7,115.1,234.9,109.9,234.9z M69,175.3c-4.1,0-7.5,3.3-7.5,7.5v42.7c0,4.1,3.3,7.5,7.5,7.5h40.9
					c4.1,0,7.5-3.3,7.5-7.5v-42.7c0-4.1-3.3-7.5-7.5-7.5H69z"/>
			</g>
		</g>
		<g>
			<g>
				<path fill="#0B3B58" d="M95.3,216.2l-14.9-12.2c-0.2-0.2-0.4-0.5-0.4-0.8s0.1-0.6,0.4-0.8l14.9-12.2l1.3,1.6l-14,11.4l14,11.4
					L95.3,216.2z"/>
			</g>
			<g>
				<circle fill="#FBEA75" cx="96" cy="191.1" r="4"/>
				<path fill="#0B3B58" d="M96,196.1c-2.7,0-5-2.2-5-5s2.2-5,5-5s5,2.2,5,5S98.7,196.1,96,196.1z M96,188.1c-1.6,0-3,1.3-3,3
					s1.3,3,3,3s3-1.3,3-3S97.6,188.1,96,188.1z"/>
			</g>
			<g>
				<circle fill="#FBEA75" cx="96" cy="214.5" r="4"/>
				<path fill="#0B3B58" d="M96,219.4c-2.7,0-5-2.2-5-5s2.2-5,5-5s5,2.2,5,5S98.7,219.4,96,219.4z M96,211.5c-1.6,0-3,1.3-3,3
					s1.3,3,3,3s3-1.3,3-3S97.6,211.5,96,211.5z"/>
			</g>
			<g>
				<circle fill="#FBEA75" cx="81" cy="203.3" r="4"/>
				<path fill="#0B3B58" d="M81,208.3c-2.7,0-5-2.2-5-5c0-2.7,2.2-5,5-5s5,2.2,5,5C86,206,83.8,208.3,81,208.3z M81,200.3
					c-1.6,0-3,1.3-3,3s1.3,3,3,3s3-1.3,3-3S82.7,200.3,81,200.3z"/>
			</g>
		</g>
	</g>
</g>
</svg>
