<?xml version="1.0" encoding="utf-8"?>
<!-- Generator: Adobe Illustrator 18.1.1, SVG Export Plug-In . SVG Version: 6.00 Build 0)  -->
<!DOCTYPE svg PUBLIC "-//W3C//DTD SVG 1.1//EN" "http://www.w3.org/Graphics/SVG/1.1/DTD/svg11.dtd">
<svg version="1.1" id="Validation_x5F_Check" xmlns="http://www.w3.org/2000/svg" xmlns:xlink="http://www.w3.org/1999/xlink"
	 x="0px" y="0px" width="135px" height="135px" viewBox="0 0 135 135" enable-background="new 0 0 135 135" xml:space="preserve">
<g>
	<g>
		<g>
			<path fill="#EE596C" d="M67.5,48.3c11.1,0,22.2,0,33.3,0c2.1,0,2.7,0.8,2.5,2.9c-0.7,6.2-1.4,12.4-2.1,18.6
				c-0.7,6.2-1.4,12.5-2.1,18.7c-0.7,6.7-1.5,13.4-2.2,20.1c-0.2,1.5-0.3,3-0.5,4.5c-0.1,1.2-0.8,1.8-2,1.8c-1.3,0-2.7,0-4,0
				c-16.4,0-32.9,0-49.3,0c-1.9,0-2.4-0.4-2.6-2.3c-0.7-6.3-1.4-12.6-2.1-18.9c-0.7-6.7-1.5-13.5-2.2-20.2
				c-0.7-6.7-1.5-13.4-2.2-20.1c-0.1-0.9-0.2-1.7-0.3-2.6c-0.2-1.7,0.6-2.6,2.3-2.6C45.2,48.3,56.3,48.3,67.5,48.3z"/>
		</g>
		<g>
			<path fill="#EE596C" d="M67.4,42c-12.1,0-24.1,0-36.2,0c-3.1,0-5.4-2.1-5.5-5c-0.1-3,2.3-5.4,5.4-5.4c6.6,0,13.3,0,19.9,0
				c0.9,0,1.4-0.3,1.7-1.2c2.2-6.3,8.1-10.5,14.8-10.5c6.7,0,12.6,4.2,14.8,10.5c0.3,0.8,0.7,1.1,1.6,1.1c6.6,0,13.2,0,19.8,0
				c2.5,0,4.6,1.5,5.2,3.6c1,3.6-1.4,6.8-5.2,6.8C91.7,42,79.6,42,67.4,42z M67.5,31.6c3,0,6.1,0,9.1,0c1.3,0,1.6-0.5,0.9-1.6
				c-2.2-3.9-5.6-5.9-10-5.9c-4.5,0-7.8,2.1-10.1,6c-0.6,1-0.3,1.5,0.9,1.5C61.4,31.6,64.5,31.6,67.5,31.6z"/>
		</g>
	</g>
	<g>
		<path fill="#FFF7EC" d="M70.9,80.3c0,5.9,0,11.8,0,17.7c0,2-1.6,3.2-3.3,2.5c-0.9-0.4-1.4-1-1.5-2c0-0.4,0-0.8,0-1.2
			c0-11.4,0-22.7,0-34.1c0-0.4,0-0.7,0-1.1c0.1-1.3,1.1-2.2,2.3-2.2c1.2,0,2.3,0.8,2.5,2c0.1,0.3,0,0.7,0,1
			C70.9,68.7,70.9,74.5,70.9,80.3z"/>
	</g>
	<g>
		<path fill="#FFF7EC" d="M88.9,80.3c0,5.9,0,11.8,0,17.7c0,2-1.6,3.2-3.3,2.5c-0.9-0.4-1.4-1-1.5-2c0-0.4,0-0.8,0-1.2
			c0-11.4,0-22.7,0-34.1c0-0.4,0-0.7,0-1.1c0.1-1.3,1.1-2.2,2.3-2.2c1.2,0,2.3,0.8,2.5,2c0.1,0.3,0,0.7,0,1
			C88.9,68.7,88.9,74.5,88.9,80.3z"/>
	</g>
	<g>
		<path fill="#FFF7EC" d="M52.9,80.3c0,5.9,0,11.8,0,17.7c0,2-1.6,3.2-3.3,2.5c-0.9-0.4-1.4-1-1.5-2c0-0.4,0-0.8,0-1.2
			c0-11.4,0-22.7,0-34.1c0-0.4,0-0.7,0-1.1c0.1-1.3,1.1-2.2,2.3-2.2c1.2,0,2.3,0.8,2.5,2c0.1,0.3,0,0.7,0,1
			C52.9,68.7,52.9,74.5,52.9,80.3z"/>
	</g>
</g>
</svg>
