<?xml version="1.0" encoding="utf-8"?>
<!-- Generator: Adobe Illustrator 18.1.1, SVG Export Plug-In . SVG Version: 6.00 Build 0)  -->
<!DOCTYPE svg PUBLIC "-//W3C//DTD SVG 1.1//EN" "http://www.w3.org/Graphics/SVG/1.1/DTD/svg11.dtd">
<svg version="1.1" id="Validation_x5F_Check" xmlns="http://www.w3.org/2000/svg" xmlns:xlink="http://www.w3.org/1999/xlink"
	 x="0px" y="0px" width="135px" height="135px" viewBox="0 0 135 135" enable-background="new 0 0 135 135" xml:space="preserve">
<g>
	<g>
		<path fill="#B7D893" d="M50.1,108.2c-2.7,0-5.5,0-8.2,0c-3.2,0-5.4-3.2-4.2-6.1c0.7-1.7,2.3-2.9,4.2-2.9c2.7,0,5.4,0,8.3,0
			c0-1.1,0-2.1,0-3.1c0-2.3,0-4.7,0-7c0-0.6-0.2-0.9-0.8-1c-12.9-2.4-22.6-13-23.9-26c-1.5-15.6,9.3-29.5,24.9-31.8
			c10-1.5,18.5,1.7,25.6,8.9c0.2,0.2,0.4,0.5,0.5,0.6c5.8-5.8,11.6-11.6,17.3-17.3c-0.2,0-0.5,0-0.8,0c-2.5,0-5,0-7.5,0
			c-2.6,0-4.6-2-4.6-4.6c0-2.5,2.1-4.4,4.6-4.4c6.4,0,12.8,0,19.2,0c2.7,0,4.7,1.9,4.7,4.6c0,6.5,0,13,0,19.4c0,2.5-2,4.5-4.4,4.6
			c-2.5,0-4.5-1.9-4.6-4.5c0-2.5,0-5,0-7.5c0-0.3,0-0.6-0.1-1.2c-1.7,1.7-3.3,3.3-4.9,4.9c-4.4,4.4-8.8,8.9-13.2,13.3
			c-0.6,0.6-0.7,1-0.4,1.7c6.7,16.9-3.9,36-21.9,39.4c-0.3,0.1-0.6,0.1-0.9,0.2c0,3.6,0,7.2,0,10.9c2.3,0,4.6,0,6.9,0
			c0.9,0,1.8,0,2.7,0c2.6,0,4.6,1.9,4.6,4.4c0,2.5-2,4.6-4.6,4.6c-3,0-6,0-9,0c-0.2,0-0.4,0-0.7,0c0,0.4,0,0.7,0,1.1
			c0,2.6,0,5.2,0,7.8c0,2.7-2,4.6-4.6,4.6c-2.5,0-4.5-2-4.5-4.7c0-2.8,0-5.6,0-8.5C50.2,108.4,50.2,108.4,50.1,108.2z"/>
	</g>
	<g>
		<path fill="#FFF7EC" d="M54.7,49.3c6.6,0,6.9,0,13.5,0c2.2,0,3.6,1.8,2.8,3.7c-0.4,1-1.1,1.5-2.2,1.6c-0.4,0-0.9,0-1.3,0
			c-12.7,0-12.8,0-25.5,0c-0.4,0-0.8,0-1.2,0c-1.4-0.1-2.4-1.2-2.5-2.6c0-1.4,0.9-2.5,2.3-2.7c0.4-0.1,0.8,0,1.1,0
			C48.1,49.3,48.3,49.3,54.7,49.3z"/>
	</g>
	<g>
		<path fill="#FFF7EC" d="M54.7,65.1c6.6,0,6.9,0,13.5,0c2.2,0,3.6,1.8,2.8,3.7c-0.4,1-1.1,1.5-2.2,1.6c-0.4,0-0.9,0-1.3,0
			c-12.7,0-12.8,0-25.5,0c-0.4,0-0.8,0-1.2,0c-1.4-0.1-2.4-1.2-2.5-2.6c0-1.4,0.9-2.5,2.3-2.7c0.4-0.1,0.8,0,1.1,0
			C48.1,65.1,48.3,65.1,54.7,65.1z"/>
	</g>
</g>
</svg>
