<?xml version="1.0" encoding="utf-8"?>
<!-- Generator: Adobe Illustrator 18.1.1, SVG Export Plug-In . SVG Version: 6.00 Build 0)  -->
<!DOCTYPE svg PUBLIC "-//W3C//DTD SVG 1.1//EN" "http://www.w3.org/Graphics/SVG/1.1/DTD/svg11.dtd">
<svg version="1.1" id="Validation_x5F_Check" xmlns="http://www.w3.org/2000/svg" xmlns:xlink="http://www.w3.org/1999/xlink"
	 x="0px" y="0px" width="570px" height="400.7px" viewBox="0 0 570 400.7" enable-background="new 0 0 570 400.7"
	 xml:space="preserve">
<g>
	<g>
		<g>
			<path fill="#E5D4BE" d="M192,219H191c-2.8,0-5.1-2.3-5.1-5.1v-43.8c0-2.1-1.7-3.8-3.8-3.8h-80.2c-2.8,0-5.1-2.3-5.1-5.1v-14.8
				c0-2.1-1.7-3.8-3.8-3.8h-6.8v-1.3H93c2.8,0,5.1,2.3,5.1,5.1v14.8c0,2.1,1.7,3.8,3.8,3.8h80.2c2.8,0,5.1,2.3,5.1,5.1v43.8
				c0,2.1,1.7,3.8,3.8,3.8h1.1V219z"/>
		</g>
		<g>
			<path fill="none" stroke="#E6E6EC" stroke-width="1.7762" stroke-miterlimit="10" d="M92.2,218.3"/>
		</g>
		<g>
			<path fill="#E5D4BE" d="M153.6,293.3H86.2V292h67.4c2.1,0,3.8-1.7,3.8-3.8v-33.6c0-2.8,2.3-5.1,5.1-5.1h19.6
				c2.1,0,3.8-1.7,3.8-3.8v-23c0-2.8,2.3-5.1,5.1-5.1h18.3v1.3H191c-2.1,0-3.8,1.7-3.8,3.8v23c0,2.8-2.3,5.1-5.1,5.1h-19.6
				c-2.1,0-3.8,1.7-3.8,3.8v33.6C158.7,291,156.4,293.3,153.6,293.3z"/>
		</g>
		<g>
			<path fill="#E5D4BE" d="M118,368.3h-9.7V367h9.7c2.1,0,3.8-1.7,3.8-3.8v-66.1c0-2.8,2.3-5.1,5.1-5.1h10.4v1.3h-10.4
				c-2.1,0-3.8,1.7-3.8,3.8v66.1C123.1,366,120.8,368.3,118,368.3z"/>
		</g>
		<g>
			<g>
				<path fill="#FFF7EC" d="M130.3,292.7c-3.9,1.9-5.4,3.4-7.3,7.3c-1.9-3.9-3.4-5.4-7.3-7.3c3.9-1.9,5.4-3.4,7.3-7.3
					C124.8,289.3,126.3,290.8,130.3,292.7z"/>
			</g>
			<g>
				<path fill="#E5D4BE" d="M123,301.4l-0.6-1.2c-1.8-3.8-3.2-5.2-7-7l-1.2-0.6l1.2-0.6c3.8-1.8,5.2-3.2,7-7l0.6-1.2l0.6,1.2
					c1.8,3.8,3.2,5.2,7,7l1.2,0.6l-1.2,0.6c-3.8,1.8-5.2,3.2-7,7L123,301.4z M117.1,292.7c2.9,1.5,4.4,3,5.9,5.9
					c1.5-2.9,3-4.4,5.9-5.9c-2.9-1.5-4.4-3-5.9-5.9C121.5,289.7,120,291.2,117.1,292.7z"/>
			</g>
		</g>
		<g>
			<g>
				<circle fill="#FFFFFF" cx="45.7" cy="141.6" r="30.4"/>
			</g>
			<g>
				<path fill="#CFD8DE" d="M45.7,165.4c-15.9,0-29-12.2-30.3-27.8c-0.1,0.9-0.1,1.8-0.1,2.6c0,16.8,13.6,30.4,30.4,30.4
					s30.4-13.6,30.4-30.4c0-0.9,0-1.8-0.1-2.6C74.7,153.2,61.6,165.4,45.7,165.4z"/>
			</g>
			<g>
				<path fill="#0B3B58" d="M45.7,173c-17.3,0-31.4-14.1-31.4-31.4c0-17.3,14.1-31.4,31.4-31.4c17.3,0,31.4,14.1,31.4,31.4
					C77.1,158.9,63,173,45.7,173z M45.7,112.2c-16.2,0-29.4,13.2-29.4,29.4S29.5,171,45.7,171s29.4-13.2,29.4-29.4
					S61.9,112.2,45.7,112.2z"/>
			</g>
			<g>
				<g>
					<rect x="30.8" y="127.7" fill="#FBEA75" width="28.8" height="28.3"/>
					<path fill="#0B3B58" d="M59.6,156.9H30.8c-0.6,0-1-0.4-1-1v-28.3c0-0.6,0.4-1,1-1h28.8c0.6,0,1,0.4,1,1v28.3
						C60.6,156.5,60.2,156.9,59.6,156.9z M31.8,154.9h26.8v-26.3H31.8V154.9z"/>
				</g>
				<g>
					<line fill="#FFF1DB" x1="38.7" y1="135.3" x2="51.7" y2="135.3"/>
					<path fill="#0B3B58" d="M51.7,136.3H38.7c-0.6,0-1-0.4-1-1s0.4-1,1-1h12.9c0.6,0,1,0.4,1,1S52.2,136.3,51.7,136.3z"/>
				</g>
				<g>
					<line fill="#FFF1DB" x1="38.7" y1="141.3" x2="51.7" y2="141.3"/>
					<path fill="#0B3B58" d="M51.7,142.3H38.7c-0.6,0-1-0.4-1-1s0.4-1,1-1h12.9c0.6,0,1,0.4,1,1S52.2,142.3,51.7,142.3z"/>
				</g>
				<g>
					<line fill="#FFF1DB" x1="38.7" y1="147.3" x2="51.7" y2="147.3"/>
					<path fill="#0B3B58" d="M51.7,148.3H38.7c-0.6,0-1-0.4-1-1s0.4-1,1-1h12.9c0.6,0,1,0.4,1,1S52.2,148.3,51.7,148.3z"/>
				</g>
			</g>
		</g>
	</g>
	<g>
		<rect x="106.3" y="217.7" fill="#E5D4BE" width="110.5" height="1.3"/>
	</g>
	<g>
		<path fill="none" stroke="#CDD1D9" stroke-width="0.5" stroke-linecap="round" stroke-miterlimit="10" d="M531.2,257.5"/>
	</g>
	<g>
		<path fill="#52BDC5" d="M525.9,278.4V143.1c0-4.3-3.5-7.8-7.8-7.8H329c-4.3,0-7.8,3.5-7.8,7.8v135.3h-31.4v4.5
			c0,4.3,3.5,7.8,7.8,7.8h251.8c4.3,0,7.8-3.5,7.8-7.8v-4.5H525.9z"/>
	</g>
	<g>
		<path fill="#FFFFFF" d="M514.7,277.4V145.6H332.4v131.8C332.4,277.4,515.5,277.4,514.7,277.4z"/>
		<path fill="#0B3B58" d="M514.7,278.4H332.4c-0.6,0-1-0.4-1-1V145.6c0-0.6,0.4-1,1-1h182.3c0.6,0,1,0.4,1,1v131.7c0,0,0,0,0,0.1
			C515.7,277.9,515.3,278.4,514.7,278.4z M333.4,276.4h180.3V146.6H333.4V276.4z"/>
	</g>
	<g>
		<path fill="#0B3B58" d="M440.7,281.9h-34.3c-2.5,0-4.5-2-4.5-4.5l0,0h43.4l0,0C445.3,279.9,443.2,281.9,440.7,281.9z"/>
	</g>
	<g>
		<path fill="#0B9AB4" d="M290,284.5c0.8,3.5,3.9,6.1,7.6,6.1h251.8c3.7,0,6.8-2.6,7.6-6.1H290z"/>
	</g>
	<g>
		<path fill="#0B3B58" d="M549.5,291.6H297.6c-4.8,0-8.8-3.9-8.8-8.8v-4.5c0-0.6,0.4-1,1-1h30.4V143.1c0-4.8,3.9-8.8,8.8-8.8h189.1
			c4.8,0,8.8,3.9,8.8,8.8v134.3h30.4c0.6,0,1,0.4,1,1v4.5C558.2,287.7,554.3,291.6,549.5,291.6z M290.9,279.4v3.5
			c0,3.7,3,6.8,6.8,6.8h251.8c3.7,0,6.8-3,6.8-6.8v-3.5h-30.4c-0.6,0-1-0.4-1-1V143.1c0-3.7-3-6.8-6.8-6.8H329c-3.7,0-6.8,3-6.8,6.8
			v135.3c0,0.6-0.4,1-1,1H290.9z"/>
	</g>
	<g>
		<g>
			<path fill="#EE596C" d="M419.5,223.5c-1.6-1.2-3-2.3-4.2-3.5c-11.4,9.4-34.4,28.2-34.7,28.5l2.3,2.8l-0.3-0.3l2.5,3
				c1.3-1,25.1-20.5,35.9-29.5C420.5,224.2,420,223.9,419.5,223.5z"/>
		</g>
		<g>
			<path fill="#EE596C" d="M426.4,210.7c0.5,0.4,1,0.8,1.6,1.2c1.4,1,2.8,2.2,4,3.3c4-3.8,7.9-9,7.9-16.4c0-10.3-7.3-18.7-16.2-18.7
				c-8.9,0-16.2,8.4-16.2,18.2l3.6,0.5l-3.6-0.5c-0.1,1.1-1,11.1,14,22.2c9.9,7.2,11.7,16.6,9.3,22.3c-2.4,5.6-8.7,8-16.7,6.4
				l-0.8,4l0.8-4c-4.2-0.9-8-2.6-11.5-5c-2,1.6-3.9,3.2-5.7,4.7c4.6,3.6,10,6.2,15.8,7.4h0l0,0c2.2,0.4,4.2,0.6,6.1,0.6
				c10,0,16-5.4,18.6-11.2c4.4-10.1-0.4-22.8-11.6-30.9c-11.5-8.5-11.2-15.4-11.2-15.5l0,0c0-0.3,0-0.4,0-0.5c0-6.3,4-11.5,9-11.5
				s9,5.1,9,11.5C432.7,203.9,429.7,207.6,426.4,210.7z"/>
		</g>
		<g>
			<path fill="#EE596C" d="M423.7,165.7c-24.6,0-44.5,20.1-44.5,44.7c0,10.4,3,20.1,8.1,27.9c1.8-1.5,3.7-3,5.6-4.6
				c-4.1-6.6-6.5-14.6-6.5-23.3c0-20.7,16.8-37.5,37.3-37.5c20.6,0,37.3,16.8,37.3,37.5c0,10.8-4.7,21.2-12.8,28.3l4.7,5.4
				c9.7-8.5,15.3-20.8,15.3-33.7C468.2,185.8,448.3,165.7,423.7,165.7z"/>
		</g>
	</g>
	<g>
		<g>
			<path fill="#E5D4BE" d="M269.1,218.7c0.1-4.5-3.9-9.2-8.8-10.2c-3.8-0.8-7.5,0.1-11.8,3.1l0.7,0.8c0.4-0.2,0.8-0.4,1.2-0.6
				c1.1-0.6,2-1.1,3.1-1.5c1.4-0.5,2.8-0.8,4.2-0.8c3.8,0,7.3,2.1,9.2,5.5c1.3,2.4,1.4,4.7,0,7c-1.5,2.5-3.8,4.2-7,4.9
				c-3.8,0.9-7.5,0.1-11.3-2.4c-5.9-3.9-12.3-6.2-19-7c-1-0.1-2-0.2-3.1-0.2c-0.4,0-0.7,0-1.1-0.1l0.1,1.2c3.4,0,6.7,0.5,10.2,1.4
				c5.2,1.4,9.8,4,13.2,6.1c4.8,3,9.8,3.2,14.6,0.8C267.2,224.9,269,222.2,269.1,218.7z"/>
		</g>
		<g>
			<path fill="#E5D4BE" d="M258.7,219.1c1,0.1,2,0.2,3.1,0.2c0.4,0,0.7,0,1.1,0.1l-0.1-1.2c-4.2,0-8.5-0.8-12.9-2.3
				c-4-1.4-7.6-3.4-10.6-5.3c-2.5-1.6-5.3-2.4-8.1-2.4c-3,0-5.9,0.9-8.2,2.7c-3.1,2.4-4.5,5.9-3.5,9.3c1.3,4.7,6,8.1,11.1,8.1
				c0.9,0,1.9-0.1,2.7-0.3c2.3-0.6,4.4-1.6,6.4-3l-0.7-0.8c-0.3,0.2-0.7,0.4-1,0.6c-0.9,0.5-1.8,1-2.7,1.4c-1.6,0.7-3.2,1-4.8,1
				c0,0,0,0,0,0c-3.5,0-6.6-1.7-8.8-4.8c-2-3-1.9-6.3,0.5-9c2.2-2.5,5.1-3.8,8.7-3.9c2.9-0.1,5.7,0.8,8.6,2.7
				C245.6,216,252,218.4,258.7,219.1z"/>
		</g>
		<g>
			<rect x="272.3" y="218.8" fill="#E5D4BE" width="31.1" height="1.1"/>
		</g>
		<g>
			<polygon fill="#E5D4BE" points="245.1,217.7 244.5,217 243.4,218.1 244.1,218.8 			"/>
		</g>
	</g>
	<g>
		<path fill="#0B3B58" d="M28.8,42.6h-11c-0.6,0-1-0.4-1-1v-11c0-0.6,0.4-1,1-1h4.1v2h-3.1v9h9v-3.1h2v4.1
			C29.8,42.1,29.4,42.6,28.8,42.6z"/>
	</g>
	<g>
		<path fill="#7DC271" d="M23.7,38.1l-1.9-1.9c-0.4-0.4-0.4-1,0-1.4s1-0.4,1.4,0l0.5,0.5l2.8-2.8c0.4-0.4,1-0.4,1.4,0s0.4,1,0,1.4
			L23.7,38.1z"/>
	</g>
	<g>
		<path fill="#0B3B58" d="M28.8,64.2h-11c-0.6,0-1-0.4-1-1v-11c0-0.6,0.4-1,1-1h4.1v2h-3.1v9h9V59h2v4.1
			C29.8,63.7,29.4,64.2,28.8,64.2z"/>
	</g>
	<g>
		<path fill="#7DC271" d="M23.7,59.7l-1.9-1.9c-0.4-0.4-0.4-1,0-1.4s1-0.4,1.4,0l0.5,0.5l2.8-2.8c0.4-0.4,1-0.4,1.4,0s0.4,1,0,1.4
			L23.7,59.7z"/>
	</g>
	<g>
		<path fill="#0B3B58" d="M28.8,85.8h-11c-0.6,0-1-0.4-1-1v-11c0-0.6,0.4-1,1-1h4.1v2h-3.1v9h9v-3.1h2v4.1
			C29.8,85.3,29.4,85.8,28.8,85.8z"/>
	</g>
	<g>
		<path fill="#7DC271" d="M23.7,81.4l-1.9-1.9c-0.4-0.4-0.4-1,0-1.4s1-0.4,1.4,0l0.5,0.5l2.8-2.8c0.4-0.4,1-0.4,1.4,0s0.4,1,0,1.4
			L23.7,81.4z"/>
	</g>
	<g>
		<line fill="#FFF1DB" x1="35.9" y1="36.9" x2="81.2" y2="36.9"/>
		<path fill="#0B3B58" d="M81.2,37.9H35.9c-0.6,0-1-0.4-1-1s0.4-1,1-1h45.4c0.6,0,1,0.4,1,1S81.8,37.9,81.2,37.9z"/>
	</g>
	<g>
		<line fill="#FFF1DB" x1="35.9" y1="58.7" x2="62.7" y2="58.7"/>
		<path fill="#0B3B58" d="M62.7,59.7H35.9c-0.6,0-1-0.4-1-1s0.4-1,1-1h26.8c0.6,0,1,0.4,1,1S63.2,59.7,62.7,59.7z"/>
	</g>
	<g>
		<line fill="#FFF1DB" x1="35.9" y1="80.6" x2="72.9" y2="80.6"/>
		<path fill="#0B3B58" d="M72.9,81.6H35.9c-0.6,0-1-0.4-1-1s0.4-1,1-1h37.1c0.6,0,1,0.4,1,1S73.5,81.6,72.9,81.6z"/>
	</g>
	<g>
		<path fill="#E5D4BE" d="M180.3,166.3h-17.4c-2.8,0-5.1-2.3-5.1-5.1V39.6c0-0.6-0.5-1-1-1h-4.2c-0.6,0-1,0.5-1,1v7.3
			c0,1.3-1,2.3-2.3,2.3h-4.2c-1.3,0-2.3-1-2.3-2.3V31.8c0-0.6-0.5-1-1-1h-4.2c-0.6,0-1,0.5-1,1v27.3c0,1.3-1,2.3-2.3,2.3H130
			c-1.3,0-2.3-1-2.3-2.3V44c0-0.6-0.5-1-1-1h-4.2c-0.6,0-1,0.5-1,1v3.1c0,1.3-1,2.3-2.3,2.3h-4.7c-0.6,0-1.2-0.2-1.6-0.7
			c-0.4-0.4-0.7-1-0.7-1.6c0-3,0-9.2,0-11.7c0-0.6-0.5-1-1-1h-3.6c-0.6,0-1,0.5-1,1v1.2c0,1.3-1,2.3-2.3,2.3H88.7v-1.3h15.5
			c0.6,0,1-0.5,1-1v-1.2c0-1.3,1-2.3,2.3-2.3h3.6c1.3,0,2.3,1,2.3,2.3c0,2.5,0.1,8.7,0,11.7c0,0.3,0.1,0.5,0.3,0.7
			c0.2,0.2,0.5,0.3,0.7,0.3h4.7c0.6,0,1-0.5,1-1V44c0-1.3,1-2.3,2.3-2.3h4.2c1.3,0,2.3,1,2.3,2.3v15.1c0,0.6,0.5,1,1,1h4.2
			c0.6,0,1-0.5,1-1V31.8c0-1.3,1-2.3,2.3-2.3h4.2c1.3,0,2.3,1,2.3,2.3v15.1c0,0.6,0.5,1,1,1h4.2c0.6,0,1-0.5,1-1v-7.3
			c0-1.3,1-2.3,2.3-2.3h4.2c1.3,0,2.3,1,2.3,2.3v121.7c0,2.1,1.7,3.8,3.8,3.8h17.4V166.3z"/>
	</g>
	<g>
		<path fill="#E5D4BE" d="M134.2,79.1H130c-1.3,0-2.3-1-2.3-2.3v-3.3c0-0.6-0.5-1-1-1h-4.2c-1.3,0-2.3-1-2.3-2.3v-8.4
			c0-0.6-0.5-1-1-1h-5.7c0,0.6,0,1.4,0,2.6c0,1.2-1.1,2.2-2.3,2.2h-3.7c-1.3,0-2.3-1-2.3-2.3v-3c0-0.6-0.5-1-1-1H74.9V58h29.2
			c1.3,0,2.3,1,2.3,2.3v3c0,0.6,0.5,1,1,1h3.7c0.6,0,1-0.4,1-1c0-1.4,0-2.2,0-2.6H112l0.3-1.3l0.6,0c0.1,0,0.2,0,0.3,0.1h6
			c1.3,0,2.3,1,2.3,2.3v8.4c0,0.6,0.5,1,1,1h4.2c1.3,0,2.3,1,2.3,2.3v3.3c0,0.6,0.5,1,1,1h4.2c0.6,0,1-0.5,1-1V75
			c0-1.3,1-2.3,2.3-2.3h4.2c0.6,0,1-0.5,1-1v-5.8c0-1.3,1-2.3,2.3-2.3h4.2c1.3,0,2.3,1,2.3,2.3v10c0,0.6,0.5,1,1,1h5.9v1.3h-5.9
			c-1.3,0-2.3-1-2.3-2.3v-10c0-0.6-0.5-1-1-1h-4.2c-0.6,0-1,0.5-1,1v5.8c0,1.3-1,2.3-2.3,2.3h-4.2c-0.6,0-1,0.5-1,1v1.7
			C136.5,78,135.5,79.1,134.2,79.1z"/>
	</g>
	<g>
		<path fill="#E5D4BE" d="M158.5,98.7h-5.9c-1.3,0-2.3-1-2.3-2.3v-4.2c0-0.6-0.5-1-1-1h-4.2c-0.6,0-1,0.5-1,1v2.2
			c0,1.3-1,2.3-2.3,2.3h-4.2c-1.3,0-2.3-1-2.3-2.3v-2.2c0-0.6-0.5-1-1-1H130c-0.6,0-1,0.5-1,1c0,1.3-1,2.3-2.3,2.3h-4.2
			c-1.3,0-2.3-1-2.3-2.3v-4.4c0-0.6-0.5-1-1-1h-4.7c-0.6,0-1,0.5-1,1v0.9c0,1.3-1,2.3-2.3,2.3h-3.6c-1.3,0-2.3-1-2.3-2.3v-8.1
			c0-0.6-0.5-1-1-1h-20v-1.3h20c1.3,0,2.3,1,2.3,2.3v8.1c0,0.6,0.5,1,1,1h3.6c0.6,0,1-0.5,1-1v-0.9c0-1.3,1-2.3,2.3-2.3h4.7
			c1.3,0,2.3,1,2.3,2.3v4.4c0,0.6,0.5,1,1,1h4.2c0.6,0,1-0.5,1-1c0-1.3,1-2.3,2.3-2.3h4.2c1.3,0,2.3,1,2.3,2.3v2.2c0,0.6,0.5,1,1,1
			h4.2c0.6,0,1-0.5,1-1v-2.2c0-1.3,1-2.3,2.3-2.3h4.2c1.3,0,2.3,1,2.3,2.3v4.2c0,0.6,0.5,1,1,1h5.9V98.7z"/>
	</g>
	<g>
		<path fill="#EE596C" d="M15.9,231.6c-0.5,0-0.9-0.2-1.3-0.5c-0.7-0.7-0.6-1.8,0.1-2.4c0.2-0.2,16.7-15.9,21.1-24.7
			c0.7-1.3,1.6-3.1,3.3-2.4c1.7,0.7,2.4,1-4.9,24l4.6-2.4c0.5-0.3,1.2-0.3,1.7,0c0.5,0.3,0.8,0.8,0.9,1.4l0,0c0,0,0.1,1.3,1,1.9
			c0.8,0.6,2.2,0.4,3.2,0.1c4.3-1.2,6.7-3,8.8-4.5c0.7-0.5,1.4-1.1,2.1-1.5c0.8-0.5,1.7-0.6,2.6-0.3c2.1,0.8,3.7,4.3,4.6,6.9
			l7.9-4.3c0.5-0.3,1.1-0.3,1.6,0c0.4,0.2,0.6,0.5,0.8,0.8c0.4,0.3,3.5,2.1,17.7,0.6c1-0.1,1.8,0.6,1.9,1.5c0.1,0.9-0.6,1.8-1.5,1.9
			c-12.3,1.3-17.8,0.4-20-1.2l-8.6,4.7c-0.5,0.3-1,0.3-1.5,0.1c-0.5-0.2-0.9-0.6-1-1.1c-0.8-2.9-2.2-5.8-3-6.6
			c-0.5,0.3-1,0.7-1.6,1.2c-2.2,1.7-5,3.8-10,5.1c-2.5,0.7-4.6,0.4-6.2-0.7c-0.8-0.6-1.4-1.4-1.7-2.1l-6.4,3.4
			c-0.6,0.3-1.4,0.3-1.9-0.2c-0.5-0.5-0.8-1.2-0.5-1.9c1.8-5.6,3.6-11.6,5-16.4c-6.6,8.7-16.9,18.6-17.5,19.1
			C16.8,231.4,16.4,231.6,15.9,231.6z"/>
	</g>
	<g>
		<g>
			<g>
				<path fill="#FFFFFF" d="M65.7,322.5H24.7c-4.7,0-8.5-3.8-8.5-8.5v-42.9c0-4.7,3.8-8.5,8.5-8.5h41.1c4.7,0,8.5,3.8,8.5,8.5V314
					C74.2,318.7,70.4,322.5,65.7,322.5z"/>
			</g>
			<g>
				<path fill="#CFD8DE" d="M65.7,316H24.7c-4.7,0-8.5-3.8-8.5-8.5v6.6c0,4.7,3.8,8.5,8.5,8.5h41.1c4.7,0,8.5-3.8,8.5-8.5v-6.6
					C74.2,312.2,70.4,316,65.7,316z"/>
			</g>
		</g>
		<g>
			<path fill="#EE596C" d="M45.2,307.1c-0.1-0.1-0.1-0.2-0.2-0.2c-4.2-4.2-8.3-8.3-12.5-12.5c-1.4-1.4-2.5-3.1-2.9-5.1
				c-0.7-3.5,0.2-6.4,2.8-8.8c1.4-1.3,3.1-2.1,5-2.3c2.9-0.3,5.4,0.5,7.6,2.4c0.1,0.1,0.1,0.1,0.2,0.2c0,0,0,0,0,0
				c0.5-0.4,1-0.8,1.5-1.2c3.4-2.3,8-2,11.1,0.7c1.8,1.6,2.9,3.5,3.2,5.9c0.3,2.2-0.3,4.3-1.4,6.2c-0.6,0.9-1.3,1.7-2.1,2.4
				c-4,4-8.1,8.1-12.1,12.1C45.4,307,45.3,307,45.2,307.1z"/>
			<path fill="#0B3B58" d="M45.2,308.1C45.2,308.1,45.2,308.1,45.2,308.1c-0.4,0-0.6-0.2-0.8-0.4l-0.1-0.1
				c-4.2-4.2-8.3-8.3-12.5-12.5c-1.7-1.7-2.7-3.5-3.2-5.6c-0.8-3.8,0.2-7.1,3.1-9.7c1.6-1.5,3.4-2.3,5.6-2.6c3-0.4,5.7,0.4,7.9,2.3
				c0.3-0.2,0.6-0.5,0.9-0.7c1.6-1.1,3.6-1.7,5.6-1.7c2.5,0,4.9,0.9,6.7,2.5c2,1.8,3.2,4,3.5,6.5c0.3,2.4-0.2,4.7-1.6,6.8
				c-0.6,1-1.4,1.8-2.2,2.6l-12.3,12.3C45.7,308,45.5,308.1,45.2,308.1z M38.7,279.1c-0.4,0-0.8,0-1.1,0.1c-1.7,0.2-3.2,0.9-4.5,2.1
				c-2.3,2.2-3.1,4.8-2.5,7.9c0.3,1.6,1.2,3.1,2.6,4.6c4,4,8,8,12,12l11.6-11.6c0.8-0.8,1.4-1.4,1.9-2.3c1.1-1.8,1.5-3.6,1.3-5.5
				c-0.3-2.1-1.2-3.8-2.9-5.3c-1.5-1.3-3.4-2-5.4-2c-1.6,0-3.2,0.5-4.5,1.3c-0.3,0.2-0.7,0.5-1,0.7c-0.1,0.1-0.3,0.2-0.4,0.3
				c-0.3,0.3-0.7,0.3-1.1,0.2l0,0c0,0,0,0,0,0c-0.1,0-0.2-0.1-0.2-0.2l-0.1-0.1C42.7,279.8,40.9,279.1,38.7,279.1z"/>
		</g>
	</g>
	<g>
		<g>
			<circle fill="#FBEA75" cx="19.6" cy="367.7" r="4.1"/>
			<path fill="#0B3B58" d="M19.6,373.1c-3,0-5.4-2.4-5.4-5.4s2.4-5.4,5.4-5.4s5.4,2.4,5.4,5.4S22.5,373.1,19.6,373.1z M19.6,364.9
				c-1.5,0-2.8,1.3-2.8,2.8s1.3,2.8,2.8,2.8s2.8-1.3,2.8-2.8S21.1,364.9,19.6,364.9z"/>
		</g>
		<g>
			<line fill="#FFF1DB" x1="35.1" y1="367.7" x2="94.1" y2="367.7"/>
			<path fill="#0B3B58" d="M94.1,368.9h-59c-0.7,0-1.2-0.5-1.2-1.2s0.5-1.2,1.2-1.2h59c0.7,0,1.2,0.5,1.2,1.2S94.8,368.9,94.1,368.9
				z"/>
		</g>
	</g>
	<g>
		<path fill="#0B3B58" d="M65.7,323.5H24.7c-5.2,0-9.5-4.3-9.5-9.5v-42.9c0-5.2,4.3-9.5,9.5-9.5h41.1c5.2,0,9.5,4.3,9.5,9.5V314
			C75.2,319.3,71,323.5,65.7,323.5z M24.7,263.6c-4.1,0-7.5,3.4-7.5,7.5V314c0,4.1,3.4,7.5,7.5,7.5h41.1c4.1,0,7.5-3.4,7.5-7.5
			v-42.9c0-4.1-3.4-7.5-7.5-7.5H24.7z"/>
	</g>
	<g>
		<g>
			<path fill="#FFF7EC" d="M193.9,218.3c-3.9,1.9-5.4,3.4-7.3,7.3c-1.9-3.9-3.4-5.4-7.3-7.3c3.9-1.9,5.4-3.4,7.3-7.3
				C188.5,214.9,190,216.4,193.9,218.3z"/>
		</g>
		<g>
			<path fill="#E5D4BE" d="M186.6,227l-0.6-1.2c-1.8-3.8-3.2-5.2-7-7l-1.2-0.6l1.2-0.6c3.8-1.8,5.2-3.2,7-7l0.6-1.2l0.6,1.2
				c1.8,3.8,3.2,5.2,7,7l1.2,0.6l-1.2,0.6c-3.8,1.8-5.2,3.2-7,7L186.6,227z M180.8,218.3c2.9,1.5,4.4,3,5.9,5.9
				c1.5-2.9,3-4.4,5.9-5.9c-2.9-1.5-4.4-3-5.9-5.9C185.1,215.3,183.6,216.8,180.8,218.3z"/>
		</g>
	</g>
	<g>
		<circle fill="#FFF7EC" cx="158.5" cy="165.8" r="5.3"/>
		<path fill="#E5D4BE" d="M158.5,171.7c-3.3,0-6-2.7-6-6s2.7-6,6-6s6,2.7,6,6S161.8,171.7,158.5,171.7z M158.5,161.1
			c-2.6,0-4.7,2.1-4.7,4.7s2.1,4.7,4.7,4.7s4.7-2.1,4.7-4.7S161.1,161.1,158.5,161.1z"/>
	</g>
</g>
</svg>
