<?xml version="1.0" encoding="utf-8"?>
<!-- Generator: Adobe Illustrator 18.1.1, SVG Export Plug-In . SVG Version: 6.00 Build 0)  -->
<!DOCTYPE svg PUBLIC "-//W3C//DTD SVG 1.1//EN" "http://www.w3.org/Graphics/SVG/1.1/DTD/svg11.dtd">
<svg version="1.1" id="Validation_x5F_Check" xmlns="http://www.w3.org/2000/svg" xmlns:xlink="http://www.w3.org/1999/xlink"
	 x="0px" y="0px" width="509.3px" height="767.5px" viewBox="0 0 509.3 767.5" enable-background="new 0 0 509.3 767.5"
	 xml:space="preserve">
<g opacity="0.9">
	<circle opacity="0.7" fill="#FFFFFF" cx="188.4" cy="42.7" r="5.5"/>
	
		<rect x="188" y="64" transform="matrix(0.8771 0.4803 -0.4803 0.8771 58.7371 -100.5533)" opacity="0.4" fill="#FFFFFF" width="75.8" height="1.1"/>
	
		<rect x="158.3" y="43.2" transform="matrix(0.943 0.3328 -0.3328 0.943 51.5776 -45.5969)" opacity="0.6" fill="#FFFFFF" width="1.1" height="169"/>
	
		<rect x="138.6" y="293.7" transform="matrix(0.8699 0.4932 -0.4932 0.8699 172.8979 -66.8775)" opacity="0.7" fill="#FFFFFF" width="149.2" height="1.1"/>
	<polygon opacity="0.75" fill="#FFFFFF" points="0,318 0,316.7 94.1,255 94.7,255.9 	"/>
	<path opacity="0.7" fill="#FFFFFF" d="M269.4,115.3c-0.5,0-0.8-0.3-1-0.8l-6.1-15.4c-0.1-0.2-0.1-0.3-0.1-0.6
		c0-0.3,0.1-0.8,0.8-1.1l6.4-2.5c0.8-0.3,1.3-0.1,1.6,0.7l0.4,1c1.1-1.6,1.7-3.2,1.8-5.1c0-1.2-0.2-2.4-0.7-3.6
		c-0.5-1.3-0.1-2.7,0.9-3.4c1.1-0.8,2.6-0.8,3.6,0.1c0.4,0.3,0.6,0.7,0.8,1.1c0.8,2.1,1.3,4.3,1.5,6.5l6.6-2.6
		c1.2-0.5,2.5-0.2,3.3,0.7c0.9,1,1,2.5,0.3,3.6c0.5,0.5,0.8,1.1,0.9,1.8c0.1,0.7-0.1,1.4-0.5,2c0.5,0.5,0.8,1.1,0.9,1.8
		c0.1,0.7-0.1,1.4-0.5,2c0.4,0.3,0.6,0.8,0.8,1.3c0.4,1.3-0.2,2.9-1.5,3.5c-0.1,0-0.2,0.1-0.3,0.1l-2.8,1.1
		c-2.3,0.9-4.6,1.8-6.9,2.7c-0.9,0.4-1.9,0.5-2.8,0.5l0.1,0.4c0.3,0.7,0,1.2-0.7,1.5l-6.4,2.5C269.8,115.3,269.6,115.3,269.4,115.3z
		 M263.3,98.6c0,0,0.1,0.1,0.1,0.1l6.1,15.4c0,0.1,0,0.1,0.1,0.1c0,0,0.1,0,0.1,0l6.4-2.5c0,0,0,0,0.1,0c0,0,0,0,0-0.1l-0.8-2.1
		l0.9,0.1c0.1,0,0.2,0,0.2,0c1,0.2,2,0.1,3-0.3c2.3-0.9,4.6-1.8,6.9-2.7l2.8-1.1c0.1,0,0.2-0.1,0.3-0.1c0.8-0.4,1.2-1.3,0.9-2.1
		c-0.2-0.5-0.4-0.8-0.8-1.1l-0.6-0.4l0.5-0.5c0.4-0.5,0.6-1,0.6-1.6c-0.1-0.6-0.4-1.1-0.9-1.3l-0.6-0.3l0.5-0.5
		c0.5-0.5,0.6-1,0.6-1.6c-0.1-0.6-0.4-1.1-0.9-1.4l-0.6-0.3l0.5-0.6c0.6-0.7,0.6-1.8,0-2.5c-0.5-0.5-1.3-0.7-2.1-0.4l-8,3.2l-0.1-1
		c-0.1-2.3-0.5-4.5-1.4-6.6c-0.1-0.3-0.3-0.5-0.5-0.6c-0.7-0.5-1.6-0.5-2.3,0c-0.6,0.5-0.9,1.3-0.6,2.1c0.5,1.3,0.8,2.7,0.7,4
		c0,2.3-0.9,4.4-2.4,6.3c0,0.1-0.1,0.1-0.2,0.2l-0.6,0.6l-0.4-0.7l-0.7-1.9c0,0,0-0.1,0-0.1c0,0-0.1,0-0.1,0L263.3,98.6
		C263.3,98.6,263.3,98.6,263.3,98.6C263.3,98.6,263.3,98.6,263.3,98.6z"/>
	<path opacity="0.7" fill="#FFFFFF" d="M274.7,107.3c-0.2,0-0.4-0.1-0.5-0.3l-2.3-5.7c-0.1-0.3,0-0.6,0.3-0.7c0.3-0.1,0.6,0,0.7,0.3
		l2.3,5.7c0.1,0.3,0,0.6-0.3,0.7C274.9,107.3,274.8,107.3,274.7,107.3z"/>
	<path opacity="0.9" fill="#FFFFFF" d="M123,260.6c-12.5,0-22.6-10.1-22.6-22.6c0-12.5,10.1-22.6,22.6-22.6
		c12.5,0,22.6,10.1,22.6,22.6C145.6,250.4,135.4,260.6,123,260.6z M123,216.5c-11.8,0-21.5,9.6-21.5,21.5s9.6,21.5,21.5,21.5
		s21.5-9.6,21.5-21.5S134.8,216.5,123,216.5z"/>
	<path opacity="0.6" fill="#FFFFFF" d="M123,265.2c-15,0-27.2-12.2-27.2-27.2c0-15,12.2-27.2,27.2-27.2s27.2,12.2,27.2,27.2
		C150.2,253,138,265.2,123,265.2z M123,211.9c-14.4,0-26.1,11.7-26.1,26.1s11.7,26.1,26.1,26.1s26.1-11.7,26.1-26.1
		S137.4,211.9,123,211.9z"/>
	<path opacity="0.2" fill="#FFFFFF" d="M123,269.9c-17.6,0-31.9-14.3-31.9-31.9s14.3-31.9,31.9-31.9s31.9,14.3,31.9,31.9
		S140.6,269.9,123,269.9z M123,207.2c-17,0-30.8,13.8-30.8,30.8c0,17,13.8,30.8,30.8,30.8c17,0,30.8-13.8,30.8-30.8
		C153.8,221,140,207.2,123,207.2z"/>
	
		<rect x="191" y="223.9" transform="matrix(0.1158 0.9933 -0.9933 0.1158 475.5409 -85.2941)" opacity="0.4" fill="#FFFFFF" width="189.3" height="1.1"/>
	
		<rect x="359" y="276.2" transform="matrix(0.5766 0.817 -0.817 0.5766 413.3948 -158.4629)" opacity="0.25" fill="#FFFFFF" width="1.1" height="87"/>
	
		<rect x="297.6" y="132" transform="matrix(0.9383 0.3459 -0.3459 0.9383 68.7362 -120.0906)" opacity="0.25" fill="#FFFFFF" width="146.4" height="1.1"/>
	<circle opacity="0.7" fill="#FFFFFF" cx="103.8" cy="92.8" r="3.3"/>
	<path fill="none" stroke="#FFFFFF" stroke-width="1.109" stroke-miterlimit="10" d="M103.8,96.1"/>
	<polygon opacity="0.75" fill="#FFFFFF" points="101.2,91 0,57.5 0,56.2 101.5,90 	"/>
	<polygon opacity="0.25" fill="#FFFFFF" points="296.2,64.8 295.9,63.8 503.3,0 507.2,0 	"/>
	<circle opacity="0.7" fill="#FFFFFF" cx="133" cy="740.7" r="5.5"/>
	
		<rect x="204.2" y="629.3" transform="matrix(0.4352 0.9003 -0.9003 0.4352 749.8524 213.4564)" opacity="0.4" fill="#FFFFFF" width="1.1" height="150.2"/>
	
		<rect x="26.1" y="655.1" transform="matrix(0.2727 0.9621 -0.9621 0.2727 710.0365 371.986)" opacity="0.6" fill="#FFFFFF" width="165.7" height="1.1"/>
	
		<rect x="135.5" y="418.6" transform="matrix(0.8362 0.5484 -0.5484 0.8362 283.8691 3.5404)" opacity="0.6" fill="#FFFFFF" width="1.1" height="116.9"/>
	<polygon opacity="0.75" fill="#FFFFFF" points="49.5,528.2 0,444.4 0,442.3 50.5,527.6 	"/>
	<path opacity="0.9" fill="#FFFFFF" d="M78.6,568C66.2,568,56,557.9,56,545.4c0-12.5,10.1-22.6,22.6-22.6
		c12.5,0,22.6,10.1,22.6,22.6C101.2,557.9,91.1,568,78.6,568z M78.6,523.9c-11.8,0-21.5,9.6-21.5,21.5s9.6,21.5,21.5,21.5
		s21.5-9.6,21.5-21.5S90.5,523.9,78.6,523.9z"/>
	<path opacity="0.6" fill="#FFFFFF" d="M78.6,572.6c-15,0-27.2-12.2-27.2-27.2s12.2-27.2,27.2-27.2s27.2,12.2,27.2,27.2
		S93.6,572.6,78.6,572.6z M78.6,519.3c-14.4,0-26.1,11.7-26.1,26.1s11.7,26.1,26.1,26.1s26.1-11.7,26.1-26.1S93,519.3,78.6,519.3z"
		/>
	<path opacity="0.2" fill="#FFFFFF" d="M78.6,577.3c-17.6,0-31.9-14.3-31.9-31.9s14.3-31.9,31.9-31.9s31.9,14.3,31.9,31.9
		S96.2,577.3,78.6,577.3z M78.6,514.6c-17,0-30.8,13.8-30.8,30.8s13.8,30.8,30.8,30.8s30.8-13.8,30.8-30.8S95.6,514.6,78.6,514.6z"
		/>
	
		<rect x="129.1" y="524.1" transform="matrix(0.3893 0.9211 -0.9211 0.3893 625.1362 106.4666)" opacity="0.4" fill="#FFFFFF" width="206.3" height="1.1"/>
	
		<rect x="212.9" y="427" transform="matrix(0.9844 0.176 -0.176 0.9844 79.7352 -43.811)" opacity="0.25" fill="#FFFFFF" width="147.9" height="1.1"/>
	
		<rect x="383.5" y="558.8" transform="matrix(0.3592 0.9333 -0.9333 0.3592 817.8488 34.1986)" opacity="0.25" fill="#FFFFFF" width="1.1" height="107.8"/>
	<circle opacity="0.7" fill="#FFFFFF" cx="48.3" cy="679.5" r="3.3"/>
	<path opacity="0.7" fill="none" stroke="#FFFFFF" stroke-width="1.109" stroke-miterlimit="10" d="M48.3,676.2"/>
	<polygon opacity="0.75" fill="#FFFFFF" points="0,705.5 0,704.3 45.6,681.3 46.1,682.3 	"/>
	<path opacity="0.7" fill="#FFFFFF" d="M191.9,410c-0.9-1.2-1.5-2.3-2-3.4c-0.3-0.8-0.6-1.6-0.9-2.5c-0.5-2-0.7-4.1-0.6-6.3
		c0.1-1.6,0.3-3.1,0.7-4.4c0.1-0.3,0-0.4-0.1-0.5c-0.1-0.1-0.3-0.1-0.5-0.1c-0.1,0.1-0.2,0.2-0.3,0.4l-0.2,0.7
		c-0.1,0.6-0.3,1.3-0.4,2c-0.1,0.6-0.2,1.3-0.2,1.9c0,0.3,0,0.6-0.1,0.8l0,0.3l-0.3-0.1c-0.1,0-0.2,0-0.3-0.1
		c-0.2,0-0.4-0.1-0.7-0.1c-0.2,0-0.5,0-0.7,0c-2.2,0-4.1,1.3-4.8,3.4c-0.1,0.3-0.2,0.7-0.2,1l0,0.3c0.8,0.5,1.8,0.7,2.7,0.7
		c1.6,0,3.1-0.8,4.1-2.1c0,0,0,0,0.1-0.1l0.3-0.3l0.1,0.7c0,0.2,0.1,0.3,0.1,0.5c0.1,0.3,0.1,0.5,0.2,0.8c0.1,0.5,0.2,1,0.3,1.5
		c0,0.2,0,0.4,0.1,0.7c0,0.1,0,0.2,0,0.3c0,0.2-0.1,0.5-0.5,0.5c-1.1,0.1-2.1,0.4-3,0.8c-3.6,1.6-5.8,4.3-6.7,8
		c-0.5,2-0.3,4.2,0.4,6.3l0.1,0c4.7,0,8.3-2.1,10.5-6.2c0.8-1.4,1.2-3.1,1.2-4.9c0-0.1,0-0.1,0-0.2c0-0.1,0-0.1,0.1-0.2l0.2-0.3
		l0.3,0.4c0.1,0.1,0.2,0.2,0.3,0.4c0.1,0.1,0.1,0.3,0.1,0.4c-0.1,3.8,2.3,7.1,5.9,8.3c1.6,0.5,3.3,0.5,4.9,0.1
		c0.3-2.8-0.6-5.2-2.5-7.1c-1.5-1.5-3.4-2.3-5.6-2.4l-0.1,0c-0.3,0-0.7,0-1.1,0.1c-0.2,0-0.4,0-0.6,0.1l-0.1,0
		C192.1,410.2,192,410.1,191.9,410z M192.4,412l0.6,0.6c0.2,0.2,0.4,0.3,0.6,0.5c0.4,0.4,0.8,0.7,1.3,1.1c0.5,0.4,1,0.7,1.5,1.1
		l0.5,0.3c0.2,0.1,0.3,0.1,0.5,0c0.2-0.1,0.2-0.2,0.2-0.4c0-0.1-0.1-0.3-0.3-0.4c-1.2-0.7-2.2-1.5-3.1-2.3c-0.3-0.2-0.5-0.5-0.7-0.7
		c-0.1-0.1-0.2-0.2-0.3-0.3l-0.3-0.4l0.5-0.1c0.3,0,0.5,0,0.8,0h0c2,0,3.9,0.8,5.4,2.3c1.4,1.5,2.1,3.4,2,5.3l0,0.2l-0.2,0
		c-0.5,0.1-1,0.1-1.4,0.1c-3.6,0-6.9-2.8-7.3-6.2L192.4,412z M187.1,399.8l0,0.2c-0.4,1.8-2.2,3.1-4,3.1c-0.5,0-1-0.1-1.5-0.3
		l-0.2-0.1l0-0.2c0.4-1.8,2.1-3.1,4-3.1c0.5,0,1,0.1,1.5,0.3L187.1,399.8z M187.4,416.8c-2,2.5-4.9,4-8,4l-0.2,0l-0.1-0.2
		c-0.8-2.9-0.4-6,1.3-8.5c1.6-2.5,4.3-4.2,7.2-4.6l0.5-0.1l-0.2,0.4c-0.1,0.1-0.1,0.3-0.2,0.4c-0.2,0.3-0.3,0.6-0.5,0.9
		c-0.7,1-1.5,2-2.2,3l-0.3,0.5c-0.2,0.3-0.5,0.6-0.7,1c-0.3,0.4-0.6,0.7-0.8,1.1c-0.1,0.1-0.1,0.3-0.1,0.4c0,0.1,0.2,0.2,0.3,0.3
		c0.1,0,0.3,0.1,0.5-0.2c0.8-1,1.5-2,2.3-3l0.2-0.2c0.8-1,1.6-2,2.1-3.2c0.1-0.2,0.2-0.4,0.3-0.6l0.4-0.9l0.2,0.7
		C190.1,411,189.4,414.3,187.4,416.8z"/>
	
		<rect x="320.3" y="695.7" transform="matrix(0.9302 0.367 -0.367 0.9302 281.6993 -89.0222)" opacity="0.25" fill="#FFFFFF" width="109.4" height="1.1"/>
	<path opacity="0.7" fill="#FFFFFF" d="M295.3,651.4c0.7-0.7,1.3-1.2,2-1.7c0.4-0.3,0.7-0.6,1.1-0.8c1.9-1.1,2.5-1,3.5,1
		c0.2,0.4,0.4,0.7,0.6,1c0.4,0.5,0.9,0.7,1.6,0.6c1.3-0.2,2.5-0.4,3.8-0.7c0.3-0.1,0.6-0.3,0.8-0.5c0.8-0.9,1.6-1.8,2.4-2.8
		c1.5-1.9,3.6-2.7,5.8-3.4c0.2-0.1,0.6,0.2,0.7,0.4c0.9,1.3,1.2,2.8,1.5,4.4c0.2,0.9,0.4,1.8,0.6,2.8c2.1-1.4,4.1-2.6,6-3.8
		c0.9-0.6,2-0.7,2.9-0.1c1.6,1.3,3.3,1.5,5.4,1.3c1.9-0.2,3.8,0,5.8,0c2.4,0,4.9,0,7.4,0c-1.3,1-2.4,2-3.7,2.8
		c-0.5,0.3-1.3,0.4-2,0.3c-2.8-0.1-5.5-0.2-8.3-0.3c-1.3,0-2.6,0.1-3.8,0.2c-1.7,0.2-3.2-0.1-4.6-1.1c-0.7-0.5-1.2-0.5-2,0
		c-1.5,1-3.1,1.9-4.6,2.8c-0.2,0.1-0.5,0.3-0.7,0.4c-1.6,0.8-2.5,0.3-2.8-1.5c-0.2-1.2-0.4-2.3-0.7-3.5c-0.1-0.3-0.2-0.5-0.4-0.9
		c-0.4,0.4-0.7,0.8-1,1.1c-1.2,1.4-2.6,2.3-4.3,3c-1.5,0.7-3,0.6-4.5,0.8c-0.7,0.1-1.4,0.2-2.1,0.4c-1.2,0.2-1.9,0-2.6-1.1
		c-0.4-0.6-0.7-1.2-1-1.6c-1.7,1.1-3.3,2.2-5,3.2c-0.9,0.6-1.2,0.4-1.3-0.7c-0.1-3.1,0.8-6,1.6-8.9c0.7-2.7,1.4-5.4,2-8.1
		c0.1-0.5,0.2-1,0.2-1.6c-0.5,0.8-0.9,1.6-1.4,2.4c-2.3,3.8-4.5,7.7-6.8,11.4c-1,1.6-2.2,3.1-3.4,4.4c-0.8,0.8-1.9,1.3-2.8,2
		c-0.1-0.1-0.1-0.1-0.2-0.2c0.1-0.1,0.2-0.2,0.3-0.4c-0.3,0.1-0.4,0.1-0.7,0.2c0-0.1,0-0.1,0.1-0.2c2.9-2.8,5-6.3,7-9.7
		c2.7-4.7,5.4-9.5,8.1-14.2c0.1-0.2,0.3-0.4,0.5-0.5c1-0.6,2.1-1.2,3.4-1.9c-0.1,0.9-0.1,1.6-0.2,2.3c-1,4.4-2.1,8.7-3.1,13.1
		c-0.5,2.3-0.8,4.7-1.2,7.1C295.3,650.7,295.3,651,295.3,651.4z"/>
	<path opacity="0.7" fill="#FFFFFF" d="M362,656.2c-0.1,0.9,0.5,0.9,1.2,0.9c-0.1,0.7-0.5,0.8-1,0.9c-1.9,0.1-3.8,0.3-5.7,0.3
		c-6,0.1-12,0.1-18,0.2c-6.9,0.1-13.8,0.1-20.7,0.2c-7.7,0-15.5,0-23.2,0.1c-12,0-24.1,0-36.1,0.1c-0.2,0-0.5,0-0.8,0
		c0-0.6,0-1.2,0-1.9C292.6,656.7,327.2,656.9,362,656.2z"/>
	<path opacity="0.7" fill="#FFFFFF" d="M264.3,650.3c1,1.1,2.2,2.4,3.3,3.7c-0.3,0.3-0.7,0.8-1.2,1.3c-1.3-1.2-2.5-2.4-3.8-3.6
		c-1.6,1.2-2.9,3-4.7,3.9c-0.1-0.7-0.2-1.3-0.3-2c1-1,2.2-2.1,3.5-3.3c-1.3-1.2-2.5-2.3-3.6-3.3c0.1-0.7,0.2-1.2,0.3-1.9
		c0.3,0.1,0.7,0.3,1,0.5c1.2,1.1,2.4,2.2,3.7,3.3c1.3-1.2,2.6-2.4,3.8-3.6c0.5,0.5,0.9,0.9,1.3,1.2
		C266.5,647.8,265.4,649.1,264.3,650.3z"/>
	<path opacity="0.7" fill="#FFFFFF" d="M82.7,536.4c3.2,1.6,6.3,3.2,9.5,4.8c0.6,0.3,0.8,0.8,0.5,1.4c0,0,0,0.1-0.1,0.1
		c-2.3,4.7-4.7,9.3-7,14c-0.1,0.2-0.2,0.5-0.5,0.6c-0.3,0.1-0.5,0.2-0.8,0c-0.1,0-0.2-0.1-0.2-0.1c-3.4-1.7-6.8-3.4-10.2-5.1
		c-0.2-0.1-0.3-0.1-0.5,0c-1.4,0.6-2.9,1.3-4.3,1.9c-0.5,0.2-0.9,0-1.1-0.5c-0.4-1.5-0.7-3.1-1.1-4.6c0-0.2-0.1-0.2-0.2-0.3
		c-0.6-0.3-1.1-0.6-1.7-0.8c-0.5-0.3-0.7-0.8-0.5-1.3c0-0.1,0.1-0.1,0.1-0.2c2.3-4.7,4.7-9.3,7-14c0.1-0.2,0.2-0.4,0.4-0.5
		c0.3-0.3,0.7-0.3,1.1-0.1c3.1,1.6,6.3,3.2,9.4,4.7C82.6,536.4,82.6,536.4,82.7,536.4z M66,546.6c0.6,0.3,1.2,0.6,1.8,0.9
		c0.3,0.1,0.4,0.3,0.5,0.6c0.3,1.2,0.5,2.3,0.8,3.5c0.1,0.3,0.1,0.5,0.2,0.8c0.1,0,0.1,0,0.2-0.1c1.3-0.6,2.6-1.1,3.9-1.7
		c0.3-0.1,0.5-0.1,0.8,0c3.4,1.7,6.8,3.4,10.2,5.1c0.1,0,0.1,0.1,0.2,0.1c2.3-4.5,4.5-9.1,6.8-13.6c-6.2-3.1-12.3-6.2-18.4-9.3
		C70.5,537.6,68.3,542.1,66,546.6z"/>
	<path opacity="0.7" fill="#FFFFFF" d="M80.8,540.2c1.9,0.9,3.7,1.9,5.6,2.8c0.2,0.1,0.4,0.3,0.4,0.6c0,0.3-0.1,0.6-0.4,0.7
		c-0.1,0.1-0.3,0-0.4,0c-0.1,0-0.1-0.1-0.2-0.1c-3.7-1.9-7.4-3.7-11.1-5.6c-0.5-0.3-0.6-0.8-0.2-1.2c0.2-0.2,0.5-0.3,0.8-0.1
		C77.1,538.3,78.9,539.2,80.8,540.2z"/>
	<path opacity="0.7" fill="#FFFFFF" d="M76.5,548.7c-1.9-0.9-3.7-1.9-5.6-2.8c-0.3-0.2-0.4-0.3-0.4-0.6c0-0.3,0.3-0.6,0.5-0.7
		c0.1,0,0.2,0,0.3,0c0.1,0,0.2,0.1,0.3,0.2c3.7,1.8,7.3,3.7,11,5.5c0.5,0.3,0.6,0.9,0.1,1.2c-0.2,0.2-0.4,0.2-0.7,0
		C80.2,550.6,78.3,549.7,76.5,548.7z"/>
	<path opacity="0.7" fill="#FFFFFF" d="M79,543.9c1.9,0.9,3.7,1.9,5.6,2.8c0.3,0.2,0.4,0.3,0.4,0.6c0,0.3-0.3,0.6-0.6,0.7
		c-0.1,0-0.3,0-0.4-0.1c-1.7-0.9-3.5-1.7-5.2-2.6c-2-1-4-2-6-3c-0.3-0.2-0.4-0.3-0.4-0.7c0.1-0.3,0.3-0.6,0.6-0.7
		c0.1,0,0.3,0,0.4,0.1C75.2,542,77.1,542.9,79,543.9z"/>
	<path opacity="0.7" fill="#FFFFFF" d="M283.3,340.9c8-2.5,16-4.9,24-7.4c3.8,12.5,7.7,24.9,11.5,37.4c-8,2.5-16,4.9-24,7.4
		C291,365.8,287.1,353.4,283.3,340.9z M308.9,343.7c-7.1,2.2-14.1,4.4-21.2,6.5c2.7,8.7,5.4,17.5,8.1,26.2
		c7.1-2.2,14.1-4.3,21.2-6.5C314.2,361.2,311.6,352.4,308.9,343.7z M308.5,342.7c-0.8-2.4-1.5-4.8-2.2-7.2
		c-7.1,2.2-14.1,4.3-21.2,6.5c0.7,2.4,1.5,4.8,2.2,7.2C294.4,347,301.5,344.8,308.5,342.7z"/>
	<path opacity="0.7" fill="#FFFFFF" d="M308.5,354.1c-3.8,1.2-7.5,2.3-11.3,3.5c-0.1-0.3-0.2-0.6-0.3-1c3.8-1.2,7.5-2.3,11.3-3.5
		C308.3,353.5,308.4,353.8,308.5,354.1z"/>
	<path opacity="0.7" fill="#FFFFFF" d="M301.2,370.5c-0.1-0.3-0.2-0.6-0.3-1c3.8-1.2,7.5-2.3,11.3-3.5c0.1,0.3,0.2,0.6,0.3,1
		C308.8,368.2,305,369.4,301.2,370.5z"/>
	<path opacity="0.7" fill="#FFFFFF" d="M299.9,366.3c-0.1-0.3-0.2-0.6-0.3-1c3.8-1.2,7.5-2.3,11.3-3.5c0.1,0.3,0.2,0.6,0.3,1
		C307.5,364,303.7,365.1,299.9,366.3z"/>
	<path opacity="0.7" fill="#FFFFFF" d="M309.6,357.4c0.1,0.3,0.2,0.6,0.3,1c-3.8,1.2-7.5,2.3-11.3,3.5c-0.1-0.3-0.2-0.6-0.3-1
		C302,359.7,305.8,358.6,309.6,357.4z"/>
	<path opacity="0.7" fill="#FFFFFF" d="M306.9,348.7c0.1,0.3,0.2,0.6,0.3,1c-3.8,1.2-7.5,2.3-11.3,3.5c-0.1-0.3-0.2-0.6-0.3-1
		C299.3,351,303.1,349.9,306.9,348.7z"/>
	<path opacity="0.7" fill="#FFFFFF" d="M297.9,369.7c0.6-0.2,1.2,0.2,1.3,0.7c0.2,0.6-0.2,1.2-0.7,1.3c-0.6,0.2-1.2-0.2-1.4-0.7
		C297,370.4,297.3,369.8,297.9,369.7z"/>
	<path opacity="0.7" fill="#FFFFFF" d="M293.9,353c0.2,0.6-0.2,1.2-0.7,1.3c-0.6,0.2-1.2-0.2-1.4-0.7c-0.2-0.6,0.2-1.2,0.7-1.3
		C293.1,352.1,293.7,352.5,293.9,353z"/>
	<path opacity="0.7" fill="#FFFFFF" d="M294.5,358.8c-0.6,0.1-1.2-0.2-1.3-0.8c-0.1-0.6,0.2-1.2,0.8-1.3c0.6-0.2,1.2,0.2,1.3,0.7
		C295.4,358.1,295.1,358.7,294.5,358.8z"/>
	<path opacity="0.7" fill="#FFFFFF" d="M295.8,363c-0.6,0.2-1.2-0.1-1.3-0.7c-0.2-0.6,0.1-1.2,0.7-1.4c0.6-0.2,1.2,0.2,1.3,0.7
		C296.7,362.3,296.4,362.9,295.8,363z"/>
	<path opacity="0.7" fill="#FFFFFF" d="M296.6,365.4c0.6-0.2,1.2,0.2,1.3,0.7c0.2,0.6-0.1,1.2-0.7,1.3c-0.6,0.2-1.2-0.1-1.4-0.7
		C295.7,366.2,296,365.6,296.6,365.4z"/>
	<path opacity="0.7" fill="#FFFFFF" d="M292.7,345.3c-0.4-0.1-0.7-0.1-0.9-0.2c-0.3-0.1-0.5,0-0.8,0.2c-0.2,0.2-0.4,0.4-0.7,0.7
		c-0.1-0.4-0.1-0.8-0.1-1.1c0-0.2-0.1-0.3-0.3-0.4c-0.3-0.2-0.6-0.3-1-0.5c0.3-0.2,0.7-0.3,1-0.5c0.2-0.1,0.3-0.2,0.3-0.4
		c0-0.3,0.1-0.7,0.2-1.1c0.3,0.3,0.5,0.5,0.7,0.8c0.2,0.2,0.3,0.2,0.5,0.2c0.3-0.1,0.7-0.1,1.1-0.2c-0.2,0.4-0.3,0.7-0.5,1
		c-0.1,0.2-0.1,0.4,0,0.6C292.4,344.7,292.5,345,292.7,345.3z"/>
	<path opacity="0.7" fill="#FFFFFF" d="M301.6,338.5c0.3,0.3,0.5,0.5,0.7,0.8c0.2,0.2,0.4,0.3,0.6,0.2c0.3-0.1,0.7-0.1,1-0.2
		c-0.2,0.3-0.3,0.7-0.5,0.9c-0.1,0.2-0.1,0.4,0,0.6c0.2,0.3,0.3,0.6,0.5,1c-0.4-0.1-0.8-0.1-1.1-0.2c-0.2,0-0.3,0-0.5,0.1
		c-0.2,0.3-0.5,0.5-0.8,0.8c-0.1-0.4-0.1-0.8-0.2-1.1c0-0.2-0.2-0.3-0.3-0.4c-0.3-0.2-0.6-0.3-1-0.5c0.4-0.2,0.7-0.3,1-0.5
		c0.2-0.1,0.3-0.2,0.3-0.4C301.5,339.3,301.6,339,301.6,338.5z"/>
	<path opacity="0.7" fill="#FFFFFF" d="M298.3,343.6c-0.4-0.1-0.8-0.2-1.1-0.2c-0.1,0-0.3,0-0.5,0.1c-0.3,0.2-0.5,0.5-0.8,0.8
		c-0.1-0.4-0.1-0.8-0.1-1.1c0-0.2-0.1-0.3-0.3-0.4c-0.3-0.2-0.6-0.4-0.9-0.5c0.3-0.2,0.7-0.3,1-0.5c0.1-0.1,0.2-0.2,0.3-0.4
		c0.1-0.3,0.1-0.7,0.2-1.1c0.3,0.3,0.5,0.5,0.7,0.8c0.2,0.2,0.3,0.2,0.5,0.2c0.3-0.1,0.7-0.1,1.1-0.2c-0.2,0.4-0.4,0.7-0.6,0.9
		c-0.2,0.2-0.1,0.4,0,0.6C298,343,298.2,343.3,298.3,343.6z"/>
	<path opacity="0.7" fill="#FFFFFF" d="M131,244.3c0-1.8,0-3.7,0-5.5c1,0,2.1,0,3.1,0c0,2.9,0,5.7,0,8.6c-6.2,0-12.3,0-18.5,0
		c0-6.2,0-12.3,0-18.5c3.2,0,6.5,0,9.8,0c0,1,0,2,0,3.1c-2.2,0-4.4,0-6.6,0c0,4.1,0,8.2,0,12.3C122.8,244.3,126.9,244.3,131,244.3z"
		/>
	<path opacity="0.7" fill="#FFFFFF" d="M132.6,229.4c0.7,0.7,1.5,1.5,2.2,2.2c-3.3,3.3-6.6,6.6-9.9,9.9c-1.4-1.4-2.7-2.8-4.1-4.2
		c0.7-0.7,1.4-1.4,2.1-2.1c0.6,0.7,1.3,1.3,2,2C127.5,234.5,130.1,232,132.6,229.4z"/>
</g>
</svg>
