<?xml version="1.0" encoding="utf-8"?>
<!-- Generator: Adobe Illustrator 18.1.1, SVG Export Plug-In . SVG Version: 6.00 Build 0)  -->
<!DOCTYPE svg PUBLIC "-//W3C//DTD SVG 1.1//EN" "http://www.w3.org/Graphics/SVG/1.1/DTD/svg11.dtd">
<svg version="1.1" id="Validation_x5F_Check" xmlns="http://www.w3.org/2000/svg" xmlns:xlink="http://www.w3.org/1999/xlink"
	 x="0px" y="0px" width="135px" height="135px" viewBox="0 0 135 135" enable-background="new 0 0 135 135" xml:space="preserve">
<g>
	<path fill="#FFF7EC" d="M67.5,132.1c-35.7,0-65-29.1-64.5-65.5C3.4,31.2,32.3,2.5,68.4,2.9c35.1,0.5,63.7,29.1,63.7,64.8
		C132,103.3,103.1,132.1,67.5,132.1z M123.9,67.5c-0.2-31.4-25.3-56.3-56.3-56.4c-31.4,0-56.4,25.3-56.4,56.3
		c0,31.5,25.4,56.5,56.4,56.4C98.8,123.7,123.7,98.6,123.9,67.5z"/>
	<path fill="#FFF7EC" d="M62.6,79.3c2.4-2.7,4.8-5.4,7.2-8.1c7.8-8.8,15.6-17.7,23.4-26.5c1.7-1.9,3.8-2.5,6.2-1.8
		c2.2,0.7,3.5,2.2,3.8,4.5c0.2,1.8-0.4,3.2-1.6,4.5C93,61.6,84.4,71.2,75.9,80.9c-2.7,3-5.4,6.1-8.1,9.1c-1.5,1.7-3.3,2.6-5.5,2.1
		c-0.9-0.2-1.9-0.7-2.6-1.3c-7-5.6-14-11.2-21.1-16.7c-1.9-1.5-2.8-3.4-2.2-5.8c0.5-2.2,2-3.6,4.1-4.1c1.7-0.4,3.3,0,4.7,1.1
		c5.6,4.5,11.2,9,16.8,13.5C62.1,79,62.3,79.1,62.6,79.3z"/>
</g>
</svg>
