<?xml version="1.0" encoding="utf-8"?>
<!-- Generator: Adobe Illustrator 18.1.1, SVG Export Plug-In . SVG Version: 6.00 Build 0)  -->
<!DOCTYPE svg PUBLIC "-//W3C//DTD SVG 1.1//EN" "http://www.w3.org/Graphics/SVG/1.1/DTD/svg11.dtd">
<svg version="1.1" id="Validation_x5F_Check" xmlns="http://www.w3.org/2000/svg" xmlns:xlink="http://www.w3.org/1999/xlink"
	 x="0px" y="0px" width="570px" height="400.7px" viewBox="0 0 570 400.7" enable-background="new 0 0 570 400.7"
	 xml:space="preserve">
<g>
	<g>
		<path fill="#52BDC5" d="M377.7,308V172.7c0-4.3-3.5-7.8-7.8-7.8H180.8c-4.3,0-7.8,3.5-7.8,7.8V308h-31.4v4.5
			c0,4.3,3.5,7.8,7.8,7.8h251.8c4.3,0,7.8-3.5,7.8-7.8V308H377.7z"/>
	</g>
	<g>
		<path fill="#E5D4BE" d="M471.2,284.1h-93.5v-1.3h93.5c2.1,0,3.8-1.7,3.8-3.8V254h1.3V279C476.2,281.8,474,284.1,471.2,284.1z"/>
	</g>
	<g>
		<path fill="#0B3B58" d="M525.6,321.3H46.8c-0.6,0-1-0.4-1-1s0.4-1,1-1h478.8c0.6,0,1,0.4,1,1S526.2,321.3,525.6,321.3z"/>
	</g>
	<g>
		<path fill="#E5D4BE" d="M321.2,165.3h-1.3v-14.2c0-2.8,2.3-5.1,5.1-5.1h130c2.1,0,3.8-1.7,3.8-3.8v-29.9c0-2.1-1.7-3.8-3.8-3.8
			h-3.9v-1.3h3.9c2.8,0,5.1,2.3,5.1,5.1v29.9c0,2.8-2.3,5.1-5.1,5.1H325c-2.1,0-3.8,1.7-3.8,3.8V165.3z"/>
	</g>
	<g>
		<rect x="341.9" y="130.5" fill="#E5D4BE" width="1.3" height="16.7"/>
	</g>
	<g>
		<path fill="#FFF7EC" d="M347,130.5h-9c-0.7,0-1.2-0.6-1.2-1.2v-2.5c0-0.7,0.6-1.2,1.2-1.2h9c0.7,0,1.2,0.6,1.2,1.2v2.5
			C348.2,129.9,347.7,130.5,347,130.5z"/>
		<path fill="#E5D4BE" d="M347,131.1h-9c-1,0-1.9-0.8-1.9-1.9v-2.5c0-1,0.8-1.9,1.9-1.9h9c1,0,1.9,0.8,1.9,1.9v2.5
			C348.9,130.3,348,131.1,347,131.1z M338,126.2c-0.3,0-0.6,0.3-0.6,0.6v2.5c0,0.3,0.3,0.6,0.6,0.6h9c0.3,0,0.6-0.3,0.6-0.6v-2.5
			c0-0.3-0.3-0.6-0.6-0.6H338z"/>
	</g>
	<g>
		<path fill="#EE596C" d="M364.8,113.4c-0.5,0-0.9-0.2-1.3-0.5c-0.7-0.7-0.6-1.8,0.1-2.4c0.2-0.2,16.7-15.9,21.1-24.7
			c0.7-1.3,1.6-3.1,3.3-2.4c1.7,0.7,2.4,1-4.9,24l4.6-2.4c0.5-0.3,1.2-0.3,1.7,0c0.5,0.3,0.8,0.8,0.9,1.4l0,0c0,0,0.1,1.3,1,1.9
			c0.8,0.6,2.2,0.4,3.2,0.1c4.3-1.2,6.7-3,8.8-4.5c0.7-0.5,1.4-1.1,2.1-1.5c0.8-0.5,1.7-0.6,2.6-0.3c2.1,0.8,3.7,4.3,4.6,6.9
			l7.9-4.3c0.5-0.3,1.1-0.3,1.6,0c0.4,0.2,0.6,0.5,0.8,0.8c0.4,0.3,3.5,2.1,17.7,0.6c1-0.1,1.8,0.6,1.9,1.5c0.1,0.9-0.6,1.8-1.5,1.9
			c-12.3,1.3-17.8,0.4-20-1.2l-8.6,4.7c-0.5,0.3-1,0.3-1.5,0.1c-0.5-0.2-0.9-0.6-1-1.1c-0.8-2.9-2.2-5.8-3-6.6
			c-0.5,0.3-1,0.7-1.6,1.2c-2.2,1.7-5,3.8-10,5.1c-2.5,0.7-4.6,0.4-6.2-0.7c-0.8-0.6-1.4-1.4-1.7-2.1l-6.4,3.4
			c-0.6,0.3-1.4,0.3-1.9-0.2c-0.5-0.5-0.8-1.2-0.5-1.9c1.8-5.6,3.6-11.6,5-16.4c-6.6,8.7-16.9,18.6-17.5,19.1
			C365.6,113.3,365.2,113.4,364.8,113.4z"/>
	</g>
	<g>
		<path fill="#E5D4BE" d="M450.5,175.4h-36.9c-2.8,0-5.1-2.3-5.1-5.1v-23.5h1.3v23.5c0,2.1,1.7,3.8,3.8,3.8h36.9V175.4z"/>
	</g>
	<g>
		<path fill="#FFF7EC" d="M460.2,176.8h-9c-0.7,0-1.2-0.6-1.2-1.2v-2.5c0-0.7,0.6-1.2,1.2-1.2h9c0.7,0,1.2,0.6,1.2,1.2v2.5
			C461.5,176.3,460.9,176.8,460.2,176.8z"/>
		<path fill="#E5D4BE" d="M460.2,177.4h-9c-1,0-1.9-0.8-1.9-1.9v-2.5c0-1,0.8-1.9,1.9-1.9h9c1,0,1.9,0.8,1.9,1.9v2.5
			C462.1,176.6,461.3,177.4,460.2,177.4z M451.2,172.5c-0.3,0-0.6,0.3-0.6,0.6v2.5c0,0.3,0.3,0.6,0.6,0.6h9c0.3,0,0.6-0.3,0.6-0.6
			v-2.5c0-0.3-0.3-0.6-0.6-0.6H451.2z"/>
	</g>
	<g>
		<circle fill="#FFF7EC" cx="459.4" cy="128" r="5.3"/>
		<path fill="#E5D4BE" d="M459.4,134c-3.3,0-6-2.7-6-6c0-3.3,2.7-6,6-6c3.3,0,6,2.7,6,6C465.3,131.3,462.7,134,459.4,134z
			 M459.4,123.3c-2.6,0-4.7,2.1-4.7,4.7c0,2.6,2.1,4.7,4.7,4.7s4.7-2.1,4.7-4.7C464.1,125.4,462,123.3,459.4,123.3z"/>
	</g>
	<g>
		<path fill="#0B3B58" d="M157,80.4h-11c-0.6,0-1-0.4-1-1v-11c0-0.6,0.4-1,1-1h4.1v2h-3.1v9h9v-3.1h2v4.1
			C158,79.9,157.5,80.4,157,80.4z"/>
	</g>
	<g>
		<path fill="#7DC271" d="M151.9,76L150,74c-0.4-0.4-0.4-1,0-1.4c0.4-0.4,1-0.4,1.4,0l0.5,0.5l2.8-2.8c0.4-0.4,1-0.4,1.4,0
			s0.4,1,0,1.4L151.9,76z"/>
	</g>
	<g>
		<path fill="#0B3B58" d="M157,102h-11c-0.6,0-1-0.4-1-1v-11c0-0.6,0.4-1,1-1h4.1v2h-3.1v9h9v-3.1h2v4.1
			C158,101.5,157.5,102,157,102z"/>
	</g>
	<g>
		<path fill="#7DC271" d="M151.9,97.6l-1.9-1.9c-0.4-0.4-0.4-1,0-1.4s1-0.4,1.4,0l0.5,0.5l2.8-2.8c0.4-0.4,1-0.4,1.4,0s0.4,1,0,1.4
			L151.9,97.6z"/>
	</g>
	<g>
		<path fill="#0B3B58" d="M157,123.6h-11c-0.6,0-1-0.4-1-1v-11c0-0.6,0.4-1,1-1h4.1v2h-3.1v9h9v-3.1h2v4.1
			C158,123.1,157.5,123.6,157,123.6z"/>
	</g>
	<g>
		<path fill="#7DC271" d="M151.9,119.2l-1.9-1.9c-0.4-0.4-0.4-1,0-1.4s1-0.4,1.4,0l0.5,0.5l2.8-2.8c0.4-0.4,1-0.4,1.4,0s0.4,1,0,1.4
			L151.9,119.2z"/>
	</g>
	<g>
		<line fill="#FFF1DB" x1="164" y1="74.7" x2="209.4" y2="74.7"/>
		<path fill="#0B3B58" d="M209.4,75.7H164c-0.6,0-1-0.4-1-1s0.4-1,1-1h45.4c0.6,0,1,0.4,1,1S209.9,75.7,209.4,75.7z"/>
	</g>
	<g>
		<line fill="#FFF1DB" x1="164" y1="96.5" x2="190.8" y2="96.5"/>
		<path fill="#0B3B58" d="M190.8,97.5H164c-0.6,0-1-0.4-1-1s0.4-1,1-1h26.8c0.6,0,1,0.4,1,1S191.4,97.5,190.8,97.5z"/>
	</g>
	<g>
		<line fill="#FFF1DB" x1="164" y1="118.4" x2="201.1" y2="118.4"/>
		<path fill="#0B3B58" d="M201.1,119.4H164c-0.6,0-1-0.4-1-1s0.4-1,1-1h37.1c0.6,0,1,0.4,1,1S201.6,119.4,201.1,119.4z"/>
	</g>
	<g>
		<path fill="#E5D4BE" d="M291.3,165.5H290V77.4c0-0.6-0.5-1-1-1h-13.2c-0.6,0-1,0.5-1,1v7.3c0,1.3-1,2.3-2.3,2.3h-4.2
			c-1.3,0-2.3-1-2.3-2.3V69.6c0-0.6-0.5-1-1-1h-4.2c-0.6,0-1,0.5-1,1v27.3c0,1.3-1,2.3-2.3,2.3h-4.2c-1.3,0-2.3-1-2.3-2.3V81.8
			c0-0.6-0.5-1-1-1h-4.2c-0.6,0-1,0.5-1,1v3.1c0,1.3-1,2.3-2.3,2.3h-4.7c-0.6,0-1.2-0.2-1.6-0.7c-0.4-0.4-0.7-1-0.7-1.6
			c0-3,0-9.2,0-11.7c0-0.6-0.5-1-1-1h-3.6c-0.6,0-1,0.5-1,1v1.2c0,1.3-1,2.3-2.3,2.3h-10.5v-1.3h10.5c0.6,0,1-0.5,1-1v-1.2
			c0-1.3,1-2.3,2.3-2.3h3.6c1.3,0,2.3,1,2.3,2.3c0,2.5,0.1,8.7,0,11.7c0,0.3,0.1,0.5,0.3,0.7c0.2,0.2,0.5,0.3,0.7,0.3h4.7
			c0.6,0,1-0.5,1-1v-3.1c0-1.3,1-2.3,2.3-2.3h4.2c1.3,0,2.3,1,2.3,2.3v15.1c0,0.6,0.5,1,1,1h4.2c0.6,0,1-0.5,1-1V69.6
			c0-1.3,1-2.3,2.3-2.3h4.2c1.3,0,2.3,1,2.3,2.3v15.1c0,0.6,0.5,1,1,1h4.2c0.6,0,1-0.5,1-1v-7.3c0-1.3,1-2.3,2.3-2.3H289
			c1.3,0,2.3,1,2.3,2.3V165.5z"/>
	</g>
	<g>
		<path fill="#E5D4BE" d="M257.4,116.9h-4.2c-1.3,0-2.3-1-2.3-2.3v-3.3c0-0.6-0.5-1-1-1h-4.2c-1.3,0-2.3-1-2.3-2.3v-8.4
			c0-0.6-0.5-1-1-1h-5.7c0,0.6,0,1.4,0,2.6c0,1.2-1.1,2.2-2.3,2.2h-3.7c-1.3,0-2.3-1-2.3-2.3v-3c0-0.6-0.5-1-1-1h-24.2v-1.3h24.2
			c1.3,0,2.3,1,2.3,2.3v3c0,0.6,0.5,1,1,1h3.7c0.6,0,1-0.4,1-1c0-1.4,0-2.2,0-2.6h-0.2l0.3-1.3l0.6,0c0.1,0,0.2,0,0.3,0.1h6
			c1.3,0,2.3,1,2.3,2.3v8.4c0,0.6,0.5,1,1,1h4.2c1.3,0,2.3,1,2.3,2.3v3.3c0,0.6,0.5,1,1,1h4.2c0.6,0,1-0.5,1-1v-1.7
			c0-1.3,1-2.3,2.3-2.3h4.2c0.6,0,1-0.5,1-1v-5.8c0-1.3,1-2.3,2.3-2.3h4.2c1.3,0,2.3,1,2.3,2.3v10c0,0.6,0.5,1,1,1h14.9v1.3h-14.9
			c-1.3,0-2.3-1-2.3-2.3v-10c0-0.6-0.5-1-1-1h-4.2c-0.6,0-1,0.5-1,1v5.8c0,1.3-1,2.3-2.3,2.3h-4.2c-0.6,0-1,0.5-1,1v1.7
			C259.7,115.9,258.6,116.9,257.4,116.9z"/>
	</g>
	<g>
		<path fill="#E5D4BE" d="M290.6,136.5h-14.9c-1.3,0-2.3-1-2.3-2.3V130c0-0.6-0.5-1-1-1h-4.2c-0.6,0-1,0.5-1,1v2.2
			c0,1.3-1,2.3-2.3,2.3h-4.2c-1.3,0-2.3-1-2.3-2.3V130c0-0.6-0.5-1-1-1h-4.2c-0.6,0-1,0.5-1,1c0,1.3-1,2.3-2.3,2.3h-4.2
			c-1.3,0-2.3-1-2.3-2.3v-4.4c0-0.6-0.5-1-1-1h-4.7c-0.6,0-1,0.5-1,1v0.9c0,1.3-1,2.3-2.3,2.3h-3.6c-1.3,0-2.3-1-2.3-2.3v-8.1
			c0-0.6-0.5-1-1-1h-15v-1.3h15c1.3,0,2.3,1,2.3,2.3v8.1c0,0.6,0.5,1,1,1h3.6c0.6,0,1-0.5,1-1v-0.9c0-1.3,1-2.3,2.3-2.3h4.7
			c1.3,0,2.3,1,2.3,2.3v4.4c0,0.6,0.5,1,1,1h4.2c0.6,0,1-0.5,1-1c0-1.3,1-2.3,2.3-2.3h4.2c1.3,0,2.3,1,2.3,2.3v2.2c0,0.6,0.5,1,1,1
			h4.2c0.6,0,1-0.5,1-1V130c0-1.3,1-2.3,2.3-2.3h4.2c1.3,0,2.3,1,2.3,2.3v4.2c0,0.6,0.5,1,1,1h14.9V136.5z"/>
	</g>
	<g>
		<path fill="#E5D4BE" d="M409.8,283.4h-1.3v-47.9c0-2.8,2.3-5.1,5.1-5.1H453v1.3h-39.3c-2.1,0-3.8,1.7-3.8,3.8V283.4z"/>
	</g>
	<g>
		<g>
			<circle fill="#FBEA75" cx="51.8" cy="262.9" r="4.1"/>
			<path fill="#0B3B58" d="M51.8,268.3c-3,0-5.4-2.4-5.4-5.4s2.4-5.4,5.4-5.4s5.4,2.4,5.4,5.4S54.7,268.3,51.8,268.3z M51.8,260.1
				c-1.5,0-2.8,1.3-2.8,2.8s1.3,2.8,2.8,2.8s2.8-1.3,2.8-2.8S53.3,260.1,51.8,260.1z"/>
		</g>
		<g>
			<line fill="#FFF1DB" x1="67.3" y1="262.9" x2="127.3" y2="262.9"/>
			<path fill="#0B3B58" d="M127.3,264.1h-60c-0.7,0-1.2-0.5-1.2-1.2s0.5-1.2,1.2-1.2h60c0.7,0,1.2,0.5,1.2,1.2
				S128,264.1,127.3,264.1z"/>
		</g>
	</g>
	<g>
		<path fill="#E5D4BE" d="M173,187.3h-21.9c-2.8,0-5.1-2.3-5.1-5.1v-9.8c0-2.1-1.7-3.8-3.8-3.8h-22.4v-1.3h22.4
			c2.8,0,5.1,2.3,5.1,5.1v9.8c0,2.1,1.7,3.8,3.8,3.8H173V187.3z"/>
	</g>
	<g>
		<path fill="#E5D4BE" d="M171.1,231.8h-69.3c-2.8,0-5.1-2.3-5.1-5.1v-45H98v45c0,2.1,1.7,3.8,3.8,3.8h69.3V231.8z"/>
	</g>
	<g>
		<path fill="#E5D4BE" d="M343.1,125.5h-1.3v-13c0-2.8,2.3-5.1,5.1-5.1h9.4v1.3h-9.4c-2.1,0-3.8,1.7-3.8,3.8V125.5z"/>
	</g>
	<g>
		<path fill="#E5D4BE" d="M173,290.9h-72c-2.8,0-5.1-2.3-5.1-5.1v-13.9h1.3v13.9c0,2.1,1.7,3.8,3.8,3.8h72V290.9z"/>
	</g>
	<g>
		<path fill="#FFFFFF" d="M366.5,307V175.2H184.2V307C184.2,307,367.2,307,366.5,307z"/>
		<path fill="#0B3B58" d="M366.5,308H184.2c-0.6,0-1-0.4-1-1V175.2c0-0.6,0.4-1,1-1h182.3c0.6,0,1,0.4,1,1v131.7c0,0,0,0,0,0.1
			C367.5,307.6,367,308,366.5,308z M185.2,306h180.3V176.2H185.2V306z"/>
	</g>
	<g>
		<path fill="#B7D893" d="M278.4,268h-82.6c-0.5,0-0.9-0.4-0.9-0.9v-79.6c0-0.5,0.4-0.9,0.9-0.9h82.6c0.5,0,0.9,0.4,0.9,0.9v79.6
			C279.3,267.6,278.9,268,278.4,268z"/>
		<path fill="#0B3B58" d="M278.4,269h-82.6c-1,0-1.9-0.8-1.9-1.9v-79.6c0-1,0.8-1.9,1.9-1.9h82.6c1,0,1.9,0.8,1.9,1.9v79.6
			C280.3,268.2,279.5,269,278.4,269z M196,267h82.4v-79.4H196V267z"/>
	</g>
	<g>
		<path fill="#F3928F" d="M354.7,297.1h-82.6c-0.5,0-0.9-0.4-0.9-0.9v-61c0-0.5,0.4-0.9,0.9-0.9h82.6c0.5,0,0.9,0.4,0.9,0.9v61
			C355.6,296.7,355.2,297.1,354.7,297.1z"/>
		<path fill="#0B3B58" d="M354.7,298.1h-82.6c-1,0-1.9-0.8-1.9-1.9v-61c0-1,0.8-1.9,1.9-1.9h82.6c1,0,1.9,0.8,1.9,1.9v61
			C356.6,297.2,355.7,298.1,354.7,298.1z M272.2,296.1h82.4v-60.8h-82.4V296.1z"/>
	</g>
	<g>
		<circle fill="#EE596C" cx="277" cy="239.7" r="1.7"/>
	</g>
	<g>
		<circle fill="#EE596C" cx="281.9" cy="239.7" r="1.7"/>
	</g>
	<g>
		<circle fill="#EE596C" cx="286.8" cy="239.7" r="1.7"/>
	</g>
	<g>
		<path fill="#F6CFCE" d="M347,289.7h-66.2c-0.6,0-1-0.4-1-1s0.4-1,1-1H347c0.6,0,1,0.4,1,1S347.5,289.7,347,289.7z"/>
	</g>
	<g>
		<path fill="#EE596C" d="M300.6,281.9c-0.3,0-0.5-0.1-0.7-0.3c-0.4-0.4-0.4-1,0-1.4c0.1-0.1,6.7-6.4,8.4-9.9
			c0.3-0.5,0.7-1.5,1.7-1.1c0.9,0.4,1.2,0.5-1.6,9.3l1.2-0.6c0.3-0.2,0.7-0.2,1,0c0.3,0.2,0.5,0.5,0.5,0.8c0,0.1,0.1,0.4,0.3,0.5
			c0.2,0.1,0.5,0.1,1,0c1.7-0.5,2.6-1.2,3.4-1.8c0.3-0.2,0.6-0.4,0.9-0.6c0.4-0.3,0.9-0.3,1.3-0.1c0.9,0.3,1.5,1.5,1.9,2.6l2.9-1.6
			c0.3-0.2,0.6-0.2,0.9,0c0.2,0.1,0.3,0.2,0.4,0.4c0.3,0.2,1.6,0.7,6.8,0.2c0.6-0.1,1,0.3,1.1,0.9c0.1,0.5-0.3,1-0.9,1.1
			c-4.1,0.4-6.8,0.3-8.1-0.4l-3.3,1.8c-0.3,0.1-0.6,0.2-0.9,0s-0.5-0.4-0.6-0.6c-0.3-0.9-0.7-1.9-1-2.3c-0.1,0.1-0.3,0.2-0.4,0.3
			c-0.9,0.7-2.1,1.6-4.1,2.1c-1.1,0.3-2,0.2-2.7-0.3c-0.3-0.2-0.5-0.4-0.6-0.7l-2.3,1.2c-0.4,0.2-0.8,0.1-1.1-0.1
			c-0.3-0.3-0.4-0.7-0.3-1.1c0.5-1.7,1.1-3.5,1.6-5.1c-2.6,3.2-5.9,6.3-6.1,6.5C301.1,281.8,300.9,281.9,300.6,281.9z"/>
	</g>
	<g>
		<g>
			<path fill="#0B3B58" d="M213.2,230h-10c-0.6,0-1-0.4-1-1v-10c0-0.6,0.4-1,1-1h3.7v2h-2.7v8h8v-2.7h2v3.7
				C214.2,229.5,213.8,230,213.2,230z"/>
		</g>
		<g>
			<path fill="#7DC271" d="M208.6,226l-1.8-1.8c-0.4-0.4-0.4-1,0-1.4c0.4-0.4,1-0.4,1.4,0l0.4,0.4l2.5-2.5c0.4-0.4,1-0.4,1.4,0
				s0.4,1,0,1.4L208.6,226z"/>
		</g>
	</g>
	<g>
		<g>
			<path fill="#0B3B58" d="M213.2,245.1h-10c-0.6,0-1-0.4-1-1v-10c0-0.6,0.4-1,1-1h3.7v2h-2.7v8h8v-2.7h2v3.7
				C214.2,244.6,213.8,245.1,213.2,245.1z"/>
		</g>
		<g>
			<path fill="#7DC271" d="M208.6,241.1l-1.8-1.8c-0.4-0.4-0.4-1,0-1.4s1-0.4,1.4,0l0.4,0.4l2.5-2.5c0.4-0.4,1-0.4,1.4,0
				s0.4,1,0,1.4L208.6,241.1z"/>
		</g>
	</g>
	<g>
		<g>
			<path fill="#0B3B58" d="M213.2,260.2h-10c-0.6,0-1-0.4-1-1v-10c0-0.6,0.4-1,1-1h3.7v2h-2.7v8h8v-2.7h2v3.7
				C214.2,259.7,213.8,260.2,213.2,260.2z"/>
		</g>
		<g>
			<path fill="#7DC271" d="M208.6,256.2l-1.8-1.8c-0.4-0.4-0.4-1,0-1.4c0.4-0.4,1-0.4,1.4,0l0.4,0.4l2.5-2.5c0.4-0.4,1-0.4,1.4,0
				s0.4,1,0,1.4L208.6,256.2z"/>
		</g>
	</g>
	<g>
		<line fill="#FFF1DB" x1="219.6" y1="224.7" x2="263.6" y2="224.7"/>
		<path fill="#0B3B58" d="M263.6,225.7h-44c-0.6,0-1-0.4-1-1s0.4-1,1-1h44c0.6,0,1,0.4,1,1S264.2,225.7,263.6,225.7z"/>
	</g>
	<g>
		<line fill="#FFF1DB" x1="219.6" y1="240.1" x2="246.7" y2="240.1"/>
		<path fill="#0B3B58" d="M246.7,241.1h-27.1c-0.6,0-1-0.4-1-1s0.4-1,1-1h27.1c0.6,0,1,0.4,1,1S247.3,241.1,246.7,241.1z"/>
	</g>
	<g>
		<line fill="#FFF1DB" x1="219.6" y1="255.4" x2="256.1" y2="255.4"/>
		<path fill="#0B3B58" d="M256.1,256.4h-36.4c-0.6,0-1-0.4-1-1s0.4-1,1-1h36.4c0.6,0,1,0.4,1,1S256.6,256.4,256.1,256.4z"/>
	</g>
	<g>
		<rect x="281.3" y="248.7" fill="#EE596C" width="64.8" height="3.8"/>
	</g>
	<g>
		<rect x="288.4" y="255.8" fill="#EE596C" width="50.6" height="3.8"/>
	</g>
	<g>
		<rect x="204.3" y="200.1" fill="#7DC271" width="64.8" height="3.8"/>
	</g>
	<g>
		<rect x="204.3" y="207.2" fill="#7DC271" width="38.2" height="3.8"/>
	</g>
	<g>
		<path fill="#EE596C" d="M230.9,296.5c0-0.1-0.1-0.1-0.1-0.2c-2.9-2.9-5.9-5.9-8.8-8.8c-1-1-1.8-2.2-2-3.6c-0.5-2.4,0.2-4.5,2-6.2
			c1-0.9,2.2-1.5,3.6-1.7c2-0.2,3.8,0.3,5.3,1.7c0,0,0.1,0.1,0.1,0.1c0,0,0,0,0,0c0.4-0.3,0.7-0.6,1.1-0.8c2.4-1.6,5.7-1.4,7.8,0.5
			c1.3,1.1,2,2.5,2.2,4.2c0.2,1.6-0.2,3-1,4.4c-0.4,0.6-0.9,1.2-1.5,1.7c-2.9,2.9-5.7,5.7-8.6,8.6C231,296.5,231,296.5,230.9,296.5z
			"/>
		<path fill="#0B3B58" d="M230.9,297.5C230.9,297.5,230.9,297.5,230.9,297.5c-0.4,0-0.7-0.2-0.8-0.4c0,0-0.1-0.1-0.1-0.1
			c-2.9-2.9-5.8-5.8-8.8-8.8c-1.2-1.2-2-2.6-2.3-4.1c-0.6-2.8,0.2-5.2,2.3-7.1c1.1-1.1,2.5-1.7,4.1-1.9c2.1-0.3,4,0.3,5.6,1.5
			c0.2-0.1,0.3-0.3,0.5-0.4c1.2-0.8,2.6-1.2,4.1-1.2c1.8,0,3.6,0.6,4.9,1.8c1.5,1.3,2.4,2.9,2.6,4.8c0.2,1.7-0.2,3.4-1.2,5
			c-0.5,0.7-1,1.3-1.6,1.9l-8.6,8.6c0,0-0.1,0.1-0.1,0.1C231.5,297.4,231.2,297.5,230.9,297.5z M226.3,277.1c-0.3,0-0.5,0-0.8,0
			c-1.2,0.1-2.2,0.6-3,1.4c-1.6,1.5-2.1,3.2-1.7,5.3c0.2,1.1,0.8,2.1,1.8,3.1c2.8,2.8,5.5,5.5,8.3,8.3l7.9-7.9c0.5-0.5,1-1,1.3-1.5
			c0.7-1.2,1-2.4,0.9-3.7c-0.2-1.4-0.8-2.6-1.9-3.5c-1.8-1.5-4.7-1.7-6.6-0.4c-0.2,0.2-0.5,0.3-0.7,0.5l-0.3,0.2
			c-0.3,0.3-0.7,0.3-1.1,0.2l0,0c0,0,0,0,0,0c-0.1,0-0.1-0.1-0.2-0.1l-0.1-0.1C229,277.6,227.8,277.1,226.3,277.1z"/>
	</g>
	<g>
		<circle fill="#7DC271" cx="200.8" cy="192" r="1.7"/>
	</g>
	<g>
		<circle fill="#7DC271" cx="205.7" cy="192" r="1.7"/>
	</g>
	<g>
		<circle fill="#7DC271" cx="210.6" cy="192" r="1.7"/>
	</g>
	<g>
		<rect x="326.2" y="187.4" fill="#FBEA75" width="21.8" height="21.3"/>
		<path fill="#0B3B58" d="M347.9,209.8h-21.8c-0.6,0-1-0.4-1-1v-21.3c0-0.6,0.4-1,1-1h21.8c0.6,0,1,0.4,1,1v21.3
			C348.9,209.3,348.5,209.8,347.9,209.8z M327.2,207.8h19.8v-19.3h-19.8V207.8z"/>
	</g>
	<g>
		<line fill="#FFF1DB" x1="332.2" y1="193.2" x2="341.9" y2="193.2"/>
		<path fill="#0B3B58" d="M341.9,194.2h-9.8c-0.6,0-1-0.4-1-1s0.4-1,1-1h9.8c0.6,0,1,0.4,1,1S342.5,194.2,341.9,194.2z"/>
	</g>
	<g>
		<line fill="#FFF1DB" x1="332.2" y1="197.7" x2="341.9" y2="197.7"/>
		<path fill="#0B3B58" d="M341.9,198.7h-9.8c-0.6,0-1-0.4-1-1s0.4-1,1-1h9.8c0.6,0,1,0.4,1,1S342.5,198.7,341.9,198.7z"/>
	</g>
	<g>
		<line fill="#FFF1DB" x1="332.2" y1="202.3" x2="341.9" y2="202.3"/>
		<path fill="#0B3B58" d="M341.9,203.3h-9.8c-0.6,0-1-0.4-1-1s0.4-1,1-1h9.8c0.6,0,1,0.4,1,1S342.5,203.3,341.9,203.3z"/>
	</g>
	<g>
		<circle fill="#FFFFFF" cx="293.8" cy="221.9" r="2.9"/>
		<path fill="#0B3B58" d="M293.8,225.7c-2.1,0-3.9-1.7-3.9-3.9s1.7-3.9,3.9-3.9s3.9,1.7,3.9,3.9S295.9,225.7,293.8,225.7z
			 M293.8,220c-1,0-1.9,0.8-1.9,1.9c0,1,0.8,1.9,1.9,1.9c1,0,1.9-0.8,1.9-1.9C295.6,220.8,294.8,220,293.8,220z"/>
	</g>
	<g>
		<line fill="#FFF1DB" x1="305.9" y1="221.9" x2="346.9" y2="221.9"/>
		<path fill="#0B3B58" d="M346.9,222.9h-41c-0.6,0-1-0.4-1-1s0.4-1,1-1h41c0.6,0,1,0.4,1,1S347.5,222.9,346.9,222.9z"/>
	</g>
	<g>
		<rect x="145.8" y="231.3" fill="#E5D4BE" width="1.3" height="28"/>
	</g>
	<g>
		<path fill="#FFF7EC" d="M141.9,259h9c0.7,0,1.2,0.6,1.2,1.2v2.5c0,0.7-0.6,1.2-1.2,1.2h-9c-0.7,0-1.2-0.6-1.2-1.2v-2.5
			C140.7,259.6,141.2,259,141.9,259z"/>
		<path fill="#E5D4BE" d="M150.9,264.6h-9c-1,0-1.9-0.8-1.9-1.9v-2.5c0-1,0.8-1.9,1.9-1.9h9c1,0,1.9,0.8,1.9,1.9v2.5
			C152.8,263.8,152,264.6,150.9,264.6z M141.9,259.6c-0.3,0-0.6,0.3-0.6,0.6v2.5c0,0.3,0.3,0.6,0.6,0.6h9c0.3,0,0.6-0.3,0.6-0.6
			v-2.5c0-0.3-0.3-0.6-0.6-0.6H141.9z"/>
	</g>
	<g>
		<path fill="#0B3B58" d="M68.3,328.3H46.8c-0.6,0-1-0.4-1-1s0.4-1,1-1h21.6c0.6,0,1,0.4,1,1S68.9,328.3,68.3,328.3z"/>
	</g>
	<g>
		<path fill="#0B3B58" d="M454.7,328.3H99.6c-0.6,0-1-0.4-1-1s0.4-1,1-1h355.1c0.6,0,1,0.4,1,1S455.2,328.3,454.7,328.3z"/>
	</g>
	<g>
		<path fill="#0B3B58" d="M403.5,335.3H130.2c-0.6,0-1-0.4-1-1s0.4-1,1-1h273.3c0.6,0,1,0.4,1,1S404,335.3,403.5,335.3z"/>
	</g>
	<g>
		<g>
			<path fill="#FFF7EC" d="M130.5,290c-3.9,1.9-5.4,3.4-7.3,7.3c-1.9-3.9-3.4-5.4-7.3-7.3c3.9-1.9,5.4-3.4,7.3-7.3
				C125,286.6,126.5,288.1,130.5,290z"/>
		</g>
		<g>
			<path fill="#E5D4BE" d="M123.2,298.8l-0.6-1.2c-1.8-3.8-3.2-5.2-7-7l-1.2-0.6l1.2-0.6c3.8-1.8,5.2-3.2,7-7l0.6-1.2l0.6,1.2
				c1.8,3.8,3.2,5.2,7,7l1.2,0.6l-1.2,0.6c-3.8,1.8-5.2,3.2-7,7L123.2,298.8z M117.3,290c2.9,1.5,4.4,3,5.9,5.9
				c1.5-2.9,3-4.4,5.9-5.9c-2.9-1.5-4.4-3-5.9-5.9C121.7,287,120.2,288.5,117.3,290z"/>
		</g>
	</g>
	<g>
		<g>
			<path fill="#FFF7EC" d="M450.3,283.4c-3.9,1.9-5.4,3.4-7.3,7.3c-1.9-3.9-3.4-5.4-7.3-7.3c3.9-1.9,5.4-3.4,7.3-7.3
				C444.8,280.1,446.3,281.6,450.3,283.4z"/>
		</g>
		<g>
			<path fill="#E5D4BE" d="M443,292.2l-0.6-1.2c-1.8-3.8-3.2-5.2-7-7l-1.2-0.6l1.2-0.6c3.8-1.8,5.2-3.2,7-7l0.6-1.2l0.6,1.2
				c1.8,3.8,3.2,5.2,7,7l1.2,0.6l-1.2,0.6c-3.8,1.8-5.2,3.2-7,7L443,292.2z M437.1,283.4c2.9,1.5,4.4,3,5.9,5.9
				c1.5-2.9,3-4.4,5.9-5.9c-2.9-1.5-4.4-3-5.9-5.9C441.4,280.4,439.9,281.9,437.1,283.4z"/>
		</g>
	</g>
	<g>
		<path fill="#0B3B58" d="M292.5,311.5h-34.3c-2.5,0-4.5-2-4.5-4.5l0,0H297l0,0C297,309.5,295,311.5,292.5,311.5z"/>
	</g>
	<g>
		<g>
			<path fill="#F6CFCE" d="M281.7,282.3c-0.1,0-0.3,0-0.4-0.1c-0.2-0.2-0.2-0.5,0-0.7l3.6-3.6c0.2-0.2,0.5-0.2,0.7,0s0.2,0.5,0,0.7
				l-3.6,3.6C281.9,282.2,281.8,282.3,281.7,282.3z"/>
		</g>
		<g>
			<path fill="#F6CFCE" d="M285.2,282.3c-0.1,0-0.3,0-0.4-0.1l-3.6-3.6c-0.2-0.2-0.2-0.5,0-0.7s0.5-0.2,0.7,0l3.6,3.6
				c0.2,0.2,0.2,0.5,0,0.7C285.5,282.2,285.4,282.3,285.2,282.3z"/>
		</g>
	</g>
	<g>
		<path fill="#0B9AB4" d="M141.8,314.2c0.8,3.5,3.9,6.1,7.6,6.1h251.8c3.7,0,6.8-2.6,7.6-6.1H141.8z"/>
	</g>
	<g>
		<path fill="#0B3B58" d="M401.3,321.3H149.4c-4.8,0-8.8-3.9-8.8-8.8V308c0-0.6,0.4-1,1-1H172V172.7c0-4.8,3.9-8.8,8.8-8.8h189.1
			c4.8,0,8.8,3.9,8.8,8.8V307H409c0.6,0,1,0.4,1,1v4.5C410,317.3,406.1,321.3,401.3,321.3z M142.6,309v3.5c0,3.7,3,6.8,6.8,6.8
			h251.8c3.7,0,6.8-3,6.8-6.8V309h-30.4c-0.6,0-1-0.4-1-1V172.7c0-3.7-3-6.8-6.8-6.8H180.8c-3.7,0-6.8,3-6.8,6.8V308
			c0,0.6-0.4,1-1,1H142.6z"/>
	</g>
	<g>
		<circle fill="#FFF7EC" cx="290.6" cy="93.5" r="5.3"/>
		<path fill="#E5D4BE" d="M290.6,99.5c-3.3,0-6-2.7-6-6s2.7-6,6-6s6,2.7,6,6S293.9,99.5,290.6,99.5z M290.6,88.8
			c-2.6,0-4.7,2.1-4.7,4.7s2.1,4.7,4.7,4.7s4.7-2.1,4.7-4.7S293.2,88.8,290.6,88.8z"/>
	</g>
	<g>
		<g>
			<circle fill="#FFFFFF" cx="96.6" cy="168.9" r="30.4"/>
		</g>
		<g>
			<path fill="#CFD8DE" d="M96.6,192.7c-15.9,0-29-12.2-30.3-27.8c-0.1,0.9-0.1,1.8-0.1,2.6c0,16.8,13.6,30.4,30.4,30.4
				s30.4-13.6,30.4-30.4c0-0.9,0-1.8-0.1-2.6C125.5,180.4,112.5,192.7,96.6,192.7z"/>
		</g>
		<g>
			<path fill="#0B3B58" d="M96.6,200.3c-17.3,0-31.4-14.1-31.4-31.4c0-17.3,14.1-31.4,31.4-31.4c17.3,0,31.4,14.1,31.4,31.4
				C128,186.2,113.9,200.3,96.6,200.3z M96.6,139.4c-16.2,0-29.4,13.2-29.4,29.4s13.2,29.4,29.4,29.4s29.4-13.2,29.4-29.4
				S112.8,139.4,96.6,139.4z"/>
		</g>
		<g>
			<g>
				<rect x="81.7" y="154.9" fill="#FBEA75" width="28.8" height="28.3"/>
				<path fill="#0B3B58" d="M110.5,184.2H81.7c-0.6,0-1-0.4-1-1v-28.3c0-0.6,0.4-1,1-1h28.8c0.6,0,1,0.4,1,1v28.3
					C111.5,183.7,111.1,184.2,110.5,184.2z M82.7,182.2h26.8v-26.3H82.7V182.2z"/>
			</g>
			<g>
				<line fill="#FFF1DB" x1="89.6" y1="162.5" x2="102.6" y2="162.5"/>
				<path fill="#0B3B58" d="M102.6,163.5H89.6c-0.6,0-1-0.4-1-1s0.4-1,1-1h12.9c0.6,0,1,0.4,1,1S103.1,163.5,102.6,163.5z"/>
			</g>
			<g>
				<line fill="#FFF1DB" x1="89.6" y1="168.5" x2="102.6" y2="168.5"/>
				<path fill="#0B3B58" d="M102.6,169.5H89.6c-0.6,0-1-0.4-1-1s0.4-1,1-1h12.9c0.6,0,1,0.4,1,1S103.1,169.5,102.6,169.5z"/>
			</g>
			<g>
				<line fill="#FFF1DB" x1="89.6" y1="174.6" x2="102.6" y2="174.6"/>
				<path fill="#0B3B58" d="M102.6,175.6H89.6c-0.6,0-1-0.4-1-1s0.4-1,1-1h12.9c0.6,0,1,0.4,1,1S103.1,175.6,102.6,175.6z"/>
			</g>
		</g>
	</g>
	<g>
		<g>
			<g>
				<path fill="#FFFFFF" d="M495.5,262h-41.1c-4.7,0-8.5-3.8-8.5-8.5v-42.9c0-4.7,3.8-8.5,8.5-8.5h41.1c4.7,0,8.5,3.8,8.5,8.5v42.9
					C504,258.2,500.2,262,495.5,262z"/>
			</g>
			<g>
				<path fill="#CFD8DE" d="M495.5,255.4h-41.1c-4.7,0-8.5-3.8-8.5-8.5v6.6c0,4.7,3.8,8.5,8.5,8.5h41.1c4.7,0,8.5-3.8,8.5-8.5v-6.6
					C504,251.6,500.2,255.4,495.5,255.4z"/>
			</g>
		</g>
		<g>
			<path fill="#EE596C" d="M475,246.5c-0.1-0.1-0.1-0.2-0.2-0.2c-4.2-4.2-8.3-8.3-12.5-12.5c-1.4-1.4-2.5-3.1-2.9-5.1
				c-0.7-3.5,0.2-6.4,2.8-8.8c1.4-1.3,3.1-2.1,5-2.3c2.9-0.3,5.4,0.5,7.6,2.4c0.1,0.1,0.1,0.1,0.2,0.2c0,0,0,0,0,0
				c0.5-0.4,1-0.8,1.5-1.2c3.4-2.3,8-2,11.1,0.7c1.8,1.6,2.9,3.5,3.2,5.9c0.3,2.2-0.3,4.3-1.4,6.2c-0.6,0.9-1.3,1.7-2.1,2.4
				c-4,4-8.1,8.1-12.1,12.1C475.2,246.4,475.1,246.4,475,246.5z"/>
			<path fill="#0B3B58" d="M475,247.5C475,247.5,474.9,247.5,475,247.5c-0.4,0-0.6-0.2-0.8-0.4l-0.1-0.1c-4.2-4.2-8.3-8.3-12.5-12.5
				c-1.7-1.7-2.7-3.5-3.2-5.6c-0.8-3.8,0.2-7.1,3.1-9.7c1.6-1.5,3.4-2.3,5.6-2.6c3-0.4,5.6,0.4,7.9,2.3c0.3-0.2,0.6-0.5,0.9-0.7
				c1.6-1.1,3.6-1.7,5.6-1.7c2.5,0,4.9,0.9,6.7,2.5c2,1.8,3.2,4,3.5,6.5c0.3,2.4-0.2,4.7-1.6,6.8c-0.6,1-1.4,1.8-2.2,2.6l-12.3,12.3
				C475.5,247.4,475.3,247.5,475,247.5z M468.5,218.5c-0.4,0-0.8,0-1.1,0.1c-1.7,0.2-3.2,0.9-4.5,2.1c-2.3,2.2-3.1,4.8-2.5,7.9
				c0.3,1.6,1.2,3.1,2.6,4.6c4,4,8,8,12,12l11.6-11.6c0.8-0.8,1.4-1.4,1.9-2.3c1.1-1.8,1.5-3.6,1.3-5.5c-0.3-2.1-1.2-3.8-2.9-5.3
				c-1.5-1.3-3.4-2-5.4-2c-1.6,0-3.2,0.5-4.5,1.3c-0.3,0.2-0.7,0.5-1,0.7c-0.1,0.1-0.3,0.2-0.4,0.3c-0.3,0.3-0.7,0.3-1.1,0.2l0,0
				c0,0,0,0,0,0c-0.1,0-0.2-0.1-0.2-0.2l-0.1-0.1C472.5,219.2,470.7,218.5,468.5,218.5z"/>
		</g>
	</g>
	<g>
		<path fill="#0B3B58" d="M495.5,263h-41.1c-5.2,0-9.5-4.3-9.5-9.5v-42.9c0-5.2,4.3-9.5,9.5-9.5h41.1c5.2,0,9.5,4.3,9.5,9.5v42.9
			C505,258.7,500.8,263,495.5,263z M454.5,203.1c-4.1,0-7.5,3.4-7.5,7.5v42.9c0,4.1,3.4,7.5,7.5,7.5h41.1c4.1,0,7.5-3.4,7.5-7.5
			v-42.9c0-4.1-3.4-7.5-7.5-7.5H454.5z"/>
	</g>
</g>
</svg>
