<?xml version="1.0" encoding="utf-8"?>
<!-- Generator: Adobe Illustrator 18.1.1, SVG Export Plug-In . SVG Version: 6.00 Build 0)  -->
<!DOCTYPE svg PUBLIC "-//W3C//DTD SVG 1.1//EN" "http://www.w3.org/Graphics/SVG/1.1/DTD/svg11.dtd">
<svg version="1.1" id="Validation_x5F_Check" xmlns="http://www.w3.org/2000/svg" xmlns:xlink="http://www.w3.org/1999/xlink"
	 x="0px" y="0px" width="185.1px" height="32px" viewBox="0 0 185.1 32" enable-background="new 0 0 185.1 32" xml:space="preserve"
	>
<g>
	<g>
		<g>
			<g>
				<g>
					<g>
						<path fill="#FFF7EC" d="M14.4,20.1c-0.5-0.4-1-0.8-1.4-1.2c-3.9,3.2-11.7,9.6-11.8,9.7l0.8,1l-0.1-0.1l0.8,1
							c0.4-0.3,8.5-7,12.2-10C14.8,20.4,14.6,20.2,14.4,20.1z"/>
						<path fill="#FFF7EC" d="M16.6,17.2c-3.9-2.9-3.8-5.2-3.8-5.3l0,0c0-0.1,0-0.1,0-0.2c0-2.1,1.4-3.9,3.1-3.9s3.1,1.7,3.1,3.9
							c0,1.7-1,3-2.1,4c0.2,0.1,0.4,0.3,0.5,0.4c0.5,0.4,0.9,0.7,1.4,1.1c1.4-1.3,2.7-3.1,2.7-5.6c0-3.5-2.5-6.3-5.5-6.3
							c-3,0-5.5,2.8-5.5,6.2v0c0,0.4-0.3,3.8,4.8,7.5c3.4,2.4,4,5.6,3.1,7.6c-0.8,1.9-2.9,2.7-5.7,2.2l0,0c-1.4-0.3-2.7-0.9-3.9-1.7
							c-0.7,0.6-1.3,1.1-1.9,1.6c1.6,1.2,3.4,2.1,5.4,2.5h0c0.7,0.1,1.4,0.2,2.1,0.2c3.4,0,5.4-1.8,6.3-3.8
							C22,24.2,20.4,19.9,16.6,17.2z"/>
						<path fill="#FFF7EC" d="M15.9,0.5C7.5,0.5,0.7,7.3,0.7,15.7c0,3.5,1,6.8,2.8,9.5c0.6-0.5,1.2-1,1.9-1.6
							c-1.4-2.2-2.2-5-2.2-7.9C3.2,8.7,8.9,3,15.9,3c7,0,12.7,5.7,12.7,12.7c0,3.7-1.6,7.2-4.3,9.6l1.6,1.8
							c3.3-2.9,5.2-7.1,5.2-11.4C31,7.3,24.2,0.5,15.9,0.5z"/>
					</g>
				</g>
				<g>
					<g>
						<path fill="#FFF7EC" d="M52.6,17.6c0,1-0.3,1.7-1,2.2s-1.6,0.8-2.8,0.8s-2.2-0.2-3-0.6v-1.7c0.5,0.2,1,0.4,1.6,0.5
							c0.5,0.1,1.1,0.2,1.5,0.2c0.7,0,1.2-0.1,1.5-0.4c0.3-0.3,0.5-0.6,0.5-1.1c0-0.4-0.2-0.7-0.5-1s-0.9-0.6-1.9-1
							c-1-0.4-1.7-0.8-2.1-1.4s-0.6-1.1-0.6-1.8c0-0.9,0.3-1.6,1-2.1s1.5-0.8,2.6-0.8c1,0,2,0.2,3.1,0.7l-0.6,1.4
							c-1-0.4-1.8-0.6-2.5-0.6c-0.6,0-1,0.1-1.3,0.4c-0.3,0.2-0.4,0.6-0.4,1c0,0.3,0.1,0.5,0.2,0.7c0.1,0.2,0.3,0.4,0.6,0.6
							s0.8,0.4,1.5,0.7c0.8,0.3,1.4,0.6,1.7,0.9s0.6,0.6,0.8,1S52.6,17.1,52.6,17.6z"/>
						<path fill="#FFF7EC" d="M61.7,16.5c0,1.3-0.3,2.4-1,3.1s-1.6,1.1-2.8,1.1c-0.8,0-1.4-0.2-2-0.5s-1-0.8-1.3-1.5
							S54,17.3,54,16.5c0-1.3,0.3-2.3,1-3.1s1.6-1.1,2.8-1.1c1.2,0,2.1,0.4,2.8,1.1C61.4,14.2,61.7,15.2,61.7,16.5z M55.8,16.5
							c0,1.9,0.7,2.8,2.1,2.8c1.4,0,2.1-0.9,2.1-2.8c0-1.9-0.7-2.8-2.1-2.8c-0.7,0-1.2,0.2-1.6,0.7C56,14.9,55.8,15.6,55.8,16.5z"/>
						<path fill="#FFF7EC" d="M66.9,20.7c-1.2,0-2.2-0.4-2.8-1.1c-0.6-0.7-1-1.7-1-3.1c0-1.4,0.3-2.4,1-3.1c0.7-0.7,1.6-1.1,2.9-1.1
							c0.9,0,1.6,0.2,2.3,0.5l-0.5,1.4c-0.7-0.3-1.3-0.4-1.8-0.4c-1.4,0-2.1,0.9-2.1,2.8c0,0.9,0.2,1.6,0.5,2
							c0.3,0.5,0.9,0.7,1.5,0.7c0.8,0,1.5-0.2,2.2-0.6v1.5c-0.3,0.2-0.6,0.3-1,0.4S67.4,20.7,66.9,20.7z"/>
						<path fill="#FFF7EC" d="M71,10.3c0-0.3,0.1-0.5,0.3-0.7c0.2-0.2,0.4-0.2,0.7-0.2c0.3,0,0.5,0.1,0.7,0.2
							c0.2,0.2,0.3,0.4,0.3,0.7c0,0.3-0.1,0.5-0.3,0.7c-0.2,0.2-0.4,0.3-0.7,0.3c-0.3,0-0.6-0.1-0.7-0.3C71.1,10.8,71,10.6,71,10.3z
							 M72.8,20.5h-1.7v-8.1h1.7V20.5z"/>
						<path fill="#FFF7EC" d="M80.4,20.5L80,19.4H80c-0.4,0.5-0.8,0.8-1.2,1s-0.9,0.3-1.5,0.3c-0.8,0-1.4-0.2-1.9-0.6
							c-0.4-0.4-0.7-1-0.7-1.8c0-0.8,0.3-1.5,0.9-1.9s1.6-0.7,2.8-0.7l1.4,0v-0.4c0-0.5-0.1-0.9-0.4-1.2c-0.2-0.3-0.6-0.4-1.1-0.4
							c-0.4,0-0.8,0.1-1.2,0.2s-0.7,0.3-1.1,0.4L75.5,13c0.4-0.2,0.9-0.4,1.4-0.5c0.5-0.1,1-0.2,1.5-0.2c1,0,1.8,0.2,2.3,0.7
							c0.5,0.4,0.8,1.2,0.8,2.1v5.5H80.4z M77.8,19.4c0.6,0,1.1-0.2,1.5-0.5c0.4-0.3,0.6-0.8,0.6-1.5v-0.7l-1,0
							c-0.8,0-1.4,0.2-1.8,0.4c-0.4,0.2-0.6,0.6-0.6,1.1c0,0.4,0.1,0.6,0.3,0.8C77,19.3,77.4,19.4,77.8,19.4z"/>
						<path fill="#FFF7EC" d="M85.7,20.5H84V9.1h1.7V20.5z"/>
						<path fill="#FFF7EC" d="M98.9,20.5l-1.1-3h-4.1l-1,3h-1.8l4-10.8h1.9l4,10.8H98.9z M97.4,16.1l-1-2.9
							c-0.1-0.2-0.2-0.5-0.3-0.9c-0.1-0.4-0.2-0.7-0.3-0.9c-0.1,0.6-0.3,1.3-0.6,2l-1,2.8H97.4z"/>
						<path fill="#FFF7EC" d="M105.2,20.7c-1.2,0-2.2-0.4-2.8-1.1c-0.6-0.7-1-1.7-1-3.1c0-1.4,0.3-2.4,1-3.1
							c0.7-0.7,1.6-1.1,2.9-1.1c0.9,0,1.6,0.2,2.3,0.5l-0.5,1.4c-0.7-0.3-1.3-0.4-1.8-0.4c-1.4,0-2.1,0.9-2.1,2.8
							c0,0.9,0.2,1.6,0.5,2c0.3,0.5,0.9,0.7,1.5,0.7c0.8,0,1.5-0.2,2.2-0.6v1.5c-0.3,0.2-0.6,0.3-1,0.4S105.7,20.7,105.2,20.7z"/>
						<path fill="#FFF7EC" d="M112.4,19.3c0.4,0,0.8-0.1,1.3-0.2v1.3c-0.2,0.1-0.4,0.2-0.7,0.2c-0.3,0.1-0.6,0.1-0.9,0.1
							c-1.6,0-2.4-0.9-2.4-2.6v-4.4h-1.1V13l1.2-0.6l0.6-1.7h1.1v1.8h2.3v1.3h-2.3v4.3c0,0.4,0.1,0.7,0.3,0.9
							C111.8,19.2,112.1,19.3,112.4,19.3z"/>
						<path fill="#FFF7EC" d="M115.2,10.3c0-0.3,0.1-0.5,0.3-0.7s0.4-0.2,0.7-0.2c0.3,0,0.5,0.1,0.7,0.2c0.2,0.2,0.3,0.4,0.3,0.7
							c0,0.3-0.1,0.5-0.3,0.7c-0.2,0.2-0.4,0.3-0.7,0.3c-0.3,0-0.6-0.1-0.7-0.3C115.3,10.8,115.2,10.6,115.2,10.3z M117,20.5h-1.7
							v-8.1h1.7V20.5z"/>
						<path fill="#FFF7EC" d="M126.7,16.5c0,1.3-0.3,2.4-1,3.1s-1.6,1.1-2.8,1.1c-0.8,0-1.4-0.2-2-0.5c-0.6-0.3-1-0.8-1.3-1.5
							s-0.5-1.4-0.5-2.2c0-1.3,0.3-2.3,1-3.1s1.6-1.1,2.8-1.1c1.2,0,2.1,0.4,2.8,1.1C126.3,14.2,126.7,15.2,126.7,16.5z M120.8,16.5
							c0,1.9,0.7,2.8,2.1,2.8c1.4,0,2.1-0.9,2.1-2.8c0-1.9-0.7-2.8-2.1-2.8c-0.7,0-1.2,0.2-1.6,0.7
							C120.9,14.9,120.8,15.6,120.8,16.5z"/>
						<path fill="#FFF7EC" d="M135.8,20.5H134v-5c0-0.6-0.1-1.1-0.4-1.4c-0.3-0.3-0.7-0.5-1.2-0.5c-0.7,0-1.3,0.2-1.6,0.6
							c-0.3,0.4-0.5,1.1-0.5,2.2v4h-1.7v-8.1h1.3l0.2,1.1h0.1c0.2-0.4,0.6-0.7,1-0.9s0.9-0.3,1.5-0.3c1.9,0,2.9,1,2.9,3V20.5z"/>
						<path fill="#FFF7EC" d="M146.9,20.5l-3.1-8.9h-0.1c0.1,1.3,0.1,2.6,0.1,3.7v5.2h-1.6V9.8h2.5l3,8.5h0l3.1-8.5h2.5v10.7h-1.7
							v-5.3c0-0.5,0-1.2,0-2.1c0-0.9,0.1-1.4,0.1-1.6h-0.1l-3.2,8.9H146.9z"/>
						<path fill="#FFF7EC" d="M159.4,20.7c-1.3,0-2.2-0.4-3-1.1c-0.7-0.7-1.1-1.7-1.1-3c0-1.3,0.3-2.4,1-3.1s1.6-1.1,2.7-1.1
							c1.1,0,1.9,0.3,2.5,1c0.6,0.6,0.9,1.5,0.9,2.7v0.9h-5.4c0,0.8,0.2,1.4,0.6,1.8c0.4,0.4,1,0.6,1.7,0.6c0.5,0,0.9,0,1.3-0.1
							c0.4-0.1,0.9-0.2,1.3-0.5v1.4c-0.4,0.2-0.8,0.3-1.3,0.4S160,20.7,159.4,20.7z M159.1,13.6c-0.5,0-1,0.2-1.3,0.5
							s-0.5,0.9-0.6,1.5h3.7c0-0.7-0.2-1.2-0.5-1.5C160.1,13.8,159.7,13.6,159.1,13.6z"/>
						<path fill="#FFF7EC" d="M167.3,20.7c-1,0-1.8-0.4-2.4-1.1s-0.8-1.8-0.8-3.1c0-1.3,0.3-2.4,0.9-3.1c0.6-0.7,1.4-1.1,2.4-1.1
							c1.1,0,1.9,0.4,2.4,1.2h0.1c-0.1-0.6-0.1-1-0.1-1.4v-3h1.7v11.4h-1.3l-0.3-1.1h-0.1C169.2,20.3,168.3,20.7,167.3,20.7z
							 M167.7,19.3c0.7,0,1.2-0.2,1.5-0.6c0.3-0.4,0.5-1,0.5-1.9v-0.2c0-1-0.2-1.7-0.5-2.2s-0.9-0.6-1.6-0.6c-0.6,0-1.1,0.2-1.4,0.7
							c-0.3,0.5-0.5,1.2-0.5,2.1c0,0.9,0.2,1.6,0.5,2.1C166.6,19.1,167.1,19.3,167.7,19.3z"/>
						<path fill="#FFF7EC" d="M173.8,10.3c0-0.3,0.1-0.5,0.3-0.7s0.4-0.2,0.7-0.2c0.3,0,0.5,0.1,0.7,0.2c0.2,0.2,0.3,0.4,0.3,0.7
							c0,0.3-0.1,0.5-0.3,0.7c-0.2,0.2-0.4,0.3-0.7,0.3c-0.3,0-0.6-0.1-0.7-0.3C173.9,10.8,173.8,10.6,173.8,10.3z M175.6,20.5h-1.7
							v-8.1h1.7V20.5z"/>
						<path fill="#FFF7EC" d="M183.1,20.5l-0.3-1.1h-0.1c-0.4,0.5-0.8,0.8-1.2,1s-0.9,0.3-1.5,0.3c-0.8,0-1.4-0.2-1.9-0.6
							c-0.4-0.4-0.7-1-0.7-1.8c0-0.8,0.3-1.5,0.9-1.9c0.6-0.4,1.6-0.7,2.8-0.7l1.4,0v-0.4c0-0.5-0.1-0.9-0.4-1.2
							c-0.2-0.3-0.6-0.4-1.1-0.4c-0.4,0-0.8,0.1-1.2,0.2s-0.7,0.3-1.1,0.4l-0.6-1.2c0.4-0.2,0.9-0.4,1.4-0.5c0.5-0.1,1-0.2,1.5-0.2
							c1,0,1.8,0.2,2.3,0.7c0.5,0.4,0.8,1.2,0.8,2.1v5.5H183.1z M180.6,19.4c0.6,0,1.1-0.2,1.5-0.5c0.4-0.3,0.6-0.8,0.6-1.5v-0.7
							l-1,0c-0.8,0-1.4,0.2-1.8,0.4c-0.4,0.2-0.6,0.6-0.6,1.1c0,0.4,0.1,0.6,0.3,0.8C179.8,19.3,180.2,19.4,180.6,19.4z"/>
					</g>
				</g>
			</g>
		</g>
	</g>
</g>
</svg>
