<?xml version="1.0" encoding="utf-8"?>
<!-- Generator: Adobe Illustrator 18.1.1, SVG Export Plug-In . SVG Version: 6.00 Build 0)  -->
<!DOCTYPE svg PUBLIC "-//W3C//DTD SVG 1.1//EN" "http://www.w3.org/Graphics/SVG/1.1/DTD/svg11.dtd">
<svg version="1.1" id="Validation_x5F_Check" xmlns="http://www.w3.org/2000/svg" xmlns:xlink="http://www.w3.org/1999/xlink"
	 x="0px" y="0px" width="135px" height="135px" viewBox="0 0 135 135" enable-background="new 0 0 135 135" xml:space="preserve">
<g>
	<g>
		<path fill="#52BDC5" d="M91.4,112.4c-0.8-1.2-1.2-1.8-1.6-2.4c-5.3-8-9.6-16.4-12-25.6c-1.8-7-2.5-14-0.9-21.1
			c2.4-10.8,9.1-17.8,19.5-21.1c6.3-2,12.8-3.6,19.2-5.4c4.7-1.4,9.3-2.9,13-6.2c2.3-2.1,3.7-4.5,4.1-7.7c-0.5-0.1-0.8-0.2-1-0.2
			c-15,0-30-0.1-45.1,0c-5.2,0-9.5,2.2-12.8,6.2c-2.1,2.5-4.3,4.9-6.5,7.5c-2.2-2.6-4.4-4.8-6.3-7.3c-3.6-4.7-8.3-6.5-14.1-6.5
			c-14.1,0.1-28.3,0-42.4,0c-0.8,0-1.6,0-2.4,0c0.4,3.6,2,6.7,5.1,8.7c2.5,1.6,5.3,3.1,8.2,4.1c6.7,2.2,13.5,3.9,20.2,5.9
			c6.1,1.9,12,4.4,16.2,9.5c7,8.5,8.4,18.6,7.2,29.2c-1.2,10.9-5.7,20.6-11.6,29.8c-0.4,0.6-0.8,1.3-1.3,2.1c8-0.4,14-3.7,18.3-9.7
			c0.9-1.2,5.2-1.3,6-0.1C75.2,109.6,82.7,111.4,91.4,112.4z"/>
	</g>
</g>
</svg>
