<?xml version="1.0" encoding="utf-8"?>
<!-- Generator: Adobe Illustrator 18.1.1, SVG Export Plug-In . SVG Version: 6.00 Build 0)  -->
<!DOCTYPE svg PUBLIC "-//W3C//DTD SVG 1.1//EN" "http://www.w3.org/Graphics/SVG/1.1/DTD/svg11.dtd">
<svg version="1.1" id="Validation_x5F_Check" xmlns="http://www.w3.org/2000/svg" xmlns:xlink="http://www.w3.org/1999/xlink"
	 x="0px" y="0px" width="135px" height="135px" viewBox="0 0 135 135" enable-background="new 0 0 135 135" xml:space="preserve">
<g>
	<g>
		<path fill="#52BDC5" d="M25,70.9c0-13,0-26.1,0-39.1c0-4.2,2.8-7,7-7c18.1,0,52.7,0,70.8,0c4.4,0,7.1,2.8,7.1,7.1
			c0,26.1,0,45.3,0,71.4c0,4.3-2.8,7.1-7.1,7.1c-18.1,0-52.8,0-70.9,0c-4.2,0-7-2.8-7-7C25,90.2,25,84,25,70.9z"/>
	</g>
	<g>
		<g>
			<path fill="#FFF7EC" d="M102.1,82.6c-0.5-1.2-2-1.8-3.2-1.3L93,83.9l-9.7-14.7c-0.4-0.7-1.2-1.1-2-1.1H62l-6-20.3
				c0.1,0,0.3,0,0.4,0c4.1,0,7.4-3.3,7.4-7.4c0-4.1-3.3-7.4-7.4-7.4S49,36.3,49,40.4c0,1,0.2,2,0.6,2.9l8.2,27.9
				c0.3,1,1.3,1.7,2.3,1.7H80l10.1,15.3c0.5,0.7,1.2,1.1,2,1.1c0.3,0,0.6-0.1,1-0.2l7.8-3.3C102.1,85.3,102.6,83.9,102.1,82.6z"/>
		</g>
		<g>
			<path fill="#FFF7EC" d="M62.1,56.5c0,1.3,1.1,2.4,2.4,2.4h14.7c1.3,0,2.4-1.1,2.4-2.4c0-1.3-1.1-2.4-2.4-2.4H64.5
				C63.1,54,62.1,55.1,62.1,56.5z"/>
		</g>
		<g>
			<path fill="#FFF7EC" d="M82.3,83c-1.2-0.4-2.5,0.3-2.8,1.5c-2.5,8-9.8,13.4-18.3,13.4C50.6,97.9,42,89.3,42,78.8
				c0-6.2,3-12,8.1-15.6c1-0.7,1.3-2.1,0.5-3.2c-0.7-1-2.1-1.3-3.2-0.5c-6.3,4.4-10,11.7-10,19.3c0,13,10.6,23.7,23.7,23.7
				c10.4,0,19.5-6.7,22.6-16.6C84.1,84.7,83.5,83.4,82.3,83z"/>
		</g>
	</g>
</g>
</svg>
