<?xml version="1.0" encoding="utf-8"?>
<!-- Generator: Adobe Illustrator 18.1.1, SVG Export Plug-In . SVG Version: 6.00 Build 0)  -->
<!DOCTYPE svg PUBLIC "-//W3C//DTD SVG 1.1//EN" "http://www.w3.org/Graphics/SVG/1.1/DTD/svg11.dtd">
<svg version="1.1" id="Validation_x5F_Check" xmlns="http://www.w3.org/2000/svg" xmlns:xlink="http://www.w3.org/1999/xlink"
	 x="0px" y="0px" width="25px" height="25px" viewBox="0 0 25 25" enable-background="new 0 0 25 25" xml:space="preserve">
<path fill="#FFFFFF" d="M11.5,15.3c-0.4-0.3-0.7-0.5-1-0.8c-2.6,2.2-8,6.6-8.1,6.6L3,21.8l-0.1-0.1l0.6,0.7c0.3-0.2,5.8-4.8,8.3-6.8
	C11.8,15.5,11.6,15.4,11.5,15.3z"/>
<path fill="#FFFFFF" d="M13.1,12.3c0.1,0.1,0.2,0.2,0.4,0.3c0.3,0.2,0.6,0.5,0.9,0.8c0.9-0.9,1.8-2.1,1.8-3.8c0-2.4-1.7-4.3-3.8-4.3
	c-2.1,0-3.8,1.9-3.8,4.2l0.8,0.1L8.7,9.5c0,0.3-0.2,2.6,3.3,5.2c2.3,1.7,2.7,3.9,2.2,5.2c-0.6,1.3-2,1.9-3.9,1.5l-0.2,0.9l0.2-0.9
	c-1-0.2-1.9-0.6-2.7-1.2c-0.5,0.4-0.9,0.7-1.3,1.1c1.1,0.8,2.3,1.4,3.7,1.7h0l0,0c0.5,0.1,1,0.1,1.4,0.1c2.3,0,3.7-1.3,4.3-2.6
	c1-2.3-0.1-5.3-2.7-7.2c-2.7-2-2.6-3.6-2.6-3.6l0,0c0-0.1,0-0.1,0-0.1c0-1.5,0.9-2.7,2.1-2.7s2.1,1.2,2.1,2.7
	C14.6,10.8,13.9,11.6,13.1,12.3z"/>
<path fill="#FFFFFF" d="M12.5,1.9C6.8,1.9,2.1,6.6,2.1,12.3c0,2.4,0.7,4.7,1.9,6.5c0.4-0.3,0.9-0.7,1.3-1.1c-1-1.5-1.5-3.4-1.5-5.4
	c0-4.8,3.9-8.7,8.7-8.7c4.8,0,8.7,3.9,8.7,8.7c0,2.5-1.1,4.9-3,6.6l1.1,1.3c2.3-2,3.5-4.8,3.5-7.8C22.9,6.6,18.2,1.9,12.5,1.9z"/>
</svg>
