<?xml version="1.0" encoding="utf-8"?>
<!-- Generator: Adobe Illustrator 18.1.1, SVG Export Plug-In . SVG Version: 6.00 Build 0)  -->
<!DOCTYPE svg PUBLIC "-//W3C//DTD SVG 1.1//EN" "http://www.w3.org/Graphics/SVG/1.1/DTD/svg11.dtd">
<svg version="1.1" id="Validation_x5F_Check" xmlns="http://www.w3.org/2000/svg" xmlns:xlink="http://www.w3.org/1999/xlink"
	 x="0px" y="0px" width="570px" height="400.7px" viewBox="0 0 570 400.7" enable-background="new 0 0 570 400.7"
	 xml:space="preserve">
<g>
	<g>
		<circle fill="#52BDC5" cx="207.8" cy="211" r="147.8"/>
		<path fill="#0B3B58" d="M207.6,359.7c-33.3,0-66.1-11.4-92.3-32.2c-26.6-21.1-45.4-51-52.8-84.2c-8.6-38.8-1.7-78.6,19.6-112.2
			c21.3-33.5,54.4-56.8,93.2-65.4c10.7-2.4,21.6-3.6,32.5-3.6c33.3,0,66.1,11.4,92.3,32.2c26.6,21.1,45.4,51,52.8,84.2
			c8.6,38.8,1.7,78.6-19.6,112.2c-21.3,33.5-54.4,56.8-93.2,65.4C229.4,358.5,218.5,359.7,207.6,359.7z M207.9,64.2
			c-10.7,0-21.5,1.2-32.1,3.5c-38.3,8.5-70.9,31.5-91.9,64.5c-21,33.1-27.9,72.4-19.4,110.6c7.3,32.8,25.8,62.3,52.1,83.1
			c25.9,20.5,58.2,31.8,91.1,31.8c10.7,0,21.5-1.2,32.1-3.5c38.3-8.5,70.9-31.5,91.9-64.5c21-33.1,27.9-72.4,19.4-110.6
			c-7.3-32.8-25.8-62.3-52.1-83.1C273.1,75.5,240.7,64.2,207.9,64.2z"/>
	</g>
	<g>
		<path fill="#7DC271" d="M264,136.9c-29.2-21.4-31.4-62.9-31.5-71.7c-18.4-3.1-37.6-2.8-56.9,1.5c-53.2,11.9-93.2,51-108.7,99.5
			c5.3,3.5,30.8,18.6,52.3,3c24.1-17.4-1.8-43,46.1-46.4s19.4,48.7,51.8,65.6C249.5,205.2,296.8,160.9,264,136.9z"/>
	</g>
	<g>
		<path fill="#7DC271" d="M352,178.8c-0.8-3.5-1.7-6.9-2.7-10.3c-7,7.3-31.7,34.8-30,58.9c1.8,25.6,22.2,36.4,25.8,38.1
			C355.7,238.9,358.7,208.9,352,178.8z"/>
	</g>
	<g>
		<path fill="#7DC271" d="M263.4,347.9c-5.8-4.6-23.9-21.5-8.2-43c20.8-28.5-24.8-71.3-59.1-27.7c-17.2,21.9-41.5,26.7-54,0.3
			C130,252,89.6,231.3,63.4,242.5c0,0.2,0.1,0.4,0.1,0.7c17.8,79.6,96.7,129.8,176.4,112.1C248.1,353.4,255.9,350.9,263.4,347.9z"/>
	</g>
	<g>
		<rect x="337.6" y="67.3" fill="#E5D4BE" width="139.1" height="1.3"/>
	</g>
	<g>
		<rect x="386.6" y="137.4" fill="#E5D4BE" width="90.1" height="1.3"/>
	</g>
	<g>
		<rect x="400.4" y="210.3" fill="#E5D4BE" width="76.3" height="1.3"/>
	</g>
	<g>
		<rect x="337" y="353.9" fill="#E5D4BE" width="139.7" height="1.3"/>
	</g>
	<g>
		<rect x="386.6" y="282.2" fill="#E5D4BE" width="90.1" height="1.3"/>
	</g>
	<g>
		<path fill="#E5D4BE" d="M320.9,368.3l-0.7-1c41.7-30,69.3-74.5,77.6-125.2c8.3-50.7-3.7-101.7-33.7-143.4
			C334,56.8,289.6,29.3,238.8,21c-50.7-8.3-101.7,3.7-143.4,33.7c-86.2,62-105.9,182.5-43.9,268.7l-1,0.7
			c-30.2-42-42.2-93.3-33.9-144.4c8.4-51.1,36.1-95.8,78.1-126c42-30.2,93.3-42.2,144.4-33.9c51.1,8.4,95.8,36.1,126,78.1
			C427.4,184.6,407.6,305.9,320.9,368.3z"/>
	</g>
	<g>
		<path fill="#E5D4BE" d="M208.3,382.4c-45.1,0-87.6-17.4-119.7-49C56,301.4,37.9,258.6,37.5,213c-0.3-31.4,8.1-62.2,24.1-89
			l1.1,0.6c-15.9,26.6-24.2,57.2-23.9,88.3c0.4,45.3,18.4,87.7,50.7,119.5c32.3,31.8,75.1,49,120.3,48.7
			c45.3-0.4,87.7-18.4,119.5-50.7c31.8-32.3,49-75,48.7-120.3c-0.4-45.3-18.4-87.7-50.7-119.5c-32.3-31.8-75.1-49-120.3-48.7
			c-23.4,0.2-46,5.1-67.2,14.5l-0.5-1.1c21.4-9.5,44.1-14.4,67.7-14.6c94.2-0.8,171.5,75.2,172.3,169.4c0.4,45.6-17,88.7-49,121.2
			c-32,32.5-74.8,50.7-120.4,51.1C209.3,382.4,208.8,382.4,208.3,382.4z"/>
	</g>
	<g>
		<path fill="#FFFFFF" d="M199.1,329.8c-0.4,0-0.8-0.2-1.1-0.6l-0.3-0.5c-0.4-0.6-0.2-1.4,0.4-1.7c0.6-0.4,1.4-0.2,1.7,0.4l0.3,0.5
			c0.4,0.6,0.2,1.4-0.4,1.7C199.6,329.8,199.4,329.8,199.1,329.8z M194.7,322.9c-0.4,0-0.8-0.2-1.1-0.6l-0.3-0.5
			c-0.4-0.6-0.2-1.4,0.4-1.7c0.6-0.4,1.4-0.2,1.7,0.4l0.3,0.5c0.4,0.6,0.2,1.4-0.4,1.7C195.2,322.9,194.9,322.9,194.7,322.9z
			 M190.4,315.9c-0.4,0-0.8-0.2-1.1-0.6l-0.3-0.5c-0.4-0.6-0.2-1.4,0.4-1.7c0.6-0.4,1.4-0.2,1.7,0.4l0.3,0.5
			c0.4,0.6,0.2,1.4-0.4,1.7C190.9,315.9,190.7,315.9,190.4,315.9z M186.3,308.9c-0.4,0-0.9-0.2-1.1-0.6l-0.3-0.6
			c-0.3-0.6-0.1-1.4,0.5-1.7c0.6-0.3,1.4-0.1,1.7,0.5l0.3,0.5c0.3,0.6,0.1,1.4-0.5,1.7C186.7,308.8,186.5,308.9,186.3,308.9z
			 M182.3,301.7c-0.4,0-0.9-0.2-1.1-0.6l-0.3-0.6c-0.3-0.6-0.1-1.4,0.5-1.7c0.6-0.3,1.4-0.1,1.7,0.5l0.3,0.5
			c0.3,0.6,0.1,1.4-0.5,1.7C182.7,301.7,182.5,301.7,182.3,301.7z M178.4,294.5c-0.5,0-0.9-0.2-1.1-0.7l-0.3-0.6
			c-0.3-0.6-0.1-1.4,0.5-1.7c0.6-0.3,1.4-0.1,1.7,0.5l0.3,0.6c0.3,0.6,0.1,1.4-0.5,1.7C178.8,294.5,178.6,294.5,178.4,294.5z
			 M174.6,287.3c-0.5,0-0.9-0.3-1.1-0.7l-0.3-0.6c-0.3-0.6-0.1-1.4,0.6-1.7c0.6-0.3,1.4-0.1,1.7,0.6l0.3,0.6
			c0.3,0.6,0.1,1.4-0.6,1.7C175,287.2,174.8,287.3,174.6,287.3z M171,279.9c-0.5,0-0.9-0.3-1.1-0.7l-0.3-0.6c-0.3-0.6,0-1.4,0.6-1.7
			c0.6-0.3,1.4,0,1.7,0.6l0.3,0.6c0.3,0.6,0,1.4-0.6,1.7C171.4,279.9,171.2,279.9,171,279.9z M167.5,272.6c-0.5,0-0.9-0.3-1.1-0.7
			l-0.3-0.6c-0.3-0.6,0-1.4,0.6-1.7c0.6-0.3,1.4,0,1.7,0.6l0.3,0.6c0.3,0.6,0,1.4-0.6,1.7C167.9,272.5,167.7,272.6,167.5,272.6z
			 M164.1,265.1c-0.5,0-0.9-0.3-1.1-0.7l-0.3-0.6c-0.3-0.6,0-1.4,0.6-1.7c0.6-0.3,1.4,0,1.7,0.6l0.3,0.6c0.3,0.6,0,1.4-0.6,1.7
			C164.5,265.1,164.3,265.1,164.1,265.1z M160.8,257.6c-0.5,0-0.9-0.3-1.2-0.8l-0.2-0.6c-0.3-0.6,0-1.4,0.7-1.6
			c0.6-0.3,1.4,0,1.6,0.7l0.2,0.6c0.3,0.6,0,1.4-0.7,1.7C161.2,257.6,161,257.6,160.8,257.6z M157.7,250.1c-0.5,0-1-0.3-1.2-0.8
			l-0.2-0.6c-0.3-0.6,0-1.4,0.7-1.6c0.6-0.3,1.4,0,1.6,0.7l0.2,0.6c0.3,0.6,0,1.4-0.7,1.6C158,250.1,157.9,250.1,157.7,250.1z
			 M154.7,242.5c-0.5,0-1-0.3-1.2-0.8l-0.2-0.6c-0.3-0.6,0.1-1.4,0.7-1.6c0.6-0.3,1.4,0.1,1.6,0.7l0.2,0.6c0.3,0.6-0.1,1.4-0.7,1.6
			C155,242.5,154.8,242.5,154.7,242.5z M151.7,234.9c-0.5,0-1-0.3-1.2-0.8l-0.2-0.6c-0.2-0.6,0.1-1.4,0.7-1.6
			c0.6-0.2,1.4,0.1,1.6,0.7l0.2,0.6c0.2,0.6-0.1,1.4-0.7,1.6C152,234.9,151.9,234.9,151.7,234.9z M148.9,227.2c-0.5,0-1-0.3-1.2-0.8
			l-0.2-0.6c-0.2-0.7,0.1-1.4,0.8-1.6c0.7-0.2,1.4,0.1,1.6,0.8l0.2,0.6c0.2,0.7-0.1,1.4-0.8,1.6C149.2,227.2,149,227.2,148.9,227.2z
			 M146.2,219.5c-0.5,0-1-0.3-1.2-0.8l-0.2-0.6c-0.2-0.7,0.1-1.4,0.8-1.6c0.7-0.2,1.4,0.1,1.6,0.8l0.2,0.6c0.2,0.7-0.1,1.4-0.8,1.6
			C146.5,219.5,146.3,219.5,146.2,219.5z M143.6,211.8c-0.5,0-1-0.3-1.2-0.9l-0.2-0.6c-0.2-0.7,0.1-1.4,0.8-1.6
			c0.7-0.2,1.4,0.1,1.6,0.8l0.2,0.6c0.2,0.7-0.1,1.4-0.8,1.6C143.8,211.7,143.7,211.8,143.6,211.8z M141.1,204c-0.5,0-1-0.3-1.2-0.9
			l-0.2-0.6c-0.2-0.7,0.2-1.4,0.8-1.6c0.7-0.2,1.4,0.2,1.6,0.8l0.2,0.6c0.2,0.7-0.2,1.4-0.8,1.6C141.3,204,141.2,204,141.1,204z
			 M138.6,196.2c-0.5,0-1-0.4-1.2-0.9l-0.2-0.6c-0.2-0.7,0.2-1.4,0.8-1.6c0.7-0.2,1.4,0.2,1.6,0.8l0.2,0.6c0.2,0.7-0.2,1.4-0.8,1.6
			C138.9,196.2,138.8,196.2,138.6,196.2z M136.3,188.3c-0.5,0-1.1-0.4-1.2-0.9l-0.2-0.6c-0.2-0.7,0.2-1.4,0.9-1.6
			c0.7-0.2,1.4,0.2,1.6,0.9l0.2,0.6c0.2,0.7-0.2,1.4-0.9,1.6C136.6,188.3,136.4,188.3,136.3,188.3z M134.1,180.5
			c-0.6,0-1.1-0.4-1.2-0.9l-0.2-0.6c-0.2-0.7,0.2-1.4,0.9-1.5c0.7-0.2,1.4,0.2,1.5,0.9l0.2,0.6c0.2,0.7-0.2,1.4-0.9,1.5
			C134.3,180.5,134.2,180.5,134.1,180.5z M132,172.6c-0.6,0-1.1-0.4-1.2-0.9l-0.2-0.6c-0.2-0.7,0.2-1.4,0.9-1.5
			c0.7-0.2,1.4,0.2,1.5,0.9l0.2,0.6c0.2,0.7-0.2,1.4-0.9,1.5C132.2,172.6,132.1,172.6,132,172.6z M130,164.7c-0.6,0-1.1-0.4-1.2-1
			l-0.2-0.6c-0.2-0.7,0.2-1.4,0.9-1.5c0.7-0.2,1.4,0.2,1.5,0.9l0.2,0.6c0.2,0.7-0.2,1.4-0.9,1.5C130.2,164.7,130.1,164.7,130,164.7z
			 M128,156.7c-0.6,0-1.1-0.4-1.2-1l-0.1-0.6c-0.2-0.7,0.3-1.4,0.9-1.5c0.7-0.2,1.4,0.3,1.5,0.9l0.1,0.6c0.2,0.7-0.3,1.4-0.9,1.5
			C128.2,156.7,128.1,156.7,128,156.7z M126.1,148.8c-0.6,0-1.1-0.4-1.2-1l-0.1-0.6c-0.2-0.7,0.3-1.4,0.9-1.5
			c0.7-0.2,1.4,0.3,1.5,0.9l0.1,0.6c0.2,0.7-0.3,1.4-0.9,1.5C126.3,148.8,126.2,148.8,126.1,148.8z M124.4,140.8
			c-0.6,0-1.1-0.4-1.2-1l-0.1-0.6c-0.1-0.7,0.3-1.3,1-1.5c0.7-0.1,1.3,0.3,1.5,1l0.1,0.6c0.1,0.7-0.3,1.3-1,1.5
			C124.5,140.8,124.4,140.8,124.4,140.8z M122.7,132.8c-0.6,0-1.1-0.4-1.2-1l-0.1-0.6c-0.1-0.7,0.3-1.3,1-1.5c0.7-0.1,1.3,0.3,1.5,1
			l0.1,0.6c0.1,0.7-0.3,1.3-1,1.5C122.8,132.8,122.7,132.8,122.7,132.8z M121,124.8c-0.6,0-1.1-0.4-1.2-1l-0.1-0.6
			c-0.1-0.7,0.3-1.3,1-1.5c0.7-0.1,1.3,0.3,1.5,1l0.1,0.6c0.1,0.7-0.3,1.3-1,1.5C121.2,124.8,121.1,124.8,121,124.8z M119.5,116.8
			c-0.6,0-1.1-0.4-1.2-1l-0.1-0.6c-0.1-0.7,0.3-1.3,1-1.5c0.7-0.1,1.3,0.3,1.5,1l0.1,0.6c0.1,0.7-0.3,1.3-1,1.5
			C119.7,116.8,119.6,116.8,119.5,116.8z M118,108.7c-0.6,0-1.1-0.4-1.2-1l-0.1-0.6c-0.1-0.7,0.3-1.3,1-1.5c0.7-0.1,1.3,0.3,1.5,1
			l0.1,0.6c0.1,0.7-0.3,1.3-1,1.5C118.2,108.7,118.1,108.7,118,108.7z"/>
	</g>
	<g>
		<path fill="#FFFFFF" d="M119.3,102c-0.6,0-1.1-0.4-1.2-1c-0.2-0.7,0.3-1.4,0.9-1.5l0.6-0.1c0.7-0.2,1.4,0.3,1.5,0.9
			c0.2,0.7-0.3,1.4-0.9,1.5l-0.6,0.1C119.5,102,119.4,102,119.3,102z M127.2,100.2c-0.6,0-1.1-0.4-1.2-1c-0.1-0.7,0.3-1.3,1-1.5
			l0.6-0.1c0.7-0.1,1.3,0.3,1.5,1c0.1,0.7-0.3,1.3-1,1.5l-0.6,0.1C127.4,100.2,127.3,100.2,127.2,100.2z M135.3,98.6
			c-0.6,0-1.1-0.4-1.2-1c-0.1-0.7,0.3-1.3,1-1.5l0.6-0.1c0.7-0.1,1.3,0.3,1.5,1s-0.3,1.3-1,1.5l-0.6,0.1
			C135.4,98.6,135.3,98.6,135.3,98.6z M143.3,97.2c-0.6,0-1.1-0.4-1.2-1.1c-0.1-0.7,0.4-1.3,1-1.4l0.6-0.1c0.7-0.1,1.3,0.4,1.4,1
			c0.1,0.7-0.4,1.3-1,1.4l-0.6,0.1C143.4,97.2,143.4,97.2,143.3,97.2z M151.4,95.9c-0.6,0-1.2-0.5-1.2-1.1c-0.1-0.7,0.4-1.3,1.1-1.4
			l0.6-0.1c0.7-0.1,1.3,0.4,1.4,1.1c0.1,0.7-0.4,1.3-1.1,1.4l-0.6,0.1C151.5,95.9,151.4,95.9,151.4,95.9z M159.7,94.9l-0.2-1.2
			l-0.1-1.3l0.6-0.1c0.7-0.1,1.3,0.4,1.4,1.1c0.1,0.7-0.4,1.3-1.1,1.4L159.7,94.9z M167.6,94.1c-0.6,0-1.2-0.5-1.3-1.1
			c-0.1-0.7,0.5-1.3,1.1-1.4l0.6-0.1c0.7-0.1,1.3,0.5,1.4,1.1c0.1,0.7-0.5,1.3-1.1,1.4l-0.6,0.1C167.7,94.1,167.7,94.1,167.6,94.1z
			 M209.1,94c0,0-0.1,0-0.1,0l-0.6-0.1c-0.7-0.1-1.2-0.7-1.1-1.4c0.1-0.7,0.7-1.2,1.4-1.1l0.6,0.1c0.7,0.1,1.2,0.7,1.1,1.4
			C210.2,93.5,209.7,94,209.1,94z M175.8,93.5c-0.7,0-1.2-0.5-1.3-1.2c0-0.7,0.5-1.3,1.2-1.3l0.6,0c0.7,0,1.3,0.5,1.3,1.2
			c0,0.7-0.5,1.3-1.2,1.3L175.8,93.5C175.8,93.5,175.8,93.5,175.8,93.5z M200.9,93.4C200.9,93.4,200.9,93.4,200.9,93.4l-0.7,0
			c-0.7,0-1.2-0.6-1.2-1.3c0-0.7,0.6-1.2,1.3-1.2l0.6,0c0.7,0,1.2,0.6,1.2,1.3C202.1,92.8,201.6,93.4,200.9,93.4z M183.9,93.1
			c-0.7,0-1.2-0.5-1.3-1.2c0-0.7,0.5-1.3,1.2-1.3l0.6,0c0.7,0,1.3,0.5,1.3,1.2c0,0.7-0.5,1.3-1.2,1.3L183.9,93.1
			C184,93.1,183.9,93.1,183.9,93.1z M192.7,93.1C192.7,93.1,192.7,93.1,192.7,93.1l-0.6,0c-0.7,0-1.3-0.6-1.2-1.3
			c0-0.7,0.6-1.3,1.3-1.2l0.6,0c0.7,0,1.2,0.6,1.2,1.3C194,92.5,193.4,93.1,192.7,93.1z"/>
	</g>
	<g>
		<path fill="#FFFFFF" d="M102,212.9c-0.6,0-1.2-0.5-1.2-1.1l-0.1-0.6c-0.1-0.7,0.4-1.3,1.1-1.4c0.7-0.1,1.3,0.4,1.4,1.1l0.1,0.6
			c0.1,0.7-0.4,1.3-1.1,1.4C102.1,212.9,102.1,212.9,102,212.9z M101.3,204.8c-0.7,0-1.2-0.5-1.3-1.2l0-0.6c0-0.7,0.5-1.3,1.2-1.3
			c0.7,0,1.3,0.5,1.3,1.2l0,0.6C102.6,204.1,102.1,204.7,101.3,204.8C101.4,204.8,101.4,204.8,101.3,204.8z M101,196.6
			c-0.7,0-1.2-0.5-1.3-1.2l0-0.6c0-0.7,0.5-1.3,1.2-1.3c0,0,0,0,0,0c0.7,0,1.2,0.6,1.3,1.2l0,0.6C102.3,196,101.7,196.6,101,196.6
			C101,196.6,101,196.6,101,196.6z M101.1,188.4C101.1,188.4,101,188.4,101.1,188.4c-0.7,0-1.3-0.6-1.3-1.3l0-0.6
			c0-0.7,0.6-1.2,1.3-1.2c0.7,0,1.2,0.6,1.2,1.3l0,0.6C102.3,187.9,101.7,188.4,101.1,188.4z M101.4,180.3
			C101.4,180.3,101.4,180.3,101.4,180.3c-0.8,0-1.3-0.6-1.3-1.3l0-0.6c0-0.7,0.6-1.2,1.3-1.2c0.7,0,1.2,0.6,1.2,1.3l0,0.6
			C102.6,179.7,102.1,180.3,101.4,180.3z M102,172.1c0,0-0.1,0-0.1,0c-0.7-0.1-1.2-0.7-1.1-1.4l0.1-0.6c0.1-0.7,0.7-1.2,1.4-1.2
			c0.7,0.1,1.2,0.7,1.1,1.3l-0.1,0.6C103.2,171.6,102.7,172.1,102,172.1z M102.9,164c0,0-0.1,0-0.2,0c-0.7-0.1-1.2-0.7-1.1-1.4
			l0.1-0.6c0.1-0.7,0.7-1.2,1.4-1.1c0.7,0.1,1.2,0.7,1.1,1.4l-0.1,0.6C104.1,163.5,103.5,164,102.9,164z M104,155.9
			c-0.1,0-0.1,0-0.2,0c-0.7-0.1-1.2-0.7-1.1-1.4l0.1-0.6c0.1-0.7,0.7-1.2,1.4-1.1c0.7,0.1,1.2,0.7,1.1,1.4l-0.1,0.6
			C105.1,155.4,104.6,155.9,104,155.9z M105.2,147.8c-0.1,0-0.1,0-0.2,0c-0.7-0.1-1.1-0.8-1-1.4l0.1-0.6c0.1-0.7,0.8-1.1,1.4-1
			c0.7,0.1,1.1,0.8,1,1.4l-0.1,0.6C106.4,147.4,105.8,147.8,105.2,147.8z M106.6,139.8c-0.1,0-0.2,0-0.2,0c-0.7-0.1-1.1-0.8-1-1.5
			l0.1-0.6c0.1-0.7,0.8-1.1,1.5-1c0.7,0.1,1.1,0.8,1,1.5l-0.1,0.6C107.8,139.3,107.2,139.8,106.6,139.8z M108.2,131.7
			c-0.1,0-0.2,0-0.3,0c-0.7-0.1-1.1-0.8-1-1.5l0.1-0.6c0.1-0.7,0.8-1.1,1.5-1c0.7,0.1,1.1,0.8,1,1.5l-0.1,0.6
			C109.3,131.3,108.8,131.7,108.2,131.7z M109.9,123.8c-0.1,0-0.2,0-0.3,0c-0.7-0.2-1.1-0.8-1-1.5l0.1-0.6c0.2-0.7,0.8-1.1,1.5-1
			c0.7,0.2,1.1,0.8,1,1.5l-0.1,0.6C111,123.4,110.5,123.8,109.9,123.8z"/>
	</g>
	<g>
		<path fill="#FFFFFF" d="M329.5,155.5c-0.1,0-0.2,0-0.3,0l-0.6-0.2c-0.7-0.2-1.1-0.9-0.9-1.5c0.2-0.7,0.9-1.1,1.5-0.9l0.6,0.2
			c0.7,0.2,1.1,0.9,0.9,1.5C330.6,155.2,330.1,155.5,329.5,155.5z M321.6,153.3c-0.1,0-0.2,0-0.3,0l-0.6-0.2
			c-0.7-0.2-1.1-0.9-0.9-1.5c0.2-0.7,0.9-1.1,1.5-0.9l0.6,0.2c0.7,0.2,1.1,0.9,0.9,1.5C322.7,153,322.2,153.3,321.6,153.3z
			 M313.8,151.2c-0.1,0-0.2,0-0.3,0l-0.6-0.2c-0.7-0.2-1.1-0.9-0.9-1.5c0.2-0.7,0.9-1.1,1.5-0.9l0.6,0.2c0.7,0.2,1.1,0.9,0.9,1.5
			C314.8,150.8,314.3,151.2,313.8,151.2z M305.9,149.1c-0.1,0-0.2,0-0.3,0l-0.6-0.2c-0.7-0.2-1.1-0.9-0.9-1.5
			c0.2-0.7,0.9-1.1,1.5-0.9l0.6,0.2c0.7,0.2,1.1,0.9,0.9,1.5C307,148.7,306.4,149.1,305.9,149.1z M298,147.1c-0.1,0-0.2,0-0.3,0
			l-0.6-0.2c-0.7-0.2-1.1-0.9-0.9-1.5c0.2-0.7,0.9-1.1,1.5-0.9l0.6,0.2c0.7,0.2,1.1,0.9,0.9,1.5C299.1,146.7,298.5,147.1,298,147.1z
			 M290.1,145.1c-0.1,0-0.2,0-0.3,0l-0.6-0.2c-0.7-0.2-1.1-0.9-0.9-1.5c0.2-0.7,0.9-1.1,1.5-0.9l0.6,0.2c0.7,0.2,1.1,0.9,0.9,1.5
			C291.2,144.7,290.6,145.1,290.1,145.1z M282.2,143.1c-0.1,0-0.2,0-0.3,0l-0.6-0.1c-0.7-0.2-1.1-0.8-0.9-1.5
			c0.2-0.7,0.8-1.1,1.5-0.9l0.6,0.1c0.7,0.2,1.1,0.8,0.9,1.5C283.2,142.7,282.7,143.1,282.2,143.1z M274.2,141.2c-0.1,0-0.2,0-0.3,0
			l-0.6-0.1c-0.7-0.2-1.1-0.8-0.9-1.5c0.2-0.7,0.8-1.1,1.5-0.9l0.6,0.1c0.7,0.2,1.1,0.8,0.9,1.5
			C275.3,140.8,274.8,141.2,274.2,141.2z M266.3,139.3c-0.1,0-0.2,0-0.3,0l-0.6-0.1c-0.7-0.2-1.1-0.8-0.9-1.5
			c0.2-0.7,0.8-1.1,1.5-0.9l0.6,0.1c0.7,0.2,1.1,0.8,0.9,1.5C267.4,138.9,266.9,139.3,266.3,139.3z M258.3,137.5c-0.1,0-0.2,0-0.3,0
			l-0.6-0.1c-0.7-0.2-1.1-0.8-1-1.5c0.2-0.7,0.8-1.1,1.5-1l0.6,0.1c0.7,0.2,1.1,0.8,0.9,1.5C259.4,137.1,258.9,137.5,258.3,137.5z
			 M250.4,135.7c-0.1,0-0.2,0-0.3,0l-0.6-0.1c-0.7-0.1-1.1-0.8-1-1.5c0.1-0.7,0.8-1.1,1.5-1l0.6,0.1c0.7,0.1,1.1,0.8,1,1.5
			C251.5,135.3,251,135.7,250.4,135.7z M242.4,134c-0.1,0-0.2,0-0.3,0l-0.6-0.1c-0.7-0.1-1.1-0.8-1-1.5c0.1-0.7,0.8-1.1,1.5-1
			l0.6,0.1c0.7,0.1,1.1,0.8,1,1.5C243.5,133.6,243,134,242.4,134z M234.4,132.3c-0.1,0-0.2,0-0.3,0l-0.6-0.1c-0.7-0.1-1.1-0.8-1-1.5
			s0.8-1.1,1.5-1l0.6,0.1c0.7,0.1,1.1,0.8,1,1.5C235.5,131.9,235,132.3,234.4,132.3z M226.4,130.7c-0.1,0-0.2,0-0.2,0l-0.6-0.1
			c-0.7-0.1-1.1-0.8-1-1.5c0.1-0.7,0.8-1.1,1.5-1l0.6,0.1c0.7,0.1,1.1,0.8,1,1.5C227.5,130.3,227,130.7,226.4,130.7z M218.4,129.1
			c-0.1,0-0.2,0-0.2,0l-0.6-0.1c-0.7-0.1-1.1-0.8-1-1.5c0.1-0.7,0.8-1.1,1.5-1l0.6,0.1c0.7,0.1,1.1,0.8,1,1.5
			C219.5,128.7,219,129.1,218.4,129.1z M210.4,127.6c-0.1,0-0.1,0-0.2,0l-0.6-0.1c-0.7-0.1-1.1-0.8-1-1.5c0.1-0.7,0.8-1.1,1.5-1
			l0.6,0.1c0.7,0.1,1.1,0.8,1,1.5C211.5,127.2,211,127.6,210.4,127.6z M202.4,126.2c-0.1,0-0.1,0-0.2,0l-0.6-0.1
			c-0.7-0.1-1.1-0.8-1-1.5c0.1-0.7,0.8-1.1,1.5-1l0.6,0.1c0.7,0.1,1.1,0.8,1,1.5C203.5,125.8,203,126.2,202.4,126.2z M194.3,124.8
			c-0.1,0-0.1,0-0.2,0l-0.6-0.1c-0.7-0.1-1.1-0.8-1-1.4c0.1-0.7,0.8-1.1,1.4-1l0.6,0.1c0.7,0.1,1.1,0.8,1,1.4
			C195.5,124.4,194.9,124.8,194.3,124.8z M186.3,123.5c-0.1,0-0.1,0-0.2,0l-0.6-0.1c-0.7-0.1-1.2-0.8-1-1.4s0.7-1.2,1.4-1l0.6,0.1
			c0.7,0.1,1.2,0.8,1,1.4C187.4,123.1,186.9,123.5,186.3,123.5z M178.2,122.3c-0.1,0-0.1,0-0.2,0l-0.6-0.1c-0.7-0.1-1.2-0.7-1.1-1.4
			s0.7-1.2,1.4-1.1l0.6,0.1c0.7,0.1,1.2,0.7,1.1,1.4C179.4,121.8,178.8,122.3,178.2,122.3z M170.1,121.1c-0.1,0-0.1,0-0.2,0
			l-0.6-0.1c-0.7-0.1-1.2-0.7-1.1-1.4c0.1-0.7,0.7-1.2,1.4-1.1l0.6,0.1c0.7,0.1,1.2,0.7,1.1,1.4
			C171.3,120.7,170.7,121.1,170.1,121.1z M162,120c-0.1,0-0.1,0-0.2,0l-0.6-0.1c-0.7-0.1-1.2-0.7-1.1-1.4c0.1-0.7,0.7-1.2,1.4-1.1
			l0.6,0.1c0.7,0.1,1.2,0.7,1.1,1.4C163.2,119.6,162.7,120,162,120z M153.9,119c0,0-0.1,0-0.2,0l-0.6-0.1c-0.7-0.1-1.2-0.7-1.1-1.4
			c0.1-0.7,0.7-1.2,1.4-1.1l0.6,0.1c0.7,0.1,1.2,0.7,1.1,1.4C155.1,118.5,154.6,119,153.9,119z M145.8,118.1c0,0-0.1,0-0.1,0
			l-0.6-0.1c-0.7-0.1-1.2-0.7-1.1-1.4s0.7-1.2,1.4-1.1l0.6,0.1c0.7,0.1,1.2,0.7,1.1,1.4C147,117.6,146.5,118.1,145.8,118.1z
			 M137.7,117.2c0,0-0.1,0-0.1,0l-0.6-0.1c-0.7-0.1-1.2-0.7-1.1-1.4c0.1-0.7,0.7-1.2,1.4-1.1l0.6,0.1c0.7,0.1,1.2,0.7,1.1,1.4
			C138.9,116.7,138.4,117.2,137.7,117.2z M129.6,116.5c0,0-0.1,0-0.1,0l-0.6-0.1c-0.7-0.1-1.2-0.7-1.1-1.4c0.1-0.7,0.7-1.2,1.4-1.1
			l0.6,0.1c0.7,0.1,1.2,0.7,1.1,1.4C130.8,116,130.3,116.5,129.6,116.5z"/>
	</g>
	<g>
		<circle fill="#EE596C" cx="323.1" cy="153" r="9.6"/>
		<path fill="#0B3B58" d="M323.1,163.6c-5.8,0-10.6-4.8-10.6-10.6c0-5.8,4.8-10.6,10.6-10.6s10.6,4.8,10.6,10.6
			C333.8,158.9,329,163.6,323.1,163.6z M323.1,144.4c-4.7,0-8.6,3.9-8.6,8.6s3.9,8.6,8.6,8.6s8.6-3.9,8.6-8.6
			S327.9,144.4,323.1,144.4z"/>
	</g>
	<g>
		<circle fill="#EE596C" cx="102" cy="211.6" r="9.6"/>
		<path fill="#0B3B58" d="M102,222.3c-5.8,0-10.6-4.8-10.6-10.6S96.2,201,102,201s10.6,4.8,10.6,10.6S107.9,222.3,102,222.3z
			 M102,203c-4.7,0-8.6,3.9-8.6,8.6s3.9,8.6,8.6,8.6s8.6-3.9,8.6-8.6S106.8,203,102,203z"/>
	</g>
	<g>
		<circle fill="#EE596C" cx="200.4" cy="330.5" r="9.6"/>
		<path fill="#0B3B58" d="M200.4,341.1c-5.8,0-10.6-4.8-10.6-10.6s4.8-10.6,10.6-10.6c5.8,0,10.6,4.8,10.6,10.6
			S206.2,341.1,200.4,341.1z M200.4,321.9c-4.7,0-8.6,3.9-8.6,8.6s3.9,8.6,8.6,8.6s8.6-3.9,8.6-8.6S205.1,321.9,200.4,321.9z"/>
	</g>
	<g>
		<circle fill="#EE596C" cx="210" cy="94.1" r="9.6"/>
		<path fill="#0B3B58" d="M210,104.7c-5.8,0-10.6-4.8-10.6-10.6s4.8-10.6,10.6-10.6s10.6,4.8,10.6,10.6S215.8,104.7,210,104.7z
			 M210,85.5c-4.7,0-8.6,3.9-8.6,8.6s3.9,8.6,8.6,8.6s8.6-3.9,8.6-8.6S214.7,85.5,210,85.5z"/>
	</g>
	<g>
		<path fill="#FFFFFF" d="M268.9,234.5c-0.2,0-0.4-0.1-0.6-0.2l-0.5-0.3c-0.6-0.3-0.8-1.1-0.5-1.7c0.3-0.6,1.1-0.8,1.7-0.5l0.5,0.3
			c0.6,0.3,0.8,1.1,0.5,1.7C269.7,234.3,269.3,234.5,268.9,234.5z M261.8,230.4c-0.2,0-0.4-0.1-0.6-0.2l-0.5-0.3
			c-0.6-0.4-0.8-1.1-0.4-1.7c0.4-0.6,1.1-0.8,1.7-0.4l0.5,0.3c0.6,0.4,0.8,1.1,0.4,1.7C262.6,230.1,262.2,230.4,261.8,230.4z
			 M254.8,226.1c-0.2,0-0.4-0.1-0.7-0.2l-0.5-0.3c-0.6-0.4-0.8-1.1-0.4-1.7c0.4-0.6,1.1-0.8,1.7-0.4l0.5,0.3
			c0.6,0.4,0.8,1.1,0.4,1.7C255.6,225.9,255.2,226.1,254.8,226.1z M247.8,221.8c-0.2,0-0.5-0.1-0.7-0.2l-0.5-0.3
			c-0.6-0.4-0.8-1.1-0.4-1.7s1.1-0.8,1.7-0.4l0.5,0.3c0.6,0.4,0.8,1.1,0.4,1.7C248.6,221.6,248.2,221.8,247.8,221.8z M240.9,217.4
			c-0.2,0-0.5-0.1-0.7-0.2l-0.5-0.3c-0.6-0.4-0.8-1.2-0.4-1.7c0.4-0.6,1.2-0.8,1.7-0.4l0.5,0.3c0.6,0.4,0.8,1.2,0.4,1.7
			C241.7,217.2,241.3,217.4,240.9,217.4z M234,213c-0.2,0-0.5-0.1-0.7-0.2l-0.5-0.3c-0.6-0.4-0.7-1.2-0.4-1.7
			c0.4-0.6,1.2-0.7,1.7-0.4l0.5,0.3c0.6,0.4,0.7,1.2,0.4,1.7C234.8,212.8,234.4,213,234,213z M227.2,208.4c-0.2,0-0.5-0.1-0.7-0.2
			l-0.5-0.4c-0.6-0.4-0.7-1.2-0.3-1.7c0.4-0.6,1.2-0.7,1.7-0.3l0.5,0.4c0.6,0.4,0.7,1.2,0.3,1.7C228,208.2,227.6,208.4,227.2,208.4z
			 M220.5,203.8c-0.2,0-0.5-0.1-0.7-0.2l-0.5-0.4c-0.6-0.4-0.7-1.2-0.3-1.8c0.4-0.6,1.2-0.7,1.8-0.3l0.5,0.4
			c0.6,0.4,0.7,1.2,0.3,1.8C221.3,203.6,220.9,203.8,220.5,203.8z M213.8,199.1c-0.3,0-0.5-0.1-0.7-0.2l-0.5-0.4
			c-0.6-0.4-0.7-1.2-0.3-1.8c0.4-0.6,1.2-0.7,1.8-0.3l0.5,0.4c0.6,0.4,0.7,1.2,0.3,1.8C214.6,198.9,214.2,199.1,213.8,199.1z
			 M207.2,194.3c-0.3,0-0.5-0.1-0.7-0.2l-0.5-0.4c-0.6-0.4-0.7-1.2-0.3-1.8c0.4-0.6,1.2-0.7,1.8-0.3l0.5,0.4
			c0.6,0.4,0.7,1.2,0.3,1.8C207.9,194.1,207.5,194.3,207.2,194.3z M200.6,189.4c-0.3,0-0.5-0.1-0.8-0.3l-0.5-0.4
			c-0.6-0.4-0.7-1.2-0.2-1.8c0.4-0.6,1.2-0.7,1.8-0.2l0.5,0.4c0.6,0.4,0.7,1.2,0.2,1.8C201.4,189.2,201,189.4,200.6,189.4z
			 M194.1,184.3c-0.3,0-0.5-0.1-0.8-0.3l-0.5-0.4c-0.5-0.4-0.6-1.2-0.2-1.8c0.4-0.5,1.2-0.6,1.8-0.2l0.5,0.4
			c0.5,0.4,0.6,1.2,0.2,1.8C194.9,184.2,194.5,184.3,194.1,184.3z M187.7,179.2c-0.3,0-0.6-0.1-0.8-0.3l-0.5-0.4
			c-0.5-0.4-0.6-1.2-0.2-1.8c0.4-0.5,1.2-0.6,1.8-0.2l0.5,0.4c0.5,0.4,0.6,1.2,0.2,1.8C188.5,179.1,188.1,179.2,187.7,179.2z
			 M181.4,174c-0.3,0-0.6-0.1-0.8-0.3l-0.5-0.4c-0.5-0.4-0.6-1.2-0.2-1.8c0.4-0.5,1.2-0.6,1.8-0.2l0.5,0.4c0.5,0.4,0.6,1.2,0.2,1.8
			C182.1,173.9,181.8,174,181.4,174z M175.2,168.7c-0.3,0-0.6-0.1-0.8-0.3L174,168c-0.5-0.5-0.6-1.3-0.1-1.8
			c0.5-0.5,1.2-0.6,1.7-0.1l0.5,0.4c0.5,0.5,0.6,1.2,0.1,1.8C175.9,168.5,175.6,168.7,175.2,168.7z M169.1,163.3
			c-0.3,0-0.6-0.1-0.8-0.3l-0.5-0.4c-0.5-0.5-0.6-1.3-0.1-1.8c0.5-0.5,1.3-0.6,1.8-0.1l0.5,0.4c0.5,0.5,0.6,1.3,0.1,1.8
			C169.8,163.1,169.4,163.3,169.1,163.3z M163.1,157.7c-0.3,0-0.6-0.1-0.9-0.3l-0.5-0.4c-0.5-0.5-0.5-1.3,0-1.8
			c0.5-0.5,1.3-0.5,1.8,0l0.5,0.4c0.5,0.5,0.5,1.3,0.1,1.8C163.8,157.6,163.4,157.7,163.1,157.7z M157.2,152c-0.3,0-0.6-0.1-0.9-0.4
			l-0.5-0.4c-0.5-0.5-0.5-1.3,0-1.8c0.5-0.5,1.3-0.5,1.8,0l0.4,0.4c0.5,0.5,0.5,1.3,0,1.8C157.8,151.9,157.5,152,157.2,152z
			 M151.4,146.3c-0.3,0-0.7-0.1-0.9-0.4l-0.4-0.5c-0.5-0.5-0.5-1.3,0-1.8c0.5-0.5,1.3-0.5,1.8,0l0.4,0.4c0.5,0.5,0.5,1.3,0,1.8
			C152,146.1,151.7,146.3,151.4,146.3z M145.7,140.3c-0.3,0-0.7-0.1-0.9-0.4l-0.4-0.5c-0.5-0.5-0.4-1.3,0.1-1.8
			c0.5-0.5,1.3-0.4,1.8,0.1l0.4,0.5c0.5,0.5,0.5,1.3-0.1,1.8C146.3,140.2,146,140.3,145.7,140.3z M140.2,134.3
			c-0.3,0-0.7-0.1-0.9-0.4l-0.4-0.5c-0.5-0.5-0.4-1.3,0.1-1.8s1.3-0.4,1.8,0.1l0.4,0.5c0.5,0.5,0.4,1.3-0.1,1.8
			C140.8,134.2,140.5,134.3,140.2,134.3z M134.8,128.2c-0.4,0-0.7-0.1-1-0.4l-0.4-0.5c-0.5-0.5-0.4-1.3,0.1-1.8
			c0.5-0.5,1.3-0.4,1.8,0.1l0.4,0.5c0.5,0.5,0.4,1.3-0.1,1.8C135.4,128.1,135.1,128.2,134.8,128.2z M129.5,121.9
			c-0.4,0-0.7-0.2-1-0.5l-0.4-0.5c-0.4-0.5-0.4-1.3,0.2-1.8c0.5-0.4,1.3-0.4,1.8,0.2l0.4,0.5c0.4,0.5,0.4,1.3-0.2,1.8
			C130.1,121.8,129.8,121.9,129.5,121.9z"/>
	</g>
	<g>
		<circle fill="#EE596C" cx="268.9" cy="233.2" r="9.6"/>
		<path fill="#0B3B58" d="M268.9,243.9c-3.7,0-7.2-2-9.1-5.2c-3-5-1.3-11.5,3.7-14.5c1.6-1,3.5-1.5,5.4-1.5c3.7,0,7.2,2,9.1,5.2
			c3,5,1.3,11.5-3.7,14.5C272.6,243.3,270.8,243.9,268.9,243.9z M268.8,224.6c-1.5,0-3.1,0.4-4.4,1.2c-4.1,2.4-5.4,7.7-3,11.8
			c1.5,2.6,4.4,4.2,7.4,4.2c1.5,0,3.1-0.4,4.4-1.2c4.1-2.4,5.4-7.7,3-11.8C274.7,226.2,271.9,224.6,268.8,224.6z"/>
	</g>
	<g>
		<g>
			<path fill="#FFFFFF" d="M548.9,97.3h-41.1c-4.7,0-8.5-3.8-8.5-8.5V45.9c0-4.7,3.8-8.5,8.5-8.5h41.1c4.7,0,8.5,3.8,8.5,8.5v42.9
				C557.4,93.5,553.6,97.3,548.9,97.3z"/>
		</g>
		<g>
			<path fill="#CFD8DE" d="M548.9,90.8h-41.1c-4.7,0-8.5-3.8-8.5-8.5v6.6c0,4.7,3.8,8.5,8.5,8.5h41.1c4.7,0,8.5-3.8,8.5-8.5v-6.6
				C557.4,87,553.6,90.8,548.9,90.8z"/>
		</g>
		<g>
			<path fill="#0B3B58" d="M548.9,98.3h-41.1c-5.2,0-9.5-4.3-9.5-9.5V45.9c0-5.2,4.3-9.5,9.5-9.5h41.1c5.2,0,9.5,4.3,9.5,9.5v42.9
				C558.4,94.1,554.2,98.3,548.9,98.3z M507.9,38.4c-4.1,0-7.5,3.4-7.5,7.5v42.9c0,4.1,3.4,7.5,7.5,7.5h41.1c4.1,0,7.5-3.4,7.5-7.5
				V45.9c0-4.1-3.4-7.5-7.5-7.5H507.9z"/>
		</g>
		<g>
			<g>
				<path fill="#EE596C" d="M527.9,55.7c0,0.1,0,0.2,0,0.3c0,3.7,0,7.5,0,11.2c0,0.3,0.1,0.5,0.3,0.7c2.7,2.6,5.3,5.3,8,8
					c0.1,0.1,0.1,0.1,0.2,0.1c-3.4,3.2-8.9,4.3-13.7,1.6c-4.8-2.7-7.1-8.6-5.4-13.8C519.1,58.4,524,55.8,527.9,55.7z"/>
			</g>
			<g>
				<path fill="#7DC271" d="M540.1,66.9c-3.7,0-7.5,0-11.2,0c0-3.7,0-7.4,0-11.2c2.6,0.1,4.9,1,6.9,2.7
					C538.5,60.6,539.9,63.4,540.1,66.9z"/>
			</g>
			<g>
				<path fill="#FBEA75" d="M529.7,67.9c3.4,0,6.9,0,10.4,0c-0.2,2.8-1.2,5.3-3,7.3C534.5,72.7,532.3,70.5,529.7,67.9z"/>
			</g>
		</g>
	</g>
	<g>
		<g>
			<path fill="#FFFFFF" d="M548.9,169.1h-41.1c-4.7,0-8.5-3.8-8.5-8.5v-42.9c0-4.7,3.8-8.5,8.5-8.5h41.1c4.7,0,8.5,3.8,8.5,8.5v42.9
				C557.4,165.3,553.6,169.1,548.9,169.1z"/>
		</g>
		<g>
			<path fill="#CFD8DE" d="M548.9,162.6h-41.1c-4.7,0-8.5-3.8-8.5-8.5v6.6c0,4.7,3.8,8.5,8.5,8.5h41.1c4.7,0,8.5-3.8,8.5-8.5v-6.6
				C557.4,158.8,553.6,162.6,548.9,162.6z"/>
		</g>
		<g>
			<path fill="#0B3B58" d="M548.9,170.1h-41.1c-5.2,0-9.5-4.3-9.5-9.5v-42.9c0-5.2,4.3-9.5,9.5-9.5h41.1c5.2,0,9.5,4.3,9.5,9.5v42.9
				C558.4,165.9,554.2,170.1,548.9,170.1z M507.9,110.2c-4.1,0-7.5,3.4-7.5,7.5v42.9c0,4.1,3.4,7.5,7.5,7.5h41.1
				c4.1,0,7.5-3.4,7.5-7.5v-42.9c0-4.1-3.4-7.5-7.5-7.5H507.9z"/>
		</g>
		<g>
			<g>
				<path fill="#0D9AB4" d="M530.8,148.6c-1.6,0-3.2,0-4.8,0c0-6.4,0-12.8,0-19.3c1.6,0,3.2,0,4.8,0
					C530.8,135.7,530.8,142.1,530.8,148.6z"/>
			</g>
			<g>
				<path fill="#0D9AB4" d="M533.7,134.1c1.6,0,3.2,0,4.8,0c0,4.8,0,9.6,0,14.4c-1.6,0-3.2,0-4.8,0
					C533.7,143.8,533.7,138.9,533.7,134.1z"/>
			</g>
			<g>
				<path fill="#0D9AB4" d="M523.1,148.6c-1.6,0-3.2,0-4.8,0c0-3.5,0-7,0-10.6c1.6,0,3.2,0,4.8,0C523.1,141.5,523.1,145,523.1,148.6
					z"/>
			</g>
		</g>
	</g>
	<g>
		<g>
			<path fill="#FFFFFF" d="M548.9,240.9h-41.1c-4.7,0-8.5-3.8-8.5-8.5v-42.9c0-4.7,3.8-8.5,8.5-8.5h41.1c4.7,0,8.5,3.8,8.5,8.5v42.9
				C557.4,237.1,553.6,240.9,548.9,240.9z"/>
		</g>
		<g>
			<path fill="#CFD8DE" d="M548.9,234.3h-41.1c-4.7,0-8.5-3.8-8.5-8.5v6.6c0,4.7,3.8,8.5,8.5,8.5h41.1c4.7,0,8.5-3.8,8.5-8.5v-6.6
				C557.4,230.5,553.6,234.3,548.9,234.3z"/>
		</g>
		<g>
			<path fill="#0B3B58" d="M548.9,241.9h-41.1c-5.2,0-9.5-4.3-9.5-9.5v-42.9c0-5.2,4.3-9.5,9.5-9.5h41.1c5.2,0,9.5,4.3,9.5,9.5v42.9
				C558.4,237.6,554.2,241.9,548.9,241.9z M507.9,182c-4.1,0-7.5,3.4-7.5,7.5v42.9c0,4.1,3.4,7.5,7.5,7.5h41.1
				c4.1,0,7.5-3.4,7.5-7.5v-42.9c0-4.1-3.4-7.5-7.5-7.5H507.9z"/>
		</g>
		<g>
			<g>
				<path fill="#0B3B58" d="M520.3,217.5l-1.9-1.3l6.6-9.7c0.2-0.2,0.4-0.4,0.7-0.5c0.3-0.1,0.6,0,0.8,0.2l6.7,4.6l3.8-6.1l1.9,1.2
					l-4.5,7.1c-0.2,0.3-0.4,0.4-0.7,0.5c-0.3,0.1-0.6,0-0.9-0.2l-6.7-4.7L520.3,217.5z"/>
			</g>
			<g>
				<circle fill="#EE596C" cx="519.3" cy="216.8" r="2.9"/>
			</g>
			<g>
				<circle fill="#EE596C" cx="525.8" cy="207.1" r="2.9"/>
			</g>
			<g>
				<circle fill="#EE596C" cx="538.1" cy="205.3" r="2.9"/>
			</g>
		</g>
	</g>
	<g>
		<g>
			<path fill="#FFFFFF" d="M548.9,312.7h-41.1c-4.7,0-8.5-3.8-8.5-8.5v-42.9c0-4.7,3.8-8.5,8.5-8.5h41.1c4.7,0,8.5,3.8,8.5,8.5v42.9
				C557.4,308.9,553.6,312.7,548.9,312.7z"/>
		</g>
		<g>
			<path fill="#CFD8DE" d="M548.9,306.1h-41.1c-4.7,0-8.5-3.8-8.5-8.5v6.6c0,4.7,3.8,8.5,8.5,8.5h41.1c4.7,0,8.5-3.8,8.5-8.5v-6.6
				C557.4,302.3,553.6,306.1,548.9,306.1z"/>
		</g>
		<g>
			<path fill="#0B3B58" d="M548.9,313.7h-41.1c-5.2,0-9.5-4.3-9.5-9.5v-42.9c0-5.2,4.3-9.5,9.5-9.5h41.1c5.2,0,9.5,4.3,9.5,9.5v42.9
				C558.4,309.4,554.2,313.7,548.9,313.7z M507.9,253.8c-4.1,0-7.5,3.4-7.5,7.5v42.9c0,4.1,3.4,7.5,7.5,7.5h41.1
				c4.1,0,7.5-3.4,7.5-7.5v-42.9c0-4.1-3.4-7.5-7.5-7.5H507.9z"/>
		</g>
		<g>
			<g>
				<g>
					<g>
						<path fill="#7DC271" d="M534.4,288.8c0-1.8,0-3.5,0-5.3c1,0,2,0,3,0c0,2.8,0,5.6,0,8.3c-6,0-11.9,0-17.9,0c0-6,0-11.9,0-17.9
							c3.2,0,6.3,0,9.5,0c0,1,0,2,0,3c-2.1,0-4.3,0-6.4,0c0,4,0,7.9,0,11.9C526.4,288.8,530.4,288.8,534.4,288.8z"/>
					</g>
					<g>
						<path fill="#7DC271" d="M535.9,274.4c0.7,0.7,1.4,1.4,2.1,2.1c-3.2,3.2-6.4,6.4-9.6,9.6c-1.3-1.3-2.7-2.7-4-4.1
							c0.6-0.6,1.4-1.4,2.1-2.1c0.6,0.6,1.3,1.3,1.9,1.9C530.9,279.3,533.4,276.8,535.9,274.4z"/>
					</g>
				</g>
			</g>
		</g>
	</g>
	<g>
		<g>
			<path fill="#FFFFFF" d="M548.9,384.5h-41.1c-4.7,0-8.5-3.8-8.5-8.5v-42.9c0-4.7,3.8-8.5,8.5-8.5h41.1c4.7,0,8.5,3.8,8.5,8.5v42.9
				C557.4,380.6,553.6,384.5,548.9,384.5z"/>
		</g>
		<g>
			<path fill="#CFD8DE" d="M548.9,377.9h-41.1c-4.7,0-8.5-3.8-8.5-8.5v6.6c0,4.7,3.8,8.5,8.5,8.5h41.1c4.7,0,8.5-3.8,8.5-8.5v-6.6
				C557.4,374.1,553.6,377.9,548.9,377.9z"/>
		</g>
		<g>
			<path fill="#0B3B58" d="M548.9,385.5h-41.1c-5.2,0-9.5-4.3-9.5-9.5v-42.9c0-5.2,4.3-9.5,9.5-9.5h41.1c5.2,0,9.5,4.3,9.5,9.5v42.9
				C558.4,381.2,554.2,385.5,548.9,385.5z M507.9,325.6c-4.1,0-7.5,3.4-7.5,7.5v42.9c0,4.1,3.4,7.5,7.5,7.5h41.1
				c4.1,0,7.5-3.4,7.5-7.5v-42.9c0-4.1-3.4-7.5-7.5-7.5H507.9z"/>
		</g>
		<g>
			<g>
				<g>
					<circle fill="#EE596C" cx="518.4" cy="354.5" r="2"/>
				</g>
				<g>
					<path fill="#0D9AB4" d="M539.5,355.6h-14.4c-0.6,0-1.1-0.5-1.1-1.1s0.5-1.1,1.1-1.1h14.4c0.6,0,1.1,0.5,1.1,1.1
						S540.1,355.6,539.5,355.6z"/>
				</g>
			</g>
			<g>
				<g>
					<circle fill="#EE596C" cx="518.4" cy="347" r="2"/>
				</g>
				<g>
					<path fill="#0D9AB4" d="M539.5,348.1h-14.4c-0.6,0-1.1-0.5-1.1-1.1s0.5-1.1,1.1-1.1h14.4c0.6,0,1.1,0.5,1.1,1.1
						S540.1,348.1,539.5,348.1z"/>
				</g>
			</g>
			<g>
				<g>
					<circle fill="#EE596C" cx="518.4" cy="362" r="2"/>
				</g>
				<g>
					<path fill="#0D9AB4" d="M539.5,363.1h-14.4c-0.6,0-1.1-0.5-1.1-1.1s0.5-1.1,1.1-1.1h14.4c0.6,0,1.1,0.5,1.1,1.1
						S540.1,363.1,539.5,363.1z"/>
				</g>
			</g>
		</g>
	</g>
	<g>
		<g>
			<path fill="#0B3B58" d="M207.6,359.7c-33.3,0-66.1-11.4-92.3-32.2c-26.6-21.1-45.4-51-52.8-84.2c-8.6-38.8-1.7-78.6,19.6-112.2
				c21.3-33.5,54.4-56.8,93.2-65.4c10.7-2.4,21.6-3.6,32.5-3.6c33.3,0,66.1,11.4,92.3,32.2c26.6,21.1,45.4,51,52.8,84.2
				c8.6,38.8,1.7,78.6-19.6,112.2c-21.3,33.5-54.4,56.8-93.2,65.4C229.4,358.5,218.5,359.7,207.6,359.7z M207.9,64.2
				c-10.7,0-21.5,1.2-32.1,3.5c-38.3,8.5-70.9,31.5-91.9,64.5c-21,33.1-27.9,72.4-19.4,110.6c7.3,32.8,25.8,62.3,52.1,83.1
				c25.9,20.5,58.2,31.8,91.1,31.8c10.7,0,21.5-1.2,32.1-3.5c38.3-8.5,70.9-31.5,91.9-64.5c21-33.1,27.9-72.4,19.4-110.6
				c-7.3-32.8-25.8-62.3-52.1-83.1C273.1,75.5,240.7,64.2,207.9,64.2z"/>
		</g>
	</g>
	<g>
		<g>
			<circle fill="#EE596C" cx="119.3" cy="112.3" r="38.3"/>
			<path fill="#0B3B58" d="M119.3,151.6c-21.7,0-39.3-17.6-39.3-39.3S97.6,73,119.3,73s39.3,17.6,39.3,39.3S140.9,151.6,119.3,151.6
				z M119.3,75C98.7,75,82,91.7,82,112.3c0,20.6,16.7,37.3,37.3,37.3c20.6,0,37.3-16.7,37.3-37.3C156.6,91.7,139.8,75,119.3,75z"/>
		</g>
		<g>
			<g>
				<g>
					<path fill="#FFFFFF" d="M117.2,118.1c-0.8-0.6-1.4-1.1-2.1-1.7c-5.5,4.5-16.6,13.6-16.8,13.7l1.1,1.4l-0.1-0.2l1.2,1.5
						c0.6-0.5,12.1-9.9,17.3-14.2C117.7,118.5,117.5,118.3,117.2,118.1z"/>
				</g>
			</g>
			<g>
				<g>
					<path fill="#FFFFFF" d="M120.6,111.9c0.2,0.2,0.5,0.4,0.8,0.6c0.7,0.5,1.3,1,1.9,1.6c1.9-1.9,3.8-4.4,3.8-7.9c0-5-3.5-9-7.8-9
						c-4.3,0-7.8,4-7.8,8.8l1.7,0.2l-1.7-0.2c-0.1,0.5-0.5,5.3,6.8,10.7c4.8,3.5,5.7,8,4.5,10.8c-1.2,2.7-4.2,3.8-8,3.1l-0.4,1.9
						l0.4-1.9c-2-0.4-3.9-1.3-5.5-2.4c-1,0.8-1.9,1.6-2.8,2.3c2.2,1.7,4.8,3,7.6,3.6h0l0,0c1,0.2,2,0.3,2.9,0.3c4.8,0,7.7-2.6,9-5.4
						c2.1-4.9-0.2-11-5.6-14.9c-5.5-4.1-5.4-7.5-5.4-7.5l0,0c0-0.1,0-0.2,0-0.2c0-3.1,1.9-5.5,4.3-5.5c2.4,0,4.3,2.5,4.3,5.5
						C123.6,108.7,122.2,110.5,120.6,111.9z"/>
				</g>
			</g>
			<g>
				<g>
					<path fill="#FFFFFF" d="M119.3,90.3c-11.8,0-21.5,9.7-21.5,21.6c0,5,1.4,9.7,3.9,13.5c0.9-0.7,1.8-1.4,2.7-2.2
						c-2-3.2-3.1-7.1-3.1-11.2c0-10,8.1-18.1,18-18.1c9.9,0,18,8.1,18,18.1c0,5.2-2.3,10.2-6.2,13.7l2.3,2.6
						c4.7-4.1,7.4-10,7.4-16.3C140.8,99.9,131.1,90.3,119.3,90.3z"/>
				</g>
			</g>
		</g>
	</g>
</g>
</svg>
