<?xml version="1.0" encoding="utf-8"?>
<!-- Generator: Adobe Illustrator 18.1.1, SVG Export Plug-In . SVG Version: 6.00 Build 0)  -->
<!DOCTYPE svg PUBLIC "-//W3C//DTD SVG 1.1//EN" "http://www.w3.org/Graphics/SVG/1.1/DTD/svg11.dtd">
<svg version="1.1" id="Validation_x5F_Check" xmlns="http://www.w3.org/2000/svg" xmlns:xlink="http://www.w3.org/1999/xlink"
	 x="0px" y="0px" width="570px" height="400.7px" viewBox="0 0 570 400.7" enable-background="new 0 0 570 400.7"
	 xml:space="preserve">
<g>
	<g>
		<g>
			<path fill="#E5D4BE" d="M210,385.4L35.5,294.6c-4.2-2.3-4-8.3,0.3-10.3l68.3-32.5c7-3.3,15.1-3.5,22.2-0.4l170.3,69
				c5.5,2.4,6.5,9.7,1.8,13.5L256,375.1C230.3,392.4,219,390.2,210,385.4z"/>
		</g>
		<g>
			<g>
				<path fill="#CFD8DE" d="M143.8,228.7l168.1,66.6c10.8,4.3,13.3,18.4,4.6,26.2L256,375.1c-8.3,7.3-20.2,8.8-30,3.7L55.1,289.5
					c-11.4-6-11.3-22.4,0.3-28.2l63.2-31.6C126.4,225.8,135.6,225.4,143.8,228.7z"/>
				<path fill="#0B3B58" d="M238.3,382.9c-4.4,0-8.9-1.1-12.8-3.1L54.6,290.4c-5.7-3-9.1-8.6-9-15.1c0.1-6.4,3.5-12,9.3-14.9
					l63.2-31.6c4.4-2.2,9.4-3.4,14.3-3.4c4.1,0,8,0.8,11.8,2.2l168.1,66.6c5.4,2.1,9.2,6.8,10.2,12.6c1,5.7-1,11.4-5.3,15.3
					l-60.5,53.7C251.6,380.4,245,382.9,238.3,382.9z M132.4,227.5c-4.6,0-9.3,1.1-13.4,3.2l-63.2,31.6c-5.1,2.5-8.1,7.4-8.2,13.1
					s2.9,10.6,8,13.3l170.9,89.3c3.7,1.9,7.8,2.9,11.9,2.9c6.3,0,12.3-2.3,17-6.5l60.5-53.7c3.8-3.4,5.6-8.4,4.7-13.4
					c-0.9-5-4.3-9.2-9-11l-168.1-66.6C139.9,228.2,136.2,227.5,132.4,227.5z"/>
			</g>
			<g>
				<path fill="#FFFFFF" d="M226.5,359.4L54.8,271.9c-4.1-2.2-4-8.1,0.2-10.1l66.5-32.6c6.8-3.3,14.8-3.6,21.8-0.6l167.3,66.2
					c5.4,2.3,6.5,9.5,1.9,13.2l-58.7,48.7C246,363,235.3,364.1,226.5,359.4z"/>
			</g>
			<g>
				<g>
					<defs>
						<polygon id="SVGID_1_" points="151.9,231.6 63.2,275.7 183.7,337.6 271.2,279.2 						"/>
					</defs>
					<clipPath id="SVGID_2_">
						<use xlink:href="#SVGID_1_"  overflow="visible"/>
					</clipPath>
					<polygon clip-path="url(#SVGID_2_)" fill="#B7D893" points="63.2,232.6 67.9,232.5 71.4,337.6 63.2,337.6 					"/>
					<polygon clip-path="url(#SVGID_2_)" fill="#B7D893" points="67.9,232.5 71.6,232.4 75.2,337.6 71.4,337.6 					"/>
					<polygon clip-path="url(#SVGID_2_)" fill="#B6D793" points="71.6,232.4 75.3,232.2 78.9,337.6 75.2,337.6 					"/>
					<polygon clip-path="url(#SVGID_2_)" fill="#B5D794" points="75.3,232.2 79.1,232.1 82.6,337.6 78.9,337.6 					"/>
					<polygon clip-path="url(#SVGID_2_)" fill="#B4D795" points="79.1,232.1 82.8,232 86.4,337.6 82.6,337.6 					"/>
					<polygon clip-path="url(#SVGID_2_)" fill="#B3D695" points="82.8,232 86.5,231.8 90.1,337.6 86.4,337.6 					"/>
					<polygon clip-path="url(#SVGID_2_)" fill="#B2D696" points="86.5,231.8 90.3,231.7 93.9,337.6 90.1,337.6 					"/>
					<polygon clip-path="url(#SVGID_2_)" fill="#B1D697" points="90.3,231.7 92.6,231.6 94,231.6 97.6,337.6 93.9,337.6 					"/>
					<polygon clip-path="url(#SVGID_2_)" fill="#B0D597" points="97.8,231.6 101.3,337.6 97.6,337.6 94,231.6 					"/>
					<polygon clip-path="url(#SVGID_2_)" fill="#AFD598" points="101.5,231.6 105.1,337.6 101.3,337.6 97.8,231.6 					"/>
					<polygon clip-path="url(#SVGID_2_)" fill="#AED498" points="105.2,231.6 108.8,337.6 105.1,337.6 101.5,231.6 					"/>
					<polygon clip-path="url(#SVGID_2_)" fill="#ADD499" points="109,231.6 112.6,337.6 108.8,337.6 105.2,231.6 					"/>
					<polygon clip-path="url(#SVGID_2_)" fill="#ABD49A" points="112.7,231.6 116.3,337.6 112.6,337.6 109,231.6 					"/>
					<polygon clip-path="url(#SVGID_2_)" fill="#AAD39A" points="116.5,231.6 120,337.6 116.3,337.6 112.7,231.6 					"/>
					<polygon clip-path="url(#SVGID_2_)" fill="#A9D39B" points="120.2,231.6 123.8,337.6 120,337.6 116.5,231.6 					"/>
					<polygon clip-path="url(#SVGID_2_)" fill="#A8D39C" points="123.9,231.6 127.5,337.6 123.8,337.6 120.2,231.6 					"/>
					<polygon clip-path="url(#SVGID_2_)" fill="#A7D29C" points="127.7,231.6 131.3,337.6 127.5,337.6 123.9,231.6 					"/>
					<polygon clip-path="url(#SVGID_2_)" fill="#A6D29D" points="131.4,231.6 135,337.6 131.3,337.6 127.7,231.6 					"/>
					<polygon clip-path="url(#SVGID_2_)" fill="#A5D19D" points="135.2,231.6 138.7,337.6 135,337.6 131.4,231.6 					"/>
					<polygon clip-path="url(#SVGID_2_)" fill="#A4D19E" points="138.9,231.6 142.5,337.6 138.7,337.6 135.2,231.6 					"/>
					<polygon clip-path="url(#SVGID_2_)" fill="#A3D19F" points="142.6,231.6 146.2,337.6 142.5,337.6 138.9,231.6 					"/>
					<polygon clip-path="url(#SVGID_2_)" fill="#A2D09F" points="146.4,231.6 150,337.6 146.2,337.6 142.6,231.6 					"/>
					<polygon clip-path="url(#SVGID_2_)" fill="#A1D0A0" points="150.1,231.6 153.7,337.6 150,337.6 146.4,231.6 					"/>
					<polygon clip-path="url(#SVGID_2_)" fill="#A0D0A0" points="153.9,231.6 157.4,337.6 153.7,337.6 150.1,231.6 					"/>
					<polygon clip-path="url(#SVGID_2_)" fill="#9FCFA1" points="157.6,231.6 161.2,337.6 157.4,337.6 153.9,231.6 					"/>
					<polygon clip-path="url(#SVGID_2_)" fill="#9ECFA2" points="161.4,231.6 164.9,337.6 161.2,337.6 157.6,231.6 					"/>
					<polygon clip-path="url(#SVGID_2_)" fill="#9CCFA2" points="165.1,231.6 168.7,337.6 164.9,337.6 161.4,231.6 					"/>
					<polygon clip-path="url(#SVGID_2_)" fill="#9BCEA3" points="168.8,231.6 172.4,337.6 168.7,337.6 165.1,231.6 					"/>
					<polygon clip-path="url(#SVGID_2_)" fill="#9ACEA4" points="172.6,231.6 176.2,337.6 172.4,337.6 168.8,231.6 					"/>
					<polygon clip-path="url(#SVGID_2_)" fill="#99CEA4" points="176.3,231.6 179.9,337.6 176.2,337.6 172.6,231.6 					"/>
					<polygon clip-path="url(#SVGID_2_)" fill="#98CDA5" points="180.1,231.6 183.6,337.6 179.9,337.6 176.3,231.6 					"/>
					<polygon clip-path="url(#SVGID_2_)" fill="#97CDA5" points="183.8,231.6 187.4,337.6 183.6,337.6 180.1,231.6 					"/>
					<polygon clip-path="url(#SVGID_2_)" fill="#96CDA6" points="187.5,231.6 191.1,337.6 187.4,337.6 183.8,231.6 					"/>
					<polygon clip-path="url(#SVGID_2_)" fill="#95CCA7" points="191.3,231.6 194.9,337.6 191.1,337.6 187.5,231.6 					"/>
					<polygon clip-path="url(#SVGID_2_)" fill="#94CCA7" points="195,231.6 198.6,337.6 194.9,337.6 191.3,231.6 					"/>
					<polygon clip-path="url(#SVGID_2_)" fill="#93CCA8" points="198.8,231.6 202.3,337.6 198.6,337.6 195,231.6 					"/>
					<polygon clip-path="url(#SVGID_2_)" fill="#92CBA8" points="202.5,231.6 206.1,337.6 202.3,337.6 198.8,231.6 					"/>
					<polygon clip-path="url(#SVGID_2_)" fill="#90CBA9" points="206.2,231.6 209.8,337.6 206.1,337.6 202.5,231.6 					"/>
					<polygon clip-path="url(#SVGID_2_)" fill="#8FCBAA" points="210,231.6 213.6,337.6 209.8,337.6 206.2,231.6 					"/>
					<polygon clip-path="url(#SVGID_2_)" fill="#8ECAAA" points="213.7,231.6 217.3,337.6 213.6,337.6 210,231.6 					"/>
					<polygon clip-path="url(#SVGID_2_)" fill="#8DCAAB" points="217.5,231.6 221,337.6 217.3,337.6 213.7,231.6 					"/>
					<polygon clip-path="url(#SVGID_2_)" fill="#8CCAAB" points="221.2,231.6 224.8,337.6 221,337.6 217.5,231.6 					"/>
					<polygon clip-path="url(#SVGID_2_)" fill="#8BC9AC" points="224.9,231.6 228.5,337.6 224.8,337.6 221.2,231.6 					"/>
					<polygon clip-path="url(#SVGID_2_)" fill="#8AC9AD" points="228.7,231.6 232.3,337.6 228.5,337.6 224.9,231.6 					"/>
					<polygon clip-path="url(#SVGID_2_)" fill="#88C9AD" points="232.4,231.6 236,337.6 232.3,337.6 228.7,231.6 					"/>
					<polygon clip-path="url(#SVGID_2_)" fill="#87C8AE" points="236.2,231.6 239.7,337.6 236,337.6 232.4,231.6 					"/>
					<polygon clip-path="url(#SVGID_2_)" fill="#86C8AE" points="239.9,231.6 243.5,337.6 243,337.6 239.7,337.6 236.2,231.6 					
						"/>
					<polygon clip-path="url(#SVGID_2_)" fill="#85C8AF" points="243.6,231.6 247.2,337.5 243.5,337.6 239.9,231.6 					"/>
					<polygon clip-path="url(#SVGID_2_)" fill="#84C8B0" points="247.4,231.6 251,337.3 247.2,337.5 243.6,231.6 					"/>
					<polygon clip-path="url(#SVGID_2_)" fill="#82C7B0" points="251.1,231.6 254.7,337.2 251,337.3 247.4,231.6 					"/>
					<polygon clip-path="url(#SVGID_2_)" fill="#81C7B1" points="254.9,231.6 258.4,337.1 254.7,337.2 251.1,231.6 					"/>
					<polygon clip-path="url(#SVGID_2_)" fill="#80C7B1" points="258.6,231.6 262.2,337 258.4,337.1 254.9,231.6 					"/>
					<polygon clip-path="url(#SVGID_2_)" fill="#7FC6B2" points="262.4,231.6 265.9,336.8 262.2,337 258.6,231.6 					"/>
					<polygon clip-path="url(#SVGID_2_)" fill="#7EC6B3" points="266.1,231.6 269.6,336.7 265.9,336.8 262.4,231.6 					"/>
					<polygon clip-path="url(#SVGID_2_)" fill="#7DC6B3" points="269.8,231.6 271.2,271.7 271.2,336.7 269.6,336.7 266.1,231.6 
											"/>
					<polygon clip-path="url(#SVGID_2_)" fill="#7BC5B4" points="271.2,271.7 269.8,231.6 271.2,231.6 					"/>
				</g>
			</g>
			<g>
				<line fill="#FFFFFF" x1="96.3" y1="302.9" x2="75.5" y2="292"/>
				
					<rect x="74.1" y="296.4" transform="matrix(0.8867 0.4623 -0.4623 0.8867 147.2411 -6.0086)" fill="#0B3B58" width="23.5" height="2"/>
			</g>
			<g>
				<line fill="#FFF1DB" x1="271.2" y1="279.2" x2="183.7" y2="337.6"/>
				<path fill="#0B3B58" d="M183.7,338.6c-0.3,0-0.6-0.2-0.8-0.4c-0.3-0.5-0.2-1.1,0.3-1.4l87.5-58.4c0.5-0.3,1.1-0.2,1.4,0.3
					c0.3,0.5,0.2,1.1-0.3,1.4l-87.5,58.4C184.1,338.5,183.9,338.6,183.7,338.6z"/>
			</g>
			<g>
				<line fill="#FFF1DB" x1="63.2" y1="275.7" x2="151.9" y2="231.6"/>
				<path fill="#0B3B58" d="M63.2,276.7c-0.4,0-0.7-0.2-0.9-0.6c-0.2-0.5,0-1.1,0.5-1.3l88.7-44.1c0.5-0.2,1.1,0,1.3,0.5
					c0.2,0.5,0,1.1-0.5,1.3l-88.7,44.1C63.5,276.7,63.4,276.7,63.2,276.7z"/>
			</g>
			<g>
				<path fill="#0B3B58" d="M238.1,363.3c-4.2,0-8.4-1-12.1-3L54.3,272.8c-2.2-1.2-3.6-3.5-3.6-6s1.5-4.8,3.7-5.9l66.5-32.6
					c3.7-1.8,7.9-2.8,12-2.8c3.7,0,7.2,0.7,10.6,2.1l167.3,66.2c2.9,1.2,4.9,3.8,5.3,6.9c0.5,3.1-0.7,6.1-3.1,8.1l-58.7,48.7
					C249.8,361.2,244,363.3,238.1,363.3z M133,227.5c-3.8,0-7.7,0.9-11.1,2.6l-66.5,32.6c-1.6,0.8-2.6,2.3-2.6,4.1
					c0,1.8,0.9,3.4,2.5,4.2l171.7,87.5c3.4,1.8,7.3,2.8,11.2,2.8c5.5,0,10.8-1.9,15.1-5.4l58.7-48.7c1.8-1.5,2.7-3.9,2.4-6.2
					c-0.3-2.4-1.9-4.4-4.1-5.3l-167.3-66.2C139.7,228.1,136.4,227.5,133,227.5z"/>
			</g>
			<g>
				
					<ellipse transform="matrix(0.9999 1.116294e-02 -1.116294e-02 0.9999 3.6141 -2.8153)" fill="#FFFFFF" cx="254" cy="322.3" rx="15.6" ry="9.1"/>
				<path fill="#0B3B58" d="M254.2,332.5l-0.3,0c-9.3-0.1-16.5-4.6-16.5-10.3c0.1-5.6,7.3-9.9,16.4-9.9l0.3,0
					c4.3,0,8.4,1.1,11.5,2.9c3.2,1.9,5,4.6,5,7.4C270.5,328.1,263.3,332.5,254.2,332.5z M253.8,314.2c-7.9,0-14.3,3.6-14.4,8
					c0,4.4,6.6,8.2,14.5,8.3l0.3,0c7.9,0,14.3-3.6,14.4-8c0-2.1-1.4-4.1-4-5.6c-2.8-1.7-6.5-2.6-10.5-2.7L253.8,314.2z"/>
			</g>
		</g>
	</g>
	<g>
		<g>
			<path fill="#FFFFFF" d="M172.2,287c-1.3,0.3-2.6,0.5-3.8,0.7c0.9,8.5,2.6,25.6,2.6,25.9l2.7-0.1l-0.3,0l2.8-0.1
				c-0.1-0.9-1.9-18.7-2.7-26.7C173.1,286.8,172.7,286.9,172.2,287z"/>
		</g>
		<g>
			<path fill="#FFFFFF" d="M167.4,279.4c0.5-0.1,0.9-0.2,1.4-0.3c1.2-0.3,2.4-0.5,3.7-0.7c-0.6-3.2-2.1-6.8-6.5-9.4
				c-6.1-3.6-14.1-3.2-17.8,0.9c-3.7,4.1-1.7,10.3,4.2,13.8l1.8-1.5l-1.8,1.5c0.6,0.4,6.2,4.3,19.1,1.4c8.4-2,14.8,0.5,17.1,3.6
				c2.3,3.1,1.2,6.8-3.1,9.9l2,1.7l-2-1.7c-2.2,1.6-4.9,2.8-7.8,3.5c0.2,1.5,0.3,2.9,0.4,4.2c4.1-0.8,7.8-2.4,11-4.6l0,0l0,0
				c1.2-0.8,2.1-1.7,2.9-2.6c4.1-4.5,3.4-9.2,1-12.4c-4.2-5.5-13.8-7.8-23.3-5.6c-9.8,2.3-13.8-0.3-13.9-0.3l0,0
				c-0.2-0.1-0.2-0.1-0.3-0.2c-3.8-2.2-5.2-5.9-3.1-8.1s6.8-2.3,10.6-0.1C166,274.1,167,276.8,167.4,279.4z"/>
		</g>
		<g>
			<path fill="#FFFFFF" d="M139.5,264.8c-10.2,11.2-6.5,27.4,8.3,36c6.2,3.6,13.2,5.7,20,6.1c-0.1-1.3-0.3-2.7-0.4-4.1
				c-5.6-0.4-11.4-2.2-16.6-5.2c-12.4-7.3-15.5-20.8-6.9-30.2c8.5-9.4,25.5-11.2,37.9-3.9c6.5,3.8,10.7,9.6,11.6,15.8l5.2-0.3
				c-1.1-7.4-6.1-14.3-13.8-18.8C169.9,251.5,149.7,253.6,139.5,264.8z"/>
		</g>
	</g>
	<g>
		
			<rect x="258.8" y="71.6" transform="matrix(0.3843 0.9232 -0.9232 0.3843 253.8788 -176.6966)" fill="#E5D4BE" width="1.3" height="60.7"/>
	</g>
	<g>
		
			<rect x="252.2" y="193.1" transform="matrix(0.522 0.8529 -0.8529 0.522 311.73 -108.6444)" fill="#E5D4BE" width="1.3" height="61.5"/>
	</g>
	<g>
		<polygon fill="#E5D4BE" points="219.2,244.2 222.1,234.5 240.2,241.2 		"/>
	</g>
	<g>
		
			<rect x="276.3" y="209.6" transform="matrix(0.5435 0.8394 -0.8394 0.5435 323.1445 -125.4596)" fill="#E5D4BE" width="1.3" height="49.6"/>
	</g>
	<g>
		<path fill="none" stroke="#E5D4BE" stroke-width="0.918" stroke-miterlimit="10" d="M302.2,224.9"/>
	</g>
	<g>
		<polygon fill="#E5D4BE" points="302,217.3 304.3,226.5 283.6,219.6 		"/>
	</g>
	<g>
		<path fill="#FFFFFF" d="M259.2,177l57.6-31.1c2.9-1.6,6.3-2,9.4-1.2l104.1,25.2c2.7,0.7,3.4,4.1,1.2,5.8l-49,37
			c-3.5,2.6-8,3.4-12.2,2.2l-110.7-33.1C257.5,181,257.2,178.1,259.2,177z"/>
		<path fill="#0B3B58" d="M374.3,216.4c-1.4,0-2.9-0.2-4.2-0.6l-110.7-33.1c-1.4-0.4-2.4-1.6-2.5-3.1s0.6-2.8,1.9-3.5l57.6-31.1
			c3.1-1.7,6.8-2.1,10.2-1.3l104.1,25.2c1.6,0.4,2.9,1.7,3.2,3.3s-0.3,3.3-1.6,4.3l-49,37C380.6,215.4,377.5,216.4,374.3,216.4z
			 M323.2,145.3c-2,0-4,0.5-5.8,1.5l-57.6,31.1c-0.5,0.3-0.8,0.8-0.8,1.5c0.1,0.6,0.5,1.1,1.1,1.3l110.7,33.1
			c3.8,1.1,8.1,0.4,11.2-2l49-37c0.7-0.5,1-1.4,0.8-2.2c-0.2-0.9-0.8-1.5-1.7-1.7L326,145.6C325.1,145.4,324.1,145.3,323.2,145.3z"
			/>
	</g>
	<g>
		<path fill="#7DC271" d="M306.2,170c-0.3,0-0.7-0.2-0.9-0.5c-0.3-0.5-0.1-1.1,0.4-1.4l24.9-14.4c0.5-0.3,1.1-0.1,1.4,0.4
			c0.3,0.5,0.1,1.1-0.4,1.4l-24.9,14.4C306.5,170,306.3,170,306.2,170z"/>
	</g>
	<g>
		<path fill="#7DC271" d="M332,177.5c-0.3,0-0.7-0.2-0.8-0.5c-0.3-0.5-0.2-1.1,0.3-1.4l24.2-15.2c0.5-0.3,1.1-0.2,1.4,0.3
			c0.3,0.5,0.2,1.1-0.3,1.4l-24.2,15.2C332.4,177.4,332.2,177.5,332,177.5z"/>
	</g>
	<g>
		<path fill="#7DC271" d="M357.4,184.5c-0.3,0-0.6-0.2-0.8-0.4c-0.3-0.5-0.2-1.1,0.3-1.4l23.5-16c0.5-0.3,1.1-0.2,1.4,0.3
			c0.3,0.5,0.2,1.1-0.3,1.4l-23.5,16C357.8,184.4,357.6,184.5,357.4,184.5z"/>
	</g>
	<g>
		<path fill="#7DC271" d="M289.6,182c-2.3,0-4-0.8-4.9-2.1c-0.5-0.8-0.6-1.8-0.3-2.8c0.6-1.7,2.4-3.4,4.8-4.3
			c1.4-0.6,2.9-0.9,4.4-0.9c2.3,0,4,0.8,4.9,2.1c0.5,0.8,0.6,1.8,0.3,2.8c-0.6,1.7-2.4,3.4-4.8,4.3C292.6,181.7,291.1,182,289.6,182
			z M293.7,173.8c-1.2,0-2.4,0.3-3.6,0.7c-1.8,0.7-3.3,2-3.6,3.1c-0.1,0.4-0.1,0.8,0.1,1.2c0.4,0.7,1.6,1.2,3.1,1.2
			c1.2,0,2.4-0.3,3.6-0.7c1.8-0.7,3.3-2,3.6-3.1c0.1-0.4,0.1-0.8-0.1-1.2C296.4,174.3,295.2,173.8,293.7,173.8z"/>
	</g>
	<g>
		<path fill="#52BDC5" d="M367.1,204.9c-0.3,0-0.5-0.1-0.7-0.3c-0.4-0.4-0.4-1,0-1.4c0,0,3.1-3.3,3-6.5c0-1.3-0.6-2.5-1.7-3.5
			c-0.9-0.8-0.7-1.4-0.5-1.8c0.5-0.7,0.8-1.3,10.5,2.7l0.9-2.1c0.2-0.4,0.6-0.6,1-0.6c0,0,2.4,0.1,3.8-1.6c1.1-1.4,1.2-2.1,1.3-2.8
			c0-0.3,0.1-0.6,0.2-0.9c0.1-0.5,0.4-1.5,6.5-2.1l1.2-2.9c0.2-0.4,0.6-0.7,1-0.6c0.1,0,5.3,0.4,7.4-2.2c1-1.2,1.2-2.9,0.6-5.1
			c-0.1-0.5,0.2-1.1,0.7-1.2c0.5-0.1,1.1,0.2,1.2,0.7c0.7,2.9,0.4,5.2-1.1,6.9c-2.3,2.7-6.6,2.9-8.4,2.9l-1.2,2.8
			c-0.1,0.3-0.5,0.6-0.8,0.6c-2.1,0.2-4.7,0.6-5.4,1c0,0.1,0,0.2,0,0.3c-0.1,0.9-0.2,2-1.8,3.9c-1.5,1.8-3.6,2.2-4.7,2.3l-1,2.4
			c-0.2,0.5-0.8,0.7-1.3,0.5c-2.5-1.1-5.4-2.2-7.3-2.9c0.6,0.9,0.9,2,0.9,3.1c0.1,4.1-3.4,7.8-3.6,8
			C367.7,204.8,367.4,204.9,367.1,204.9z"/>
	</g>
	<g>
		<path fill="#7DC271" d="M316.7,190.3c-2.3,0-4-0.8-4.9-2.1c-0.5-0.8-0.6-1.8-0.3-2.8c0.6-1.7,2.4-3.4,4.8-4.3
			c1.4-0.6,2.9-0.9,4.4-0.9c2.3,0,4,0.8,4.9,2.1c0.5,0.8,0.6,1.8,0.3,2.8c-0.6,1.7-2.4,3.4-4.8,4.3
			C319.6,190,318.1,190.3,316.7,190.3z M320.7,182.1c-1.2,0-2.4,0.3-3.6,0.7c-1.8,0.7-3.3,2-3.6,3.1c-0.1,0.4-0.1,0.8,0.1,1.2
			c0.4,0.7,1.6,1.2,3.1,1.2c1.2,0,2.4-0.3,3.6-0.7c1.8-0.7,3.3-2,3.6-3.1c0.1-0.4,0.1-0.8-0.1-1.2
			C323.4,182.5,322.2,182.1,320.7,182.1z"/>
	</g>
	<g>
		<path fill="#7DC271" d="M342.9,197.2c-2.3,0-4-0.8-4.9-2.1c-0.5-0.8-0.6-1.8-0.3-2.8c0.6-1.7,2.4-3.4,4.8-4.3
			c1.4-0.6,2.9-0.9,4.4-0.9c2.3,0,4,0.8,4.9,2.1c0.5,0.8,0.6,1.8,0.3,2.8c-0.6,1.7-2.4,3.4-4.8,4.3
			C345.8,196.8,344.3,197.2,342.9,197.2z M346.9,189c-1.2,0-2.4,0.3-3.6,0.7c-1.8,0.7-3.3,2-3.6,3.1c-0.1,0.4-0.1,0.8,0.1,1.2
			c0.4,0.7,1.6,1.2,3.1,1.2c1.2,0,2.4-0.3,3.6-0.7c1.8-0.7,3.3-2,3.6-3.1c0.1-0.4,0.1-0.8-0.1-1.2C349.6,189.4,348.4,189,346.9,189z
			"/>
	</g>
	<g>
		
			<rect x="233.9" y="150.8" transform="matrix(0.9642 0.265 -0.265 0.9642 49.2002 -61.7654)" fill="#E5D4BE" width="39.1" height="1.3"/>
	</g>
	<g>
		<polygon fill="#EE596C" points="161.7,119.7 181.3,124.8 195.9,118.9 222.1,125.2 207.3,131.5 230.5,137.6 207.1,148.2 
			183.6,141.6 166.7,148.8 140.4,141.2 157.5,134.3 137.8,128.8 		"/>
		<path fill="#0B3B58" d="M166.7,149.8c-0.1,0-0.2,0-0.3,0l-26.2-7.7c-0.4-0.1-0.7-0.5-0.7-0.9s0.2-0.8,0.6-1l14.3-5.7l-16.9-4.7
			c-0.4-0.1-0.7-0.5-0.7-0.9c0-0.4,0.2-0.8,0.6-1l23.9-9.1c0.2-0.1,0.4-0.1,0.6,0l19.3,5l14.3-5.8c0.2-0.1,0.4-0.1,0.6,0l26.2,6.3
			c0.4,0.1,0.7,0.5,0.8,0.9c0,0.4-0.2,0.8-0.6,1l-12.1,5.2l20.4,5.3c0.4,0.1,0.7,0.5,0.7,0.9c0,0.4-0.2,0.8-0.6,1l-23.4,10.6
			c-0.2,0.1-0.5,0.1-0.7,0.1l-23.2-6.4l-16.6,7.1C166.9,149.8,166.8,149.8,166.7,149.8z M143.5,141l23.1,6.8l16.6-7.1
			c0.2-0.1,0.4-0.1,0.7,0l23.2,6.4l20.5-9.3l-20.5-5.3c-0.4-0.1-0.7-0.5-0.7-0.9s0.2-0.8,0.6-1l12-5.2L196,120l-14.3,5.8
			c-0.2,0.1-0.4,0.1-0.6,0l-19.3-5l-20.8,8l16.8,4.7c0.4,0.1,0.7,0.5,0.7,0.9c0,0.4-0.2,0.8-0.6,1L143.5,141z"/>
	</g>
	<g>
		
			<rect x="418.5" y="198.7" transform="matrix(0.9658 0.2595 -0.2595 0.9658 66.4975 -105.1221)" fill="#E5D4BE" width="25.8" height="1.3"/>
	</g>
	<g>
		
			<rect x="410.1" y="110.6" transform="matrix(0.5345 0.8452 -0.8452 0.5345 306.3819 -283.723)" fill="#E5D4BE" width="1.3" height="51.2"/>
	</g>
	<g>
		<polygon fill="#52BDC5" points="463.6,241.5 496.8,210.3 509.1,213.5 505.9,216.4 517.6,219.5 535.6,201.1 524.4,198.4 
			522.2,200.5 494.3,193.7 445.9,236.2 		"/>
		<path fill="#0B3B58" d="M463.6,242.5c-0.1,0-0.2,0-0.3,0l-17.7-5.3c-0.3-0.1-0.6-0.4-0.7-0.7c-0.1-0.4,0-0.7,0.3-1l48.4-42.5
			c0.2-0.2,0.6-0.3,0.9-0.2l27.4,6.6l1.7-1.7c0.2-0.2,0.6-0.3,0.9-0.3l11.2,2.7c0.3,0.1,0.6,0.3,0.7,0.7s0,0.7-0.2,1l-17.9,18.5
			c-0.3,0.3-0.6,0.4-1,0.3l-11.7-3.1c-0.4-0.1-0.6-0.4-0.7-0.7c-0.1-0.4,0-0.7,0.3-1l1.9-1.8l-10-2.6l-32.9,30.9
			C464.1,242.4,463.8,242.5,463.6,242.5z M447.9,235.8l15.4,4.6l32.9-30.9c0.3-0.2,0.6-0.3,0.9-0.2l12.3,3.2
			c0.4,0.1,0.6,0.4,0.7,0.7s0,0.7-0.3,1l-1.9,1.8l9.4,2.5l16.3-16.8l-9-2.1l-1.7,1.7c-0.2,0.2-0.6,0.3-0.9,0.3l-27.4-6.7
			L447.9,235.8z"/>
	</g>
	<g>
		<g>
			<g>
				<g>
					<path fill="#52BDC5" d="M552.8,227.3c-0.9,0-1.8-0.1-2.7-0.2c-2.6-0.5-4.8-1.5-6.5-3c-1.1-1-5.3-4.9-5.3-4.9
						c-1.5-1.4-3.4-3-5.5-4.5c0,0-0.1-0.1-0.1-0.1c-0.3-0.3-0.5-0.7-0.3-1.1c0.1-0.4,0.5-0.7,0.9-0.7l1.4,0l0.8,0
						c2.6,0,5.2-0.2,7.9-0.5l1.4-0.1c2.1-0.2,4.2-0.4,6.3-0.5c0.4,0,0.8,0,1.2,0c4.1,0,8,1.6,10,4.2c1.8,2.4,1.9,4.9,0.3,7.2
						C560.8,225.7,557,227.3,552.8,227.3z"/>
				</g>
			</g>
			<g>
				<g>
					<path fill="#0B3B58" d="M552.2,212.7c3.9,0,7.5,1.5,9.2,3.8c1.6,2,1.6,4.1,0.3,6.1c-1.6,2.3-5.1,3.7-8.9,3.7
						c-0.8,0-1.7-0.1-2.6-0.2c-2.5-0.4-4.4-1.3-5.9-2.7c-1.8-1.6-3.5-3.2-5.3-4.9c-1.7-1.6-3.5-3.2-5.6-4.6c0,0,0,0-0.1-0.1
						c0.5,0,0.9,0,1.4,0c0.3,0,0.5,0,0.8,0c2.7,0,5.3-0.2,8-0.5c2.6-0.2,5.1-0.4,7.7-0.6C551.5,212.7,551.9,212.7,552.2,212.7
						 M552.2,210.7c-0.4,0-0.8,0-1.2,0c-2.1,0.2-4.2,0.3-6.3,0.5l-1.4,0.1c-2.6,0.2-5.2,0.4-7.8,0.5c-0.3,0-0.5,0-0.8,0l-0.7,0
						l-0.7,0c-0.9,0-1.6,0.5-1.9,1.3c-0.3,0.8,0,1.7,0.7,2.2c0.1,0.1,0.1,0.1,0.2,0.1c2.1,1.4,3.9,3,5.4,4.4l2.1,1.9
						c1.1,1,2.1,2,3.2,2.9c1.8,1.6,4.1,2.7,7,3.2c0.9,0.2,1.9,0.2,2.9,0.2c4.5,0,8.6-1.8,10.5-4.6c1.9-2.7,1.8-5.7-0.3-8.4
						C560.8,212.4,556.7,210.7,552.2,210.7L552.2,210.7z"/>
				</g>
			</g>
		</g>
		<g>
			<path fill="#FFFFFF" d="M559.6,218.4c-0.7,1.8-2.1,3.2-4.6,4c-2.4,0.9-5,1-7.6,0.4c1.3,1.4,5.1,2.6,8.7,1.6
				C559.6,223.3,561,220.6,559.6,218.4z"/>
		</g>
	</g>
	<g>
		
			<rect x="257" y="132.4" transform="matrix(0.9779 0.2092 -0.2092 0.9779 36.8204 -82.1344)" fill="#E5D4BE" width="299.4" height="1.3"/>
	</g>
	<g>
		<g>
			<path fill="#B7D893" d="M444,114.5c-0.3-0.3-0.8-0.7-1.2-1.2c-0.4-0.5-0.5-1-0.8-1.5c-0.7-1.3-2.3-2.1-4.6-2.4
				c-0.9-0.1-1.9-0.2-2.9-0.3c-3.6-0.5-5.3-2.3-4.3-4.4c0.2-0.5,0.5-1,0.8-1.4c1.2-1.6,0.7-2.9-1.2-4.1c-0.4-0.3-0.8-0.6-1.2-0.8
				c-2.4-1.5-1.7-4.1,2-5.6c1-0.4,2-0.8,2.9-1.3c1.3-0.7,2-1.6,2-2.6c0-0.6-0.1-1.2,0-1.8c0-2.1,3.2-3.9,7.1-4.1
				c0.8,0,1.5-0.1,2.3-0.1c2.9,0,5.1-0.8,6.6-2.2c0.9-0.8,1.7-1.6,3.1-2.2c2.3-0.9,5.4-1,7.5-0.2c0.9,0.3,1.8,0.6,2.6,0.9
				c1.7,0.6,3.5,0.7,5.5,0.3c1.1-0.2,2.1-0.5,3.2-0.7c4.2-0.9,7.9,0,9.1,2.2c0.2,0.4,0.4,0.7,0.6,1.1c0.7,1.3,2.3,2.2,4.8,2.4
				c0.8,0.1,1.5,0.2,2.3,0.3c4,0.5,6,2.4,4.7,4.6c-0.2,0.4-0.5,0.8-0.8,1.2c-1.1,1.5-0.6,2.8,1.1,4c0.4,0.3,0.8,0.6,1.2,0.8
				c2.5,1.5,1.7,4.2-2,5.6c-1,0.4-2,0.8-2.9,1.3c-1.4,0.8-2,1.7-2,2.8c0,0.5,0.1,1,0.1,1.4c0.1,2.2-3,4.1-7.1,4.3
				c-1.1,0-2.2,0.1-3.2,0.1c-2.2,0.1-3.9,0.7-5.2,1.8c-0.6,0.5-1.2,1-1.8,1.5c-2.1,1.7-6.3,2.3-9.2,1.3c-0.9-0.3-1.7-0.6-2.6-0.9
				c-1.9-0.7-3.9-0.7-6.2-0.3c-1.2,0.3-2.4,0.6-3.6,0.8C448.3,115.8,446.2,115.5,444,114.5z"/>
			<path fill="#0B3B58" d="M466.3,117.3c-1.3,0-2.5-0.2-3.6-0.6c-0.9-0.3-1.7-0.6-2.6-0.9c-1.7-0.6-3.5-0.7-5.6-0.2
				c-0.3,0.1-0.7,0.2-1,0.2c-0.8,0.2-1.7,0.4-2.6,0.5c-2.7,0.5-4.9,0.2-7.3-0.9c-0.1,0-0.2-0.1-0.3-0.2c-0.1-0.1-0.1-0.1-0.2-0.2
				c-0.3-0.3-0.7-0.7-1.1-1.1c-0.3-0.4-0.5-0.8-0.7-1.1c-0.1-0.2-0.1-0.3-0.2-0.5c-0.5-1-1.8-1.6-3.9-1.8c-0.4,0-0.7-0.1-1.1-0.1
				c-0.6-0.1-1.2-0.1-1.8-0.2c-2.6-0.4-4.4-1.4-5.1-2.8c-0.5-0.9-0.5-2,0-3c0.3-0.5,0.5-1,0.9-1.6c0.3-0.4,0.5-0.8,0.4-1.2
				c-0.1-0.4-0.6-1-1.4-1.5c-0.2-0.1-0.4-0.3-0.6-0.4c-0.2-0.1-0.3-0.3-0.5-0.4c-1.3-0.8-2-2-1.9-3.3c0.2-1.7,1.6-3.2,4.1-4.1
				c0.8-0.3,1.9-0.7,2.8-1.2c1-0.5,1.5-1.1,1.5-1.7c0-0.3,0-0.5,0-0.8c0-0.3,0-0.7,0-1c0.1-2.7,3.5-4.9,8-5.1c0.8,0,1.6-0.1,2.3-0.1
				c2.6,0,4.5-0.6,6-1.9l0.3-0.3c0.8-0.7,1.7-1.5,3.1-2.1c2.5-1,5.9-1.1,8.2-0.2c0.9,0.3,1.8,0.6,2.6,0.9c1.5,0.5,3.1,0.6,5,0.3
				c0.7-0.1,1.5-0.3,2.2-0.5l0.9-0.2c1.2-0.3,2.3-0.4,3.4-0.4c3.3,0,5.7,1.1,6.8,3.1c0.1,0.2,0.2,0.5,0.4,0.7l0.2,0.4
				c0.5,1,1.9,1.7,4,1.9l2.3,0.3c2.9,0.3,4.8,1.4,5.6,2.9c0.5,1,0.4,2.2-0.2,3.3l-0.1,0.2c-0.2,0.4-0.4,0.7-0.7,1.1
				c-0.3,0.4-0.5,0.8-0.4,1.1c0.1,0.4,0.5,0.9,1.3,1.4c0.2,0.1,0.4,0.3,0.6,0.4c0.2,0.1,0.4,0.3,0.6,0.4c1.3,0.8,2,2,1.9,3.3
				c-0.2,1.7-1.6,3.2-4.1,4.1c-1.2,0.5-2.1,0.8-2.8,1.2c-1.5,0.8-1.5,1.6-1.5,1.9c0,0.3,0,0.5,0,0.8c0,0.2,0,0.4,0,0.6
				c0.1,2.8-3.3,5.1-8,5.3c-0.5,0-1,0-1.5,0c-0.6,0-1.2,0-1.8,0.1c-2,0.1-3.5,0.6-4.6,1.5c-0.4,0.3-0.7,0.6-1,0.9
				c-0.3,0.2-0.5,0.5-0.8,0.7C471.4,116.5,468.9,117.3,466.3,117.3z M457.1,113.3c1.3,0,2.6,0.2,3.7,0.6c0.9,0.3,1.7,0.6,2.6,0.9
				c0.8,0.3,1.9,0.5,2.9,0.5c2.1,0,4.2-0.6,5.3-1.6c0.3-0.2,0.5-0.4,0.8-0.7c0.4-0.3,0.7-0.6,1.1-0.9c1.5-1.2,3.4-1.9,5.8-2
				c0.6,0,1.2,0,1.8-0.1c0.5,0,1,0,1.4,0c3.7-0.2,6.2-1.8,6.1-3.2l0-0.6c0-0.3,0-0.6,0-0.9c0-1,0.4-2.5,2.5-3.7
				c0.8-0.4,1.7-0.8,3-1.3c2-0.7,2.7-1.8,2.8-2.4c0.1-0.6-0.5-1.1-1-1.4c-0.3-0.2-0.5-0.3-0.7-0.5c-0.2-0.1-0.3-0.2-0.5-0.4
				c-1.2-0.8-2-1.7-2.2-2.7c-0.2-0.9,0.1-1.8,0.8-2.7c0.2-0.3,0.4-0.6,0.6-0.9l0.1-0.3c0.4-0.8,0.2-1.2,0.1-1.4
				c-0.3-0.7-1.6-1.5-4.1-1.8l-2.3-0.3c-2.8-0.3-4.7-1.3-5.6-3l-0.6-1.1c-0.7-1.3-2.5-2.1-5-2.1c-0.9,0-1.9,0.1-2.9,0.3l-0.9,0.2
				c-0.8,0.2-1.5,0.4-2.3,0.5c-2.2,0.4-4.2,0.3-6-0.4c-0.9-0.3-1.8-0.6-2.7-1c-1.9-0.7-4.8-0.6-6.8,0.2c-1.1,0.4-1.8,1.1-2.5,1.7
				l-0.3,0.3c-1.8,1.6-4.2,2.4-7.3,2.4c-0.8,0-1.5,0-2.3,0.1c-3.6,0.1-6.1,1.7-6.1,3.1c0,0.3,0,0.6,0,0.8c0,0.3,0,0.6,0,1
				c0,1-0.5,2.4-2.5,3.5c-1,0.5-2.1,1-3,1.3c-2,0.7-2.7,1.8-2.8,2.4c-0.1,0.6,0.5,1.1,0.9,1.4c0.2,0.1,0.5,0.3,0.7,0.5
				c0.2,0.1,0.3,0.2,0.5,0.4c1.3,0.8,2.1,1.7,2.3,2.8c0.2,0.9-0.1,1.8-0.8,2.7c-0.3,0.4-0.5,0.8-0.8,1.3c-0.2,0.4-0.2,0.8-0.1,1.2
				c0.3,0.6,1.5,1.4,3.6,1.7c0.6,0.1,1.1,0.1,1.7,0.2c0.4,0,0.7,0.1,1.1,0.1c2.7,0.3,4.5,1.3,5.4,2.9c0.1,0.2,0.2,0.4,0.3,0.6
				c0.1,0.3,0.3,0.6,0.4,0.8c0.2,0.3,0.6,0.6,0.8,0.9c0,0,0.1,0.1,0.1,0.1c1.9,0.9,3.8,1.1,6,0.7c0.8-0.1,1.7-0.3,2.5-0.5
				c0.3-0.1,0.7-0.2,1-0.2C455.1,113.4,456.1,113.3,457.1,113.3z"/>
		</g>
		<g>
			<path fill="#FFFFFF" d="M476.9,88.6c8,4.4,7.7,11.2-0.3,15.6c-7.8,4.6-20.8,5.2-28.4,1.3c-7.8-3.9-7.7-11,0.3-15.6
				C456.4,85.3,469.2,84.7,476.9,88.6z"/>
			<path fill="#0B3B58" d="M460.6,109.1c-4.9,0-9.4-0.9-12.8-2.7c-4-2-6.2-4.9-6.3-8.1c-0.1-3.4,2.2-6.7,6.5-9.3
				c4.4-2.6,10.4-4.1,16.5-4.1c4.9,0,9.5,1,12.9,2.7c4.1,2.3,6.4,5.3,6.4,8.5c0,3.3-2.4,6.5-6.7,8.8
				C472.8,107.7,466.7,109.1,460.6,109.1z M464.5,87c-5.8,0-11.4,1.4-15.5,3.8c-3.6,2.1-5.6,4.8-5.5,7.5c0.1,2.5,1.9,4.7,5.2,6.4
				c3.1,1.6,7.3,2.4,11.9,2.4c5.8,0,11.5-1.4,15.6-3.8c3.7-2,5.7-4.5,5.7-7.1c0-2.5-1.9-4.9-5.3-6.8C473.3,87.9,469.1,87,464.5,87z"
				/>
		</g>
		<g>
			<path fill="#0B3B58" d="M455.5,102.4c-0.5,0-1-0.4-1-1c0-0.6,0.4-1,1-1l8.4-0.4l0.2-9.5c0-0.6,0.5-1,1-1c0.6,0,1,0.5,1,1
				l-0.2,10.4c0,0.5-0.4,1-1,1L455.5,102.4C455.5,102.4,455.5,102.4,455.5,102.4z"/>
		</g>
	</g>
	<g>
		
			<rect x="368.6" y="82.1" transform="matrix(0.9861 0.166 -0.166 0.9861 19.1686 -63.8954)" fill="#E5D4BE" width="46.4" height="1.3"/>
	</g>
	<g>
		
			<rect x="384.7" y="33.6" transform="matrix(0.3705 0.9289 -0.9289 0.3705 288.9101 -326.5714)" fill="#E5D4BE" width="1.3" height="32.5"/>
	</g>
	<g>
		<g>
			<path fill="#FBEA75" d="M324.2,86.7c-1.1-0.3-1.5-0.8-1.4-1.5c0.5-2.4,1.1-4.8,1.6-7.2c0.1-0.4,0.2-0.8,0.3-1.2
				c0.3-1.3,2.6-2.7,5.9-3.4c6.2-1.3,12.5-2.6,18.7-3.9c0.9-0.2,1.7-0.4,2.6-0.5c2.8-0.6,5.1-0.3,5.4,0.8c0.3,1-1.4,2.5-4,3.6
				c-2.6,1.1-5.2,2.2-7.8,3.3c-3.1,1.4-5.5,2.9-7.5,4.5c-1.2,0.9-2.4,1.9-3.6,2.8C332,85.9,326.9,87.3,324.2,86.7z"/>
			<path fill="#0B3B58" d="M325.7,87.8c-0.6,0-1.2-0.1-1.7-0.2c-2.4-0.6-2.2-2.2-2.1-2.7c0.4-1.8,0.8-3.6,1.2-5.4l0.5-2.1
				c0.1-0.3,0.1-0.6,0.2-1c0.4-2.1,3.7-3.5,6.7-4.2c4.5-1,9.1-1.9,13.6-2.8l5.3-1.1c0.8-0.2,1.6-0.3,2.4-0.5c1-0.2,1.9-0.3,2.8-0.3
				c2.8,0,3.5,1.1,3.7,1.8c0.5,1.6-1.2,3.4-4.6,4.8c-2.6,1.1-5.2,2.2-7.8,3.3c-2.8,1.2-5.2,2.7-7.3,4.3l-3.6,2.8
				C332.9,86.5,328.8,87.8,325.7,87.8z M354.6,69.7c-0.7,0-1.5,0.1-2.4,0.3c-0.8,0.2-1.6,0.3-2.4,0.5l-5.3,1.1
				c-4.5,0.9-9.1,1.9-13.6,2.8c-3.4,0.7-5,2-5.1,2.6c-0.1,0.3-0.1,0.7-0.2,1l-0.5,2.1c-0.4,1.8-0.8,3.6-1.2,5.4
				c0,0.1,0.1,0.2,0.6,0.3c0.3,0.1,0.7,0.1,1.2,0.1c2.6,0,6.3-1.2,8.2-2.7l3.6-2.8c2.3-1.8,4.8-3.3,7.7-4.6c2.6-1.2,5.2-2.2,7.8-3.3
				c2.6-1.1,3.4-2.2,3.5-2.4C356.3,69.9,355.8,69.7,354.6,69.7z"/>
		</g>
		<g>
			<path fill="#FBEA75" d="M299.6,76.8c-1.7-0.4-2.8-0.8-3.3-1.6c-0.3-0.4-0.3-0.9,0-1.5c0.4-0.8,1.9-1.7,3.8-2.3
				c2.3-0.7,4.4-1.1,6.3-1.1c3.7-0.2,6.4,0.2,8.1,1.3c0.7,0.5,1,1.1,0.7,2c-0.4,0.9-1.9,1.8-4,2.5c-2.6,0.8-4.9,1.1-7,1.1
				C302.3,77.2,300.7,77,299.6,76.8z"/>
			<path fill="#0B3B58" d="M303.5,78.1c-1.6,0-3.1-0.1-4.1-0.4c-2.1-0.5-3.2-1.1-3.9-1.9c-0.5-0.8-0.6-1.7-0.1-2.6
				c0.8-1.5,3.3-2.5,4.4-2.8c2.2-0.7,4.3-1.1,6.6-1.2c4-0.2,6.9,0.3,8.7,1.5c1.2,0.8,1.6,2,1,3.2c-0.7,1.6-3.2,2.6-4.6,3
				c-2.4,0.8-4.7,1.1-7.3,1.2C304,78.1,303.7,78.1,303.5,78.1z M308,71.2c-0.5,0-1,0-1.5,0c-2.1,0.1-4.1,0.5-6.1,1.1
				c-2,0.6-3,1.4-3.2,1.8c-0.2,0.3-0.1,0.4,0,0.5c0.3,0.4,1.2,0.8,2.7,1.2c1.1,0.2,2.6,0.4,4.3,0.3c2.4-0.1,4.5-0.4,6.7-1.1
				c2-0.6,3.1-1.4,3.4-1.9c0.1-0.2,0.2-0.4-0.3-0.7C312.8,71.6,310.7,71.2,308,71.2z"/>
		</g>
		<g>
			<path fill="#FBEA75" d="M329.1,60.4c2.3,0.6,3.8,1.3,4,2.6c0.1,0.5-0.1,1.1-0.8,1.8c-0.9,0.8-2.2,1.5-4.1,2
				c-2.5,0.6-4.6,0.8-6.4,0.7c-3.4-0.2-5.6-1-6.3-2.6c-0.2-0.5-0.1-1.1,0.3-1.7c0.8-1.1,2.7-2.1,5.2-2.7c2.3-0.5,4.2-0.6,5.9-0.5
				C327.8,60.2,328.5,60.4,329.1,60.4z"/>
			<path fill="#0B3B58" d="M323,68.6c-0.4,0-0.9,0-1.3,0c-4-0.3-6.3-1.3-7.2-3.1c-0.3-0.6-0.4-1.5,0.4-2.7c0.9-1.3,3-2.4,5.8-3.1
				c1.7-0.4,3.2-0.6,4.8-0.6c0.5,0,1,0,1.4,0.1c0.6,0,1.2,0.1,1.7,0.2l0.5,0.1c0,0,0.1,0,0.1,0c2.2,0.6,4.4,1.4,4.8,3.4
				c0.1,0.9-0.2,1.8-1.1,2.7c-1,1-2.5,1.7-4.5,2.3C326.5,68.3,324.7,68.6,323,68.6z M325.6,61.1c-1.4,0-2.8,0.2-4.3,0.5
				c-2.2,0.5-4,1.3-4.6,2.3c-0.2,0.2-0.3,0.5-0.2,0.7c0.4,0.8,1.6,1.7,5.5,2c1.9,0.1,3.9-0.1,6.1-0.6c1.6-0.4,2.9-1,3.6-1.7
				c0.3-0.3,0.6-0.6,0.5-1c-0.1-0.7-1.2-1.3-3.2-1.8l-0.5-0.1c-0.5-0.1-1-0.1-1.6-0.2C326.4,61.1,326,61.1,325.6,61.1z"/>
		</g>
		<g>
			<path fill="#FBEA75" d="M302.4,89c-1.8-0.4-3-1.1-3.1-2.1c-0.1-0.8,0.4-1.7,2.2-2.8c1.5-0.9,3.3-1.5,5.3-1.9
				c2.5-0.5,4.5-0.6,6.2-0.3c2.1,0.2,3.6,0.8,4.1,1.8c0.3,0.4,0.3,0.9,0,1.5c-0.8,1.6-3.6,3-7.2,3.7c-2.5,0.5-4.6,0.6-6.4,0.3
				C303.1,89.1,302.7,89,302.4,89z"/>
			<path fill="#0B3B58" d="M305.6,90.3c-0.7,0-1.4,0-2.1-0.1c-0.3,0-0.6-0.1-0.9-0.1l-0.3,0c-1.1-0.3-3.7-0.9-3.9-3
				c-0.1-1.4,0.7-2.6,2.7-3.7c1.5-0.9,3.3-1.5,5.6-2c2.3-0.5,4.5-0.6,6.5-0.4c2.5,0.3,4.1,1,4.9,2.2c0.5,0.7,0.5,1.6,0,2.5
				c-1,1.9-3.9,3.4-7.9,4.2C308.5,90.1,307,90.3,305.6,90.3z M311,82.7c-1.3,0-2.6,0.1-4.1,0.4c-2.1,0.4-3.7,1-4.9,1.7
				c-0.8,0.5-1.8,1.2-1.7,1.8c0,0.3,0.4,0.8,2.4,1.3l0.2,0c0.2,0,0.5,0.1,0.8,0.1c1.9,0.2,3.8,0.1,6-0.3c3.7-0.7,5.9-2.1,6.5-3.2
				c0.2-0.3,0.1-0.4,0-0.5c-0.2-0.4-1-1-3.4-1.3C312.3,82.8,311.7,82.7,311,82.7z"/>
		</g>
		<g>
			<path fill="#FBEA75" d="M354,57.6c1.5,0.4,2.7,1,2.9,1.9c0.2,0.7-0.1,1.4-1.2,2.3c-1.5,1.1-3.5,1.9-5.9,2.4
				c-2.5,0.6-4.6,0.7-6.5,0.5c-2-0.2-3.5-0.6-4.3-1.5c-0.5-0.5-0.6-1.1-0.1-1.8c0.8-1.4,3.2-2.6,6.4-3.4c2.5-0.6,4.6-0.7,6.4-0.6
				C352.5,57.4,353.2,57.6,354,57.6z"/>
			<path fill="#0B3B58" d="M345,65.8c-0.6,0-1.1,0-1.7-0.1c-2.4-0.2-4-0.8-4.9-1.8c-0.8-0.9-0.9-1.9-0.3-3c1-1.6,3.5-3,7-3.9
				c2.4-0.6,4.6-0.8,6.7-0.7c0.6,0,1.1,0.1,1.6,0.2l0.7,0.1c0.1,0,0.1,0,0.1,0c1.4,0.4,3.2,1,3.6,2.7c0.3,1.1-0.3,2.2-1.6,3.3
				c-1.5,1.1-3.5,2-6.3,2.6C348.2,65.6,346.6,65.8,345,65.8z M350.6,58.4c-1.6,0-3.3,0.2-5.1,0.6c-3.4,0.8-5.2,2.1-5.7,2.9
				c-0.2,0.4-0.1,0.5,0,0.7c0.4,0.4,1.3,0.9,3.6,1.1c2,0.2,4,0,6.2-0.5c2.4-0.5,4.3-1.3,5.5-2.2c0.4-0.3,1-0.9,0.9-1.3
				c-0.1-0.2-0.4-0.7-2.1-1.2l-0.6-0.1c-0.5-0.1-1-0.1-1.5-0.2C351.3,58.4,351,58.4,350.6,58.4z"/>
		</g>
	</g>
	<g>
		
			<rect x="428.2" y="4.7" transform="matrix(0.362 0.9322 -0.9322 0.362 292.1084 -387.116)" fill="#E5D4BE" width="1.3" height="30.3"/>
	</g>
	<g>
		
			<rect x="477" y="10.1" transform="matrix(0.414 0.9103 -0.9103 0.414 302.0616 -420.5296)" fill="#E5D4BE" width="1.3" height="28.4"/>
	</g>
	<g>
		
			<rect x="452.7" y="6.5" transform="matrix(0.3837 0.9235 -0.9235 0.3837 299.5933 -405.1933)" fill="#E5D4BE" width="1.3" height="30.6"/>
	</g>
	<g>
		<polygon fill="#FFFFFF" points="387.2,33.3 396.8,29.6 407.2,30.8 397.8,34.4 		"/>
		<path fill="#E5D4BE" d="M397.9,35.1l-13.4-1.4l12.2-4.6l13.1,1.4L397.9,35.1z M389.8,32.9l7.9,0.8l6.8-2.7l-7.7-0.8L389.8,32.9z"
			/>
	</g>
	<g>
		<polygon fill="#FFFFFF" points="412.1,36 421.3,32.2 432.4,33.3 423.3,37.2 		"/>
		<path fill="#E5D4BE" d="M423.4,37.8l-13.9-1.5l11.7-4.8l13.7,1.4L423.4,37.8z M414.6,35.6l8.6,0.9l6.7-2.8l-8.5-0.9L414.6,35.6z"
			/>
	</g>
	<g>
		<polygon fill="#FFFFFF" points="437.6,38.7 446.4,34.8 459.3,36.1 450.6,40.1 		"/>
		<path fill="#E5D4BE" d="M450.7,40.8l-15.6-1.7l11.2-4.9l15.4,1.6L450.7,40.8z M440,38.3l10.6,1.1l6.4-3l-10.5-1.1L440,38.3z"/>
	</g>
	<g>
		
			<rect x="244.8" y="61.1" transform="matrix(0.9868 0.1618 -0.1618 0.9868 13.4705 -41.9039)" fill="#E5D4BE" width="38.2" height="1.3"/>
	</g>
	<g>
		<path fill="none" stroke="#E5D4BE" stroke-width="1.2573" stroke-miterlimit="10" d="M204.2,43.7"/>
	</g>
	<g>
		<path fill="none" stroke="#E5D4BE" stroke-width="1.2573" stroke-miterlimit="10" d="M174.3,52.6"/>
	</g>
	<g>
		<path fill="none" stroke="#E5D4BE" stroke-width="1.2573" stroke-miterlimit="10" d="M187,41.8"/>
	</g>
	<g>
		<path fill="none" stroke="#E5D4BE" stroke-width="1.2573" stroke-miterlimit="10" d="M158.6,49.8"/>
	</g>
	<g>
		<path fill="none" stroke="#E5D4BE" stroke-width="1.2573" stroke-miterlimit="10" d="M228.4,46.7"/>
	</g>
	<g>
		<path fill="none" stroke="#E5D4BE" stroke-width="1.2573" stroke-miterlimit="10" d="M191.8,55.6"/>
	</g>
	<g>
		<path fill="#FFFFFF" d="M139,48.6l42.1-11.4c1.4-0.4,2.8-0.5,4.2-0.2l55.6,8.2c1,0.2,1.1,1.6,0.2,1.9l-42.4,13.7
			c-1.5,0.5-3.1,0.6-4.7,0.3l-55-10C137.8,50.9,137.7,49,139,48.6z"/>
		<path fill="#E5D4BE" d="M195.8,61.9c-0.6,0-1.2-0.1-1.8-0.2l-55-10c-0.9-0.2-1.5-0.9-1.6-1.8s0.5-1.7,1.4-1.9L181,36.7
			c1.5-0.4,3-0.5,4.5-0.3l55.6,8.2c0.8,0.1,1.3,0.7,1.4,1.5c0.1,0.8-0.4,1.4-1.1,1.7L199,61.4C197.9,61.7,196.9,61.9,195.8,61.9z
			 M183.8,37.5c-0.9,0-1.7,0.1-2.5,0.3l-42.1,11.4c-0.4,0.1-0.5,0.4-0.5,0.7s0.2,0.6,0.5,0.6l55,10c1.5,0.3,3,0.2,4.4-0.3l42.3-13.7
			c0.2-0.1,0.2-0.3,0.2-0.4s0-0.3-0.3-0.3l-55.6-8.2C184.8,37.6,184.3,37.5,183.8,37.5z"/>
	</g>
	<g>
		
			<rect x="94.5" y="113.6" transform="matrix(0.9659 0.259 -0.259 0.9659 33.5115 -25.8518)" fill="#E5D4BE" width="40.8" height="1.3"/>
	</g>
	<g>
		
			<rect x="188.7" y="32.6" transform="matrix(0.2827 0.9592 -0.9592 0.2827 181.9576 -147.0335)" fill="#E5D4BE" width="1.3" height="31.2"/>
	</g>
	<g>
		
			<rect x="172.2" y="31" transform="matrix(0.2711 0.9625 -0.9625 0.2711 170.0378 -132.9507)" fill="#E5D4BE" width="1.3" height="29.6"/>
	</g>
	<g>
		
			<rect x="205.9" y="35.5" transform="matrix(0.2975 0.9547 -0.9547 0.2975 193.7733 -161.4055)" fill="#E5D4BE" width="1.3" height="31"/>
	</g>
	<g>
		<path fill="#F3928F" d="M79.3,101.1c-0.2,0-0.4,0-0.5,0c-10.6,0.8-21.1,1.6-31.7,2.4c-3.6,0.3-7.2,0.3-10.7-0.2
			c-6-0.9-9.6-2.5-10.7-4.8c-0.6-1.3-0.1-2.5,1.4-3.7c2.4-1.7,6.1-2.9,11.3-3.3c0.1,0,0.3,0,0.4,0c0,0,0,0,0,0
			c-0.1-0.4-0.2-0.9-0.3-1.3c-0.1-2.7,5-5.2,12.2-6c4.2-0.4,8.3-0.3,12.2,0.4c3.7,0.7,6.3,1.7,8,3.1c0.8,0.7,1.3,1.4,1.7,2.1
			c2.2,3.8,4.3,7.5,6.5,11.3C79.3,101,79.3,101,79.3,101.1z"/>
		<path fill="#0B3B58" d="M42.7,104.7c-2.2,0-4.4-0.1-6.3-0.4c-6.4-0.9-10.2-2.7-11.5-5.4c-0.5-1-0.9-3,1.7-4.9
			c2.4-1.8,6.1-2.9,11.1-3.5c0-0.1,0-0.2,0-0.4c-0.1-3.4,5.1-6.2,13.1-7c4.4-0.4,8.6-0.3,12.5,0.4c3.8,0.7,6.5,1.8,8.5,3.3
			c1,0.8,1.5,1.6,1.9,2.3l6.5,11.3c0,0,0.1,0.1,0.1,0.1c0.2,0.3,0.2,0.7,0,1s-0.5,0.5-0.8,0.5l-0.2,0c-0.1,0-0.2,0-0.2,0l-31.7,2.4
			C45.6,104.6,44.1,104.7,42.7,104.7z M39.2,92.4c0,0-0.1,0-0.1,0l-0.5,0c-5,0.5-8.6,1.5-10.8,3.1c-1.7,1.3-1.3,2.1-1.1,2.4
			c0.7,1.4,3,3.3,10,4.3c3.1,0.5,6.6,0.5,10.4,0.2l30.6-2.3l-5.8-10c-0.4-0.7-0.7-1.2-1.4-1.8c-1.7-1.3-4.2-2.3-7.6-2.9
			c-3.8-0.7-7.8-0.8-12-0.4c-7,0.7-11.3,3.1-11.3,4.9c0,0.2,0.1,0.4,0.1,0.7c0,0.1,0.1,0.2,0.1,0.3c0,0.1,0,0.2,0,0.3
			C40,91.8,39.6,92.3,39.2,92.4L39.2,92.4C39.2,92.4,39.2,92.4,39.2,92.4z"/>
	</g>
	<g>
		
			<rect x="111.7" y="40.1" transform="matrix(0.282 0.9594 -0.9594 0.282 148.5728 -56.9975)" fill="#E5D4BE" width="1.3" height="61.4"/>
	</g>
	<g>
		
			<rect x="308.4" y="355.2" transform="matrix(0.9121 0.4099 -0.4099 0.9121 174.8928 -104.1767)" fill="#E5D4BE" width="44.1" height="1.3"/>
	</g>
	<g>
		<polygon fill="#E5D4BE" points="69.9,235.6 7.7,207.4 139.3,152.4 139.7,153.6 10.9,207.4 70.4,234.5 		"/>
	</g>
	<g>
		
			<rect x="403.9" y="235.7" transform="matrix(0.7028 0.7114 -0.7114 0.7028 341.8696 -195.1709)" fill="#E5D4BE" width="1.3" height="151.7"/>
	</g>
	<g>
		
			<rect x="542.4" y="160.2" transform="matrix(0.7133 0.7009 -0.7009 0.7133 278.0218 -330.5363)" fill="#E5D4BE" width="1.3" height="28.7"/>
	</g>
	<g>
		
			<rect x="260.9" y="-2.1" transform="matrix(0.2813 0.9596 -0.9596 0.2813 213.8978 -231.5642)" fill="#E5D4BE" width="1.3" height="58.3"/>
	</g>
	<g>
		<polygon fill="#E5D4BE" points="55.9,236.4 73.7,228.2 74.7,237.2 		"/>
	</g>
	<g>
		<polygon fill="#E5D4BE" points="459.7,256.4 464.1,266.5 442.4,259.1 		"/>
	</g>
</g>
</svg>
