<?xml version="1.0" encoding="utf-8"?>
<!-- Generator: Adobe Illustrator 18.1.1, SVG Export Plug-In . SVG Version: 6.00 Build 0)  -->
<!DOCTYPE svg PUBLIC "-//W3C//DTD SVG 1.1//EN" "http://www.w3.org/Graphics/SVG/1.1/DTD/svg11.dtd">
<svg version="1.1" id="Validation_x5F_Check" xmlns="http://www.w3.org/2000/svg" xmlns:xlink="http://www.w3.org/1999/xlink"
	 x="0px" y="0px" width="75px" height="75px" viewBox="0 0 75 75" enable-background="new 0 0 75 75" xml:space="preserve">
<path fill="#9CD3B8" d="M2.7,38.4c0.5,19,15.8,33.9,35,33.9l0.3,0c9.3-0.1,18-3.8,24.5-10.5c6.5-6.7,10-15.7,9.8-25.2
	c-0.4-19-15.6-33.9-34.8-33.9c-0.2,0-0.4,0-0.6,0c-9.4,0.2-18.1,4-24.5,10.7C5.9,20.1,2.5,29,2.7,38.4z M27.1,23.3
	c0-2.6,1.2-3.2,3.4-1.9c8.2,4.7,16.4,9.5,24.6,14.2c2,1.2,2,2.6,0,3.7c-8.3,4.8-16.6,9.6-24.9,14.3c-2,1.2-3.2,0.4-3.2-1.9
	c0-4.8,0-9.6,0-14.4C27.1,32.7,27.1,28,27.1,23.3z"/>
<g>
	<path fill="#FFF7EC" d="M37.7,74.3c-20.2,0-36.5-15.8-37-35.9C0.5,28.5,4.1,19.1,10.9,12c6.8-7.1,16-11.2,25.9-11.3
		c20.6-0.3,37.1,15.5,37.4,35.9c0.2,10-3.5,19.5-10.4,26.6c-6.8,7.1-16,11-25.9,11.1L37.7,74.3z M37.5,2.7c-0.2,0-0.4,0-0.6,0
		c-9.4,0.2-18.1,4-24.5,10.7c-6.5,6.7-9.9,15.6-9.6,25c0.5,19,15.8,33.9,35,33.9l0.3,0c9.3-0.1,18-3.8,24.5-10.5
		c6.5-6.7,10-15.7,9.8-25.2C71.9,17.6,56.6,2.7,37.5,2.7z"/>
</g>
</svg>
