<?xml version="1.0" encoding="utf-8"?>
<!-- Generator: Adobe Illustrator 18.1.1, SVG Export Plug-In . SVG Version: 6.00 Build 0)  -->
<!DOCTYPE svg PUBLIC "-//W3C//DTD SVG 1.1//EN" "http://www.w3.org/Graphics/SVG/1.1/DTD/svg11.dtd">
<svg version="1.1" id="Validation_x5F_Check" xmlns="http://www.w3.org/2000/svg" xmlns:xlink="http://www.w3.org/1999/xlink"
	 x="0px" y="0px" width="570px" height="400.7px" viewBox="0 0 570 400.7" enable-background="new 0 0 570 400.7"
	 xml:space="preserve">
<g>
	<g>
		<g>
			<g>
				<polygon fill="#FFFFFF" points="69.1,28.5 68.3,40 108,37.9 110.6,86.1 118,86.6 121.9,32.2 				"/>
				<path fill="#0B3B58" d="M118,87.6C118,87.6,117.9,87.6,118,87.6l-7.4-0.5c-0.5,0-0.9-0.4-0.9-0.9l-2.6-47.2L68.4,41
					c-0.3,0-0.6-0.1-0.8-0.3c-0.2-0.2-0.3-0.5-0.3-0.8l0.8-11.5c0-0.6,0.5-1,1.1-0.9l52.7,3.8c0.3,0,0.5,0.1,0.7,0.3
					c0.2,0.2,0.3,0.5,0.2,0.7L119,86.7c0,0.3-0.1,0.5-0.3,0.7C118.5,87.5,118.2,87.6,118,87.6z M111.6,85.2l5.5,0.4l3.7-52.4
					l-50.7-3.6L69.4,39l38.6-2.1c0.5,0,1,0.4,1.1,0.9L111.6,85.2z"/>
			</g>
			<g>
				
					<rect x="56.7" y="39.3" transform="matrix(0.9985 -5.439487e-02 5.439487e-02 0.9985 -3.4954 4.6186)" fill="#FFFFFF" width="52.9" height="54.5"/>
				<path fill="#0B3B58" d="M58.2,96.2c-0.2,0-0.5-0.1-0.7-0.3c-0.2-0.2-0.3-0.4-0.3-0.7l-3-54.5c0-0.3,0.1-0.5,0.3-0.7
					c0.2-0.2,0.4-0.3,0.7-0.3l52.8-2.9c0.5,0,1,0.4,1.1,0.9l3,54.4c0,0.6-0.4,1-0.9,1.1L58.2,96.2C58.2,96.2,58.2,96.2,58.2,96.2z
					 M56.3,41.7l2.9,52.5l50.8-2.8l-2.9-52.5L56.3,41.7z"/>
			</g>
			<g>
				<path fill="#F3928F" d="M106.8,79.5l0.6,10.1l-45.9,2.5L60.9,82l10-10.6c1.6-1.5,3.8-1.7,5.6-0.6l10.9,7c2.3,1.5,5,0.7,6.6-1.8
					l0.9-1c1.7-1.9,4.6-2,6.4-0.3L106.8,79.5z"/>
			</g>
			<g>
				<circle fill="#FBEA75" cx="93.9" cy="51.9" r="5.8"/>
			</g>
		</g>
		<g>
			<g>
				<circle fill="#FFFFFF" cx="85.7" cy="272.9" r="30.4"/>
				<path fill="#0B3B58" d="M85.7,304.4c-17.3,0-31.4-14.1-31.4-31.4s14.1-31.4,31.4-31.4s31.4,14.1,31.4,31.4S103,304.4,85.7,304.4
					z M85.7,243.5c-16.2,0-29.4,13.2-29.4,29.4s13.2,29.4,29.4,29.4s29.4-13.2,29.4-29.4S101.9,243.5,85.7,243.5z"/>
			</g>
			<g>
				<path fill="#0D9AB4" d="M99.5,271.5c1.1,0.6,1.1,2.3,0,2.9l-9.2,5.3l-9.2,5.3c-1.1,0.6-2.5-0.2-2.5-1.5v-10.6v-10.6
					c0-1.3,1.4-2.1,2.5-1.5l9.2,5.3L99.5,271.5z"/>
			</g>
		</g>
		<g>
			<g>
				<g>
					<path fill="#0B3B58" d="M66.5,151.9H55.2c-0.6,0-1-0.4-1-1v-11.3c0-0.6,0.4-1,1-1h4.2c0.6,0,1,0.4,1,1s-0.4,1-1,1h-3.2v9.3h9.3
						v-3.2c0-0.6,0.4-1,1-1s1,0.4,1,1v4.2C67.5,151.5,67.1,151.9,66.5,151.9z"/>
				</g>
				<g>
					<path fill="#7DC271" d="M61.3,147.4l-3-3c-0.4-0.4-0.4-1,0-1.4c0.4-0.4,1-0.4,1.4,0l1.6,1.6l2.9-2.9c0.4-0.4,1-0.4,1.4,0
						s0.4,1,0,1.4L61.3,147.4z"/>
				</g>
			</g>
			<g>
				<path fill="#0B3B58" d="M120.3,147.1H73.8c-0.6,0-1-0.4-1-1s0.4-1,1-1h46.5c0.6,0,1,0.4,1,1S120.9,147.1,120.3,147.1z"/>
			</g>
			<g>
				<g>
					<path fill="#0B3B58" d="M120.3,168.8H73.8c-0.6,0-1-0.4-1-1s0.4-1,1-1h46.5c0.6,0,1,0.4,1,1S120.9,168.8,120.3,168.8z"/>
				</g>
				<g>
					<path fill="#0B3B58" d="M65.8,174.8h-9.9c-0.9,0-1.7-0.8-1.7-1.7v-9.9c0-0.9,0.8-1.7,1.7-1.7h9.9c0.9,0,1.7,0.8,1.7,1.7v9.9
						C67.5,174,66.8,174.8,65.8,174.8z M56.2,172.8h9.3v-9.3h-9.3V172.8z"/>
				</g>
			</g>
			<g>
				<g>
					<path fill="#0B3B58" d="M120.3,191.6H73.8c-0.6,0-1-0.4-1-1s0.4-1,1-1h46.5c0.6,0,1,0.4,1,1S120.9,191.6,120.3,191.6z"/>
				</g>
				<g>
					<path fill="#0B3B58" d="M65.8,197.6h-9.9c-0.9,0-1.7-0.8-1.7-1.7V186c0-0.9,0.8-1.7,1.7-1.7h9.9c0.9,0,1.7,0.8,1.7,1.7v9.9
						C67.5,196.9,66.8,197.6,65.8,197.6z M56.2,195.6h9.3v-9.3h-9.3V195.6z"/>
				</g>
			</g>
		</g>
		<g>
			<g>
				<path fill="#0B3B58" d="M150.8,375.1H55.2c-0.6,0-1-0.4-1-1s0.4-1,1-1h95.6c0.6,0,1,0.4,1,1S151.4,375.1,150.8,375.1z"/>
			</g>
			<g>
				<path fill="#EE596C" d="M83.9,363.8c-0.3,0-0.5-0.1-0.7-0.3c-0.4-0.4-0.4-1,0-1.4c0.1-0.1,9.7-9.2,12.2-14.4
					c0.4-0.8,0.9-1.8,1.9-1.4c1,0.4,1.4,0.6-2.9,13.9l2.7-1.4c0.3-0.2,0.7-0.2,1,0c0.3,0.2,0.5,0.5,0.5,0.8l0,0c0,0,0.1,0.8,0.6,1.1
					c0.5,0.3,1.3,0.2,1.9,0.1c2.5-0.7,3.9-1.7,5.1-2.6c0.4-0.3,0.8-0.6,1.2-0.9c0.5-0.3,1-0.3,1.5-0.2c1.2,0.5,2.1,2.5,2.7,4
					l4.6-2.5c0.3-0.2,0.6-0.2,0.9,0c0.2,0.1,0.4,0.3,0.5,0.5c0.2,0.2,2,1.2,10.3,0.4c0.5-0.1,1,0.3,1.1,0.9c0.1,0.5-0.3,1-0.9,1.1
					c-7.2,0.8-10.4,0.2-11.6-0.7l-5,2.7c-0.3,0.1-0.6,0.2-0.9,0c-0.3-0.1-0.5-0.4-0.6-0.6c-0.5-1.7-1.3-3.4-1.7-3.8
					c-0.3,0.2-0.6,0.4-0.9,0.7c-1.3,1-2.9,2.2-5.8,3c-1.5,0.4-2.7,0.3-3.6-0.4c-0.5-0.4-0.8-0.8-1-1.2l-3.7,2
					c-0.4,0.2-0.8,0.1-1.1-0.1c-0.3-0.3-0.4-0.7-0.3-1.1c1.1-3.3,2.1-6.8,2.9-9.5c-3.8,5.1-9.8,10.8-10.2,11.1
					C84.4,363.8,84.1,363.8,83.9,363.8z"/>
			</g>
			<g>
				<g>
					<path fill="#0B3B58" d="M56.5,365.2c-0.3,0-0.5-0.1-0.7-0.3c-0.4-0.4-0.4-1,0-1.4l5.1-5.1c0.4-0.4,1-0.4,1.4,0s0.4,1,0,1.4
						l-5.1,5.1C57,365.1,56.7,365.2,56.5,365.2z"/>
				</g>
				<g>
					<path fill="#0B3B58" d="M61.6,365.2c-0.3,0-0.5-0.1-0.7-0.3l-5.1-5.1c-0.4-0.4-0.4-1,0-1.4s1-0.4,1.4,0l5.1,5.1
						c0.4,0.4,0.4,1,0,1.4C62.1,365.1,61.9,365.2,61.6,365.2z"/>
				</g>
			</g>
		</g>
	</g>
	<g>
		<g>
			<circle fill="#EE596C" cx="218.1" cy="201.3" r="48.7"/>
			<path fill="#0B3B58" d="M218.1,251c-27.4,0-49.7-22.3-49.7-49.7s22.3-49.7,49.7-49.7s49.7,22.3,49.7,49.7S245.5,251,218.1,251z
				 M218.1,153.6c-26.3,0-47.7,21.4-47.7,47.7s21.4,47.7,47.7,47.7c26.3,0,47.7-21.4,47.7-47.7S244.4,153.6,218.1,153.6z"/>
		</g>
		<g>
			<g>
				<path fill="#FFFFFF" d="M215.5,208.9c-1-0.7-1.8-1.4-2.6-2.1c-7.1,5.8-21.4,17.5-21.6,17.7l1.4,1.8l-0.2-0.2l1.5,1.9
					c0.8-0.6,15.6-12.8,22.3-18.3C216.1,209.3,215.8,209.1,215.5,208.9z"/>
			</g>
			<g>
				<path fill="#FFFFFF" d="M219.8,200.9c0.3,0.3,0.6,0.5,1,0.8c0.9,0.6,1.7,1.3,2.5,2.1c2.5-2.4,4.9-5.6,4.9-10.2
					c0-6.4-4.5-11.6-10.1-11.6c-5.5,0-10.1,5.2-10,11.3l2.3,0.3l-2.3-0.3c-0.1,0.7-0.6,6.9,8.7,13.8c6.2,4.5,7.3,10.3,5.8,13.8
					c-1.5,3.5-5.4,5-10.3,4l-0.5,2.5l0.5-2.5c-2.6-0.5-5-1.6-7.1-3.1c-1.2,1-2.4,2-3.5,2.9c2.9,2.2,6.2,3.9,9.8,4.6h0l0,0
					c1.3,0.3,2.6,0.4,3.8,0.4c6.2,0,10-3.4,11.5-7c2.7-6.3-0.2-14.2-7.2-19.2c-7.1-5.3-6.9-9.6-6.9-9.6l0,0c0-0.2,0-0.3,0-0.3
					c0-3.9,2.5-7.1,5.6-7.1s5.6,3.2,5.6,7.1C223.7,196.7,221.8,199,219.8,200.9z"/>
			</g>
			<g>
				<path fill="#FFFFFF" d="M218.1,173c-15.3,0-27.7,12.5-27.7,27.8c0,6.4,1.9,12.5,5,17.3c1.1-0.9,2.3-1.9,3.5-2.8
					c-2.6-4.1-4-9.1-4-14.5c0-12.9,10.4-23.3,23.2-23.3c12.8,0,23.2,10.5,23.2,23.3c0,6.7-2.9,13.1-8,17.6l2.9,3.4
					c6-5.3,9.5-12.9,9.5-20.9C245.8,185.4,233.4,173,218.1,173z"/>
			</g>
		</g>
	</g>
	<g>
		<g>
			<g>
				<path fill="#FFFFFF" d="M515.5,333h-195c-0.9,0-1.6-0.7-1.6-1.6v-256c0-0.9,0.7-1.6,1.6-1.6h195c0.9,0,1.6,0.7,1.6,1.6v256
					C517.2,332.3,516.4,333,515.5,333z"/>
				<path fill="#0B3B58" d="M515.5,334h-195c-1.5,0-2.6-1.2-2.6-2.6v-256c0-1.5,1.2-2.6,2.6-2.6h195c1.5,0,2.6,1.2,2.6,2.6v256
					C518.2,332.8,517,334,515.5,334z M320.5,74.7c-0.4,0-0.6,0.3-0.6,0.6v256c0,0.4,0.3,0.6,0.6,0.6h195c0.4,0,0.6-0.3,0.6-0.6v-256
					c0-0.4-0.3-0.6-0.6-0.6H320.5z"/>
			</g>
			<g>
				<path fill="#FFFFFF" d="M318.9,91.9V75.6c0-1,0.9-1.8,2.1-1.8h194.1c1.2,0,2.1,0.8,2.1,1.8v16.4"/>
				<path fill="#0B3B58" d="M518.2,91.9h-2V75.6c0-0.4-0.5-0.8-1.1-0.8H321c-0.6,0-1.1,0.4-1.1,0.8v16.4h-2V75.6
					c0-1.6,1.4-2.8,3.1-2.8h194.1c1.7,0,3.1,1.3,3.1,2.8V91.9z"/>
			</g>
			<g>
				<circle fill="#FFFFFF" cx="328.8" cy="82.8" r="3.5"/>
				<path fill="#0B3B58" d="M328.8,87.3c-2.5,0-4.5-2-4.5-4.5s2-4.5,4.5-4.5s4.5,2,4.5,4.5S331.3,87.3,328.8,87.3z M328.8,80.3
					c-1.4,0-2.5,1.1-2.5,2.5c0,1.4,1.1,2.5,2.5,2.5s2.5-1.1,2.5-2.5C331.3,81.4,330.2,80.3,328.8,80.3z"/>
			</g>
			<g>
				<circle fill="#FFFFFF" cx="338.8" cy="82.8" r="3.5"/>
				<path fill="#0B3B58" d="M338.8,87.3c-2.5,0-4.5-2-4.5-4.5s2-4.5,4.5-4.5s4.5,2,4.5,4.5S341.3,87.3,338.8,87.3z M338.8,80.3
					c-1.4,0-2.5,1.1-2.5,2.5c0,1.4,1.1,2.5,2.5,2.5c1.4,0,2.5-1.1,2.5-2.5C341.3,81.4,340.2,80.3,338.8,80.3z"/>
			</g>
			<g>
				<circle fill="#FFFFFF" cx="348.8" cy="82.8" r="3.5"/>
				<path fill="#0B3B58" d="M348.8,87.3c-2.5,0-4.5-2-4.5-4.5s2-4.5,4.5-4.5s4.5,2,4.5,4.5S351.3,87.3,348.8,87.3z M348.8,80.3
					c-1.4,0-2.5,1.1-2.5,2.5c0,1.4,1.1,2.5,2.5,2.5s2.5-1.1,2.5-2.5C351.4,81.4,350.2,80.3,348.8,80.3z"/>
			</g>
			<g>
				<rect x="318.9" y="91.9" fill="#FFFFFF" width="101.1" height="109.7"/>
				<path fill="#0B3B58" d="M420,202.6H318.9c-0.6,0-1-0.4-1-1V91.9c0-0.6,0.4-1,1-1H420c0.6,0,1,0.4,1,1v109.7
					C421,202.1,420.5,202.6,420,202.6z M319.9,200.6H419V92.9h-99.1V200.6z"/>
			</g>
			<g>
				<line fill="#FFFFFF" x1="318.9" y1="202" x2="517.2" y2="202"/>
				<rect x="318.9" y="201" fill="#0B3B58" width="198.3" height="2"/>
			</g>
			<g>
				<line fill="#FFFFFF" x1="420" y1="92.9" x2="420" y2="201.6"/>
				<rect x="419" y="92.9" fill="#0B3B58" width="2" height="108.7"/>
			</g>
			<g>
				<path fill="#FFFFFF" d="M515.5,333h-195c-0.9,0-1.6-0.7-1.6-1.6v-256c0-0.9,0.7-1.6,1.6-1.6h195c0.9,0,1.6,0.7,1.6,1.6v256
					C517.2,332.3,516.4,333,515.5,333z"/>
				<path fill="#0B3B58" d="M515.5,334h-195c-1.5,0-2.6-1.2-2.6-2.6v-256c0-1.5,1.2-2.6,2.6-2.6h195c1.5,0,2.6,1.2,2.6,2.6v256
					C518.2,332.8,517,334,515.5,334z M320.5,74.7c-0.4,0-0.6,0.3-0.6,0.6v256c0,0.4,0.3,0.6,0.6,0.6h195c0.4,0,0.6-0.3,0.6-0.6v-256
					c0-0.4-0.3-0.6-0.6-0.6H320.5z"/>
			</g>
		</g>
		<g>
			<g>
				<line fill="#FFF1DB" x1="318.9" y1="91.9" x2="517.1" y2="91.9"/>
				<path fill="#0B3B58" d="M517.1,92.9H318.9c-0.6,0-1-0.4-1-1s0.4-1,1-1h198.2c0.6,0,1,0.4,1,1S517.7,92.9,517.1,92.9z"/>
			</g>
			<g>
				<line fill="#FFF1DB" x1="318.9" y1="204.6" x2="517.1" y2="204.6"/>
				<path fill="#0B3B58" d="M517.1,205.6H318.9c-0.6,0-1-0.4-1-1s0.4-1,1-1h198.2c0.6,0,1,0.4,1,1S517.7,205.6,517.1,205.6z"/>
			</g>
			<g>
				<g>
					<circle fill="#CFD8DE" cx="329.7" cy="82.8" r="3.2"/>
				</g>
				<g>
					<circle fill="#CFD8DE" cx="338.8" cy="82.8" r="3.2"/>
				</g>
				<g>
					<circle fill="#CFD8DE" cx="347.9" cy="82.8" r="3.2"/>
				</g>
			</g>
			<g>
				<path fill="#FBEA75" d="M418.7,332.9h-98.5c-0.7,0-1.3-0.6-1.3-1.3V205.7c0-0.7,0.6-1.3,1.3-1.3h98.5c0.7,0,1.3,0.6,1.3,1.3
					v125.9C420,332.3,419.4,332.9,418.7,332.9z"/>
				<path fill="#0B3B58" d="M418.7,333.9h-98.5c-1.3,0-2.3-1-2.3-2.3V205.7c0-1.3,1-2.3,2.3-2.3h98.5c1.3,0,2.3,1,2.3,2.3v125.9
					C421,332.9,419.9,333.9,418.7,333.9z M320.2,205.5c-0.2,0-0.3,0.1-0.3,0.3v125.9c0,0.2,0.1,0.3,0.3,0.3h98.5
					c0.2,0,0.3-0.1,0.3-0.3V205.7c0-0.2-0.1-0.3-0.3-0.3H320.2z"/>
			</g>
			<g>
				<polyline fill="#FFF1DB" points="338,258.4 333.6,262.9 332.1,261.4 				"/>
				<path fill="#C3CA6B" d="M333.6,263.9c-0.3,0-0.5-0.1-0.7-0.3l-1.5-1.6c-0.4-0.4-0.4-1,0-1.4c0.4-0.4,1-0.4,1.4,0l0.8,0.8
					l3.7-3.8c0.4-0.4,1-0.4,1.4,0c0.4,0.4,0.4,1,0,1.4l-4.4,4.6C334.2,263.8,333.9,263.9,333.6,263.9z"/>
			</g>
			<g>
				<path fill="#C3CA6B" d="M407.6,264.1h-61.4c-0.6,0-1-0.4-1-1s0.4-1,1-1h61.4c0.6,0,1,0.4,1,1S408.1,264.1,407.6,264.1z"/>
			</g>
			<g>
				<polyline fill="#FFF1DB" points="338.2,270.1 333.7,274.6 332.1,273.1 				"/>
				<path fill="#C3CA6B" d="M333.7,275.6c-0.3,0-0.5-0.1-0.7-0.3l-1.6-1.6c-0.4-0.4-0.4-1,0-1.4s1-0.4,1.4,0l0.9,0.9l3.9-3.9
					c0.4-0.4,1-0.4,1.4,0s0.4,1,0,1.4l-4.6,4.6C334.2,275.5,333.9,275.6,333.7,275.6z"/>
			</g>
			<g>
				<path fill="#C3CA6B" d="M385.9,276.1h-39.1c-0.6,0-1-0.4-1-1s0.4-1,1-1h39.1c0.6,0,1,0.4,1,1S386.5,276.1,385.9,276.1z"/>
			</g>
			<g>
				<path fill="#C3CA6B" d="M399.4,286.7h-52.6c-0.6,0-1-0.4-1-1s0.4-1,1-1h52.6c0.6,0,1,0.4,1,1S399.9,286.7,399.4,286.7z"/>
			</g>
			<g>
				<path fill="#C3CA6B" d="M399.4,297.7h-52.6c-0.6,0-1-0.4-1-1s0.4-1,1-1h52.6c0.6,0,1,0.4,1,1S399.9,297.7,399.4,297.7z"/>
			</g>
			<g>
				<path fill="#C3CA6B" d="M408.5,308.3h-62.4c-0.6,0-1-0.4-1-1s0.4-1,1-1h62.4c0.6,0,1,0.4,1,1S409.1,308.3,408.5,308.3z"/>
			</g>
			<g>
				<rect x="327.4" y="227.5" fill="#C3CA6B" width="81.9" height="5.5"/>
			</g>
			<g>
				<rect x="327.4" y="237.8" fill="#C3CA6B" width="55.2" height="5.5"/>
			</g>
			<g>
				<circle fill="#C3CA6B" cx="335.3" cy="286" r="2.5"/>
			</g>
			<g>
				<circle fill="#C3CA6B" cx="335.3" cy="296.7" r="2.5"/>
			</g>
			<g>
				<circle fill="#C3CA6B" cx="335.3" cy="307.3" r="2.5"/>
			</g>
			<g>
				
					<rect x="449.6" y="221" transform="matrix(1 -7.292681e-03 7.292681e-03 1 -1.7419 3.4235)" fill="#B7D893" width="38" height="39.2"/>
				<path fill="#0B3B58" d="M449.7,261.3c-0.5,0-1-0.4-1-1l-0.3-39.2c0-0.3,0.1-0.5,0.3-0.7c0.2-0.2,0.4-0.3,0.7-0.3l38-0.3
					c0,0,0,0,0,0c0.5,0,1,0.4,1,1l0.3,39.2c0,0.3-0.1,0.5-0.3,0.7c-0.2,0.2-0.4,0.3-0.7,0.3L449.7,261.3
					C449.7,261.3,449.7,261.3,449.7,261.3z M450.4,222.1l0.3,37.2l36-0.3l-0.3-37.2L450.4,222.1z"/>
			</g>
			<g>
				<path fill="#7DC271" d="M485.2,250.7l0.1,7.3l-33,0.2l-0.1-7.3l7.5-7.3c1.2-1,2.8-1.1,4-0.2l7.6,5.4c1.6,1.1,3.6,0.7,4.8-1.1
					l0.7-0.7c1.3-1.3,3.4-1.3,4.6,0L485.2,250.7z"/>
			</g>
			<g>
				<circle fill="#7DC271" cx="476.8" cy="230.5" r="4.2"/>
			</g>
			<g>
				
					<rect x="449.7" y="276.3" transform="matrix(1 -7.292681e-03 7.292681e-03 1 -2.1454 3.4257)" fill="#B7D893" width="38" height="39.2"/>
				<path fill="#0B3B58" d="M449.8,316.6c-0.5,0-1-0.4-1-1l-0.3-39.2c0-0.3,0.1-0.5,0.3-0.7c0.2-0.2,0.4-0.3,0.7-0.3l38-0.3
					c0.3,0,0.5,0.1,0.7,0.3c0.2,0.2,0.3,0.4,0.3,0.7l0.3,39.2c0,0.3-0.1,0.5-0.3,0.7c-0.2,0.2-0.4,0.3-0.7,0.3L449.8,316.6
					C449.8,316.6,449.8,316.6,449.8,316.6z M450.5,277.4l0.3,37.2l36-0.3l-0.3-37.2L450.5,277.4z"/>
			</g>
			<g>
				<path fill="#7DC271" d="M485.3,306l0.1,7.3l-33,0.2l-0.1-7.3l7.5-7.3c1.2-1,2.8-1.1,4-0.2l7.6,5.4c1.6,1.1,3.6,0.7,4.8-1.1
					l0.7-0.7c1.3-1.3,3.4-1.3,4.6,0L485.3,306z"/>
			</g>
			<g>
				<circle fill="#7DC271" cx="476.9" cy="285.8" r="4.2"/>
			</g>
			<g>
				<rect x="419" y="203.4" fill="#0B3B58" width="2" height="129.6"/>
			</g>
			<g>
				<g>
					<rect x="369.9" y="111" fill="#52BDC5" width="97.2" height="71.4"/>
					<path fill="#0B3B58" d="M467.1,183.4h-97.2c-0.6,0-1-0.4-1-1V111c0-0.6,0.4-1,1-1h97.2c0.6,0,1,0.4,1,1v71.4
						C468.1,182.9,467.7,183.4,467.1,183.4z M370.9,181.4h95.2V112h-95.2V181.4z"/>
				</g>
				<g>
					<g>
						<path fill="#0D9AB4" d="M418.5,163.6c-9.3,0-16.9-7.6-16.9-16.9c0-9.3,7.6-16.9,16.9-16.9s16.9,7.6,16.9,16.9
							C435.5,156,427.9,163.6,418.5,163.6z M418.5,131.7c-8.2,0-14.9,6.7-14.9,14.9s6.7,14.9,14.9,14.9s14.9-6.7,14.9-14.9
							S426.8,131.7,418.5,131.7z"/>
					</g>
					<g>
						<path fill="#0D9AB4" d="M425.7,145.9c0.6,0.3,0.6,1.2,0,1.5l-4.8,2.8l-4.8,2.8c-0.6,0.3-1.3-0.1-1.3-0.8v-5.5v-5.5
							c0-0.7,0.7-1.1,1.3-0.8l4.8,2.8L425.7,145.9z"/>
					</g>
				</g>
			</g>
		</g>
	</g>
</g>
</svg>
