<?xml version="1.0" encoding="utf-8"?>
<!-- Generator: Adobe Illustrator 18.1.1, SVG Export Plug-In . SVG Version: 6.00 Build 0)  -->
<!DOCTYPE svg PUBLIC "-//W3C//DTD SVG 1.1//EN" "http://www.w3.org/Graphics/SVG/1.1/DTD/svg11.dtd">
<svg version="1.1" id="Validation_x5F_Check" xmlns="http://www.w3.org/2000/svg" xmlns:xlink="http://www.w3.org/1999/xlink"
	 x="0px" y="0px" width="135px" height="135px" viewBox="0 0 135 135" enable-background="new 0 0 135 135" xml:space="preserve">
<g>
	<g>
		<path fill="#FBEA75" d="M78.3,58.9c-0.3,0.4-0.8,1.2-1.4,1.8c-3,3.2-3.1,6.8,0,10c7,7.3,14.1,14.5,21.2,21.8
			c5.8,5.9,6,6,11.8,11.9c1.4,1.4,2.7,2.9,3.1,4.9c0.7,3.2-1.4,5.2-4.5,4.3c-1.7-0.4-3-1.4-4.2-2.6c-10-10.3-14.4-14.7-24.4-25
			c-3-3.1-6.1-6.3-9.1-9.4c-3-3-6.6-3.2-9.8-0.3c-3.1,2.8-6.8,2.7-9.7-0.3c-4-4.1-8-8.2-12-12.3c-3.1-3.2-3.1-7,0.1-10
			c5.1-5,10.2-10,15.4-15c3.2-3.1,6.9-3,10,0.1c4,4.1,8,8.3,12.1,12.4C78.9,53.3,79.5,55.7,78.3,58.9z"/>
	</g>
	<g>
		<path fill="#FBEA75" d="M29.5,60.8c0.8,0.6,1.7,1.2,2.4,1.9c6.7,6.8,13.3,13.7,20,20.6c0.8,0.8,1.5,1.8,1.9,2.9
			c1,2.4,0.4,4.9-1.3,6.3c-1.7,1.4-4.4,1.5-6.5,0.2c-0.8-0.5-1.5-1.1-2.1-1.8c-6.6-6.7-13.2-13.5-19.7-20.3
			c-0.7-0.7-1.2-1.5-1.7-2.4c-1.1-2.2-0.8-4.8,0.7-6.3C24.7,60.4,27.1,60,29.5,60.8z"/>
	</g>
	<g>
		<path fill="#FBEA75" d="M70.7,21.9c0.4,0.3,1.3,0.9,2,1.6c6.7,6.9,13.4,13.8,20.2,20.7c1.2,1.3,2,2.7,2.2,4.5
			c0.3,3.6-2.7,6.3-6.3,5.4c-1.4-0.4-2.8-1.2-3.8-2.2c-6.8-6.8-13.4-13.7-20.1-20.6c-0.7-0.7-1.3-1.6-1.7-2.6
			c-1-2.3-0.6-4.7,0.9-6.1C65.8,20.8,67.9,20.8,70.7,21.9z"/>
	</g>
</g>
</svg>
