<?xml version="1.0" encoding="utf-8"?>
<!-- Generator: Adobe Illustrator 18.1.1, SVG Export Plug-In . SVG Version: 6.00 Build 0)  -->
<!DOCTYPE svg PUBLIC "-//W3C//DTD SVG 1.1//EN" "http://www.w3.org/Graphics/SVG/1.1/DTD/svg11.dtd">
<svg version="1.1" id="Validation_x5F_Check" xmlns="http://www.w3.org/2000/svg" xmlns:xlink="http://www.w3.org/1999/xlink"
	 x="0px" y="0px" width="25px" height="25px" viewBox="0 0 25 25" enable-background="new 0 0 25 25" xml:space="preserve">
<g>
	<path fill="#FFFFFF" d="M12.8,24.4C9,24.3,6,23.1,3.5,20.7c-0.1-0.1-0.1-0.2-0.1-0.3c0.2-2.3,1.1-4.4,2.8-6C6.7,13.8,7.4,13.4,8,13
		c0.1-0.1,0.2-0.1,0.3,0c2.3,2,5.7,2,8.2,0.2c0.4-0.3,0.4-0.3,0.9,0c2.3,1.5,3.8,3.7,4.2,6.5c0.1,0.9,0.1,0.9-0.6,1.5
		c-1.8,1.6-4,2.7-6.4,3C13.9,24.3,13.2,24.4,12.8,24.4z"/>
	<path fill="#FFFFFF" d="M7.1,6.1c0-1.6,0.7-3.3,2.3-4.5c2.4-1.8,6.7-1.3,8.1,2.6c0.8,2.2,0.5,4.3-1,6.2c-2.3,2.9-6.9,2.4-8.7-0.9
		C7.4,8.5,7.1,7.5,7.1,6.1z"/>
</g>
</svg>
