<?xml version="1.0" encoding="utf-8"?>
<!-- Generator: Adobe Illustrator 18.1.1, SVG Export Plug-In . SVG Version: 6.00 Build 0)  -->
<!DOCTYPE svg PUBLIC "-//W3C//DTD SVG 1.1//EN" "http://www.w3.org/Graphics/SVG/1.1/DTD/svg11.dtd">
<svg version="1.1" id="x-icon" xmlns="http://www.w3.org/2000/svg" xmlns:xlink="http://www.w3.org/1999/xlink"
	 x="0px" y="0px" viewBox="0 0 25 25" enable-background="new 0 0 25 25" xml:space="preserve">
<path fill="#0B3B58" d="M12.5,24.5c-6.6,0-12.1-5.4-12-12.2C0.6,5.8,6,0.4,12.7,0.5c6.5,0.1,11.8,5.4,11.8,12
	C24.5,19.1,19.1,24.5,12.5,24.5z M23,12.5C22.9,6.7,18.3,2,12.5,2C6.7,2,2,6.7,2,12.5C2,18.3,6.8,23,12.5,23
	C18.3,23,22.9,18.3,23,12.5z"/>
<path fill="#0B3B58" d="M16.8,14.9L14,12.4l2.5-2.8c0.4-0.4,0.3-1.1-0.1-1.5c-0.4-0.4-1.1-0.3-1.5,0.1L12.4,11L9.6,8.5
	C9.2,8.1,8.5,8.1,8.1,8.6S7.8,9.6,8.2,10l2.8,2.5l-2.5,2.8c-0.4,0.4-0.3,1.1,0.1,1.5c0.4,0.4,1.1,0.3,1.5-0.1l2.5-2.8l2.8,2.5
	c0.4,0.4,1.1,0.3,1.5-0.1C17.3,15.9,17.2,15.3,16.8,14.9z"/>
</svg>
